<svg class="main-svg" xmlns="http://www.w3.org/2000/svg" xmlns:xlink="http://www.w3.org/1999/xlink" width="1920" height="1080" style="" viewBox="0 0 960 540"><rect x="0" y="0" width="960" height="540" style="fill: rgb(255, 255, 255); fill-opacity: 1;"/><defs id="defs-135640"><g class="clips"><clipPath id="clip135640xyplot" class="plotclip"><rect width="660" height="380"/></clipPath><clipPath class="axesclip" id="clip135640x"><rect x="80" y="0" width="660" height="540"/></clipPath><clipPath class="axesclip" id="clip135640y"><rect x="0" y="80" width="960" height="380"/></clipPath><clipPath class="axesclip" id="clip135640xy"><rect x="80" y="80" width="660" height="380"/></clipPath></g><g class="gradients"/><g class="patterns"/></defs><g class="bglayer"><rect class="bg" x="80" y="80" width="660" height="380" style="fill: rgb(229, 236, 246); fill-opacity: 1; stroke-width: 0;"/></g><g class="layer-below"><g class="imagelayer"/><g class="shapelayer"/></g><g class="cartesianlayer"><g class="subplot xy"><g class="layer-subplot"><g class="shapelayer"/><g class="imagelayer"/></g><g class="minor-gridlayer"><g class="x"/><g class="y"/></g><g class="gridlayer"><g class="x"><path class="xgrid crisp" transform="translate(248.71,0)" d="M0,80v380" style="stroke: rgb(255, 255, 255); stroke-opacity: 1; stroke-width: 1px;"/><path class="xgrid crisp" transform="translate(417.44,0)" d="M0,80v380" style="stroke: rgb(255, 255, 255); stroke-opacity: 1; stroke-width: 1px;"/><path class="xgrid crisp" transform="translate(586.1700000000001,0)" d="M0,80v380" style="stroke: rgb(255, 255, 255); stroke-opacity: 1; stroke-width: 1px;"/></g><g class="y"><path class="ygrid crisp" transform="translate(0,417.78)" d="M80,0h660" style="stroke: rgb(255, 255, 255); stroke-opacity: 1; stroke-width: 1px;"/><path class="ygrid crisp" transform="translate(0,375.56)" d="M80,0h660" style="stroke: rgb(255, 255, 255); stroke-opacity: 1; stroke-width: 1px;"/><path class="ygrid crisp" transform="translate(0,333.33000000000004)" d="M80,0h660" style="stroke: rgb(255, 255, 255); stroke-opacity: 1; stroke-width: 1px;"/><path class="ygrid crisp" transform="translate(0,291.11)" d="M80,0h660" style="stroke: rgb(255, 255, 255); stroke-opacity: 1; stroke-width: 1px;"/><path class="ygrid crisp" transform="translate(0,248.89)" d="M80,0h660" style="stroke: rgb(255, 255, 255); stroke-opacity: 1; stroke-width: 1px;"/><path class="ygrid crisp" transform="translate(0,206.67000000000002)" d="M80,0h660" style="stroke: rgb(255, 255, 255); stroke-opacity: 1; stroke-width: 1px;"/><path class="ygrid crisp" transform="translate(0,164.44)" d="M80,0h660" style="stroke: rgb(255, 255, 255); stroke-opacity: 1; stroke-width: 1px;"/><path class="ygrid crisp" transform="translate(0,122.22)" d="M80,0h660" style="stroke: rgb(255, 255, 255); stroke-opacity: 1; stroke-width: 1px;"/></g></g><g class="zerolinelayer"><path class="yzl zl crisp" transform="translate(0,460)" d="M80,0h660" style="stroke: rgb(255, 255, 255); stroke-opacity: 1; stroke-width: 2px;"/></g><g class="layer-between"><g class="shapelayer"/><g class="imagelayer"/></g><path class="xlines-below"/><path class="ylines-below"/><g class="overlines-below"/><g class="xaxislayer-below"/><g class="yaxislayer-below"/><g class="overaxes-below"/><g class="overplot"><g class="xy" transform="translate(80,80)" clip-path="url(#clip135640xyplot)"><g class="scatterlayer mlayer"><g class="trace scatter tracea27aff" style="stroke-miterlimit: 2; opacity: 1;"><g class="fills"/><g class="errorbars"/><g class="lines"><path class="js-line" d="M0,128.7L0.33,130.22L0.66,126.01L1.68,133.7L2.01,129.49L2.35,133.72L2.69,130.44L3.03,126.34L3.72,129.89L4.04,128.74L4.38,114.35L4.72,124.66L5.07,108.5L5.39,111.71L5.73,108.81L6.07,108.56L6.41,108.17L6.75,105.91L7.76,108.9L8.1,108.11L8.43,105.08L8.78,108.21L9.11,107.43L9.45,103.88L9.78,107.07L10.13,108.61L10.8,106.89L11.14,107.43L11.48,102.74L11.81,106.59L12.15,106.8L12.82,107.82L13.16,107.38L13.5,107.96L14.17,106.55L14.51,107.38L14.85,110.47L15.2,109.27L15.53,107.01L15.86,106.68L16.2,107.84L16.54,106.59L16.88,107.84L17.21,107.76L17.57,110.57L17.89,107.01L18.23,107.84L18.57,107.46L18.92,107.38L19.24,106.99L19.58,109.37L19.92,106.6L20.26,110.22L20.93,104.26L21.27,107.3L21.61,107.94L21.95,107.36L22.28,103.82L22.64,105.02L22.96,110.14L23.98,106.22L24.31,111.94L24.64,105.5L24.98,112.07L25.33,105.73L25.66,112.62L26.68,102.27L27.01,112L28.02,104.92L28.36,110.85L28.7,112.04L29.05,108.17L29.38,105.46L29.71,108.5L30.05,107.74L30.73,108.48L31.06,109L32.42,104.63L32.77,103.86L33.43,109.27L33.77,108.92L34.12,107.84L34.44,107.92L34.78,109.71L35.47,103.98L35.79,107.61L36.13,110.95L36.47,106.59L36.81,108.13L37.14,104.11L37.82,110.08L38.16,108.15L38.49,106.37L38.83,110.2L39.19,101.97L40.19,112.54L40.53,108.54L41.53,103.92L41.88,109.79L42.21,104.28L42.55,108.77L42.88,109.33L43.23,106.97L43.56,108.6L43.9,107.57L44.25,109.7L44.58,104.28L45.25,109.52L45.6,104.69L45.93,105.45L46.26,108.36L46.6,102.6L46.95,107.4L47.28,106.6L47.62,101.87L47.95,108.61L48.29,107.78L48.63,111.61L48.97,106.82L49.64,107.84L49.98,106.99L50.32,110.49L50.67,108.56L50.99,107.4L51.33,107.84L51.67,105.46L52.02,108.15L52.34,107.78L52.68,106.99L53.02,109.77L53.36,107.43L53.69,105.39L54.03,112.77L54.37,112.58L54.71,107.36L55.04,111.24L55.38,107.78L55.74,102.85L57.08,110.24L57.41,107.05L58.43,108.11L58.76,107.74L59.1,106.99L59.44,107.55L59.77,108.61L60.11,106.99L60.45,108.17L60.8,108.02L61.13,105.39L61.46,107.38L61.8,106.55L62.15,105.35L62.47,106.59L62.82,107.7L63.5,109L63.83,108.11L64.17,108.15L64.51,104.65L65.18,112.02L65.52,110.06L65.87,106.41L66.19,106.35L66.53,108.21L66.87,107.43L67.22,108.73L67.54,108.46L67.88,105.12L68.22,113.23L68.56,102.62L69.23,111.63L69.57,107.38L69.91,106.16L70.25,110.14L70.58,106.56L70.94,108.15L71.26,105.73L71.6,111.78L72.61,107.59L72.95,110.93L73.96,107.09L74.3,110.16L75.31,104.77L75.65,109.98L76.01,108.15L76.32,112.23L77.35,106.6L77.68,108.4L78.01,105.87L78.35,108.15L78.7,106.56L79.03,109.89L79.7,109.25L80.04,108.56L80.38,108.71L80.71,106.06L81.39,111.65L81.73,108.02L82.07,108.71L82.42,107.36L83.42,110.82L83.77,108.9L84.09,107.76L84.43,110.43L84.77,104.23L85.11,106.56L85.45,107.38L86.14,112.34L86.46,110.08L86.8,107.82L87.13,107.76L87.48,109.77L88.15,106.95L88.49,107.34L88.83,107.76L90.18,109.74L90.51,108.92L90.85,106.56L91.52,106.95L91.86,108.09L92.2,109.29L92.55,107.43L92.88,110.1L93.21,106.18L93.55,109.7L93.9,108.89L94.23,107.43L94.9,107.42L95.25,106.26L95.58,106.59L95.92,106.18L96.27,111.45L96.59,106.68L96.93,106.95L97.27,108.89L97.62,113.04L97.94,106.16L98.28,110.85L98.62,108.92L98.96,108.75L99.3,110.18L99.63,109.29L99.97,108.02L100.31,112.52L100.64,108.9L100.98,106.6L101.34,107.36L101.66,111.38L102.34,102.74L102.69,106.8L103.01,112.15L103.35,107.38L103.69,108.11L104.03,105.69L104.36,108.61L104.7,107.73L105.71,111.72L106.05,106.2L106.73,105.89L107.06,112.09L108.08,104.96L108.41,112.65L109.43,102.25L109.76,110.93L110.1,110.39L110.44,105.99L110.78,105.93L111.12,108.4L112.13,104.94L112.47,108.54L112.82,108.6L113.14,107.2L113.48,107.55L113.82,106.16L114.16,108.19L114.49,107.63L114.83,106.39L115.84,108.52L116.18,109.31L117.2,107.34L117.53,108.67L118.21,106.59L118.55,108.38L119.56,107.67L119.9,108.54L120.26,108.6L120.58,107.34L121.25,107.96L121.6,108.13L122.26,107.74L122.6,104.91L123.28,108.19L123.61,107.76L123.95,107.82L124.29,110.12L124.63,102.43L125.64,109.7L125.98,105.81L126.67,109.79L126.99,106.64L127.33,108.57L127.67,106.95L128.01,107.36L128.68,106.95L129.02,111.28L129.36,102.78L130.39,110.76L130.71,100.86L131.74,108.9L132.06,106.59L132.4,112.87L132.73,108.89L133.08,110.72L133.75,110.85L134.08,107.16L134.43,110.26L135.45,102.51L135.77,106.22L136.11,110.12L136.45,106.56L136.8,104.63L137.46,109.39L137.8,108.56L138.15,105.42L138.47,110.76L138.81,104.96L139.15,105.35L139.49,102.14L139.83,108.13L140.17,107.74L140.52,105.42L140.84,106.39L141.18,112.31L142.19,103.51L142.53,104.26L142.86,108.13L143.21,104.85L143.54,102.45L143.88,109.47L144.56,108.27L144.9,104.67L145.59,109.23L145.91,105.95L146.25,104.36L146.58,110.78L147.6,102.97L147.93,107.67L148.28,106.2L148.61,106.53L148.95,108.25L149.62,107.36L149.96,108.67L150.3,107.15L150.65,109.68L151.31,107.76L151.65,110.64L152.66,107.3L153,108.52L153.34,110.06L153.67,108.52L154.01,104.42L155.03,107.74L155.36,103.44L156.04,108.21L156.38,108.07L156.71,106.43L157.39,109.29L157.73,107.69L158.07,108.13L158.41,108.54L158.74,108.15L159.08,107.76L159.75,108.15L160.09,108.6L161.11,107.32L161.44,107.76L161.78,107.36L162.13,108.52L162.8,107.76L163.13,112.59L164.15,109.29L164.5,109.06L164.82,110.45L165.16,108.54L165.5,105.83L165.85,114.24L166.51,106.6L166.85,108.52L167.2,105.89L167.52,107.38L167.86,107.3L168.2,102.47L168.54,113.6L169.21,112.02L169.57,103.63L170.56,109.7L170.91,102.33L171.24,109.76L171.92,108.17L172.26,104.61L172.59,104.31L172.93,110.08L173.6,102.76L173.94,111.78L174.95,103.26L175.29,108.23L175.63,108.07L175.98,111.84L176.3,105.02L176.65,109.89L176.98,111.65L178.35,104.21L178.67,106.6L179.01,102.33L179.35,109.7L180.02,110.01L180.36,105.46L181.37,112.77L181.71,106.89L182.05,111.24L182.39,105.42L183.74,109.31L184.08,110.26L184.41,109.97L184.76,107.76L185.09,109.5L185.43,107.57L185.76,108.52L186.44,110.12L186.78,109.52L187.12,106.12L187.45,108.15L187.79,107.36L188.13,106.49L188.48,108.13L188.8,106.2L189.14,108.44L189.48,107.57L190.49,109.68L190.83,107.74L191.51,106.2L191.84,106.97L192.86,110.08L193.2,108.92L193.87,104.65L194.21,105.06L194.54,108.94L194.89,113.18L195.22,108.15L195.56,109.62L196.24,106.2L196.57,107.36L196.91,107.74L197.27,107.24L197.58,108.94L198.26,106.6L198.61,110.08L199.28,105.04L199.61,108.6L199.96,104.25L200.29,108.92L200.63,107.74L200.97,106.68L201.3,109.16L202.33,106.05L202.65,110.85L203.68,102.1L204.01,108.27L204.68,107.38L205.02,103.55L205.69,110.84L206.05,106.59L206.37,101.5L206.71,107.9L207.04,106.97L207.39,107.96L207.72,103.32L208.39,112.02L208.74,109.52L209.07,100.65L209.41,114.51L209.75,105.83L210.08,107.61L210.42,100.83L210.76,106.22L211.11,106.2L211.44,107.96L211.77,103.8L212.11,111.3L212.46,107.38L212.78,106.02L213.12,100.24L213.46,109.29L213.81,108.92L214.14,105.45L214.47,103.34L214.83,108.56L215.15,107.76L215.49,110.08L215.82,101.41L216.18,103.88L216.5,108.9L216.84,109.68L217.18,101.11L217.53,110.08L217.85,105.83L218.19,106.97L218.53,109.7L218.87,107.74L219.21,107.76L220.21,111.57L220.55,106.22L221.57,109.31L221.91,108.25L222.24,109.83L222.59,109.7L222.92,106.6L223.26,104.28L223.6,109.71L223.93,109.71L224.27,107.01L224.61,111.63L224.96,106.28L225.28,108.15L225.62,106.99L225.96,108.6L226.31,108.15L226.63,108.54L226.97,106.62L227.31,104.11L227.65,108.13L228.32,109.7L228.68,103.39L229.68,110.08L230.03,104.42L231.02,108.54L231.37,105.69L232.38,108.75L232.72,108.38L233.05,109.31L233.39,108.92L233.75,107.96L234.74,106.99L235.09,101.73L235.76,109.68L236.09,107.36L236.44,105.04L237.1,112.77L237.44,103.51L237.78,106.1L238.12,105L238.45,104.28L239.81,111.63L240.16,105.06L240.48,112.4L240.82,110.06L241.16,108.92L241.84,104.31L242.17,110.31L243.19,102.31L243.52,108.79L243.87,108.92L244.2,107.22L244.54,108.46L244.88,105.42L245.22,113.93L245.55,103.49L245.89,105.45L246.9,111.22L247.24,103.09L248.25,108.57L248.59,103.86L249.6,110.85L249.94,108.9L250.95,105.81L251.31,107.76L252.66,103.51L252.98,108.92L253.32,105.83L254,106.24L254.33,105.81L254.67,112.4L255.01,108.11L255.34,106.22L256.37,108.6L256.7,113.56L257.72,105.89L258.05,109.31L258.72,104.28L259.07,108.69L259.4,106.22L259.74,113.58L260.07,101.1L260.41,107.74L260.75,106.6L261.08,110.88L261.44,101.7L261.76,111.71L262.44,110.84L262.79,105.72L263.79,112.4L264.13,104.31L264.47,111.88L264.8,108.48L265.16,107.57L265.48,103.45L265.82,111.26L266.83,102.04L267.17,104.44L267.5,108.15L268.18,103.94L268.52,110.53L269.53,105.89L269.87,108.6L270.54,107.2L270.88,102.76L271.57,110.45L271.9,106.59L272.23,101.52L272.57,107.76L272.91,108.15L273.25,110.08L273.58,104.04L274.6,110.47L274.94,100.98L276.29,110.37L276.63,107.82L276.96,112L277.3,106.97L277.64,105.83L277.98,104.65L278.31,106.22L279.33,108.46L279.67,103.9L280,104.48L280.35,103.88L280.68,106.97L281.02,107.3L281.35,105.37L282.03,107.74L282.37,107.38L282.72,107.38L283.04,109.31L283.38,107.76L283.72,108.52L284.73,105.02L285.07,107.8L286.42,104.86L286.76,107.76L287.43,109.68L287.79,106.49L288.11,112.04L288.45,106.6L288.78,109.31L289.13,107.15L289.46,109.5L289.8,111.94L290.13,104.67L290.48,109.81L290.81,108.92L291.15,110.08L291.51,107.57L291.82,107.3L292.16,108.25L292.5,108.54L292.85,105.35L293.51,107.69L293.85,107.01L294.2,100.63L295.2,109.33L295.54,107.63L295.88,108.19L296.21,106.59L296.57,107.38L296.89,111.07L297.92,109.7L298.24,100.05L298.58,109.62L298.92,106.6L299.26,103.05L299.59,103.22L299.93,117.31L300.95,100.78L301.28,110.64L301.96,105.64L302.3,98.35L302.63,110.64L302.98,107.36L303.31,106.43L303.65,104.92L303.98,107.73L304.66,106.43L305,100.83L305.36,108.13L306.01,106.59L306.35,97.48L306.7,109.37L307.36,108.9L307.7,105.42L308.05,108.17L308.37,105.83L308.71,106.14L310.06,109.62L310.42,108.92L310.74,109.31L311.08,107.76L312.09,109.39L312.43,108.17L312.77,111.65L313.11,109.7L313.44,106.99L313.78,106.22L314.14,111.72L314.79,106.99L315.13,107.36L315.48,110.61L315.81,107.38L316.14,108.15L316.48,113.99L317.5,106.99L317.83,96.8L318.18,106.59L318.85,105.83L319.18,101.23L320.2,112.42L320.55,101.97L321.21,109.31L321.55,107.84L321.9,98.37L322.56,108.9L322.9,107.51L323.24,99.51L323.58,108.15L324.27,107.96L324.59,103.24L325.61,109.62L325.94,101.15L326.28,108.9L326.61,108.56L326.96,107.2L327.29,104.67L327.63,109.71L327.97,108.92L328.31,111.4L328.64,104.17L328.98,106.99L329.33,107.76L329.65,108.92L329.99,102.51L331,109.1L331.34,104.81L332.03,106.59L332.36,101.7L333.37,112.02L333.71,106.59L334.04,108.07L334.4,107.36L334.72,105.81L335.4,108.21L335.75,106.53L336.07,105.64L336.41,100.96L336.75,106.92L337.09,104.25L337.42,104.67L338.12,108.9L338.44,106.97L338.78,108.83L339.11,101.54L340.13,110.47L340.46,108.9L341.48,106.6L341.81,108.98L342.83,106.2L343.19,109.31L344.53,105.42L344.85,108.15L345.19,107.43L345.53,110.7L346.54,107.38L346.88,104.46L347.22,103.86L347.56,104.65L347.89,106.99L348.25,105.08L348.57,106.97L348.91,107.38L349.25,106.99L349.59,108.63L349.92,107.76L350.26,103.12L350.6,103.98L350.94,110.47L351.95,100.78L352.28,108.71L352.62,105.79L352.96,109.68L353.31,97.44L353.64,112.52L354.66,101.46L354.99,108.9L355.33,108.92L355.66,107.74L356.01,93.58L356.34,111.88L357.35,97.5L357.69,115.03L358.7,98.74L359.04,108.92L359.38,107.38L359.73,101.75L360.05,102.37L360.39,111.07L361.41,104.13L361.74,111.61L362.76,101.5L363.1,106.99L363.44,111.22L363.77,108.29L364.11,99.84L365.12,108.54L365.46,101.73L365.8,108.13L366.47,107.84L366.81,102.78L367.82,108.54L368.16,99.49L368.51,110.43L368.84,105.41L369.17,107.57L369.51,110.82L369.86,105.81L370.52,101.85L370.86,107.34L371.54,107.74L371.87,107.24L372.23,106.22L372.55,107.73L372.89,107.73L373.23,105.95L373.57,109.68L373.9,107.36L374.24,105.41L374.58,106.93L374.92,105.39L375.26,105.42L375.95,100.01L376.27,110.08L377.29,105.06L377.62,105.78L377.96,108.17L378.29,106.6L378.64,107.38L378.97,110.85L379.31,109.7L379.65,103.94L380.66,108.92L381.01,98.35L381.67,108.07L382.01,107.38L382.36,101.58L383.02,110.45L383.36,104.04L383.71,107.28L384.37,107.01L384.71,108.34L385.05,107.15L385.39,107.55L385.72,110.08L386.74,102.31L387.08,103.11L387.42,104.54L389.1,111.15L389.44,109.29L389.8,109.33L390.11,104.28L390.45,99.69L390.79,107.74L391.14,107.36L391.47,101.37L391.8,109.02L392.49,108.13L392.82,97.31L393.15,110.31L393.49,106.99L393.84,104.38L394.17,102.95L394.51,115.03L395.52,98.76L395.86,107.46L396.21,108.92L396.53,107.57L396.87,98.12L397.55,109.29L397.89,105.64L398.22,104.13L398.56,108.54L399.24,106.41L399.57,97.73L400.59,108.07L400.92,98.6L401.94,109.98L402.28,107.36L402.62,107.38L402.95,105.04L403.29,110.06L403.65,104.63L403.96,107.73L404.3,106.2L404.64,107.2L404.99,107.76L405.99,107.96L406.34,107.3L407,107.74L407.34,111.42L408.02,107.26L408.36,108.09L408.71,107.74L409.37,107.36L409.71,109.29L410.06,110.43L410.38,106.53L410.72,106.59L411.06,107.74L411.4,103.01L411.73,105.79L412.07,104.63L412.41,97.71L412.75,110.53L413.09,107.28L413.42,109.2L413.78,94.79L414.1,107.65L414.77,107.34L415.12,100.59L416.13,108.71L416.47,95.05L417.48,109.43L417.82,102.27L418.84,111.05L419.17,106.59L419.84,105.06L420.19,106.8L420.52,101.77L420.85,110.06L421.54,105.48L421.87,99.78L422.56,108.56L422.88,103.71L423.91,107.74L424.23,106.6L425.25,106.2L425.58,103.96L425.92,104.19L426.26,108.54L426.6,108.13L426.93,98.54L427.63,108.52L427.95,106.6L428.28,106.92L428.62,110.64L428.98,108.15L429.3,106.82L429.63,103.36L429.97,107.2L430.32,108.07L430.65,106.41L430.99,97.93L431.67,108.13L432,106.97L432.34,98.04L433.35,108.57L433.69,100.5L434.37,108.9L434.7,107.32L435.04,106.55L435.38,106.99L435.72,110.08L436.73,105.45L437.07,105.83L437.4,109.23L437.76,105.42L438.08,107.74L438.42,104.28L438.76,108.56L439.11,111.26L439.43,105.37L439.77,104.67L440.11,108.15L440.45,106.53L440.78,111.61L441.12,105.81L441.48,112.44L441.8,107.74L442.13,116.25L442.47,104.94L443.82,111.61L444.17,110.51L445.17,96.63L445.52,112.38L445.85,111.61L446.19,105.06L446.54,96.63L446.86,110.06L447.2,109.29L447.54,104.98L447.89,97.29L448.21,105.54L448.55,105.87L448.89,105.41L449.24,99.07L450.24,110.39L450.58,95.34L451.61,108.73L451.93,99.32L452.61,108.52L452.96,105.52L453.28,101.97L453.62,110.64L454.97,104.73L455.31,108.54L455.65,106.97L455.98,99.13L456.32,108.5L456.68,105.42L457,105.13L457.33,102.62L457.67,109.29L458.02,103.9L458.35,109.68L458.68,105.89L459.02,108.15L459.37,105.81L459.7,106.06L460.03,102.35L460.37,105.81L460.71,105.83L461.05,103.41L461.39,105.18L461.74,106.97L462.06,106.8L462.4,98.1L463.09,110.06L463.41,106.78L463.75,106.97L464.09,109.62L464.76,106.59L465.1,98.66L465.78,109.7L466.11,107.76L466.45,95.47L467.13,108.11L467.47,106.89L467.8,101.97L468.15,108.52L468.48,107.36L468.82,106.16L469.83,109.27L470.17,108.5L470.52,108.11L470.84,107.73L471.18,108.54L471.52,109.62L471.87,106.89L472.2,108.54L472.53,106.89L472.87,107.96L473.22,108.92L473.54,108.46L473.88,106.53L474.9,109.68L475.24,108.92L475.59,106.87L475.91,105.04L476.25,110.82L476.94,105.81L477.26,108.13L477.6,107.76L477.94,95.65L478.28,112.77L479.29,97.6L479.63,107.74L479.96,108.89L480.3,108.5L480.66,100.56L481.65,109.66L482,96.79L482.33,108.21L483,108.15L483.34,97.77L484.02,111.24L484.37,108.73L484.69,97.13L485.72,111.44L486.04,91.39L486.38,108.67L487.07,106.39L487.39,99.84L488.07,109.7L488.41,106.78L488.75,99.34L489.44,108.9L489.76,107.57L490.1,95.76L491.11,107.15L491.45,99.22L492.46,111.61L492.8,102.16L493.81,107.3L494.15,98.47L494.5,107.38L494.83,106.41L495.16,104.88L495.5,103.51L495.85,106.99L496.18,108.54L496.52,106.05L497.2,109.71L497.53,107.03L497.87,105.06L498.22,107.38L498.54,107.38L498.88,107.38L499.22,102.16L500.23,106.24L500.57,101.04L501.24,107.67L501.58,106.2L501.92,105.79L502.26,106.6L502.6,110.47L503.29,103.51L503.61,107.38L503.94,105.85L504.28,110.85L504.64,106.6L504.96,107.76L505.3,106.99L505.63,109.25L506.65,105.1L506.98,102.12L507.32,112.4L507.66,111.22L508,107.38L508.35,108.29L508.67,106.92L509.01,110.08L509.35,103.12L509.7,112.31L510.02,105.41L510.37,107.76L510.7,101.13L511.05,101.97L511.37,109.31L511.72,111.61L512.05,100.78L512.73,110.08L513.07,109.68L513.42,100.57L513.74,100.15L514.08,107.74L514.42,107.74L514.77,100.21L515.09,111.24L515.43,110.47L515.77,102.72L516.11,94.97L516.44,108.23L516.78,107.74L517.14,109.52L517.46,90.97L517.79,115.9L518.81,98.58L519.15,106.7L519.83,109.48L520.16,98.31L520.5,113.64L520.83,107.76L521.17,106.82L521.51,98.02L521.85,106.92L522.2,104.65L522.52,104.46L522.86,97.96L523.87,111.61L524.22,95.47L524.55,107.76L525.22,106.2L525.56,98.47L526.58,110.08L526.91,99.67L527.59,110.08L527.93,107.76L528.26,96.96L528.62,108.13L529.28,106.47L529.61,107.74L530.29,108.13L530.63,107.19L531.31,108.13L531.64,106.55L532.66,106.6L532.99,109.31L533.33,110.66L533.68,104.28L534.01,104.98L534.35,108.15L534.68,107.74L535.02,108.54L535.7,105.42L536.05,107.74L536.37,108.52L536.71,107.36L537.05,106.59L537.4,108.15L538.06,108.54L538.4,98.26L538.74,108.13L539.41,107.38L539.77,102.76L540.76,107.74L541.12,100.01L542.79,130.26L543.13,127.94L544.14,129.08L544.48,129.08L544.83,130.26L545.15,129.1L545.49,128.54L546.84,129.85L547.18,128.14L547.85,129.47L548.19,129.08L548.55,129.45L549.21,128.75L549.54,129.85L550.56,128.31L550.89,128.91L551.24,129.49L551.57,128.31L551.91,129.55L552.25,127.84L552.59,129.57L552.92,128.52L553.26,128.7L554.27,128.31L554.61,129.47L555.29,125.24L555.63,127.54L555.96,129.85L556.31,131.46L556.64,128.7L556.98,134.52L557.34,127.63L557.65,126.82L557.99,131.86L558.33,124.25L558.68,128.29L559,129.53L559.68,128.75L560.03,131.79L561.03,127.9L561.37,129.43L561.71,129.89L562.04,127.6L562.72,127.13L563.06,130.32L563.39,130.71L564.41,129.45L564.74,129.45L565.42,128.14L565.76,129.16L566.12,129.47L566.43,127.54L566.77,127.23L567.11,124.06L567.78,132.56L568.12,129.06L568.46,128.68L568.81,127.15L569.13,129.93L569.47,133.74L569.81,128.98L570.49,128.5L570.83,131.67L571.18,127.23L572.85,134.17L573.19,131.4L573.53,131.79L573.87,131.42L574.2,130.34L574.54,131.11L574.9,129.37L575.22,133.06L575.55,125.62L575.89,125.6L576.24,130.63L576.57,129.16L576.91,131.46L577.24,131.85L577.58,128.31L577.92,131.09L578.26,126.76L578.93,130.26L579.27,126.76L579.61,126.84L579.96,130.26L580.28,130.71L580.62,126.82L581.63,129.93L581.97,128.31L582.31,130.26L582.65,128.71L582.98,126.65L583.32,129.88L583.68,129.53L584,129.06L585.02,128.7L585.35,128.31L585.69,127.15L586.02,133.74L586.37,129.16L586.7,130.63L587.04,130.32L587.39,128.77L588.05,129.08L588.39,129.18L588.74,129.93L589.07,129.55L589.4,129.16L589.74,128.52L590.08,130.3L590.75,130.12L591.11,128.39L591.43,129.53L591.77,128.31L592.11,129.06L592.78,128.31L593.12,129.14L593.46,129.47L593.8,128.41L594.13,127.92L594.47,131.46L595.48,128.7L595.82,129.45L596.17,129.12L596.5,126.74L596.83,125.99L597.17,133L597.52,128.37L597.85,130.3L598.18,132.23L599.54,127.61L599.89,129.47L600.21,126.38L600.55,130.72L600.89,134.9L601.23,130.63L601.56,129.93L602.24,126.59L602.58,129.06L602.91,129.14L603.25,127.23L603.61,126.05L603.93,131.11L604.95,129.08L605.28,130.26L605.62,128.7L605.95,131.44L606.3,123.28L606.63,129.93L606.97,131.77L607.98,127.98L608.32,129.66L608.67,130.28L608.99,129.93L609.33,127.15L611.02,131.48L611.36,128.77L611.7,124.85L612.03,129.47L612.39,127.92L613.38,132.18L613.73,131.46L614.06,132.18L614.4,125.26L615.41,130.71L615.75,127.94L616.11,127.15L616.42,131.81L617.1,129.18L617.45,132.19L618.11,126.38L618.45,128.37L618.8,128.37L619.13,129.53L619.47,128.37L619.82,130.69L620.14,128.62L620.48,132.54L621.17,129.84L621.49,130.32L621.83,131.38L622.17,129.08L622.51,130.51L622.84,130.07L623.18,127.03L623.52,128.68L623.86,131.02L624.53,128.68L624.88,131.79L625.88,129.49L626.23,132.99L626.89,127.61L627.23,129.49L627.57,127.03L627.91,131.89L628.24,128.77L628.6,127.15L628.92,129.12L629.26,128.71L629.6,125.22L630.27,129.91L630.61,129.14L630.95,129.47L631.63,130.99L631.96,130.63L632.32,128.7L632.64,131.86L632.98,131.79L633.31,129.88L633.99,125.2L634.33,127.52L635.01,130.63L635.34,126.97L636.04,130.32L636.35,127.92L636.69,129.55L637.03,129.06L637.38,128.02L639.05,129.14L639.39,128.31L639.73,129.28L640.07,128.75L640.41,132.56L641.76,126.46L642.09,128L642.77,124.5L643.11,128.39L643.45,130.72L643.79,128.41L644.12,126.82L644.46,132.19L644.82,128L645.13,129.45L645.48,129.95L645.81,128.39L646.16,132.25L646.48,129.88L646.83,129.55L647.5,128.52L647.84,130.65L648.18,128.39L648.53,129.93L648.85,131.4L649.88,126.41L650.2,128.41L650.54,129.93L651.22,127.54L651.55,129.14L651.89,127.23L652.23,129.14L652.57,129.93L653.59,127.21L653.92,129.18L654.26,128.33L654.59,131.11L655.27,125.66L655.61,126.76L655.94,129.16L656.28,127.92L656.62,128.33L656.96,129.95L657.31,129.16L657.63,129.85L657.97,131.04L658.31,126.84L658.66,128.39L658.98,129.88L659.32,129.89L659.66,131.05L660,129.1" style="vector-effect: none; fill: none; stroke: rgb(0, 0, 255); stroke-opacity: 1; stroke-width: 2px; opacity: 1;"/></g><g class="points"/><g class="text"/></g><g class="trace scatter tracec926f9" style="stroke-miterlimit: 2; opacity: 1;"><g class="fills"/><g class="errorbars"/><g class="lines"><path class="js-line" d="M0,218.55L3.03,218.55L3.36,218.65L4.04,218.65L4.38,212.77L11.81,212.75L12.15,213.06L12.82,212.64L13.16,212.99L13.5,213.64L14.51,212.69L14.85,213.62L15.86,212.75L16.2,212.83L20.93,212.72L21.27,212.77L24.98,212.95L25.33,212.09L26,212.93L26.34,212.72L26.68,211.87L27.35,212.99L27.71,212.69L28.02,211.77L29.05,212.91L29.38,211.54L30.4,212.81L30.73,212.09L31.06,213.88L31.4,212.64L31.75,212.69L32.08,212.08L32.42,214.3L33.43,211.98L33.77,212.69L34.44,212.58L34.78,212.02L35.47,212.91L35.79,212.66L36.13,212.29L37.14,212.77L37.48,212.02L38.49,212.99L38.83,212.69L43.56,212.68L43.9,212.48L45.6,212.96L45.93,212.95L52.68,212.62L53.02,214.07L53.36,212.68L54.03,212.87L54.37,214.94L55.38,211.85L55.74,214.98L56.73,211.71L57.08,214.2L58.08,212.04L58.43,213.37L59.44,212.06L59.77,212.93L60.45,212.62L60.8,211.75L61.46,212.91L61.8,212.72L62.15,212.08L62.82,212.72L63.15,212.29L64.51,212.23L64.84,212.93L65.87,212.54L66.19,213.88L67.22,212.56L67.54,213.64L68.56,212.54L68.89,212.96L71.26,212.46L71.6,212.52L72.61,212.58L72.95,212.29L73.63,213.01L73.96,212.21L74.98,212.75L75.31,211.44L76.32,212.77L76.66,209.87L77.35,213.12L77.68,212.93L78.01,209.87L78.35,212.96L79.03,212.69L79.36,210.47L80.38,212.99L80.71,210.98L81.73,212.72L82.07,212.95L84.43,212.31L84.77,213.08L85.45,212.75L85.78,211.9L87.13,213.29L87.48,212.77L88.15,213.06L88.49,213.88L89.16,212.68L89.5,212.91L89.84,214.98L90.51,212.75L90.85,213.02L91.21,215.11L92.2,210.8L92.55,213.02L93.21,212.81L93.55,210.98L94.56,212.77L94.9,211.11L95.58,213.01L95.92,212.69L96.27,211.23L96.93,213.1L97.27,211.42L97.62,211.44L97.94,212.79L98.62,211.85L98.96,211.4L99.3,213.01L99.63,212.77L99.97,211.31L100.31,211.34L100.64,212.64L100.98,212.74L101.34,211.58L101.66,211.38L101.99,212.93L102.34,213.04L102.69,211.9L103.69,212.99L104.03,212.08L105.04,212.93L105.38,212.02L106.41,212.89L106.73,212.37L107.75,212.81L108.08,212.39L109.1,212.75L109.43,212.5L110.44,213.01L110.78,212.25L111.79,212.79L112.13,212.08L112.47,212.96L113.14,212.69L113.48,211.13L114.49,212.75L114.83,210.03L115.84,213.01L116.18,208.54L117.2,212.81L117.53,212.74L125.98,212.79L126.32,211.88L127.33,212.95L127.67,211.88L128.68,212.77L129.02,211.67L129.69,213.02L130.03,212.72L130.39,211.87L131.38,212.72L131.74,211.55L132.73,212.75L133.08,211.63L133.75,212.85L134.08,212.58L134.43,212.56L135.1,212.96L135.45,211.88L135.77,213.91L136.11,212.77L136.45,213.01L136.8,211.48L137.12,214.96L138.15,211.25L138.47,214.63L139.49,211.44L139.83,213.02L140.84,211.98L141.18,213.06L141.87,212.83L142.19,211.94L143.21,212.74L143.54,212.09L144.56,212.87L144.9,212.29L145.59,213.04L145.91,212.79L146.25,211.9L147.26,212.96L147.6,211.25L148.61,212.96L148.95,211.42L149.96,212.99L150.3,211.75L150.97,213.06L151.31,212.77L151.65,212.77L152.66,212.87L153,212.81L154.01,212.85L154.35,212.81L160.09,212.75L160.43,211.42L160.78,213.08L161.44,212.77L161.78,211.42L162.46,212.85L162.8,212.75L163.13,212.58L164.5,213.72L164.82,212.79L165.16,212.89L165.5,211.48L165.85,215.05L166.17,213.28L166.51,213.04L166.85,211.07L167.2,214.8L168.2,211.23L168.54,214.38L169.57,211.19L169.89,213.06L170.56,213.01L170.91,211L171.92,213.06L172.26,211.13L173.29,213.16L173.6,211.4L174.63,212.96L174.95,211.71L175.98,212.74L176.3,211.81L177.32,212.91L177.66,211.88L178.35,212.95L178.67,212.72L179.01,211.88L180.02,212.87L180.36,211.17L180.7,213.01L181.37,212.81L181.71,211.31L182.72,212.79L183.06,209.16L183.74,212.99L184.08,212.69L184.41,213.01L185.76,212.72L186.11,212.79L188.48,213.06L188.8,212.79L189.83,213.04L190.16,212.74L191.17,212.81L191.51,213.02L192.86,212.99L193.2,206.69L193.87,213.06L194.21,213.01L194.54,206.78L195.22,212.95L195.56,212.83L195.9,206.94L196.57,213.04L196.91,212.87L197.27,207.92L197.93,213.06L198.26,212.37L198.61,208.35L198.94,213.08L199.28,213.04L199.61,211.42L199.96,209.66L200.29,212.83L200.63,212.83L200.97,211.48L201.3,209.27L201.64,213.02L201.97,213.02L202.33,211.01L202.65,209.93L202.99,213.1L203.33,213.06L203.68,211.05L204.01,211.01L204.34,213.06L204.68,213.04L205.02,211.01L206.05,213.08L206.37,211.52L206.71,211.05L207.04,212.93L207.39,212.91L207.72,211.75L208.06,211.11L208.39,213.02L209.07,211.71L209.41,211.05L210.08,212.99L210.42,211.25L210.76,213.08L211.44,212.81L211.77,209.51L212.46,213.01L212.78,212.96L213.12,207.86L213.46,213.02L214.14,212.91L214.47,206.97L215.49,212.79L215.82,212.85L219.9,212.68L220.21,212.79L220.55,212.95L220.89,210.98L221.57,213.01L221.91,212.75L222.24,210.74L222.59,212.83L223.26,212.69L223.6,210.9L224.61,212.85L224.96,212.21L225.62,212.89L225.96,206.09L226.31,213.47L226.97,212.96L227.31,206.59L227.65,214.7L228.32,213.04L228.68,207.34L229,214.36L229.34,212.79L229.68,211.65L230.03,207.94L230.35,213.06L230.69,213.2L231.02,211.17L231.37,208.81L231.7,212.81L232.04,212.74L232.38,211L232.72,209.2L233.05,212.99L233.39,213.01L233.75,210.68L234.06,209.91L234.41,213.01L234.74,213.06L235.09,210.86L236.09,212.81L236.44,211.04L236.77,211.4L237.1,213.02L237.44,212.75L237.78,210.8L238.81,212.79L239.13,211.23L239.47,210.51L239.81,212.77L240.16,212.81L240.48,211.48L240.82,210.55L241.16,213.02L241.5,212.85L241.84,211.75L242.17,210.9L242.53,213.01L242.85,213.06L243.19,211.5L244.2,213.04L244.54,210.94L245.55,213.02L245.89,210.03L246.9,213.01L247.24,208.08L247.59,212.93L248.25,212.77L248.59,212.81L251.97,213.04L252.31,210.53L253.32,212.99L253.65,210.53L254,213.02L254.67,212.89L255.01,210.63L256.02,213.08L256.37,210.61L257.04,213.02L257.37,211.44L257.72,210.63L258.05,213.01L258.39,213.12L258.72,211.11L259.07,210.84L259.4,213.02L259.74,212.99L260.07,209.45L261.08,213.06L261.44,208.27L262.44,213.08L262.79,207.03L263.79,212.87L264.13,206.07L265.16,213.08L265.48,206.03L266.5,213.08L266.83,205.91L267.5,213.1L267.85,212.99L268.18,205.47L268.88,213.1L269.19,212.99L269.53,205.37L269.87,213.08L270.54,212.96L270.88,205.87L271.57,213.08L271.9,213.06L272.23,206.32L272.91,213.04L273.25,211.25L273.58,206.78L273.94,213.02L274.26,212.85L274.6,211.01L275.61,212.96L275.95,210.98L276.29,213.02L276.96,212.77L277.3,210.74L277.98,212.85L278.31,212.79L278.65,213.12L279.67,213.02L280,214.48L280.68,212.79L281.02,213.04L281.35,214.13L282.37,212.79L282.72,213.1L283.38,213.1L283.72,207.26L284.07,213.08L284.73,212.85L285.07,207.92L286.08,212.87L286.42,208.6L287.43,213.08L287.79,211.01L288.45,212.81L288.78,212.74L289.13,210.34L290.13,213.06L290.48,209.93L291.51,213.04L291.82,210.13L292.85,213.08L293.18,210.11L293.51,213.06L294.2,212.87L294.53,210.18L294.87,213.14L295.54,212.87L295.88,210.11L296.89,213.06L297.23,210.14L298.24,213.1L298.58,210.3L299.26,213.02L299.59,212.89L299.93,210.32L300.27,212.99L300.95,212.54L301.28,211.5L301.96,213.16L302.3,212.29L303.31,213.02L303.65,211.34L304.33,212.95L304.66,212.75L305,211.04L306.01,212.99L306.35,212.74L311.08,212.99L311.42,212.58L312.77,214.55L313.11,212.74L313.78,213.01L314.14,215.02L315.13,210.67L315.48,214.07L316.48,210.53L316.83,213.06L317.5,212.99L317.83,210.53L318.51,213.16L318.85,212.99L319.18,210.86L320.2,213.16L320.55,210.53L321.55,213.14L321.9,210.76L322.56,213.2L322.9,213.08L323.24,210.8L323.58,213.29L324.27,212.85L324.59,210.57L325.26,213.08L325.61,212.87L325.94,210.53L326.61,213.04L326.96,212.79L327.29,209.26L328.31,213.16L328.64,207.44L329.65,213.08L329.99,206.28L331,213.04L331.34,205.66L331.68,213.06L332.36,212.77L332.69,204.68L333.04,212.83L333.71,212.77L334.04,204.52L334.72,213.06L335.06,212.12L335.4,212.77L336.07,212.99L336.41,211.94L337.42,213.02L337.76,211.44L338.78,213.04L339.11,213.04L343.84,213.01L344.18,204.75L345.19,213.1L345.53,204.91L345.88,213.04L346.54,212.96L346.88,204.71L347.56,213.08L347.89,212.99L348.25,205.39L348.57,212.99L348.91,212.95L349.25,210.76L349.59,205.85L349.92,212.74L350.26,213.02L350.6,210.49L350.94,207.17L351.27,212.74L351.61,212.72L351.95,210.59L352.28,208.08L352.62,213.01L352.96,212.85L353.31,210.51L353.64,209.7L353.98,212.87L354.31,212.77L354.66,210.51L354.99,213.12L355.66,213.02L356.01,210.53L357.03,212.91L357.35,210.55L358.38,213.1L358.7,210.28L359.04,212.99L359.73,212.83L360.05,210.11L361.07,212.81L361.41,209.87L362.1,212.83L362.42,212.74L362.76,208.97L363.77,213.04L364.11,207.57L364.79,212.99L365.12,212.81L365.46,206.55L366.47,213.08L366.81,213.01L368.16,212.69L368.51,212.83L369.51,212.79L369.86,212.87L372.55,212.75L372.89,212.83L374.92,213.01L375.26,213.02L376.61,212.79L376.94,207.83L377.29,212.99L377.96,212.83L378.29,206.47L378.97,213.08L379.31,212.99L379.65,206.09L380.32,213.06L380.66,213.02L381.01,205.23L381.67,213.02L382.01,212.81L382.36,205.43L383.36,213.04L383.71,204.54L384.71,213.1L385.05,204.5L385.39,213.06L386.08,213.02L386.4,209.7L386.74,213.02L387.42,212.79L387.75,209.49L388.43,213.01L388.77,212.35L389.1,210.9L389.8,213.01L390.11,211.77L390.45,210.72L390.79,213.01L391.14,212.81L391.47,211.44L392.49,213.02L392.82,211.01L393.15,215.3L393.49,213.01L393.84,212.89L394.17,210.76L394.51,215.03L395.52,210.55L395.86,212.72L396.53,213.06L396.87,210.34L397.55,212.99L397.89,212.79L398.22,210.4L398.9,213.06L399.24,212.83L399.57,210.36L399.93,212.91L400.59,212.79L400.92,212.96L402.28,212.81L402.62,212.79L404.3,212.87L404.64,215.09L405.32,212.99L405.65,213.1L405.99,213.78L407,213.04L407.34,212.77L409.37,212.74L409.71,210.24L410.06,212.99L410.72,212.72L411.06,210.22L412.07,212.95L412.41,210.24L413.42,213.01L413.78,204.36L414.77,212.83L415.12,205L415.78,212.96L416.13,212.75L416.47,206.49L417.14,212.99L417.48,212.96L417.82,208.39L418.84,213.02L419.17,208.76L420.19,213.04L420.52,208.33L420.85,213.08L421.54,213.01L421.87,208.56L422.88,213.1L423.22,208.62L423.91,213.06L424.23,212.77L424.57,208.76L425.25,213.18L425.58,213.06L425.92,209.03L426.6,213.08L426.93,212.83L427.27,209.2L427.63,213.14L428.28,213.04L428.62,212.79L430.32,213.06L430.65,212.75L430.99,212.37L431.32,212.74L431.67,212.99L432,212.99L432.34,204.89L432.7,212.99L433.35,212.77L433.69,212.77L435.38,213.02L435.72,213.02L438.42,212.91L438.76,209.03L439.77,213.01L440.11,208.95L441.12,213.04L441.48,208.97L442.13,212.99L442.47,204.09L443.15,213.02L443.48,212.99L443.82,203.57L444.5,212.99L444.84,212.95L445.17,203.42L445.52,213.86L446.19,213.01L446.54,203.28L446.86,215.03L447.54,212.69L447.89,203.67L448.21,214.16L448.89,212.96L449.24,203.65L450.24,212.95L450.58,203.59L451.25,212.99L451.61,212.95L451.93,203.59L452.26,213.02L452.96,212.74L453.28,205.12L454.3,213.02L454.63,206.42L455.65,212.99L455.98,207.15L457,213.01L457.33,207.59L457.67,213.06L458.02,212.83L458.35,210.28L458.68,207.38L459.02,212.69L459.37,212.81L459.7,210.01L460.03,208.11L460.37,212.96L460.71,212.83L461.05,209.22L461.39,208.27L461.74,213.04L462.06,212.93L462.4,207.83L462.74,212.95L463.41,212.85L463.75,207.5L464.76,213.02L465.1,206.1L465.78,213.06L466.11,213.02L466.45,213.08L471.18,212.83L471.52,208.16L472.53,213.08L472.87,208.6L473.54,213.08L473.88,212.99L474.22,208.62L475.24,213.14L475.59,208.83L476.25,213.18L476.59,205.66L477.6,213.28L477.94,205.04L478.95,213.39L479.29,204.81L480.3,213.16L480.66,204.46L481.65,213.16L482,203.63L482.67,213.33L483,212.85L483.34,203.22L484.02,213.1L484.37,212.62L484.69,203.21L485.03,213.26L485.72,212.37L486.04,203.05L486.38,213.72L487.07,212.37L487.39,203.22L487.73,213.72L488.41,212.41L488.75,202.97L489.08,215.21L489.44,212.81L489.76,211.52L490.1,203.32L490.43,212.85L490.79,213.12L491.45,203.49L491.78,213.12L492.13,212.93L492.46,210.59L492.8,203.44L493.13,213.12L493.48,213.06L493.81,210.41L494.83,213.08L495.16,210.2L495.5,213.2L496.18,212.87L496.52,210.24L496.85,213.16L497.53,213.06L497.87,210.14L498.88,213.1L499.22,214.4L500.23,213.04L500.57,213.1L503.94,213.04L504.28,204.79L504.64,213.06L505.3,212.96L505.63,206.57L506.31,213.08L506.65,212.85L506.98,206.15L508,213.1L508.35,207.09L508.67,213.06L509.01,212.91L509.35,209.95L509.7,207.53L510.02,213.04L510.37,213.14L510.7,209.06L511.05,208.04L511.37,213.08L511.72,213.14L512.05,207.73L512.39,208L512.73,212.83L513.07,213.1L513.42,207.13L513.74,208.11L514.08,213.14L514.42,213.35L514.77,206.03L515.77,213.04L516.11,205.41L517.14,212.81L517.46,204.66L518.13,213.06L518.48,212.87L518.81,204.36L519.83,213.12L520.16,203.92L521.17,213.08L521.51,203.73L522.52,212.89L522.86,203.26L523.55,213.14L523.87,212.41L524.22,202.7L524.89,213.14L525.22,212.46L525.56,202.57L526.24,213.08L526.58,211.96L526.91,202.86L527.27,213.1L527.93,211.98L528.26,213.1L528.94,212.91L529.28,211.27L529.96,213.14L530.29,212.91L530.63,211.09L531.64,213.01L531.98,208.11L532.99,213.1L533.33,209.57L534.01,212.91L534.35,212.85L534.68,211.27L535.7,213.06L536.05,213.76L536.71,212.89L537.05,202.59L537.4,214.69L538.06,213.01L538.4,202.59L538.74,213.66L539.41,213.02L539.77,202.74L540.09,213.01L540.76,210.84L541.12,202.84L542.11,215.83L542.46,218.59L548.19,218.92L548.55,218.67L660,218.78" style="vector-effect: none; fill: none; stroke: rgb(0, 128, 0); stroke-opacity: 1; stroke-width: 2px; opacity: 1;"/></g><g class="points"/><g class="text"/></g><g class="trace scatter trace4f3ff8" style="stroke-miterlimit: 2; opacity: 1;"><g class="fills"/><g class="errorbars"/><g class="lines"><path class="js-line" d="M0,111.24L660,111.24" style="vector-effect: none; fill: none; stroke: rgb(255, 0, 0); stroke-opacity: 1; stroke-dasharray: 9px, 9px; stroke-width: 2px; opacity: 1;"/></g><g class="points"/><g class="text"/></g><g class="trace scatter trace068c09" style="stroke-miterlimit: 2; opacity: 1;"><g class="fills"/><g class="errorbars"/><g class="lines"><path class="js-line" d="M0,213.35L660,213.35" style="vector-effect: none; fill: none; stroke: rgb(255, 165, 0); stroke-opacity: 1; stroke-dasharray: 9px, 9px; stroke-width: 2px; opacity: 1;"/></g><g class="points"/><g class="text"/></g><g class="trace scatter trace2a7716" style="stroke-miterlimit: 2; opacity: 1;"><g class="fills"/><g class="errorbars"/><g class="lines"><path class="js-line" d="M0,0L660,0" style="vector-effect: none; fill: none; stroke: rgb(128, 0, 128); stroke-opacity: 1; stroke-dasharray: 3px, 3px; stroke-width: 2px; opacity: 1;"/></g><g class="points"/><g class="text"/></g></g></g></g><path class="xlines-above crisp" d="M0,0" style="fill: none;"/><path class="ylines-above crisp" d="M0,0" style="fill: none;"/><g class="overlines-above"/><g class="xaxislayer-above"><g class="xtick"><text text-anchor="middle" x="0" y="473" transform="translate(79.98,0)" style="font-family: 'Open Sans', verdana, arial, sans-serif; font-size: 12px; fill: rgb(42, 63, 95); fill-opacity: 1; white-space: pre; opacity: 1;">0</text></g><g class="xtick"><text text-anchor="middle" x="0" y="473" style="font-family: 'Open Sans', verdana, arial, sans-serif; font-size: 12px; fill: rgb(42, 63, 95); fill-opacity: 1; white-space: pre; opacity: 1;" transform="translate(248.71,0)">500</text></g><g class="xtick"><text text-anchor="middle" x="0" y="473" style="font-family: 'Open Sans', verdana, arial, sans-serif; font-size: 12px; fill: rgb(42, 63, 95); fill-opacity: 1; white-space: pre; opacity: 1;" transform="translate(417.44,0)">1000</text></g><g class="xtick"><text text-anchor="middle" x="0" y="473" style="font-family: 'Open Sans', verdana, arial, sans-serif; font-size: 12px; fill: rgb(42, 63, 95); fill-opacity: 1; white-space: pre; opacity: 1;" transform="translate(586.1700000000001,0)">1500</text></g></g><g class="yaxislayer-above"><g class="ytick"><text text-anchor="end" x="79" y="4.199999999999999" transform="translate(0,460)" style="font-family: 'Open Sans', verdana, arial, sans-serif; font-size: 12px; fill: rgb(42, 63, 95); fill-opacity: 1; white-space: pre; opacity: 1;">0</text></g><g class="ytick"><text text-anchor="end" x="79" y="4.199999999999999" style="font-family: 'Open Sans', verdana, arial, sans-serif; font-size: 12px; fill: rgb(42, 63, 95); fill-opacity: 1; white-space: pre; opacity: 1;" transform="translate(0,417.78)">10</text></g><g class="ytick"><text text-anchor="end" x="79" y="4.199999999999999" style="font-family: 'Open Sans', verdana, arial, sans-serif; font-size: 12px; fill: rgb(42, 63, 95); fill-opacity: 1; white-space: pre; opacity: 1;" transform="translate(0,375.56)">20</text></g><g class="ytick"><text text-anchor="end" x="79" y="4.199999999999999" style="font-family: 'Open Sans', verdana, arial, sans-serif; font-size: 12px; fill: rgb(42, 63, 95); fill-opacity: 1; white-space: pre; opacity: 1;" transform="translate(0,333.33000000000004)">30</text></g><g class="ytick"><text text-anchor="end" x="79" y="4.199999999999999" style="font-family: 'Open Sans', verdana, arial, sans-serif; font-size: 12px; fill: rgb(42, 63, 95); fill-opacity: 1; white-space: pre; opacity: 1;" transform="translate(0,291.11)">40</text></g><g class="ytick"><text text-anchor="end" x="79" y="4.199999999999999" style="font-family: 'Open Sans', verdana, arial, sans-serif; font-size: 12px; fill: rgb(42, 63, 95); fill-opacity: 1; white-space: pre; opacity: 1;" transform="translate(0,248.89)">50</text></g><g class="ytick"><text text-anchor="end" x="79" y="4.199999999999999" style="font-family: 'Open Sans', verdana, arial, sans-serif; font-size: 12px; fill: rgb(42, 63, 95); fill-opacity: 1; white-space: pre; opacity: 1;" transform="translate(0,206.67000000000002)">60</text></g><g class="ytick"><text text-anchor="end" x="79" y="4.199999999999999" style="font-family: 'Open Sans', verdana, arial, sans-serif; font-size: 12px; fill: rgb(42, 63, 95); fill-opacity: 1; white-space: pre; opacity: 1;" transform="translate(0,164.44)">70</text></g><g class="ytick"><text text-anchor="end" x="79" y="4.199999999999999" style="font-family: 'Open Sans', verdana, arial, sans-serif; font-size: 12px; fill: rgb(42, 63, 95); fill-opacity: 1; white-space: pre; opacity: 1;" transform="translate(0,122.22)">80</text></g><g class="ytick"><text text-anchor="end" x="79" y="4.199999999999999" style="font-family: 'Open Sans', verdana, arial, sans-serif; font-size: 12px; fill: rgb(42, 63, 95); fill-opacity: 1; white-space: pre; opacity: 1;" transform="translate(0,80)">90</text></g></g><g class="overaxes-above"/></g></g><g class="polarlayer"/><g class="smithlayer"/><g class="ternarylayer"/><g class="geolayer"/><g class="funnelarealayer"/><g class="pielayer"/><g class="iciclelayer"/><g class="treemaplayer"/><g class="sunburstlayer"/><g class="glimages"/><defs id="topdefs-135640"><g class="clips"/><clipPath id="legend135640"><rect width="188" height="105" x="0" y="0"/></clipPath></defs><g class="layer-above"><g class="imagelayer"/><g class="shapelayer"/></g><g class="infolayer"><g class="legend" pointer-events="all" transform="translate(753.2,346)"><rect class="bg" shape-rendering="crispEdges" style="stroke: rgb(68, 68, 68); stroke-opacity: 1; fill: rgb(255, 255, 255); fill-opacity: 1; stroke-width: 0px;" width="188" height="105" x="0" y="0"/><g class="scrollbox" transform="" clip-path="url(#legend135640)"><g class="groups"><g class="traces" transform="translate(0,14.5)" style="opacity: 1;"><text class="legendtext" text-anchor="start" x="40" y="4.680000000000001" style="font-family: 'Open Sans', verdana, arial, sans-serif; font-size: 12px; fill: rgb(42, 63, 95); fill-opacity: 1; white-space: pre;">Total Input Power</text><g class="layers" style="opacity: 1;"><g class="legendfill"/><g class="legendlines"><path class="js-line" d="M5,0h30" style="fill: none; stroke: rgb(0, 0, 255); stroke-opacity: 1; stroke-width: 2px;"/></g><g class="legendsymbols"><g class="legendpoints"/></g></g><rect class="legendtoggle" x="0" y="-9.5" width="182.974609375" height="19" style="fill: rgb(0, 0, 0); fill-opacity: 0;"/></g><g class="traces" transform="translate(0,33.5)" style="opacity: 1;"><text class="legendtext" text-anchor="start" x="40" y="4.680000000000001" style="font-family: 'Open Sans', verdana, arial, sans-serif; font-size: 12px; fill: rgb(42, 63, 95); fill-opacity: 1; white-space: pre;">Total FPGA Power</text><g class="layers" style="opacity: 1;"><g class="legendfill"/><g class="legendlines"><path class="js-line" d="M5,0h30" style="fill: none; stroke: rgb(0, 128, 0); stroke-opacity: 1; stroke-width: 2px;"/></g><g class="legendsymbols"><g class="legendpoints"/></g></g><rect class="legendtoggle" x="0" y="-9.5" width="182.974609375" height="19" style="fill: rgb(0, 0, 0); fill-opacity: 0;"/></g><g class="traces" transform="translate(0,52.5)" style="opacity: 1;"><text class="legendtext" text-anchor="start" x="40" y="4.680000000000001" style="font-family: 'Open Sans', verdana, arial, sans-serif; font-size: 12px; fill: rgb(42, 63, 95); fill-opacity: 1; white-space: pre;">Mean Total Input Power</text><g class="layers" style="opacity: 1;"><g class="legendfill"/><g class="legendlines"><path class="js-line" d="M5,0h30" style="fill: none; stroke: rgb(255, 0, 0); stroke-opacity: 1; stroke-dasharray: 9px, 9px; stroke-width: 2px;"/></g><g class="legendsymbols"><g class="legendpoints"/></g></g><rect class="legendtoggle" x="0" y="-9.5" width="182.974609375" height="19" style="fill: rgb(0, 0, 0); fill-opacity: 0;"/></g><g class="traces" transform="translate(0,71.5)" style="opacity: 1;"><text class="legendtext" text-anchor="start" x="40" y="4.680000000000001" style="font-family: 'Open Sans', verdana, arial, sans-serif; font-size: 12px; fill: rgb(42, 63, 95); fill-opacity: 1; white-space: pre;">Mean Total FPGA Power</text><g class="layers" style="opacity: 1;"><g class="legendfill"/><g class="legendlines"><path class="js-line" d="M5,0h30" style="fill: none; stroke: rgb(255, 165, 0); stroke-opacity: 1; stroke-dasharray: 9px, 9px; stroke-width: 2px;"/></g><g class="legendsymbols"><g class="legendpoints"/></g></g><rect class="legendtoggle" x="0" y="-9.5" width="182.974609375" height="19" style="fill: rgb(0, 0, 0); fill-opacity: 0;"/></g><g class="traces" transform="translate(0,90.5)" style="opacity: 1;"><text class="legendtext" text-anchor="start" x="40" y="4.680000000000001" style="font-family: 'Open Sans', verdana, arial, sans-serif; font-size: 12px; fill: rgb(42, 63, 95); fill-opacity: 1; white-space: pre;">TDP Limit (90W)</text><g class="layers" style="opacity: 1;"><g class="legendfill"/><g class="legendlines"><path class="js-line" d="M5,0h30" style="fill: none; stroke: rgb(128, 0, 128); stroke-opacity: 1; stroke-dasharray: 3px, 3px; stroke-width: 2px;"/></g><g class="legendsymbols"><g class="legendpoints"/></g></g><rect class="legendtoggle" x="0" y="-9.5" width="182.974609375" height="19" style="fill: rgb(0, 0, 0); fill-opacity: 0;"/></g></g></g><rect class="scrollbar" rx="20" ry="3" width="0" height="0" style="fill: rgb(128, 139, 164); fill-opacity: 1;" x="0" y="0"/></g><g class="g-gtitle"><text class="gtitle" x="48" y="40" text-anchor="start" dy="0em" style="opacity: 1; font-family: 'Open Sans', verdana, arial, sans-serif; font-size: 17px; fill: rgb(42, 63, 95); fill-opacity: 1; white-space: pre;">FPGA Power Consumption Over Time</text></g><g class="g-xtitle"><text class="xtitle" x="410" y="500.3" text-anchor="middle" style="opacity: 1; font-family: 'Open Sans', verdana, arial, sans-serif; font-size: 14px; fill: rgb(42, 63, 95); fill-opacity: 1; white-space: pre;">Time (seconds)</text></g><g class="g-ytitle"><text class="ytitle" transform="rotate(-90,44.334375,270)" x="44.334375" y="270" text-anchor="middle" style="opacity: 1; font-family: 'Open Sans', verdana, arial, sans-serif; font-size: 14px; fill: rgb(42, 63, 95); fill-opacity: 1; white-space: pre;">Power (W)</text></g><g class="annotation" data-index="0" style="opacity: 1;"><g class="annotation-text-g" transform="rotate(0,844.4,191.24)"><g class="cursor-pointer" transform="translate(741,182)"><rect class="bg" x="0.5" y="0.5" width="206" height="18" style="stroke-width: 1px; stroke: rgb(0, 0, 0); stroke-opacity: 0; fill: rgb(0, 0, 0); fill-opacity: 0;"/><text class="annotation-text" text-anchor="start" x="2" y="14" style="font-family: 'Open Sans', verdana, arial, sans-serif; font-size: 12px; fill: rgb(0, 0, 0); fill-opacity: 1; white-space: pre;">Mean Total Input Power: 63.65 W</text></g></g></g><g class="annotation" data-index="1" style="opacity: 1;"><g class="annotation-text-g" transform="rotate(0,844.9,293.35)"><g class="cursor-pointer" transform="translate(742,284)"><rect class="bg" x="0.5" y="0.5" width="205" height="18" style="stroke-width: 1px; stroke: rgb(0, 0, 0); stroke-opacity: 0; fill: rgb(0, 0, 0); fill-opacity: 0;"/><text class="annotation-text" text-anchor="start" x="2" y="14" style="font-family: 'Open Sans', verdana, arial, sans-serif; font-size: 12px; fill: rgb(0, 0, 0); fill-opacity: 1; white-space: pre;">Mean Total FPGA Power: 39.47 W</text></g></g></g></g></svg>