<svg class="main-svg" xmlns="http://www.w3.org/2000/svg" xmlns:xlink="http://www.w3.org/1999/xlink" width="1920" height="1080" style="" viewBox="0 0 960 540"><rect x="0" y="0" width="960" height="540" style="fill: rgb(255, 255, 255); fill-opacity: 1;"/><defs id="defs-a57972"><g class="clips"><clipPath id="clipa57972xyplot" class="plotclip"><rect width="660" height="380"/></clipPath><clipPath class="axesclip" id="clipa57972x"><rect x="80" y="0" width="660" height="540"/></clipPath><clipPath class="axesclip" id="clipa57972y"><rect x="0" y="80" width="960" height="380"/></clipPath><clipPath class="axesclip" id="clipa57972xy"><rect x="80" y="80" width="660" height="380"/></clipPath></g><g class="gradients"/><g class="patterns"/></defs><g class="bglayer"><rect class="bg" x="80" y="80" width="660" height="380" style="fill: rgb(229, 236, 246); fill-opacity: 1; stroke-width: 0;"/></g><g class="layer-below"><g class="imagelayer"/><g class="shapelayer"/></g><g class="cartesianlayer"><g class="subplot xy"><g class="layer-subplot"><g class="shapelayer"/><g class="imagelayer"/></g><g class="minor-gridlayer"><g class="x"/><g class="y"/></g><g class="gridlayer"><g class="x"><path class="xgrid crisp" transform="translate(242.96,0)" d="M0,80v380" style="stroke: rgb(255, 255, 255); stroke-opacity: 1; stroke-width: 1px;"/><path class="xgrid crisp" transform="translate(405.93,0)" d="M0,80v380" style="stroke: rgb(255, 255, 255); stroke-opacity: 1; stroke-width: 1px;"/><path class="xgrid crisp" transform="translate(568.9100000000001,0)" d="M0,80v380" style="stroke: rgb(255, 255, 255); stroke-opacity: 1; stroke-width: 1px;"/><path class="xgrid crisp" transform="translate(731.88,0)" d="M0,80v380" style="stroke: rgb(255, 255, 255); stroke-opacity: 1; stroke-width: 1px;"/></g><g class="y"><path class="ygrid crisp" transform="translate(0,417.78)" d="M80,0h660" style="stroke: rgb(255, 255, 255); stroke-opacity: 1; stroke-width: 1px;"/><path class="ygrid crisp" transform="translate(0,375.56)" d="M80,0h660" style="stroke: rgb(255, 255, 255); stroke-opacity: 1; stroke-width: 1px;"/><path class="ygrid crisp" transform="translate(0,333.33000000000004)" d="M80,0h660" style="stroke: rgb(255, 255, 255); stroke-opacity: 1; stroke-width: 1px;"/><path class="ygrid crisp" transform="translate(0,291.11)" d="M80,0h660" style="stroke: rgb(255, 255, 255); stroke-opacity: 1; stroke-width: 1px;"/><path class="ygrid crisp" transform="translate(0,248.89)" d="M80,0h660" style="stroke: rgb(255, 255, 255); stroke-opacity: 1; stroke-width: 1px;"/><path class="ygrid crisp" transform="translate(0,206.67000000000002)" d="M80,0h660" style="stroke: rgb(255, 255, 255); stroke-opacity: 1; stroke-width: 1px;"/><path class="ygrid crisp" transform="translate(0,164.44)" d="M80,0h660" style="stroke: rgb(255, 255, 255); stroke-opacity: 1; stroke-width: 1px;"/><path class="ygrid crisp" transform="translate(0,122.22)" d="M80,0h660" style="stroke: rgb(255, 255, 255); stroke-opacity: 1; stroke-width: 1px;"/></g></g><g class="zerolinelayer"><path class="yzl zl crisp" transform="translate(0,460)" d="M80,0h660" style="stroke: rgb(255, 255, 255); stroke-opacity: 1; stroke-width: 2px;"/></g><path class="xlines-below"/><path class="ylines-below"/><g class="overlines-below"/><g class="xaxislayer-below"/><g class="yaxislayer-below"/><g class="overaxes-below"/><g class="plot" transform="translate(80,80)" clip-path="url(#clipa57972xyplot)"><g class="scatterlayer mlayer"><g class="trace scatter trace5703d8" style="stroke-miterlimit: 2; opacity: 1;"><g class="fills"/><g class="errorbars"/><g class="lines"><path class="js-line" d="M0,129.62L0.97,128.98L1.3,130.17L1.95,128.25L2.27,131.07L3.25,129.18L3.59,130.99L4.23,129.45L4.56,129.85L4.89,130.39L5.21,129.14L5.53,130.01L5.86,130.18L7.18,128.79L7.49,129.99L8.8,129.93L9.12,130.65L9.78,128.48L10.1,128.85L10.43,128.06L10.78,129.08L11.41,128.7L11.73,129.47L12.07,128.85L12.39,130.09L13.37,128.74L13.69,129.06L14.02,117.56L14.35,129.99L14.67,129.24L15,130.03L15.32,129.66L15.67,129.08L15.97,107.3L16.63,107.69L16.96,107.67L17.28,108.23L17.61,111.86L18.59,107.74L18.91,107.67L20.87,108.52L21.2,107.11L22.17,108.69L22.5,106.43L23.48,108.54L23.81,107.69L24.14,108.15L24.46,107.86L24.78,106.29L25.44,110.22L25.76,106.51L26.74,109.21L27.07,107.47L28.05,108.48L28.37,107.49L29.04,106.55L29.35,108.63L29.68,110.57L30,107.69L30.34,107.3L30.66,107.69L30.98,111.2L31.63,107.42L31.96,107.88L32.29,111.94L32.94,106.06L33.27,107.67L33.59,109.6L33.93,106.16L34.24,111.34L35.23,107.24L35.55,110.39L36.53,106.64L36.86,108.27L37.83,107.69L38.16,108.46L38.49,107.86L38.82,110.57L39.47,106.95L39.79,107.67L40.12,110.43L40.77,106.82L41.11,107.69L41.42,110.16L41.75,106.68L42.41,107.47L42.73,108.06L43.05,110.18L43.38,107.8L43.71,106.41L44.36,111.5L44.7,107.97L45.01,105.58L45.34,107.65L45.67,112.89L46.32,106.87L46.64,107.86L46.97,108.44L47.3,105.6L47.62,105.64L47.95,106.51L48.93,108.17L49.25,105.99L49.91,108.44L50.23,108L50.56,107.09L51.21,107.86L51.54,107.38L52.51,108.44L52.84,106.35L53.19,107.07L53.5,110.76L53.82,104.34L54.15,104.54L54.49,107.3L55.12,108.23L55.45,106.24L56.11,108.38L56.43,107.65L56.76,108.02L57.09,107.11L57.74,107.47L58.08,108.17L58.39,106.99L58.71,107.78L59.04,112.32L59.38,106.45L60.02,108.06L60.35,103.99L61,107.8L61.32,107.69L61.65,108.13L62.3,105.97L62.63,108.63L63.28,105.79L63.61,108.11L63.94,106.76L64.27,107.69L64.59,108.03L64.91,107.53L65.24,109L66.22,106.93L66.56,108.07L66.87,110.12L67.19,107.28L67.52,103.67L68.18,113.1L68.5,107.09L68.83,105.83L69.16,107.94L69.48,111.75L69.81,107.84L70.13,106.87L70.79,108.27L71.11,106.39L72.09,107.28L72.42,110.39L73.07,106.02L73.4,107.86L73.72,110.03L74.05,106.76L74.37,103.17L74.7,109.62L75.35,102.85L75.68,107.26L76.66,101.93L76.98,100.56L77.31,108.6L77.64,106.72L77.96,101.87L78.29,112.77L78.62,104.01L78.95,106.92L79.59,107.92L79.94,111.71L80.58,105.54L80.9,105.97L81.24,108.84L81.55,111.15L81.88,110.76L82.21,107.57L82.54,107.26L82.86,113.04L83.51,105.91L83.83,107.49L84.16,111.15L85.14,107.61L85.47,108.61L85.79,112.29L86.45,107.03L86.77,108.48L87.1,107.46L87.43,108.03L87.75,106.43L88.08,107.11L88.42,106.14L88.73,105.54L89.72,110.57L90.03,107.59L90.36,105.31L90.69,108.84L91.02,110.39L91.34,106.1L91.99,112.87L92.32,103.59L92.65,104.83L92.97,103.05L93.95,118.88L94.28,109.02L94.61,104.36L94.93,109.21L95.26,107.76L95.58,104.98L95.91,108.65L96.23,108.07L97.21,103.8L97.54,109.25L97.87,106.49L98.21,111.28L98.52,105.19L98.84,111.3L99.17,109.41L99.5,111.82L99.82,106.7L100.15,105.54L100.47,108.5L101.13,110.7L101.45,107.69L101.79,107.67L102.11,106.86L102.43,101.7L102.76,108.83L103.1,109.6L103.41,105.91L104.06,109.58L104.4,114.43L105.04,104.86L105.37,113.12L106.35,105.46L106.69,111.75L107,107.03L107.65,108.07L107.99,108.06L108.3,108.84L108.63,106.16L108.96,102.68L109.29,105.56L109.61,111.5L110.59,105.12L110.91,113.12L111.89,103.03L112.22,108.25L112.55,100.28L112.88,105.85L113.2,106.14L114.18,103.32L114.5,105.12L114.83,106.7L115.17,104.86L115.48,105.08L115.81,103.3L116.13,107.69L117.11,104.26L117.44,107.47L118.09,101.7L118.42,105.78L118.76,113.23L119.07,108.27L119.4,103.92L119.73,106.05L120.06,113.46L120.7,104.94L121.03,106.22L121.36,109.02L122.33,106.89L122.66,108.84L122.99,111.48L123.31,108.48L123.66,104.77L124.29,111.5L124.62,107.47L124.95,104.55L125.6,109.85L125.92,103.26L126.57,107.69L126.9,105.54L127.88,105.21L128.21,105.75L128.55,107.7L128.86,106.05L129.18,106.37L129.85,107.3L130.17,106.18L130.49,103.39L130.81,107.09L131.15,105.15L131.8,104.42L132.14,107.67L132.45,107.67L132.77,103.72L133.1,103.55L133.44,111.36L134.08,104.55L134.4,104.81L134.74,111.77L135.38,103.82L135.71,107.47L136.04,107.88L136.37,108.27L136.69,105.93L137.67,109.47L137.99,106.93L138.33,107.3L138.65,106.64L138.97,113.12L139.63,102.76L139.95,106.14L140.28,115.82L140.93,104.38L141.26,105.54L141.58,103.36L141.93,101.35L142.24,104.94L142.56,107.7L142.89,102.22L144.19,108.84L144.52,102.45L145.17,107.24L145.52,104.94L145.82,107.9L146.15,104.77L146.48,105.93L146.82,109.41L147.13,106.53L147.45,104.88L147.78,103.41L148.12,112.34L148.76,104.44L149.09,108.07L149.41,106.89L149.74,109.62L150.06,109.47L150.41,107.09L150.72,110.18L151.04,108.63L151.37,106.7L151.71,100.88L152.02,103.8L152.35,105.62L152.68,102.82L153,103.26L153.33,105.62L153.65,112.09L154,105.41L154.31,103.59L154.96,109.41L155.3,103.36L155.94,109.02L156.26,105.93L156.6,102.66L157.24,102.85L157.57,108.63L158.55,103.72L158.89,107.07L159.2,101.5L159.85,103.05L160.19,106.39L160.51,107.47L160.83,104.01L161.49,111.94L161.81,106.53L162.13,101.95L162.46,107.84L162.79,117.74L163.44,104.05L163.78,108.84L164.09,108.57L164.75,106.14L165.08,99.57L165.4,108.25L165.73,104.75L166.05,104.55L166.38,106.22L166.7,112.64L167.03,111.86L167.36,101.17L168.33,109.31L168.68,103.69L168.99,104.07L169.31,107.67L169.64,108.07L169.97,104.28L170.29,104.26L170.62,106.62L170.95,106.89L171.27,104.94L171.6,104.11L171.92,104.32L172.27,107.03L172.9,106.22L173.23,103.88L173.57,107.84L173.88,107.28L174.21,104.88L174.87,108.92L175.19,107.49L175.51,102.22L176.17,113.1L176.49,108.07L176.82,105.08L177.16,106.32L177.47,111.45L177.8,106.7L178.46,107.19L178.77,110.01L179.43,103.88L179.76,105.75L180.08,107.84L180.41,112.09L180.75,105.64L181.06,101.33L181.39,107.2L181.71,112.31L182.05,104.63L182.36,101.81L182.69,107.86L183.67,103.88L183.99,107.28L184.32,106.62L184.65,102.39L185.64,107.67L185.95,102.72L186.28,104.48L186.6,100.86L186.94,107.24L187.26,105.12L187.59,105.04L188.56,107.97L188.89,104.09L189.87,107.86L190.2,102.85L190.85,108.61L191.17,107.67L191.5,102.91L191.83,108.25L192.48,107.86L192.8,104.44L193.78,108.25L194.13,105.45L194.44,104.58L194.76,107.86L195.09,112.34L195.42,104.48L195.74,102.35L196.07,106.14L196.39,107.94L196.72,103.01L197.04,103.14L197.37,109L197.7,108.07L198.03,103.03L198.35,103.63L198.68,107.2L199.02,108.23L199.33,101.17L200.32,107.84L200.64,106.89L200.96,103.65L201.28,111.11L202.27,102.06L202.61,108.84L203.24,107.69L203.57,100.21L204.22,112.71L204.55,108.61L204.87,100.59L205.53,109.76L205.85,108.44L206.18,103.69L206.83,109.16L207.16,107.11L207.5,105.58L207.81,107.51L208.14,107.3L208.47,108.17L208.8,102.3L209.44,107.47L209.77,105.41L210.1,102.8L210.42,99.94L210.75,108.07L211.09,107.78L211.4,104.21L211.73,103.74L212.05,107.88L212.39,107.24L212.71,101.98L213.69,107.49L214.01,105.91L214.34,102.64L214.66,108.84L215.64,104.32L215.99,107.88L216.3,109.2L216.62,108.63L216.95,103.76L217.6,108.77L217.92,107.28L218.25,102.78L218.9,112.34L219.23,106.6L219.58,102.12L220.21,112.15L220.54,107.3L220.87,102.72L221.84,108.03L222.18,103.98L222.82,108.07L223.14,102.35L223.47,103.34L223.8,101.06L224.12,109.04L224.47,103.26L224.78,103.67L225.1,98.64L225.43,108.83L225.77,107.82L226.08,100.63L226.41,102.39L226.74,110.31L227.39,102.25L227.71,103.18L228.04,111.11L228.69,100.19L229.02,103.76L229.36,110.76L230.32,103.11L230.66,107.4L230.98,110.93L231.3,107.05L231.63,104.94L232.28,110.37L232.61,108.06L232.95,102.52L233.58,111.8L233.91,107.78L234.25,98.2L234.89,107.61L235.22,102.3L236.19,107.47L236.52,101.21L237.5,108.06L237.84,107.46L238.15,104.15L238.48,101.19L238.81,107.47L239.14,107.69L239.46,101.81L239.79,100.05L240.11,109.25L240.44,107.47L240.76,101.02L241.44,110.37L241.74,108.44L242.07,100.44L242.74,109.23L243.05,107.82L243.37,107.47L243.7,103.3L244.03,109L245,107.09L245.33,107.86L245.98,107.82L246.33,105.27L246.96,112.54L247.29,108.07L247.63,99.53L247.94,106.51L248.27,112.31L248.93,101.81L249.25,105.93L249.57,107.26L249.9,101.52L250.23,102.04L250.55,108.06L250.88,107.46L251.22,103.69L251.53,101.97L251.86,105.08L252.52,108.02L252.83,104.48L253.16,101.62L253.49,107.67L253.82,108.84L254.14,103.41L254.46,102.25L254.81,111.03L255.77,100.92L256.11,112.71L257.07,102.33L257.41,110.74L258.05,104.71L258.38,106.51L258.71,107.47L259.03,106.51L259.36,106.87L259.71,107.15L260.01,107.43L260.34,110.76L261.01,100.07L261.32,108.48L261.64,112.54L261.97,102.89L262.3,101.35L262.62,109.23L262.95,110.39L263.27,98.68L263.6,100.01L263.93,107.07L264.25,108.84L264.6,99.74L265.56,107.88L265.9,101.33L266.21,102.3L266.54,99.16L267.2,108.61L267.52,103.61L267.84,100.98L268.17,108.06L268.5,107.69L268.82,99.53L269.14,101.29L269.49,108L269.8,107.46L270.13,100.24L270.79,112.32L271.1,107.61L271.43,103.47L271.76,108.65L272.08,108.94L272.41,108.25L272.74,105.45L274.04,108.84L274.38,105.15L275.02,110.95L275.34,107.88L275.68,102.66L276,106.72L276.32,110.85L276.98,100.32L277.3,106.53L277.63,108.27L277.97,100.44L278.61,104.63L278.94,107.3L279.27,99.22L279.59,103.22L279.91,102.51L280.57,107.67L280.89,102.64L281.22,101.29L281.54,105.91L281.87,106.28L282.2,101.02L282.52,99.34L282.86,110.58L283.5,99.91L283.83,101.91L284.16,112.5L284.81,98.02L285.13,107.61L285.47,112.31L285.78,107.28L286.11,101.17L286.76,109.6L287.09,106.64L287.42,107.84L287.76,106.12L288.07,108.44L289.06,106.55L289.37,107.86L289.7,109.25L290.03,101.35L290.35,100.03L290.68,108.3L291.01,112.52L291.35,101.54L291.66,101.08L291.98,106.89L292.31,109.41L292.65,100.5L292.96,101.81L293.29,106.83L293.62,107.46L293.95,103.11L294.27,103.22L294.6,105.19L294.94,106.87L295.25,104.75L295.57,102.12L295.9,102.66L296.24,107.09L296.55,106.7L296.88,100.63L297.2,101.58L297.54,107.61L297.86,106.51L298.18,99.14L298.84,112.48L299.16,107.46L299.49,98.8L300.14,111.94L300.47,107.67L300.79,108.46L301.45,106.28L301.77,107.47L302.1,109.02L302.43,109.6L302.75,108.83L303.08,112.91L303.4,101.23L303.73,105.75L304.06,105.87L304.38,112.48L304.73,101.37L305.04,99.04L305.36,107.88L305.69,109.21L306.02,101.6L306.34,100.59L306.67,107.7L306.99,108.06L307.32,99.18L307.97,107.59L308.32,105.52L308.62,103.59L309.28,102.6L309.61,107.67L309.93,101.85L310.25,102.95L310.58,109.02L311.56,102.33L311.88,106.12L312.54,106.45L312.86,101.38L313.21,111.32L314.17,99.61L314.51,107.67L314.82,110.39L315.15,102.25L315.48,101.91L315.81,105.91L316.13,109.41L316.45,105.13L316.8,101.73L317.11,100.67L317.43,106.14L317.76,112.25L318.1,106.18L318.41,99.14L319.06,111.71L319.4,101.37L319.72,98.62L320.04,107.9L320.37,107.4L320.7,97.95L321.35,107.47L321.69,103.41L322,96.67L322.33,102.91L322.65,100.03L322.99,108.25L323.3,99.04L323.63,101.93L323.96,110.45L324.61,108.84L324.93,102.84L325.59,111.11L325.91,107.07L326.24,97.15L326.89,113.12L327.22,107.3L327.55,97.48L328.2,111.94L328.53,107.46L328.85,99.64L329.83,109.23L330.17,101.85L331.13,109.04L331.47,99.74L332.11,108.84L332.44,105.27L332.77,101.02L333.09,101.75L333.42,110.57L333.76,108L334.07,98.8L335.07,107.09L335.37,97.33L336.03,111.45L336.37,102.25L336.68,103.47L337.01,99.03L337.66,112.11L337.99,105.46L338.31,106.74L338.66,112.71L339.62,102.18L339.96,103.61L340.27,110.57L340.6,104.77L340.92,97.04L341.57,110.72L341.9,108.06L342.23,98.33L342.88,115.03L343.2,109.79L343.55,94.41L344.19,109.62L344.51,107.67L344.85,105.78L345.49,112.48L345.82,97.85L346.15,98.58L346.47,102.12L346.8,108.84L347.14,101.08L347.45,99.47L347.77,96.46L348.1,108.23L348.44,106.49L348.75,95.38L349.08,96.8L349.4,114.05L350.06,97.48L350.38,104.17L350.71,113.16L351.69,100.9L352.03,108.23L352.34,108.23L352.67,106.28L352.99,103.34L353.33,107.67L354.3,102.78L354.63,110.16L354.95,113.41L355.28,105.5L355.62,101.73L355.93,105.68L356.26,109.41L356.92,96.92L357.23,108.25L357.56,112.81L357.89,109.02L358.22,102.89L358.54,108.84L358.87,108.44L359.19,102.52L359.52,104.52L359.85,100.98L360.17,107.86L360.52,107.61L360.82,97.85L361.15,98.12L361.48,106.45L361.82,111.75L362.13,96.01L362.46,98.26L362.78,109.35L363.43,96.85L363.76,98.93L364.08,112.69L364.74,97.46L365.07,99.09L365.41,110.99L366.04,100.75L366.37,101.23L366.71,107.61L367.35,109.39L367.67,97.06L368.33,107.84L368.65,106.1L369,102.35L369.31,111.34L369.96,110.57L370.3,96.21L370.94,111.75L371.26,109.21L371.6,99.24L372.24,111.34L372.57,91.63L373.55,108.73L373.89,101.1L374.2,102.2L374.52,106.47L375.19,107.78L375.51,99.97L376.16,110.34L376.49,107.8L376.81,98.04L377.14,97.73L377.46,108.96L377.79,107.19L378.12,99.67L378.44,98.08L378.79,111.92L379.75,99.8L380.08,111.38L381.05,106.14L381.38,111.75L382.03,107.47L382.36,108.83L382.68,112.71L383.34,105.72L383.68,94.06L384.31,116.96L384.64,102.82L384.98,99.14L385.29,111.94L386.28,100.57L386.6,112.73L387.27,96.67L387.58,100.11L387.9,109.83L389.21,96.86L389.53,108.83L390.51,97.25L390.84,105.18L391.17,107.49L391.49,97L391.82,97.6L392.16,109.23L393.12,99.51L393.46,109.87L393.78,110.2L394.1,104.83L394.43,111.36L394.76,102.95L395.08,105.93L395.41,101.08L396.06,105.54L396.39,104.48L396.71,107.47L397.05,102.82L397.36,108.09L397.69,110.18L398.35,100.63L398.67,104.31L398.99,110.72L399.65,97.39L399.97,107.3L400.3,110.01L400.63,94.25L401.61,107.42L401.95,95.57L402.91,107.22L403.24,99.47L403.56,99.72L403.89,97.83L404.55,110.39L404.87,98.39L405.19,95.66L405.54,106.7L405.85,107.86L406.17,94.19L406.84,107.03L407.15,104.21L407.48,97.23L408.14,110.31L408.46,108.94L408.78,95.11L410.09,110.37L410.43,107.97L410.74,108.17L411.07,106.83L411.39,109.39L411.73,102.74L412.37,109.83L412.7,99.28L413.68,110.31L414,98.6L414.33,98.2L414.66,106.72L414.98,105.35L415.32,96.3L415.63,94.97L415.96,108.25L416.29,107.47L416.62,102.14L416.94,96.79L417.27,100.44L417.59,108.57L417.92,109.97L418.24,104.32L418.57,103.01L418.9,107.28L419.22,106.53L419.55,98.47L419.87,97.77L420.22,106.12L420.53,105.93L420.85,94.54L421.52,112.11L421.83,106.83L422.16,95.14L422.82,111.07L423.14,103.9L423.46,103.2L423.81,108.65L424.77,105.29L425.11,110.53L426.07,103.53L426.41,109.52L426.73,109.14L427.06,112.05L427.71,92.24L428.03,109.54L428.36,114.62L428.7,97.87L429.01,95.28L429.34,107.88L429.66,105.81L430,97.19L430.31,99.13L430.64,108L430.97,108.38L431.3,100.21L431.62,98.2L431.95,102L432.27,108.23L432.6,105.02L432.93,99.24L433.6,107.59L433.9,104.38L434.23,96.59L435.21,108.23L435.53,95.45L435.86,96.44L436.2,105.66L436.84,98.64L437.17,110.49L438.15,106.05L438.49,108.46L438.8,105.93L439.12,112.32L439.79,105.45L440.1,107.46L440.43,107.61L441.09,106.53L441.41,104.58L441.74,107.42L442.06,98.5L442.39,93.4L442.71,106.06L443.04,111.55L443.39,101L443.69,90.83L444.02,109.04L444.35,110.12L444.69,98.82L445,95.84L445.32,102.97L445.65,106.26L445.98,98.31L446.63,105.27L446.95,103.53L447.28,100.42L447.61,98.85L447.93,101.71L448.58,105.69L448.91,97.85L449.24,92.86L449.58,106.24L449.89,106.24L450.22,96.65L450.54,96.63L450.88,110.16L451.52,98.99L451.85,102.84L452.18,111.71L452.83,103.39L453.17,106.45L453.48,111.34L453.81,105.31L454.13,105.46L454.47,107.42L454.78,106.26L455.11,111.28L455.44,98.27L455.77,100.44L456.09,113.81L456.41,113.62L456.74,101.17L457.07,99.09L457.39,104.13L457.72,110.9L458.06,98.68L458.37,95.08L458.7,108.98L459.03,106.43L459.36,95.59L459.68,92.57L460,107.22L460.33,107.63L460.66,97.87L461.64,105.15L461.96,102.35L462.61,96.19L462.96,107.24L463.27,106.45L463.59,98.22L463.92,95.47L464.26,107.03L464.57,106.62L464.9,96.05L465.22,107.67L465.88,106.51L466.2,96.92L466.86,113.58L467.18,108.96L467.51,98.6L468.49,109.52L468.81,100.07L469.79,107.4L470.12,93.89L471.1,110.76L471.44,98.39L472.08,106.62L472.4,112.34L472.74,95.99L473.05,99.86L473.38,110.91L473.71,108.17L474.04,96.44L474.69,108.38L475.01,107.32L475.34,95.78L475.99,101.19L476.34,106.72L476.64,106.05L476.97,96.85L477.63,104.88L477.95,102.97L478.28,96.32L478.93,107.57L479.25,103.14L479.58,91.26L479.91,108L480.23,113.04L480.56,107.7L480.88,93.02L481.53,113.58L481.86,105.46L482.19,96.07L482.84,110.14L483.17,108.77L483.49,91.01L483.83,109.71L484.15,109.04L484.47,103.18L484.8,97.95L485.13,107.05L485.45,106.86L485.78,109.56L486.12,102.25L486.43,103.92L486.76,110.18L487.08,110.55L487.42,93.81L487.73,92.01L488.06,108.81L488.39,109.43L488.72,94.66L489.04,96.48L489.37,105.93L489.69,106.12L490.02,99.22L490.35,94.89L490.67,103.99L491.33,107.13L491.65,101.02L491.98,102.31L492.31,108.36L492.96,97.56L493.28,108.19L493.61,108.34L493.93,103.55L494.26,95.35L494.61,109.23L494.91,110.63L495.24,107.61L495.56,87.6L495.91,111.72L496.22,111.17L497.21,104.54L497.52,105.68L497.85,108.38L498.17,95.2L498.5,107.61L498.83,107.4L499.5,98.91L499.81,107.88L500.13,109.56L500.46,108.02L500.8,98.7L501.11,91.68L501.44,108.98L501.76,112.5L502.1,100.84L502.42,95.82L502.74,108.79L503.07,107.42L503.4,95.93L503.72,97.08L504.05,107.8L504.39,109.23L504.7,99.8L505.03,93.85L505.36,108L505.69,106.64L506,98.49L506.99,108.57L507.31,108.48L507.64,98.82L508.29,107.94L508.62,105.48L508.94,96.85L509.6,110.97L509.92,106.87L510.25,100.09L510.9,109.95L511.23,107.8L511.55,94.78L512.2,108.38L512.53,105.29L512.88,95.05L513.84,108.57L514.18,98.06L515.14,108.57L515.48,99.43L515.8,98.77L516.12,108.27L516.44,108.4L516.78,94.66L517.1,94.52L517.43,108.4L517.77,105.93L518.08,92.36L518.4,95.47L518.73,106.29L519.07,106.14L519.38,94.87L520.03,98.89L520.37,108.19L520.69,108.57L521.01,97.09L521.67,107.86L521.99,106.53L522.32,93.34L522.66,107.4L523.3,103.57L523.63,91.63L524.28,108.54L524.6,106.89L524.93,93.97L525.58,111.48L525.91,108.19L526.23,93.42L526.89,109L527.21,106.45L527.56,94.06L528.19,107.46L528.52,106.62L528.86,95.55L529.5,108.02L529.82,103.36L530.16,96.19L530.8,109.04L531.13,103.94L531.46,92.77L531.78,95.41L532.11,108.02L532.45,107.4L532.76,93.64L533.08,95.34L533.41,104.77L533.75,108.07L534.06,101.93L534.39,95.55L534.71,110.39L535.37,103.24L535.7,93.34L536.35,107.86L536.68,104.07L537,93.4L537.65,112.19L537.98,107.01L538.31,95.47L539.28,111.5L539.61,96.11L540.59,128.39L540.91,123.59L541.24,127.54L541.57,129.88L542.24,129.58L542.55,124.62L542.87,123.44L543.2,128.85L543.85,126.63L544.18,129.01L544.51,129.24L544.84,128.47L545.15,125.68L545.48,128.77L545.81,129.88L546.14,128.25L546.46,128.68L546.79,129.04L547.44,128.02L547.77,130.01L548.09,129.16L548.43,125.54L549.4,129.55L549.73,129.24L550.38,130.38L550.7,129.85L551.03,128.31L551.35,129.88L551.68,129.08L552.02,128.87L552.33,127.69L552.66,130.44L553.32,128.64L553.64,128.71L553.96,129.47L554.62,130.01L554.95,124.6L555.27,124.91L555.61,131.36L556.91,123.77L557.23,128.79L557.55,128.75L557.88,131.32L558.21,127.03L558.53,130.61L558.86,129.39L559.84,124.97L560.16,129.25L560.51,127.15L560.82,128.64L561.14,131.77L561.47,127.48L561.8,133.49L562.45,124.52L562.77,128.62L563.1,128.62L563.43,127.84L563.75,129.47L564.4,129.24L564.73,130.34L565.06,131.11L565.4,129.78L565.71,130.61L566.03,128.62L566.7,132.31L567.02,129.25L567.34,128.08L567.67,129.85L567.99,129.8L568.32,128.25L568.65,128.71L568.99,130.75L569.3,122.66L569.62,128.41L569.95,128.48L570.29,130.24L570.93,129.84L571.26,127.3L571.59,128.48L571.91,126.94L572.23,125.37L572.89,127.92L573.21,130.99L573.54,130.61L573.88,135.06L574.19,128.83L574.85,129.49L575.18,127.54L575.5,129.84L575.82,127.46L576.17,128.83L576.47,130.39L576.8,124.58L578.11,135.27L578.43,126.67L578.77,128.85L579.41,128.47L579.74,129.41L580.07,127.52L580.39,128.7L580.72,131.32L581.37,124.58L581.7,128.06L582.02,130.78L582.36,132.1L582.67,130.24L583.33,126.13L583.66,128.77L583.98,128.83L584.3,128.08L584.96,127.88L585.29,131.38L586.26,126.84L586.59,128.08L586.92,127.3L587.25,129.82L587.57,123.67L587.9,128.7L588.22,126.53L589.2,131.19L589.55,127.07L589.85,132.93L590.18,127.15L590.51,130.53L590.84,130.39L591.16,131.17L591.48,125.68L591.81,127.92L592.14,128.64L592.79,129.88L593.11,128.48L593.44,125.27L593.77,127.69L594.09,128.44L594.75,131.32L595.07,130.24L595.4,127.9L597.36,129.08L597.68,130.24L599.33,128.7L599.64,129.06L599.97,129.47L600.29,128.39L600.62,128.1L600.94,128.79L601.27,129.24L601.6,128.7L601.93,129.84L602.25,128.23L602.58,128.6L602.92,128.77L603.55,129.25L603.88,127.67L604.22,129.08L604.53,126.73L605.84,130.01L606.17,127.27L606.82,129.47L607.14,126.76L608.12,129.16L608.45,127.63L608.77,129.47L609.11,127.54L609.43,127.9L610.1,127.23L610.41,122.65L610.73,133.82L611.06,131.94L611.4,128.2L611.71,125.6L612.04,129.88L612.36,129.97L612.7,129.18L613.02,127.61L613.34,130.78L614,126.76L614.32,127.48L614.65,129.06L615.3,129.22L615.62,126.05L615.95,129.24L616.29,128.68L616.61,127.84L616.93,130.61L617.26,127.63L617.59,128.48L618.24,129.62L618.58,127.54L618.89,126.73L619.21,128.31L619.54,127.44L619.88,130.39L620.52,128.48L620.85,128.64L621.18,131.02L621.82,124.83L622.15,131.96L622.48,128.47L622.81,129.24L623.13,129.64L623.78,128.31L624.11,128.7L624.44,129.06L625.09,128.48L625.41,128.85L626.39,126.67L626.72,127.44L627.06,129.97L627.37,130.42L627.7,128L628.02,127.3L628.36,129.37L628.68,129.85L629,127.15L629.33,127.6L629.66,126.11L630.31,129.24L630.64,133.33L631.29,133.74L631.96,126.41L632.26,131.17L632.59,125.37L632.92,129.55L633.25,127.46L633.57,126.34L633.9,132.54L634.22,128.77L634.55,129.22L634.88,132.31L635.2,131.85L635.55,128.66L636.51,124.42L636.84,125.35L637.16,127.27L637.48,125.7L637.81,125.53L638.46,134.13L638.79,129.85L639.12,129.62L639.44,125.7L639.77,127.61L640.09,128.08L640.44,125.91L640.75,129.04L641.07,130.22L641.4,126.34L641.74,132.29L642.05,127.69L642.38,129.62L642.71,127.54L643.36,127.92L643.68,127.07L644.03,129.99L644.66,129.25L644.99,130.01L645.64,124.37L645.97,128.7L646.29,126.53L646.63,127.71L646.95,129.18L647.27,125.76L647.6,128.66L647.93,129.02L648.25,130.63L648.58,127.09L648.92,128.1L649.23,132.25L649.56,131.11L649.88,126.84L650.22,127.46L650.54,131.73L650.86,125.99L651.19,128.08L651.52,131.19L652.51,127.13L652.82,135.66L654.12,127.3L654.45,128.85L654.78,129.1L655.11,127.54L655.76,127.87L656.1,126.9L656.73,131.17L657.06,127.25L657.4,129.49L657.72,129.39L658.04,127.54L658.36,127.56L658.7,129.57L659.34,128.48L659.67,129.1L660,129.01" style="vector-effect: none; fill: none; stroke: rgb(0, 0, 255); stroke-opacity: 1; stroke-width: 2px; opacity: 1;"/></g><g class="points"/><g class="text"/></g><g class="trace scatter traceb5760f" style="stroke-miterlimit: 2; opacity: 1;"><g class="fills"/><g class="errorbars"/><g class="lines"><path class="js-line" d="M0,218.32L1.95,218.57L2.27,218.42L3.59,218.5L3.9,218.38L13.69,218.53L14.02,216.64L14.67,218.63L15,218.51L15.32,218.61L15.67,218.53L15.97,212.39L17.28,212.72L17.61,214.67L18.59,212.41L18.91,212.42L20.22,212.42L20.55,212.41L22.17,212.64L22.5,212.45L23.81,212.45L24.14,215.27L25.11,212.39L25.44,212.33L26.42,212.41L26.74,213.88L27.07,212.41L27.74,212.6L28.05,212.56L28.37,215.19L28.7,212.29L29.04,212.35L30.34,211.71L30.66,212.48L30.98,213.26L31.33,212.27L31.63,212.35L33.59,212.37L33.93,212.12L34.9,212.42L35.23,211.42L36.22,212.39L36.53,212.48L37.18,212.46L37.52,214.65L38.16,211.98L38.49,212.52L38.82,212.41L39.79,212.42L40.12,213.08L40.77,211.98L41.11,212.31L41.42,212.35L43.38,212.14L43.71,211.09L44.36,212.52L44.7,212.21L45.01,211.98L45.67,212.45L46,212.06L46.32,211.79L46.97,212.41L47.3,212L47.62,212.23L47.95,211.11L48.28,212.54L48.6,210.67L48.93,212.25L49.25,212.48L51.86,212.41L52.19,212.62L52.51,212.39L52.84,210.65L53.82,212.48L54.15,211.31L55.12,212.5L55.45,212L56.43,212.46L56.76,211.81L57.74,212.52L58.08,211.73L58.39,211.59L58.71,212.64L59.69,211.81L60.02,212.46L60.35,212.45L61,211.55L61.32,211.73L61.65,212.64L61.98,211.32L62.3,211.77L62.63,212.42L62.97,212.46L63.28,211.09L63.94,213.12L64.27,212.45L64.59,212.23L64.91,211.54L65.24,212.45L65.57,214.7L66.22,211.38L66.56,212.42L66.87,212.48L67.19,212.42L67.52,211.27L68.18,213.18L68.5,212.41L68.83,211.32L69.81,212.35L70.13,211.54L70.79,212.45L71.11,212.15L71.46,211.38L71.76,211.31L72.09,212.46L73.07,211.09L73.4,212.19L73.72,212.23L74.05,209.26L75.05,212.56L75.35,211.94L75.68,211.28L76.01,215.11L76.66,210.53L76.98,211.5L77.31,212.12L77.64,212.41L77.96,211.59L78.29,211.27L78.62,213.83L79.59,211.05L79.94,212.48L80.25,215.11L80.58,212.48L80.9,211.32L81.88,212.18L82.21,209.76L82.86,213.14L83.18,212.12L83.51,211.34L84.16,212.37L84.49,211.04L84.83,210.36L85.14,212.41L85.79,211.92L86.13,211.4L86.45,209.78L86.77,212.66L87.75,211.52L88.08,212.68L88.73,211.32L89.06,210.65L89.38,212.66L89.72,212.6L90.03,210.84L90.69,213.06L91.02,212.39L91.34,209.04L92.32,212.52L92.65,211.94L93.62,213.18L93.95,211.28L94.93,212.41L95.26,212.39L95.58,211.88L95.91,212.31L96.23,213.06L96.89,210.61L97.21,212.41L97.54,212.39L97.87,208.6L98.84,212.37L99.17,211.92L99.82,210.57L100.15,212.14L101.13,210.98L101.45,212.45L101.79,212.42L102.11,210.88L102.43,210.9L102.76,212.45L103.1,212.39L103.41,210.8L103.74,210.63L104.06,215.5L104.72,209.95L105.04,210.82L105.37,212.5L105.69,212.45L106.02,211.23L106.69,214.01L107,212.37L107.33,211.81L107.65,209.95L107.99,212.18L108.3,215.6L108.96,211.34L109.29,212.41L109.61,212.37L109.94,212.46L110.28,210.36L110.91,214.01L111.24,210.26L111.58,210.63L111.89,212.46L112.22,212.48L112.55,208.85L113.2,212.45L113.53,212.39L113.87,212.02L114.5,210.67L114.83,212.35L115.48,210.4L115.81,210.68L116.13,212.66L116.47,212.46L116.79,208.67L117.77,212.45L118.09,211.77L118.42,210.41L118.76,215.38L119.4,211.11L119.73,212.39L120.06,212.21L121.03,212.23L121.36,213.99L122.33,209.45L122.66,212.35L122.99,215.56L123.31,212.18L123.66,210.78L123.97,212.37L124.29,212.29L124.62,210.61L124.95,209.97L125.27,212.45L125.6,213.89L125.92,209.95L126.25,210.4L126.57,212.42L126.9,212.64L127.25,208.16L128.21,212.6L128.55,211.73L129.18,209.76L129.51,212.33L130.17,209.84L130.49,210.03L130.81,212.33L131.15,212.27L131.47,208.27L132.14,212.35L132.77,211.63L133.1,212.35L133.44,215.21L133.75,212.41L134.08,210.94L135.06,212.41L135.38,212.33L135.71,211.9L136.04,213.99L137.03,209.1L137.34,212.62L137.67,215.5L137.99,210.13L138.97,212.39L139.3,210.05L139.63,209.87L139.95,212.37L140.28,213.35L140.63,208.95L141.58,212.42L141.93,210.61L142.24,210.3L142.56,212.33L142.89,212.6L143.22,211.28L143.87,207.9L144.19,212.39L144.52,212.39L144.85,207.92L145.52,212.29L145.82,212.09L146.15,211.19L147.13,212.37L147.45,210.78L147.78,212.37L148.43,212.18L148.76,212.39L149.74,212.62L150.06,211.44L150.41,207.71L150.72,212.12L151.04,214.07L151.37,209.85L151.71,210.13L152.02,212.37L152.35,212.33L152.68,209.91L153,209.74L153.33,212.33L153.65,213.68L154,209.03L154.31,209.66L154.63,212.33L154.96,212.29L155.3,209.22L155.61,208.97L155.94,212.39L156.26,212.25L156.6,211.28L157.24,208.02L157.57,212.35L157.9,211.94L158.22,209.93L158.55,210.09L158.89,212.35L159.2,212.5L159.53,209.72L159.85,213.06L160.51,212.33L160.83,209.39L161.49,213.56L161.81,212.19L162.13,206.55L162.46,212.37L163.12,212.33L163.44,209.45L164.09,212.45L164.42,212.12L164.75,209.49L165.73,213.04L166.05,209.76L167.03,212.35L167.36,209.51L167.68,207.46L168.01,212.35L168.33,212.39L168.68,206.51L169.64,212.35L169.97,211.52L170.29,208.44L170.62,212.14L170.95,212.39L171.92,207.75L172.27,212.33L172.58,212.33L172.9,209.72L173.57,212.42L173.88,212.35L174.21,209.68L174.87,212.69L175.19,212.41L175.51,208.83L176.17,212.72L176.49,212.33L176.82,208.37L177.8,212.35L178.12,209.51L179.1,213.01L179.43,209.6L179.76,209.49L180.08,212.29L180.41,213.22L180.75,209.43L181.06,208.52L181.39,212.35L182.36,209.22L182.69,212.58L183.02,212.42L183.35,206.57L184.32,212.39L184.65,211.01L184.97,209.43L185.3,213.88L186.28,209.26L186.6,212.35L187.26,212.37L187.59,206.07L187.91,212.39L188.56,212.29L188.89,211.01L189.87,212.33L190.2,209.04L190.85,213.02L191.17,212.37L191.5,208.29L192.48,212.41L192.8,208.93L193.13,208.11L193.46,212.6L193.78,212.46L194.13,209.22L194.44,208.85L194.76,212.48L195.74,208.43L196.07,212.37L197.04,208.77L197.37,212.39L197.7,212.29L198.03,205.85L199.02,212.54L199.33,211.07L199.66,209.14L199.98,213.29L200.96,208.79L201.28,212.42L201.94,212.35L202.27,205.66L202.61,212.39L203.24,212.35L203.57,206.96L204.22,212.99L204.55,212.35L204.87,209.3L205.21,212.41L205.85,212.33L206.18,207.9L207.16,212.41L207.5,209L207.81,206.76L208.14,212.39L208.47,205.82L208.8,209.18L209.12,209.51L209.44,212.39L209.77,211.28L210.1,208.79L210.42,207.94L210.75,212.35L211.4,207.89L211.73,208.76L212.05,213.24L212.39,212.42L212.71,206.15L213.69,212.42L214.01,211.04L214.34,208.81L214.66,212.27L214.99,212.31L215.31,210.76L215.64,207.02L215.99,212.39L216.62,212.37L216.95,210.95L217.92,212.41L218.25,207.19L218.9,214.69L219.23,212.35L219.58,208.76L220.21,212.39L220.54,208.54L220.87,208.1L221.19,208.56L221.51,212.45L221.84,205.25L222.18,208.81L222.49,208.31L222.82,212.33L223.14,211.05L223.47,208.76L223.8,207.71L224.12,212.62L224.78,207.92L225.1,208.54L225.43,213.28L225.77,212.33L226.08,205.87L227.07,212.39L227.39,211.25L227.71,208.67L228.04,212.39L228.37,212.64L228.69,210.74L229.67,212.46L230,212.42L230.32,211.52L230.66,212.12L230.98,212.37L231.3,212.46L231.63,206.65L232.28,214.86L232.61,212.18L232.95,208.56L233.58,212.64L233.91,208.25L234.25,207.65L234.56,209.51L234.89,213.08L235.22,205.25L236.19,212.42L236.52,210.41L236.85,208.67L237.18,207.89L237.5,212.42L238.48,207.71L238.81,214.69L239.14,212.45L239.46,205.02L240.44,212.42L240.76,210.8L241.09,207.03L241.44,213.06L242.07,210.14L242.39,212.39L244.68,212.33L245,206.3L245.66,213.95L245.98,212.37L246.33,208.58L246.63,212.39L246.96,212.29L247.29,208.17L247.63,207.02L247.94,212.31L248.27,213.01L248.59,206.07L249.57,212.39L249.9,206.24L250.88,212.37L251.22,210.32L251.53,208.11L251.86,208.5L252.18,212.39L252.52,210.8L252.83,205.41L253.16,206.96L253.49,212.35L253.82,212.45L254.14,207.73L254.46,207.56L254.81,212.33L255.12,212.39L255.45,210.13L256.11,214.69L256.42,212.45L256.75,211.79L257.73,212.45L258.05,212.41L258.38,209.16L258.71,213.1L259.03,212.08L259.36,212.45L259.71,206.63L260.34,213.95L260.67,207.98L261.01,207.42L261.32,212.41L261.64,212.09L261.97,207.73L262.3,207.07L262.62,212.37L262.95,212.45L263.27,204.36L263.93,212.46L264.25,212.21L264.6,210.13L264.9,208.19L265.23,212.41L265.56,212.41L265.9,210.13L266.54,206.18L266.86,212.64L267.2,212.37L267.52,204.56L268.17,212.64L268.5,212.41L268.82,210.2L269.14,212.48L269.8,212.35L270.13,210.13L270.79,213.01L271.1,212.45L271.43,212.08L272.74,212.46L273.08,207.07L273.71,212.39L274.04,207.73L274.38,206.99L274.69,212.41L275.02,212.87L275.34,208.02L275.68,206.94L276,212.45L276.32,212.42L276.65,206.69L276.98,207.32L277.3,212.35L277.63,212.35L277.97,204.31L278.61,212.33L278.94,212.29L279.27,210.45L279.59,207.56L279.91,211.05L280.24,212.18L281.22,205.78L281.54,212.09L281.87,212.14L282.2,204.96L283.18,212.39L283.5,210.4L284.16,214.53L284.48,212.39L284.81,210.65L285.47,212.45L285.78,212.39L286.11,212.37L286.46,211.25L286.76,213.64L287.42,207.38L287.76,205.43L288.4,214.96L288.72,207.5L289.06,207.86L289.37,212.37L289.7,212.37L290.03,207.42L290.35,206.28L290.68,212.29L291.01,213.86L291.35,204.25L291.98,212.35L292.31,212.25L292.65,206.57L292.96,207.48L293.29,212.39L293.62,212.35L293.95,209.84L294.27,207.26L294.6,208.11L294.94,212.41L295.25,210.76L295.57,204.29L296.55,212.41L296.88,206.78L297.86,212.48L298.18,209.97L298.84,214.78L299.16,212.41L299.49,211.11L300.14,212.46L300.47,212.35L300.79,206.3L301.45,213.78L301.77,212.33L302.1,207.05L302.43,205.47L302.75,212.37L303.08,214.65L303.4,207.29L303.73,207.4L304.06,212.29L304.38,212.35L304.73,206.99L305.04,206.09L305.36,212.39L305.69,211L306.02,203.86L306.99,212.42L307.32,208.37L307.64,207.23L307.97,212.42L308.32,212.39L308.62,209.87L308.95,206.53L309.28,212.46L309.93,211.71L310.25,203.96L310.58,212.25L311.23,212.09L311.56,209.49L312.22,212.45L312.54,212.37L312.86,209.9L313.52,213.06L313.85,212.37L314.17,206.1L314.51,212.45L315.15,212.37L315.48,206.12L315.81,206.2L316.13,212.31L316.45,212.33L316.8,207.05L317.11,206.09L317.43,212.37L318.41,206.09L318.74,212.42L319.4,204.71L319.72,206.34L320.04,212.37L320.37,212.09L320.7,204.36L321.69,212.31L322,209.95L322.33,206.76L322.65,212.33L322.99,212.41L323.3,210.36L323.63,203.92L323.96,212.35L324.61,212.41L324.93,205.28L325.59,212.42L325.91,212.33L326.24,205.18L326.89,215.35L327.22,212.35L327.55,206.82L327.88,212.39L328.53,212.23L328.85,205.66L329.5,213.7L329.83,212.52L330.17,206.51L330.48,205.23L330.81,212.58L331.13,206.28L331.79,206.72L332.11,212.14L333.09,205.45L333.42,212.35L333.76,210.8L334.07,203.36L335.07,212.39L335.37,207.02L335.7,206.7L336.03,213.02L336.68,209.7L337.01,206.24L337.66,212.31L337.99,210.84L338.31,203.3L338.66,212.39L339.29,212.35L339.62,208.98L340.6,212.31L340.92,204.87L341.57,214.32L341.9,212.33L342.23,206.15L343.2,212.41L343.55,205.39L344.19,212.79L344.51,203.21L345.49,212.46L345.82,207.9L346.47,206.18L346.8,212.42L347.45,204.95L347.77,205.43L348.1,215.23L348.75,203.01L349.08,206.36L349.4,212.21L349.74,212.19L350.06,208.58L350.38,206.3L350.71,213.72L351.36,209.68L351.69,204.56L352.03,212.45L352.67,211.73L352.99,212.14L353.97,212.42L354.3,206.76L354.63,212.35L355.28,212.15L355.62,205L356.26,213.06L356.58,206.96L356.92,205.45L357.23,212.35L357.56,212.35L357.89,203.36L358.54,205.7L358.87,212.42L359.19,203.9L359.85,205.53L360.17,212.42L361.15,205.22L361.48,212.45L361.82,210.3L362.13,203.25L362.46,205.47L362.78,213.04L363.11,212.29L363.43,204.73L363.76,206.18L364.08,212.23L364.41,212.39L364.74,209.74L365.07,205.64L365.41,212.31L365.72,212.15L366.04,210.34L366.37,212.48L367.02,212.33L367.35,212.31L367.67,210.36L368.01,212.37L368.33,212.46L368.65,212.33L369,204.52L369.63,214.38L369.96,205.78L370.3,205.41L370.61,212.39L370.94,212.14L371.26,205.02L371.6,204.96L371.92,208.76L372.24,213.02L372.57,202.76L373.55,212.33L373.89,207.44L374.52,205.14L374.85,212.04L375.51,204.02L375.83,204.96L376.16,214.63L376.81,202.94L377.14,205.8L377.46,212.14L377.79,212.14L378.12,208.77L378.79,213.06L379.09,212.39L379.42,209.72L380.08,212.27L380.4,212.14L380.72,212.41L381.05,211.87L381.38,212.39L381.7,212.39L382.03,212.37L382.36,205.04L383.01,214.18L383.34,205.74L383.68,205.2L383.99,212.41L384.31,212.39L384.64,205.76L384.98,204.79L385.29,211.5L385.62,213.01L385.94,202.76L386.28,204.89L386.6,204.73L386.92,212.15L387.27,204.33L387.9,205.45L388.23,212.21L389.21,204.69L389.53,212.37L389.87,210.11L390.19,202.65L390.51,204.79L390.84,213.33L391.17,212.42L391.49,204.36L391.82,205.7L392.16,212.42L392.47,212.39L392.8,209.81L393.78,212.41L394.1,210.4L395.08,212.45L395.41,212.18L395.73,210.59L396.06,212.39L396.39,212.18L396.71,212.35L397.05,204.35L397.69,215.25L398.02,205.64L398.35,204.75L398.67,212.15L398.99,212.33L399.32,204.81L399.65,204.31L399.97,209.66L400.3,213.68L400.63,202.59L400.95,204.69L401.28,204.08L401.61,212.31L402.26,205.16L402.58,212.35L402.91,212.33L403.24,209.74L403.56,204.31L403.89,206.45L404.22,214.75L404.87,202.43L405.19,204.79L405.54,212.35L405.85,212.58L406.17,206.07L406.84,213.06L407.15,212.39L407.48,209.49L408.46,212.41L408.78,210.8L409.76,212.31L410.09,212.45L410.43,207.94L410.74,212.06L411.07,212.09L411.73,204.06L412.05,212.21L412.37,213.51L412.7,205.23L413.03,204.42L413.35,212.29L413.68,212.39L414,202.43L414.33,204.33L414.66,212.39L414.98,212.19L415.32,202.82L416.29,212.41L416.62,209.3L416.94,205.12L417.27,209.84L417.59,212.33L417.92,210.13L418.24,202.08L418.57,204.08L418.9,212.37L419.22,212.42L419.55,204L420.53,212.33L420.85,209.62L421.52,215.46L421.83,212.39L422.16,210.55L423.14,212.37L423.46,212.37L423.81,209.2L424.12,213.89L424.44,212.31L424.77,204.33L425.11,203.82L425.42,212.39L425.75,214.84L426.07,204.87L426.41,203.96L426.73,212.12L427.06,212.35L427.38,202.74L427.71,203.84L428.03,212.41L428.36,213.04L428.7,202.12L429.34,212.37L429.66,212.31L430,206.78L430.31,204.42L430.64,212.09L430.97,212.33L431.3,209.8L431.62,204.39L431.95,204.77L432.27,212.39L432.6,211.73L432.93,204.95L433.25,204.6L433.6,212.35L433.9,212.35L434.23,204.48L434.9,212.6L435.21,212.42L435.53,202.12L435.86,212.35L436.51,212.12L436.84,204.52L437.82,212.35L438.15,209.45L439.12,214.59L439.45,204.71L440.43,212.46L440.76,203.76L441.74,212.45L442.06,204.42L442.39,203.86L442.71,212.33L443.04,212.87L443.39,204.56L443.69,203.73L444.02,212.15L444.35,212.19L444.69,201.83L445.32,205.56L445.65,212.31L445.98,202.72L446.63,204.31L446.95,212.37L447.93,203.63L448.28,212.14L448.58,209.91L448.91,201.83L449.58,213.04L449.89,212.09L450.22,203.82L450.54,212.35L451.2,212.21L451.52,209.39L451.85,212.35L452.5,212L452.83,210.44L453.17,212.35L453.81,212.14L454.13,203.34L454.78,212.74L455.11,212.25L455.44,203.82L455.77,203.61L456.09,212.29L456.41,213.62L456.74,204.27L457.07,203.38L457.39,212.29L457.72,212.37L458.06,201.54L458.37,203.61L458.7,212.42L459.03,211.98L459.36,202.26L459.68,204.23L460,212.14L460.33,212.29L460.66,208.33L460.98,204.06L461.31,210.05L461.64,212.31L461.96,209.66L462.29,201.54L462.61,203.82L462.96,212.14L463.27,212.35L463.59,202.97L464.57,212.09L464.9,209.16L465.56,215.27L465.88,212.35L466.2,201.33L466.86,212.15L467.18,212.09L467.51,202.86L468.16,213.47L468.49,212.18L468.81,203.52L469.79,214.49L470.12,204L470.45,212.35L471.1,212.15L471.44,201.6L472.08,212.08L472.4,210.72L472.74,201.43L473.71,212.14L474.04,206.51L474.36,203.19L474.69,211.21L475.01,212.29L475.34,209.68L475.66,203.44L475.99,203.88L476.34,212.09L476.64,212.08L476.97,204.04L477.63,212.31L477.95,212.15L478.28,202.22L478.93,213.68L479.25,212.35L479.58,201.16L479.91,212.14L480.56,212.09L480.88,204.46L481.53,212.99L481.86,212.15L482.19,203.4L483.17,212.37L483.49,202.8L484.15,212.14L484.47,212.12L484.8,203.03L485.45,212.41L485.78,210.76L486.12,203.63L486.43,203.67L486.76,212.19L487.08,212.08L487.42,203.15L487.73,202.67L488.06,211.61L488.39,212.29L488.72,201.2L489.37,204.5L489.69,212.14L490.02,202.86L490.35,203.81L490.67,212.14L491.01,212.06L491.33,208.6L491.65,202.99L491.98,212.31L492.31,212.37L492.63,209.91L492.96,201.18L493.28,212.06L493.61,212.95L493.93,212.27L494.26,202.94L495.24,212.27L495.56,203.84L495.91,212.14L496.55,212.08L496.87,203.22L497.85,212.08L498.17,202.76L498.83,212.25L499.16,212.02L499.5,202.95L499.81,203.42L500.13,212.12L500.46,212.14L500.8,203.55L501.11,202.49L501.44,212.37L501.76,212.37L502.1,201.14L502.42,202.8L502.74,212.09L503.07,212.31L503.4,201.12L503.72,202.97L504.05,212.14L504.39,211.98L504.7,205.87L505.03,203.36L505.36,213.41L506,209.24L506.33,200.91L506.99,212.18L507.31,211.65L507.64,201.62L508.62,212.29L508.94,205.1L509.6,213.02L509.92,212.14L510.25,203.3L511.23,212.35L511.55,202.38L512.2,212.5L512.53,212.27L512.88,202.62L513.18,204.27L513.51,212.35L513.84,202.49L514.49,203.17L514.81,212.06L515.48,201.54L515.8,202.38L516.12,211.94L516.44,209.8L516.78,200.71L517.1,202.7L517.43,212.12L517.77,212.12L518.08,203.13L518.4,203.4L518.73,212.58L519.07,212.33L519.38,209.26L519.71,200.91L520.03,212.14L520.37,212.09L520.69,210.26L521.01,202.72L521.34,212.04L521.67,212.06L521.99,212.19L522.32,202.47L522.97,212.09L523.3,212.06L523.63,202.89L524.28,214.38L524.6,212.12L524.93,201.87L525.91,212.31L526.23,202.2L526.89,212.74L527.21,212.06L527.56,202.74L527.87,212.18L528.19,212L528.52,205.95L528.86,202.89L529.17,211.15L529.5,212.14L529.82,209.2L530.16,200.61L530.47,204.09L530.8,212.06L531.13,210.94L531.46,201.08L531.78,202.89L532.11,212.29L532.45,212.15L532.76,207.03L533.08,202.08L533.41,212.18L533.75,212.15L534.06,209.47L534.39,202.43L534.71,212.37L535.37,212.15L535.7,202.95L536.02,212.35L536.68,212.27L537,200.93L537.65,213.37L537.98,212.41L538.31,203.13L539.28,212.35L539.61,202.02L540.59,218.15L540.91,218.05L551.35,218.28L551.68,218.15L554.29,218.26L554.62,218.15L560.16,218.28L560.51,218.28L569.95,218.34L570.29,218.46L571.91,218.2L572.23,218.4L573.54,218.28L573.88,218.34L575.18,218.36L575.5,218.34L577.78,218.38L578.11,218.44L579.41,218.17L579.74,218.28L581.37,218.18L581.7,218.44L585.29,218.17L585.61,218.38L587.57,218.3L587.9,218.28L592.79,218.28L593.11,218.11L599.33,218.17L599.64,218.5L602.25,218.15L602.58,218.3L604.22,218.3L604.53,218.2L660,218.32" style="vector-effect: none; fill: none; stroke: rgb(0, 128, 0); stroke-opacity: 1; stroke-width: 2px; opacity: 1;"/></g><g class="points"/><g class="text"/></g><g class="trace scatter trace57bb5d" style="stroke-miterlimit: 2; opacity: 1;"><g class="fills"/><g class="errorbars"/><g class="lines"><path class="js-line" d="M0,110.35L660,110.35" style="vector-effect: none; fill: none; stroke: rgb(255, 0, 0); stroke-opacity: 1; stroke-dasharray: 9px, 9px; stroke-width: 2px; opacity: 1;"/></g><g class="points"/><g class="text"/></g><g class="trace scatter trace64a6e0" style="stroke-miterlimit: 2; opacity: 1;"><g class="fills"/><g class="errorbars"/><g class="lines"><path class="js-line" d="M0,212.02L660,212.02" style="vector-effect: none; fill: none; stroke: rgb(255, 165, 0); stroke-opacity: 1; stroke-dasharray: 9px, 9px; stroke-width: 2px; opacity: 1;"/></g><g class="points"/><g class="text"/></g><g class="trace scatter trace1bba7a" style="stroke-miterlimit: 2; opacity: 1;"><g class="fills"/><g class="errorbars"/><g class="lines"><path class="js-line" d="M0,0L660,0" style="vector-effect: none; fill: none; stroke: rgb(128, 0, 128); stroke-opacity: 1; stroke-dasharray: 3px, 3px; stroke-width: 2px; opacity: 1;"/></g><g class="points"/><g class="text"/></g></g></g><g class="overplot"/><path class="xlines-above crisp" d="M0,0" style="fill: none;"/><path class="ylines-above crisp" d="M0,0" style="fill: none;"/><g class="overlines-above"/><g class="xaxislayer-above"><g class="xtick"><text text-anchor="middle" x="0" y="473" transform="translate(79.98,0)" style="font-family: 'Open Sans', verdana, arial, sans-serif; font-size: 12px; fill: rgb(42, 63, 95); fill-opacity: 1; white-space: pre; opacity: 1;">0</text></g><g class="xtick"><text text-anchor="middle" x="0" y="473" style="font-family: 'Open Sans', verdana, arial, sans-serif; font-size: 12px; fill: rgb(42, 63, 95); fill-opacity: 1; white-space: pre; opacity: 1;" transform="translate(242.96,0)">500</text></g><g class="xtick"><text text-anchor="middle" x="0" y="473" style="font-family: 'Open Sans', verdana, arial, sans-serif; font-size: 12px; fill: rgb(42, 63, 95); fill-opacity: 1; white-space: pre; opacity: 1;" transform="translate(405.93,0)">1000</text></g><g class="xtick"><text text-anchor="middle" x="0" y="473" style="font-family: 'Open Sans', verdana, arial, sans-serif; font-size: 12px; fill: rgb(42, 63, 95); fill-opacity: 1; white-space: pre; opacity: 1;" transform="translate(568.9100000000001,0)">1500</text></g><g class="xtick"><text text-anchor="middle" x="0" y="473" style="font-family: 'Open Sans', verdana, arial, sans-serif; font-size: 12px; fill: rgb(42, 63, 95); fill-opacity: 1; white-space: pre; opacity: 1;" transform="translate(731.88,0)">2000</text></g></g><g class="yaxislayer-above"><g class="ytick"><text text-anchor="end" x="79" y="4.199999999999999" transform="translate(0,460)" style="font-family: 'Open Sans', verdana, arial, sans-serif; font-size: 12px; fill: rgb(42, 63, 95); fill-opacity: 1; white-space: pre; opacity: 1;">0</text></g><g class="ytick"><text text-anchor="end" x="79" y="4.199999999999999" style="font-family: 'Open Sans', verdana, arial, sans-serif; font-size: 12px; fill: rgb(42, 63, 95); fill-opacity: 1; white-space: pre; opacity: 1;" transform="translate(0,417.78)">10</text></g><g class="ytick"><text text-anchor="end" x="79" y="4.199999999999999" style="font-family: 'Open Sans', verdana, arial, sans-serif; font-size: 12px; fill: rgb(42, 63, 95); fill-opacity: 1; white-space: pre; opacity: 1;" transform="translate(0,375.56)">20</text></g><g class="ytick"><text text-anchor="end" x="79" y="4.199999999999999" style="font-family: 'Open Sans', verdana, arial, sans-serif; font-size: 12px; fill: rgb(42, 63, 95); fill-opacity: 1; white-space: pre; opacity: 1;" transform="translate(0,333.33000000000004)">30</text></g><g class="ytick"><text text-anchor="end" x="79" y="4.199999999999999" style="font-family: 'Open Sans', verdana, arial, sans-serif; font-size: 12px; fill: rgb(42, 63, 95); fill-opacity: 1; white-space: pre; opacity: 1;" transform="translate(0,291.11)">40</text></g><g class="ytick"><text text-anchor="end" x="79" y="4.199999999999999" style="font-family: 'Open Sans', verdana, arial, sans-serif; font-size: 12px; fill: rgb(42, 63, 95); fill-opacity: 1; white-space: pre; opacity: 1;" transform="translate(0,248.89)">50</text></g><g class="ytick"><text text-anchor="end" x="79" y="4.199999999999999" style="font-family: 'Open Sans', verdana, arial, sans-serif; font-size: 12px; fill: rgb(42, 63, 95); fill-opacity: 1; white-space: pre; opacity: 1;" transform="translate(0,206.67000000000002)">60</text></g><g class="ytick"><text text-anchor="end" x="79" y="4.199999999999999" style="font-family: 'Open Sans', verdana, arial, sans-serif; font-size: 12px; fill: rgb(42, 63, 95); fill-opacity: 1; white-space: pre; opacity: 1;" transform="translate(0,164.44)">70</text></g><g class="ytick"><text text-anchor="end" x="79" y="4.199999999999999" style="font-family: 'Open Sans', verdana, arial, sans-serif; font-size: 12px; fill: rgb(42, 63, 95); fill-opacity: 1; white-space: pre; opacity: 1;" transform="translate(0,122.22)">80</text></g><g class="ytick"><text text-anchor="end" x="79" y="4.199999999999999" style="font-family: 'Open Sans', verdana, arial, sans-serif; font-size: 12px; fill: rgb(42, 63, 95); fill-opacity: 1; white-space: pre; opacity: 1;" transform="translate(0,80)">90</text></g></g><g class="overaxes-above"/></g></g><g class="polarlayer"/><g class="smithlayer"/><g class="ternarylayer"/><g class="geolayer"/><g class="funnelarealayer"/><g class="pielayer"/><g class="iciclelayer"/><g class="treemaplayer"/><g class="sunburstlayer"/><g class="glimages"/><defs id="topdefs-a57972"><g class="clips"/><clipPath id="legenda57972"><rect width="186" height="105" x="0" y="0"/></clipPath></defs><g class="layer-above"><g class="imagelayer"/><g class="shapelayer"/></g><g class="infolayer"><g class="legend" pointer-events="all" transform="translate(753.2,346)"><rect class="bg" shape-rendering="crispEdges" style="stroke: rgb(68, 68, 68); stroke-opacity: 1; fill: rgb(255, 255, 255); fill-opacity: 1; stroke-width: 0px;" width="186" height="105" x="0" y="0"/><g class="scrollbox" transform="" clip-path="url(#legenda57972)"><g class="groups"><g class="traces" transform="translate(0,14.5)" style="opacity: 1;"><text class="legendtext" text-anchor="start" x="40" y="4.680000000000001" style="font-family: 'Open Sans', verdana, arial, sans-serif; font-size: 12px; fill: rgb(42, 63, 95); fill-opacity: 1; white-space: pre;">Total Input Power</text><g class="layers" style="opacity: 1;"><g class="legendfill"/><g class="legendlines"><path class="js-line" d="M5,0h30" style="fill: none; stroke: rgb(0, 0, 255); stroke-opacity: 1; stroke-width: 2px;"/></g><g class="legendsymbols"><g class="legendpoints"/></g></g><rect class="legendtoggle" x="0" y="-9.5" width="180.171875" height="19" style="fill: rgb(0, 0, 0); fill-opacity: 0;"/></g><g class="traces" transform="translate(0,33.5)" style="opacity: 1;"><text class="legendtext" text-anchor="start" x="40" y="4.680000000000001" style="font-family: 'Open Sans', verdana, arial, sans-serif; font-size: 12px; fill: rgb(42, 63, 95); fill-opacity: 1; white-space: pre;">Total FPGA Power</text><g class="layers" style="opacity: 1;"><g class="legendfill"/><g class="legendlines"><path class="js-line" d="M5,0h30" style="fill: none; stroke: rgb(0, 128, 0); stroke-opacity: 1; stroke-width: 2px;"/></g><g class="legendsymbols"><g class="legendpoints"/></g></g><rect class="legendtoggle" x="0" y="-9.5" width="180.171875" height="19" style="fill: rgb(0, 0, 0); fill-opacity: 0;"/></g><g class="traces" transform="translate(0,52.5)" style="opacity: 1;"><text class="legendtext" text-anchor="start" x="40" y="4.680000000000001" style="font-family: 'Open Sans', verdana, arial, sans-serif; font-size: 12px; fill: rgb(42, 63, 95); fill-opacity: 1; white-space: pre;">Mean Total Input Power</text><g class="layers" style="opacity: 1;"><g class="legendfill"/><g class="legendlines"><path class="js-line" d="M5,0h30" style="fill: none; stroke: rgb(255, 0, 0); stroke-opacity: 1; stroke-dasharray: 9px, 9px; stroke-width: 2px;"/></g><g class="legendsymbols"><g class="legendpoints"/></g></g><rect class="legendtoggle" x="0" y="-9.5" width="180.171875" height="19" style="fill: rgb(0, 0, 0); fill-opacity: 0;"/></g><g class="traces" transform="translate(0,71.5)" style="opacity: 1;"><text class="legendtext" text-anchor="start" x="40" y="4.680000000000001" style="font-family: 'Open Sans', verdana, arial, sans-serif; font-size: 12px; fill: rgb(42, 63, 95); fill-opacity: 1; white-space: pre;">Mean Total FPGA Power</text><g class="layers" style="opacity: 1;"><g class="legendfill"/><g class="legendlines"><path class="js-line" d="M5,0h30" style="fill: none; stroke: rgb(255, 165, 0); stroke-opacity: 1; stroke-dasharray: 9px, 9px; stroke-width: 2px;"/></g><g class="legendsymbols"><g class="legendpoints"/></g></g><rect class="legendtoggle" x="0" y="-9.5" width="180.171875" height="19" style="fill: rgb(0, 0, 0); fill-opacity: 0;"/></g><g class="traces" transform="translate(0,90.5)" style="opacity: 1;"><text class="legendtext" text-anchor="start" x="40" y="4.680000000000001" style="font-family: 'Open Sans', verdana, arial, sans-serif; font-size: 12px; fill: rgb(42, 63, 95); fill-opacity: 1; white-space: pre;">TDP Limit (90W)</text><g class="layers" style="opacity: 1;"><g class="legendfill"/><g class="legendlines"><path class="js-line" d="M5,0h30" style="fill: none; stroke: rgb(128, 0, 128); stroke-opacity: 1; stroke-dasharray: 3px, 3px; stroke-width: 2px;"/></g><g class="legendsymbols"><g class="legendpoints"/></g></g><rect class="legendtoggle" x="0" y="-9.5" width="180.171875" height="19" style="fill: rgb(0, 0, 0); fill-opacity: 0;"/></g></g></g><rect class="scrollbar" rx="20" ry="3" width="0" height="0" style="fill: rgb(128, 139, 164); fill-opacity: 1;" x="0" y="0"/></g><g class="g-gtitle"><text class="gtitle" x="48" y="40" text-anchor="start" dy="0em" style="font-family: 'Open Sans', verdana, arial, sans-serif; font-size: 17px; fill: rgb(42, 63, 95); opacity: 1; font-weight: normal; white-space: pre;">FPGA Power Consumption Over Time</text></g><g class="g-xtitle"><text class="xtitle" x="410" y="500.3" text-anchor="middle" style="font-family: 'Open Sans', verdana, arial, sans-serif; font-size: 14px; fill: rgb(42, 63, 95); opacity: 1; font-weight: normal; white-space: pre;">Time (seconds)</text></g><g class="g-ytitle"><text class="ytitle" transform="rotate(-90,39.41875,270)" x="39.41875" y="270" text-anchor="middle" style="font-family: 'Open Sans', verdana, arial, sans-serif; font-size: 14px; fill: rgb(42, 63, 95); opacity: 1; font-weight: normal; white-space: pre;">Power (W)</text></g><g class="annotation" data-index="0" style="opacity: 1;"><g class="annotation-text-g" transform="rotate(0,847.4,190.35)"><g class="cursor-pointer" transform="translate(747,181)"><rect class="bg" x="0.5" y="0.5" width="200" height="17" style="stroke-width: 1px; stroke: rgb(0, 0, 0); stroke-opacity: 0; fill: rgb(0, 0, 0); fill-opacity: 0;"/><text class="annotation-text" text-anchor="start" x="2" y="13" style="font-family: 'Open Sans', verdana, arial, sans-serif; font-size: 12px; fill: rgb(0, 0, 0); fill-opacity: 1; white-space: pre;">Mean Total Input Power: 63.86 W</text></g></g></g><g class="annotation" data-index="1" style="opacity: 1;"><g class="annotation-text-g" transform="rotate(0,846.9,292.02)"><g class="cursor-pointer" transform="translate(746,283)"><rect class="bg" x="0.5" y="0.5" width="201" height="17" style="stroke-width: 1px; stroke: rgb(0, 0, 0); stroke-opacity: 0; fill: rgb(0, 0, 0); fill-opacity: 0;"/><text class="annotation-text" text-anchor="start" x="2" y="13" style="font-family: 'Open Sans', verdana, arial, sans-serif; font-size: 12px; fill: rgb(0, 0, 0); fill-opacity: 1; white-space: pre;">Mean Total FPGA Power: 39.78 W</text></g></g></g></g></svg>