<svg class="main-svg" xmlns="http://www.w3.org/2000/svg" xmlns:xlink="http://www.w3.org/1999/xlink" width="1920" height="1080" style="" viewBox="0 0 960 540"><rect x="0" y="0" width="960" height="540" style="fill: rgb(255, 255, 255); fill-opacity: 1;"/><defs id="defs-01798b"><g class="clips"><clipPath id="clip01798bxyplot" class="plotclip"><rect width="660" height="380"/></clipPath><clipPath class="axesclip" id="clip01798bx"><rect x="80" y="0" width="660" height="540"/></clipPath><clipPath class="axesclip" id="clip01798by"><rect x="0" y="80" width="960" height="380"/></clipPath><clipPath class="axesclip" id="clip01798bxy"><rect x="80" y="80" width="660" height="380"/></clipPath></g><g class="gradients"/><g class="patterns"/></defs><g class="bglayer"><rect class="bg" x="80" y="80" width="660" height="380" style="fill: rgb(229, 236, 246); fill-opacity: 1; stroke-width: 0;"/></g><g class="layer-below"><g class="imagelayer"/><g class="shapelayer"/></g><g class="cartesianlayer"><g class="subplot xy"><g class="layer-subplot"><g class="shapelayer"/><g class="imagelayer"/></g><g class="minor-gridlayer"><g class="x"/><g class="y"/></g><g class="gridlayer"><g class="x"><path class="xgrid crisp" transform="translate(245.17,0)" d="M0,80v380" style="stroke: rgb(255, 255, 255); stroke-opacity: 1; stroke-width: 1px;"/><path class="xgrid crisp" transform="translate(410.35,0)" d="M0,80v380" style="stroke: rgb(255, 255, 255); stroke-opacity: 1; stroke-width: 1px;"/><path class="xgrid crisp" transform="translate(575.53,0)" d="M0,80v380" style="stroke: rgb(255, 255, 255); stroke-opacity: 1; stroke-width: 1px;"/></g><g class="y"><path class="ygrid crisp" transform="translate(0,417.78)" d="M80,0h660" style="stroke: rgb(255, 255, 255); stroke-opacity: 1; stroke-width: 1px;"/><path class="ygrid crisp" transform="translate(0,375.56)" d="M80,0h660" style="stroke: rgb(255, 255, 255); stroke-opacity: 1; stroke-width: 1px;"/><path class="ygrid crisp" transform="translate(0,333.33000000000004)" d="M80,0h660" style="stroke: rgb(255, 255, 255); stroke-opacity: 1; stroke-width: 1px;"/><path class="ygrid crisp" transform="translate(0,291.11)" d="M80,0h660" style="stroke: rgb(255, 255, 255); stroke-opacity: 1; stroke-width: 1px;"/><path class="ygrid crisp" transform="translate(0,248.89)" d="M80,0h660" style="stroke: rgb(255, 255, 255); stroke-opacity: 1; stroke-width: 1px;"/><path class="ygrid crisp" transform="translate(0,206.67000000000002)" d="M80,0h660" style="stroke: rgb(255, 255, 255); stroke-opacity: 1; stroke-width: 1px;"/><path class="ygrid crisp" transform="translate(0,164.44)" d="M80,0h660" style="stroke: rgb(255, 255, 255); stroke-opacity: 1; stroke-width: 1px;"/><path class="ygrid crisp" transform="translate(0,122.22)" d="M80,0h660" style="stroke: rgb(255, 255, 255); stroke-opacity: 1; stroke-width: 1px;"/></g></g><g class="zerolinelayer"><path class="yzl zl crisp" transform="translate(0,460)" d="M80,0h660" style="stroke: rgb(255, 255, 255); stroke-opacity: 1; stroke-width: 2px;"/></g><path class="xlines-below"/><path class="ylines-below"/><g class="overlines-below"/><g class="xaxislayer-below"/><g class="yaxislayer-below"/><g class="overaxes-below"/><g class="plot" transform="translate(80,80)" clip-path="url(#clip01798bxyplot)"><g class="scatterlayer mlayer"><g class="trace scatter tracef8be80" style="stroke-miterlimit: 2; opacity: 1;"><g class="fills"/><g class="errorbars"/><g class="lines"><path class="js-line" d="M0,127.94L0.33,130.63L0.66,129.16L1,124.89L1.32,129.93L1.66,128.39L2.01,128.64L2.32,130.18L2.65,129.02L2.98,128.62L3.32,128.44L3.64,130.42L3.97,123.83L4.3,128.74L4.64,126.4L5.29,129.85L5.62,128.44L5.96,131.96L6.29,128.08L6.61,128.08L7.94,130.63L8.28,129.24L8.6,129.24L8.93,128.06L9.26,126.78L9.6,130.26L9.92,129.88L10.25,126.4L10.6,127.69L10.91,126.94L11.25,106.95L11.92,108.13L12.24,106.89L13.24,108.65L13.56,106.32L14.22,106.53L14.55,107.69L15.21,107.82L15.56,107.09L16.53,108.11L16.87,107.69L17.2,107.3L18.52,108.63L18.85,106.72L19.2,108L19.84,107.69L20.17,107.3L20.83,108.38L21.16,107.88L21.49,107.42L21.83,108.09L22.16,112.13L23.15,106.14L23.48,113.1L24.47,106.28L24.8,105.75L25.79,106.76L26.12,110.43L26.45,110.06L26.79,108.44L27.12,105.41L27.45,107.13L27.8,108.63L28.77,106.06L29.11,108.09L29.43,104.23L29.76,106.16L30.09,108.65L30.43,109.81L30.75,106.7L31.08,108.63L31.41,108.07L31.75,107.3L32.08,107.3L32.4,106.12L32.75,105.46L33.07,106.68L33.4,103.9L33.73,107.47L34.07,107.22L34.39,112.38L34.72,105.68L35.05,107.11L35.71,108.33L36.04,106.7L36.38,105.75L36.71,106.76L37.04,111.22L38.03,106.45L38.36,110.14L39.35,105.12L39.68,109.16L40.67,102.97L41,104.32L41.35,105.35L41.99,108.29L42.33,105.29L42.67,108.19L42.99,105.93L43.32,103.99L44.31,108.07L44.64,102.57L45.64,107.86L45.96,107.01L46.31,106.56L46.62,107.67L46.96,106.89L47.29,109.54L47.63,104.32L47.95,110.95L48.61,101.71L48.95,108.83L49.27,105L49.6,106.43L49.93,106.76L50.26,112.96L50.59,109.35L50.92,107.09L51.27,106.51L51.59,109.7L52.59,105.46L52.91,109.1L53.24,102.39L53.57,104.13L53.91,107.88L54.23,111.69L54.56,104.71L54.89,103.53L55.22,107.3L55.55,106.16L55.88,106.32L56.23,109.56L56.55,107.9L56.87,112.58L57.55,105.06L57.87,109.62L58.2,107.01L58.53,108.48L58.87,108.11L59.52,104.36L59.85,108.65L60.18,105.48L60.84,105.68L61.19,107.73L61.51,104.5L62.17,105.1L62.51,105.52L63.16,105.75L63.49,107.3L63.82,103.34L64.15,108.84L64.83,103.57L65.14,107.88L65.47,106.28L65.8,99.55L66.15,107.88L66.79,106.92L67.13,108.09L67.79,104.32L68.12,109.02L68.45,104.44L68.78,105.85L69.11,106.83L69.44,107.61L69.79,106.06L70.1,113.21L70.43,102.04L71.42,108.11L71.75,107.7L72.08,107.47L72.42,106.02L72.75,105.6L73.08,107.11L73.41,106.86L73.74,111.26L74.4,105.72L74.75,108.17L75.06,105.52L75.39,110.66L75.72,105.93L76.06,110.45L76.39,107.61L76.72,107.92L77.05,107.13L77.38,107.47L77.71,105.52L78.04,107.76L78.37,104.94L78.7,102.58L79.71,108.19L80.02,104.81L81.34,109.29L81.68,107.7L82.34,106.64L82.67,108.29L83.99,102.62L84.32,109.27L84.67,111.69L84.98,110.18L85.31,107.49L85.64,103.92L85.99,110.61L86.3,108.38L86.64,109.66L86.97,109.17L87.3,110.51L87.63,104.34L88.95,109.25L89.28,104.61L89.63,103.82L89.94,106.68L90.27,104.73L90.6,107.42L90.94,107.7L91.26,110.51L92.26,103.63L92.59,111.4L93.58,105.78L93.91,110.3L94.9,105.56L95.23,109.08L96.22,106.22L96.56,107.22L96.88,105.95L97.22,109.35L97.55,109.77L97.88,107.32L98.23,109.21L98.54,107.67L98.87,102.64L99.2,107.32L99.54,106.29L99.86,105.5L100.86,110.82L101.18,108.06L101.52,105.79L101.85,109.79L102.18,112.09L102.51,110.16L102.84,108.65L103.19,105.33L103.5,107.22L103.83,107.26L104.16,110.01L104.5,108.98L104.82,107.07L105.15,109.85L105.48,109.62L105.82,108.44L106.14,107.28L106.47,111.55L106.8,107.16L107.47,108.23L107.8,107.46L108.15,106.32L108.46,108.11L108.79,107.73L109.12,108.87L109.46,100.21L110.11,102.43L110.44,103.03L111.43,109.98L111.77,105.6L112.1,105.72L112.43,106.68L112.76,106.76L113.1,108.83L113.42,108.46L113.75,106.59L114.08,104.21L114.74,104.83L115.07,104.83L115.74,108.5L116.06,104.67L116.39,109.74L116.72,108.63L117.06,105.48L117.39,105.42L117.72,108.69L118.06,109.58L118.38,103.88L118.71,108.34L119.38,107.43L119.7,106.32L120.03,109.93L120.36,105.69L120.7,106.49L121.7,108.96L122.01,109L122.68,110.45L123.02,101.85L123.67,110.37L124,101.68L124.66,109L124.99,106.24L125.32,106.33L125.98,108.13L126.32,106.87L126.66,107.8L126.98,111.01L127.31,105.21L127.64,107.07L127.98,107.65L128.63,103.12L128.96,105.41L129.3,104.07L130.94,109.85L131.27,109.23L131.62,105.02L132.6,111.03L132.94,106.53L133.26,105.56L133.59,105.99L133.92,107.46L134.26,106.26L134.58,102.35L134.91,111.34L135.24,106.18L135.57,106.49L135.9,104.4L136.23,109.64L136.9,109.77L137.23,104.55L137.56,110.22L137.9,111.92L138.22,109.58L138.55,106.6L138.88,107.86L139.22,107.92L139.54,105.15L139.87,108.61L140.22,106.92L140.53,107.24L140.86,106.2L141.54,108.23L141.86,113.62L142.19,106.68L142.52,109.04L142.86,108.9L143.51,106.12L143.84,108.75L144.5,107.15L144.83,107.84L145.18,112.75L145.82,104.55L146.15,104.58L146.5,108.21L146.81,107.92L147.14,109L147.47,105.58L147.81,108.77L148.14,106.87L148.47,108.09L148.8,104.26L149.46,103.24L149.79,110.24L150.14,106.74L150.45,103.82L150.78,107.26L151.12,108.03L151.46,109.21L151.78,107.11L152.44,110.04L152.77,106.43L153.43,110.28L153.78,104.34L154.42,104.07L154.75,110.55L155.1,104.19L155.41,104.48L155.74,100.88L156.73,110.39L157.07,104.17L157.4,105.37L157.73,102.62L158.06,107.86L158.39,101.56L158.74,107.46L159.05,107.09L159.38,104.19L159.71,111.75L160.05,107.28L160.7,108.48L161.03,108.61L161.37,110.55L161.69,108.63L162.03,107.8L162.35,109.58L162.69,107.65L163.02,107.28L163.35,108.03L163.7,113.78L164.01,105.91L164.67,107.94L165.01,112.23L165.66,106.18L165.99,108.69L166.33,109.81L167.32,101.38L167.65,110.47L168.31,104.19L168.66,106.97L168.97,111.28L169.3,110.55L169.63,105.99L169.97,104.65L170.29,105.78L170.62,107.28L170.95,103.59L171.29,107.11L171.61,105.89L171.94,105.93L172.28,106.95L172.61,106.95L172.94,104.65L173.61,105.6L173.93,107.05L174.26,103.28L174.59,106.39L174.93,105.72L175.58,101.11L175.91,107.46L176.25,107.43L176.57,103.98L176.9,104.07L177.26,105.73L177.9,107.34L178.23,104.67L178.89,108.61L179.22,103.96L179.55,102.64L179.89,106.89L180.54,103.41L180.87,108.3L181.53,106.32L181.86,107.43L182.2,103.44L182.53,105.79L182.86,106.51L183.19,108.44L183.53,106.7L183.85,106.7L184.85,110.3L185.17,106.49L185.5,107.65L185.83,103.41L186.49,109.83L186.82,104.42L188.15,109.2L188.49,103.51L188.81,108.92L189.14,105.56L189.47,106.28L189.81,97.81L190.13,106.56L190.46,108.09L191.13,101.98L191.45,106.97L191.79,103.18L192.14,108.4L192.45,105.19L192.78,109.91L193.77,103.76L194.1,107.34L194.77,107.28L195.09,106.1L195.42,105.23L195.75,108.23L196.09,108.21L196.41,106.51L196.74,103.92L197.09,105.72L197.4,105.33L197.74,106.93L198.07,104.11L199.06,109.02L199.39,102.43L199.73,107.74L200.05,106.18L200.38,106.14L200.71,106.74L201.05,104.75L202.05,107.67L202.36,106.53L203.37,107.46L203.69,106L204.02,107.9L204.35,100.59L205.34,108.13L205.67,100.05L206.66,107.84L207.01,101.13L207.66,106.93L207.99,106.12L208.33,100.13L208.65,108.36L209.31,107.9L209.65,104.25L209.97,109.71L210.3,106.89L210.63,107.07L210.97,103.8L211.29,107.67L211.62,106.29L211.97,106.89L212.28,103.28L212.61,106.76L213.29,106.68L213.61,103.65L214.27,107.34L214.61,106.49L214.93,106.29L215.59,107.47L215.92,106.29L216.25,107.34L216.58,102.91L216.93,108.07L217.25,107.26L217.58,106.33L217.91,103.55L218.25,106.7L218.57,105.91L218.9,106.93L219.23,103.8L219.89,108.5L220.22,108.33L220.55,106.68L221.21,106.29L221.54,107.28L222.2,107.36L222.53,106.51L222.87,105.54L223.21,107.53L224.19,104.55L224.53,108.67L225.18,103.01L225.51,107.49L225.85,108.29L226.17,107.07L226.5,108.25L226.85,100.54L227.83,106.55L228.17,101.13L228.49,107.61L229.15,107.46L229.49,101L229.81,108.36L230.47,106.29L230.8,101.64L231.13,109.52L231.46,108.21L231.81,106.95L232.13,104.19L232.46,109.31L233.45,103.53L233.78,106.47L234.45,108.03L234.77,104.04L235.43,105.93L235.76,100.92L236.09,102.51L236.42,109.62L237.75,105.6L238.09,107.46L238.74,106.35L239.07,107.73L239.41,106.97L239.73,107.67L240.06,105.04L240.39,104.05L240.72,104.36L241.05,106.68L241.73,106.89L242.05,105.35L242.38,107.4L242.71,107.28L243.05,105.52L243.37,109.39L243.7,106.68L244.03,105.27L244.69,108.52L245.02,106.14L245.35,102.43L245.68,106.28L246.01,108.69L246.34,111.34L246.69,103.12L247,103.8L247.33,108.06L248.01,104.52L248.33,110.61L249.32,99.47L249.65,107.15L250.31,106.87L250.64,102.78L251.3,107.05L251.65,105.95L251.97,100.36L252.3,108.61L252.63,105.79L252.97,106.12L253.29,101.77L253.62,107.9L253.95,109.6L254.29,106.82L254.61,100.67L254.94,105.41L255.27,105.21L255.6,106.93L255.93,98.47L256.61,108.03L256.93,107.09L257.26,97.83L257.59,108.17L258.25,106.28L258.58,106.74L258.91,106.55L259.24,107.3L259.57,106.87L259.9,107.9L260.23,105.6L260.56,107.86L260.89,107.07L261.22,106.49L261.57,108.52L261.89,106.51L262.54,106.95L262.89,108.23L263.21,104.75L263.54,109.77L263.87,109.85L264.21,106.93L264.86,107.36L265.19,107.97L265.85,105.54L266.18,106.29L266.53,106.99L266.85,104.94L267.18,106.14L267.51,108.84L267.85,108.4L268.17,105.5L269.16,110.55L269.49,106.49L270.15,109.47L270.48,104.73L271.14,107.92L271.49,106.12L271.8,101.44L272.13,110.76L272.47,108.44L272.81,106.68L273.13,101.7L273.46,109.83L274.45,102.37L274.78,109.23L275.77,96.22L276.1,108.27L276.45,108.84L276.77,106.14L277.09,98.54L277.43,108.36L277.77,107.84L278.08,105.52L278.42,100.4L278.75,106.89L279.09,107.74L279.41,106.93L279.74,107.3L280.4,105.89L280.73,107.07L281.06,106.86L281.41,105.72L282.73,107.07L283.05,109.41L284.04,104.94L284.37,106.51L284.7,110.82L285.03,107.15L285.36,105.87L285.69,104.81L286.02,105.99L286.37,116.85L287.68,104.85L288.01,109.39L288.67,101.44L289,106.53L289.33,105.73L289.66,107.28L290.32,108.11L290.65,109.81L291.33,105.93L291.64,110.34L291.97,104.96L292.3,105L292.65,106.6L292.97,103.63L293.3,105.95L293.63,107.67L293.96,107.65L294.29,103.07L294.62,110.22L294.95,107.86L295.28,106.49L295.61,101.44L295.94,111.71L296.93,96.85L297.26,106L297.61,104.73L297.93,106.33L298.26,100.84L299.25,106.1L299.58,98.7L300.24,106.68L300.57,105.93L300.9,99.28L301.25,106.53L301.89,106.1L302.22,107.88L302.56,106.29L302.88,106.66L303.22,107.47L304.21,103.39L304.54,109.6L305.53,103.18L305.86,107.07L306.2,108.44L306.52,105.73L306.85,111.15L307.18,108.03L307.52,109.02L308.18,107.09L308.51,101.33L309.5,106.89L309.85,100.98L310.49,107.84L310.82,103.59L311.17,97.52L311.48,108.79L311.81,108.07L312.14,105.12L313.14,108.61L313.47,106.87L313.8,103.05L314.13,103.49L314.46,106.92L315.45,104.55L315.78,106.7L316.13,105.73L316.44,107.09L316.78,103.99L317.11,107.88L317.44,105.54L317.76,107.26L318.09,98.08L318.45,108.44L319.09,107.47L319.42,98.23L320.41,108.44L320.74,100.44L321.73,109L322.06,106.28L322.4,104.36L322.73,110.14L323.06,103.44L323.39,107.16L323.72,108.44L324.72,107.46L325.04,104.71L325.37,108.98L325.7,103.18L326.36,107.26L326.69,105.31L327.02,101.68L327.36,110.55L327.68,107.43L328.01,106.7L328.37,98.26L328.68,103.99L329.01,106.08L329.34,107.65L329.69,99.51L330.66,107.82L331,99.32L331.32,115.96L331.66,105.81L331.99,108.06L332.32,99.49L332.65,110.64L333.31,103.78L333.97,104.07L334.3,108.83L334.96,104.04L335.29,104.5L335.62,113.23L336.61,102.52L336.94,105.5L337.6,109.41L337.94,101.65L338.27,103.05L338.6,110.8L339.26,97.87L339.61,110.55L340.25,106.76L340.58,94.62L340.92,107.69L341.57,107.67L341.91,107.07L342.89,111.03L343.22,110.01L344.22,103.8L344.57,109.39L345.54,106.33L345.88,108.09L346.53,107.34L346.86,103.99L347.2,103.2L347.53,108.63L348.19,99.18L348.52,104.19L349.18,106.14L349.53,102.18L350.17,108.23L350.5,104.71L350.85,93.1L351.16,109.62L352.16,97.19L352.48,107.94L353.14,104.38L353.48,99.64L353.81,110.72L354.14,104.13L354.49,106.89L355.13,109.95L355.46,103.18L355.8,114.08L356.12,104.83L356.45,107.15L357.44,103.8L357.77,104.79L358.1,103.86L358.44,105.79L359.1,99.99L359.45,104.81L360.76,108.44L361.08,106.93L361.74,104.4L362.08,107.11L362.4,106.7L362.74,104.61L363.07,104.17L363.4,105.39L363.73,103.84L364.06,107.3L365.05,109L365.38,107.67L365.72,110.08L366.04,108.46L366.37,107.2L366.7,108.84L367.04,100.09L367.36,107.46L367.69,105.95L368.02,100.9L368.36,109.98L369.02,109.62L369.37,105.93L370.34,108.6L370.68,96.26L371,110.37L371.33,108.52L371.66,106.39L372,101.44L372.33,107.47L372.66,110.57L373.32,95.32L373.65,105.04L373.98,107.67L374.33,105.56L374.64,98.76L375.3,109.79L375.65,106.14L375.96,95.47L376.62,104.98L376.96,104.01L377.28,98.43L377.61,110.58L378.28,108.46L378.61,99.99L379.27,110.55L379.6,107.49L379.93,102.02L380.61,106.92L380.92,105.75L381.25,98.95L382.24,107.47L382.58,107.3L382.9,104.58L383.24,107.67L383.57,106.14L383.9,104.91L384.23,107.09L384.56,107.11L384.89,102.06L385.22,101.1L385.57,109.23L385.88,106.53L386.21,110.8L386.88,106.72L387.2,105.56L387.87,105.56L388.2,106.97L388.53,110.01L389.21,109.41L389.52,104.79L390.18,106.72L390.52,103.76L391.5,107.69L391.84,97.81L392.49,106.33L392.82,102.84L393.16,103.14L394.17,106.92L394.48,105.79L394.81,104.01L395.14,112.92L395.8,98.82L396.13,105.54L396.46,105.78L396.8,105L397.12,94.76L397.46,107.16L397.79,105.78L398.12,104.44L398.45,96.57L399.11,107.11L399.44,105.78L399.77,97.99L400.1,111.32L400.45,105.75L400.76,104.98L401.09,104.59L401.42,109.41L401.77,108.25L402.08,104.58L402.41,99.99L402.74,109.62L403.08,108.84L403.41,104.98L403.74,100.83L404.07,108.25L404.4,104.4L404.73,111.38L405.06,97.12L405.41,111.17L405.72,108.79L406.05,106.55L406.38,111.15L406.73,102.85L407.04,106.33L407.37,111.77L407.7,107.7L408.04,108.48L408.37,110.41L408.7,112.34L409.02,102.85L409.36,106.35L409.69,105.13L410.02,102.47L410.37,107.69L411.01,106.53L411.34,106.55L411.69,113.29L412,105.58L412.33,107.92L413.33,105.73L413.66,105.78L414.65,103.61L414.98,107.86L415.33,103.72L415.64,103.84L415.97,109.64L416.65,102.02L416.96,104.54L417.29,107.49L417.62,107.11L417.96,107.7L418.28,102.89L418.61,106.92L418.95,105.18L419.28,103.44L419.61,96.22L419.94,106.28L420.27,106.16L420.6,104.98L420.93,95.35L421.26,107.4L421.61,106.33L421.92,107.69L422.25,96.3L422.58,107.49L422.93,105.41L423.24,104.04L423.58,96.57L423.91,107.47L424.9,103.11L425.23,109.62L425.89,105.97L426.22,96.98L426.57,108.25L426.88,105.56L427.21,103.05L427.54,100.57L427.88,106.16L428.21,104.61L428.54,106.14L428.87,107.09L429.86,105.54L430.19,106.28L430.52,108.09L431.18,106.93L431.53,102.85L432.17,108.6L432.5,105.56L432.85,103.17L433.16,107.32L433.49,105.39L433.83,94.97L434.82,110.58L435.15,96.36L435.81,111.94L436.14,105.75L436.49,106.37L437.47,109.89L437.81,104.11L438.13,103.9L438.46,106.55L438.79,110.39L439.12,101.5L439.45,100.83L439.78,107.47L440.44,103.59L440.77,101L441.76,108.25L442.09,103.07L442.77,109.62L443.08,106.92L443.41,93.27L444.09,108.27L444.41,106.7L444.74,96.22L445.4,108.89L445.73,107.7L446.06,97.99L446.41,106.72L446.72,105.54L447.05,103.61L447.38,95.99L447.73,110.41L448.04,107.69L448.37,112.27L449.04,107.11L449.37,110.97L449.7,113.29L450.03,106.93L450.69,109.25L451.02,104.61L451.37,107.11L451.68,105.54L452.01,105.95L452.69,104.98L453.01,105.39L453.34,102.66L453.67,96.71L454,106.33L454.33,106.7L454.66,105.15L454.99,96.36L455.32,110.78L456.33,94.16L456.64,105.93L456.97,106.72L457.3,104.38L457.65,95.51L457.96,108.65L458.29,104.59L458.62,111.75L458.96,94.48L459.29,110.66L459.62,107.42L459.95,108.46L460.28,103.22L460.61,108.42L461.29,107.88L461.6,106.45L461.93,101.95L462.26,108.27L462.61,107.7L462.92,103.8L463.26,100.38L463.59,106.66L463.92,105.54L464.25,101.5L465.24,110.03L465.57,107.51L465.9,91.66L466.25,105.56L466.56,107.92L466.89,109.25L467.22,95.38L468.21,109.04L468.55,107.07L468.88,107.09L469.21,105.93L469.87,107.7L470.2,105.39L470.53,106.93L470.86,106.16L471.21,105.18L471.52,107.53L471.85,104.34L472.19,103.45L472.84,108.07L473.17,107.7L473.51,96.59L474.5,108.65L474.83,98.18L475.82,106.93L476.17,95.93L476.81,112.13L477.14,105.12L477.48,95.51L478.47,107.51L478.8,95.68L479.79,109.23L480.12,93.19L480.45,108.94L481.13,107.88L481.44,104.61L481.77,109.89L482.1,105.18L482.45,106.55L482.76,105.52L483.09,101.13L483.43,109.04L483.76,108.65L484.09,102.41L484.42,102.93L484.75,109.2L485.41,101.38L485.74,107.43L486.09,108.25L486.4,107.13L486.73,107.51L487.06,102.31L487.41,104.61L487.72,106.16L488.39,108.67L488.72,108.3L489.05,106.35L489.38,108.09L489.71,107.7L490.04,105.78L490.7,108.09L491.05,105.18L491.36,109.83L492.02,109.66L492.36,107.73L492.68,106.18L493.01,109.27L493.34,105.15L493.68,109.43L494.01,113.7L494.67,100.78L495,106.33L495.33,109.66L496.01,102L496.32,109.43L497.33,102.76L497.64,106.72L497.98,107.7L498.31,107.32L498.64,93.69L499.3,107.09L499.63,104.81L499.96,95.16L500.29,107.51L500.97,106.14L501.28,96.53L501.61,109.1L502.28,106.35L502.6,96.8L503.27,109.04L503.6,106.53L503.93,99.43L504.26,107.9L504.92,106.68L505.25,98.33L505.93,110.2L506.24,108.48L506.57,98.76L507.25,109.25L507.56,107.84L507.89,95.35L508.56,110.99L508.88,108.09L509.22,106.33L509.55,110.41L509.88,106.92L510.21,106.92L510.89,107.11L511.2,109.04L511.53,111.38L511.86,109.37L512.2,105.78L512.52,105L512.85,111.57L513.18,107.57L513.52,109.04L513.85,108.65L514.84,107.34L515.17,107.76L515.85,106.33L516.16,107.49L517.17,102.68L517.48,108.46L517.81,106.14L518.14,109.25L518.49,102.93L518.81,108.27L519.14,109.44L519.47,97.69L519.8,105.93L520.13,107.34L520.46,107.7L520.81,104.81L521.12,103.12L521.45,105.89L521.78,106.32L522.13,103.44L522.44,97.52L522.77,104.21L523.1,106.14L523.76,94.58L524.1,108.61L524.77,110.01L525.09,96.44L525.42,110.03L526.08,106.55L526.41,99.16L527.4,110.03L527.74,97.63L528.73,110.2L529.06,89.79L530.05,109.62L530.38,95.78L531.37,109.02L531.7,105.15L532.36,108.07L532.69,107.32L533.02,105.6L533.37,106.32L533.68,109.43L534.02,105.58L534.35,108.65L534.69,109.16L535.67,107.86L536,106.62L536.33,108.27L536.66,102.47L537.01,109.43L537.32,108.87L537.65,106.86L538.33,109.04L538.65,106.72L538.98,108.63L539.31,99.55L540.96,128.35L541.29,128.77L542.61,128.58L542.94,127.81L544.27,128.71L544.61,128.58L545.92,128.43L546.25,127.56L546.93,129.02L547.24,128.17L547.57,128.58L547.9,128.98L548.25,127.17L548.89,129.49L549.23,128.58L550.22,127.11L550.55,128.74L550.88,128.35L551.21,130.28L551.54,125.7L551.89,128.66L552.2,131.34L552.53,132.45L552.86,128.95L553.21,128.33L553.53,129.95L553.86,127.96L554.19,130.51L554.52,129.34L555.53,127.19L555.84,130.26L556.17,132.58L556.5,126.4L556.85,129.72L557.16,128.56L557.49,127.79L557.82,125.87L558.16,129.18L558.48,127.23L558.82,132.64L559.48,123.92L559.81,130.88L560.14,131.63L560.49,125.32L561.13,129.88L561.46,124.85L561.8,125.08L562.12,128.97L562.45,127.11L562.78,131.81L563.44,126.41L563.78,128.77L564.13,128.2L565.1,131.34L565.44,125.29L566.42,130.26L566.76,128.17L567.41,129.34L567.74,127.61L568.74,129.97L569.08,128.66L569.4,127.83L569.73,128.25L570.06,129.82L570.4,129.55L570.72,128.33L571.38,129.8L571.72,127.06L572.37,132.43L572.72,124.48L573.7,129.95L574.04,131.65L574.36,123.61L574.69,128.23L575.02,128.17L576.34,129.39L576.67,127.79L577.33,135.19L577.68,129.93L578.33,128.33L578.66,129.18L579.32,127.77L579.65,129.01L579.98,127.98L580.31,133.03L580.97,127.63L581.32,131.73L582.29,129.02L582.64,128L582.95,128.41L583.28,133.03L583.96,126.7L584.28,128.27L584.61,129.04L584.94,129.57L585.27,133.05L585.6,126.46L585.93,132.66L586.28,130.88L586.59,134.05L586.92,127.81L587.25,131.34L587.6,128.43L587.91,129.2L589.57,127.03L589.92,131.5L590.56,125.7L590.89,128.39L591.55,129.02L591.88,131.71L592.55,127.23L592.87,128.41L593.21,130.75L593.54,126.32L594.2,127.09L594.53,129.41L594.87,124.54L595.19,133.05L596.19,125.14L596.51,128.2L596.84,129.06L597.17,126.86L597.84,129.95L598.16,127.63L598.83,131.75L599.16,128.25L599.49,127.07L599.83,131.5L600.15,131.13L600.48,127.65L600.81,129.04L601.14,124L602.46,134.98L602.79,121.45L603.13,130.72L603.47,128.25L603.79,127.81L604.12,134.42L604.45,130.8L604.78,126.47L605.44,127.63L605.79,126.32L606.43,130.49L606.76,127.5L607.11,128.81L607.42,124.91L607.75,128.79L608.42,128.25L608.75,127.48L609.08,130.94L609.41,126.86L609.74,127.56L610.4,127.25L610.75,128.97L611.06,128.64L611.39,129.04L611.72,127.48L612.06,130.34L612.38,129.18L612.72,128.41L613.04,129.41L613.38,127.88L614.04,125.93L614.38,129.95L614.7,129.57L615.03,126.47L615.7,132.52L616.02,130.18L616.35,130.2L616.68,131.89L617.02,129.18L618.02,129.8L618.34,129.02L619,127.46L619.34,128.33L619.99,129.57L620.32,132.91L620.66,125.16L620.98,127.87L621.31,130.96L621.64,127.61L621.98,134.59L622.3,127.63L622.63,129.18L622.98,132.89L623.3,125.54L623.62,128.27L623.95,127.87L624.62,126.86L624.95,129.57L625.28,124.75L625.61,127.48L625.94,133.28L626.27,127.87L626.62,131.5L626.93,130.34L627.26,130.72L627.6,126.86L627.94,127.46L628.26,130.57L628.92,124.13L629.25,131.11L630.24,125.54L630.57,130.17L630.9,126.78L631.23,129.8L631.58,128.02L632.22,130.72L632.55,128L632.89,125.54L633.21,132.48L633.55,132.12L633.88,126.84L634.87,132.35L635.22,126.7L635.53,128.2L635.86,123.65L636.19,129.1L636.85,127.63L637.18,129.22L637.85,127.48L638.17,128.25L638.51,134.44L639.17,127.21L639.5,129.18L639.83,130.71L640.17,127.48L640.49,130.57L640.82,129.02L641.15,126.47L641.49,128.41L641.81,128.79L642.14,127.63L642.47,129.8L643.14,127.87L643.47,129.41L644.13,129.57L644.46,126.86L644.79,125.93L645.13,126.4L645.45,126.7L646.11,131.56L646.45,127.23L646.77,131.11L647.1,127.33L647.45,127.84L648.09,124.39L648.42,131.73L649.09,127.65L649.42,129.95L650.08,130.26L650.41,127.56L650.74,124.4L651.73,138.48L652.06,128.85L652.41,127.48L652.72,127.87L653.06,129.02L654.38,131.96L654.71,131.36L655.04,129.01L655.7,127.48L656.05,129.95L656.36,130.03L656.69,128.81L657.36,126.32L657.68,129.43L658.01,127.15L658.35,130.42L658.68,128.02L659.01,128.08L659.34,130.03L659.68,128.64L660,120.97" style="vector-effect: none; fill: none; stroke: rgb(0, 0, 255); stroke-opacity: 1; stroke-width: 2px; opacity: 1;"/></g><g class="points"/><g class="text"/></g><g class="trace scatter trace2c29de" style="stroke-miterlimit: 2; opacity: 1;"><g class="fills"/><g class="errorbars"/><g class="lines"><path class="js-line" d="M0,218.84L2.65,218.65L2.98,218.71L4.3,218.71L4.64,218.67L5.96,218.73L6.29,218.83L9.92,218.42L10.25,218.28L10.91,218.38L11.25,212.6L12.57,212.39L12.9,212.66L16.2,212.5L16.53,212.87L17.53,212.42L17.86,212.6L19.2,212.64L19.51,212.68L20.52,212.74L20.83,213.41L21.83,212.41L22.16,212.66L24.16,212.56L24.47,212.37L25.79,212.6L26.12,211.67L26.45,212.68L27.12,212.33L27.45,212.39L29.76,212.58L30.09,213.86L31.08,212.33L31.41,212.12L32.4,212.64L32.75,212.15L34.39,212.54L34.72,212.56L35.39,212.14L35.71,214.65L36.71,211.23L37.04,212.48L46.31,212.56L46.62,212.68L48.61,212.08L48.95,214.51L49.27,212.29L49.93,212.56L50.26,213.01L51.59,212.29L51.92,212.48L53.91,212.33L54.23,213.66L55.22,212.09L55.55,211.92L56.55,212.09L56.87,211.71L57.87,212.52L58.2,210.57L59.19,212.58L59.52,211.15L60.51,212.52L60.84,212.6L62.83,212.37L63.16,212.58L65.47,212.62L65.8,211.65L66.79,212.54L67.13,212.15L68.12,212.33L68.45,212.04L69.44,212.31L69.79,211.48L70.1,214.38L70.43,212.39L70.76,212.29L71.75,212.52L72.08,212.33L72.42,210.3L72.75,211.87L73.08,212.56L76.72,212.35L77.05,212.54L77.38,212.6L77.71,211.23L79.03,212.31L79.36,210.78L80.35,212.56L80.68,212.39L83.66,212.41L83.99,212.6L84.32,210.78L84.67,212.33L84.98,212.54L85.31,212.37L85.64,209.62L86.64,212.37L86.97,209.91L87.96,212.29L88.29,212.29L90.6,212.25L90.94,211.59L91.26,212.96L91.59,212.35L91.93,212.29L92.26,210.95L92.59,213.39L93.58,212.37L93.91,211.59L94.58,212.5L94.9,212.31L95.23,211.85L96.22,212.33L96.56,211.4L97.55,212.23L97.88,212.5L98.87,211.36L99.2,212.29L100.52,212.27L100.86,212.27L103.83,212.31L104.16,211.67L105.15,212.35L105.48,210.74L106.14,212.25L106.47,212.02L106.8,209.81L107.14,212.5L107.8,212.35L108.15,208.23L109.12,212.27L109.46,211.05L110.44,212.58L110.78,211.81L111.77,212.29L112.1,211.54L113.1,212.29L113.42,210.65L113.75,214.49L114.08,212.46L114.42,212.46L114.74,211.98L115.07,212.42L115.4,212.52L116.06,212.45L116.39,211.36L117.39,212.46L117.72,212.54L121.03,212.39L121.36,211.13L122.01,212.42L122.34,212.25L122.68,211.42L123.02,212.52L123.67,212.31L124,211.36L124.99,212.46L125.32,212.72L126.32,212.18L126.66,210.71L127.31,212.62L127.64,211.61L127.98,210.03L128.3,212.27L128.96,212.5L129.3,208.16L129.62,212.46L130.28,212.25L130.61,208.95L131.27,212.56L131.62,212.45L131.93,211.85L132.94,212.33L133.26,211.88L133.92,212.54L134.26,212.25L134.58,211L134.91,213.86L135.24,212.33L135.57,212.46L135.9,210.94L136.23,212.35L136.58,212.35L140.86,212.31L141.19,214.46L142.19,212.27L142.52,212.04L143.51,212.25L143.84,211.17L144.83,212.23L145.18,211.04L145.82,212.27L146.15,211.63L146.5,211.55L146.81,212.33L147.14,212.18L147.47,210.82L147.81,210.38L148.14,212.25L148.47,212.31L148.8,210.61L149.13,209.78L149.46,212.21L150.14,212.25L150.45,207.94L151.12,212.5L151.46,212.23L151.78,207.09L152.44,212L152.77,211.94L153.1,210.26L154.09,212.35L154.42,211.58L155.41,212.33L155.74,211.07L156.73,212.23L157.07,210.45L158.06,212.21L158.39,211.15L159.38,212.37L159.71,212.29L162.35,212.25L162.69,212.21L163.7,213.68L164.01,212.35L164.34,212.39L164.67,206.96L165.33,212.27L165.66,212.23L165.99,210.47L166.99,212.23L167.32,211.65L167.65,210.9L167.98,212.48L168.31,212.48L168.66,210.88L169.63,212.31L169.97,210.45L170.29,209.78L170.62,212.35L170.95,212.5L171.29,211.34L171.61,208.67L171.94,214.26L172.94,206.65L173.27,211.82L173.93,212.29L174.26,207.79L174.93,212.29L175.25,212.25L175.58,211.11L176.25,212.33L176.57,212.18L176.9,211.27L177.9,212.25L178.23,212.21L182.86,212.29L183.19,209.54L184.18,212.25L184.51,208.16L184.85,214.32L185.17,212.23L185.5,212.23L185.83,206.49L186.17,211.59L186.49,212.23L186.82,212.45L187.18,207.98L188.15,212.29L188.49,211.09L188.81,210.68L189.14,212.29L189.47,212.46L189.81,211.17L190.13,211.11L190.46,212.31L190.79,212.37L191.13,210.22L191.45,209.54L191.79,212.31L192.14,212.25L192.45,210.65L192.78,208.5L193.11,212.27L193.77,212.31L194.1,206.24L194.43,212.33L195.09,212.29L195.42,207.38L196.09,212.37L196.41,212.33L196.74,211.01L197.4,212.39L197.74,212.15L198.07,212.23L200.71,212.27L201.05,212.23L202.7,212.29L203.03,210.68L204.02,212.27L204.35,208.89L205.01,212.46L205.34,212.29L205.67,206.67L206.01,213.83L206.66,212.23L207.01,206.43L207.66,212.48L207.99,212.29L208.33,210.67L208.65,210.41L208.98,212.27L209.31,212.27L209.65,210.98L209.97,210.51L210.3,212.29L210.63,212.31L210.97,210.17L211.29,209.37L211.62,212.25L211.97,212.45L212.28,210.72L212.61,207.84L212.95,212.45L213.61,212.52L213.94,205.74L214.93,212.31L215.26,210.45L215.59,212.52L216.25,212.29L216.58,210.98L217.58,212.27L217.91,212.25L219.23,212.29L219.57,212.35L221.21,212.58L221.54,212.12L222.53,212.25L222.87,211.44L223.86,212.25L224.19,208.46L225.18,212.37L225.51,206.47L225.85,214.34L226.5,212.29L226.85,205.58L227.49,212.31L227.83,212.27L228.17,207.61L229.15,212.29L229.49,210.92L229.81,210.3L230.14,212.31L230.47,212.45L230.8,210.78L231.81,212.56L232.13,210.24L232.46,213.62L232.79,212.29L233.13,212.29L233.45,210.92L233.78,212.46L234.11,212.27L234.77,212.25L235.1,210.22L236.09,212.29L236.42,210.24L237.42,212.42L237.75,212.25L242.38,212.31L242.71,210.09L243.7,212.37L244.03,210.47L245.02,212.29L245.35,208.77L246.01,212.27L246.34,210.51L246.69,206.97L247,212.96L247.67,211.82L248.01,205.41L248.33,212.75L248.99,212.29L249.32,205.83L250.31,212.31L250.64,208.89L251.65,212.46L251.97,211.09L252.63,212.52L252.97,212.23L253.29,210.3L254.29,212.46L254.61,210.13L254.94,213.82L255.27,212.33L255.6,212.46L255.93,210.95L256.26,212.46L256.61,212.27L258.91,212.48L259.24,212.29L262.21,212.31L262.54,211.23L263.54,212.48L263.87,210.05L264.53,212.54L264.86,212.29L265.19,209.76L265.85,212.29L266.18,209.99L266.53,210.2L266.85,212.27L267.18,212.21L267.51,210.05L267.85,207.81L268.17,212.52L268.5,212.29L268.83,210.98L269.16,205.82L269.49,212.5L270.15,212.25L270.48,204.95L271.49,212.41L271.8,206.49L272.81,212.48L273.13,210.24L274.13,212.27L274.45,210.26L275.11,212.6L275.44,212.29L275.77,210.01L276.77,212.29L277.09,210.24L277.43,212.48L278.08,212.27L278.42,211.81L279.41,212.45L279.74,212.25L282.06,212.31L282.39,213.76L283.38,212.31L283.71,212.72L284.7,212.27L285.03,209.72L285.36,212.23L285.69,211.98L286.02,208.95L287.01,212.23L287.34,210.55L287.68,209.51L288.01,212.29L288.34,212.41L288.67,209.99L289,209.18L289.33,212.35L289.66,212.48L289.99,210.3L290.32,206.49L290.65,212.37L290.98,212.39L291.33,211.42L291.64,204.62L291.97,212.14L292.3,212.29L292.65,212.31L292.97,204.93L293.3,212.29L293.96,212.02L294.29,208.7L295.28,212.19L295.61,210.44L296.6,212.25L296.93,209.9L297.93,212.23L298.26,209.95L298.92,212.48L299.25,212.19L299.58,204.81L299.93,212.29L300.57,212.23L300.9,212.23L303.22,212.21L303.55,213.56L304.54,212.23L304.89,212.25L305.53,212.23L305.86,205.06L306.52,212.48L306.85,212.21L307.18,208.87L307.52,209.54L307.85,212.21L308.18,212.18L308.51,210.2L308.84,209.31L309.17,212.25L309.5,212.27L309.85,210.01L310.16,208.71L310.49,212.25L310.82,212.23L311.17,210.3L311.48,205.64L311.81,212.29L312.48,211.75L312.8,204.19L313.47,212.33L313.8,212.23L314.13,204.83L315.12,212.33L315.45,207.84L316.13,212.37L316.44,212.25L316.78,210.03L317.44,212.39L317.76,212.23L318.09,206.36L319.09,212.25L319.42,204.39L319.77,212.27L320.41,212.19L320.74,212.19L325.37,212.18L325.7,204.21L326.04,214.05L326.69,212.27L327.02,204.46L328.01,212.29L328.37,207.5L329.34,212.31L329.69,209.81L330,209.12L330.33,212.31L330.66,212.35L331,209.85L331.32,209.93L331.66,212.31L331.99,212.35L332.32,210.01L332.65,214.61L332.98,212.35L333.31,212.39L333.97,210.74L334.3,212.33L334.96,212.52L335.29,209.41L335.62,212.54L336.28,212.33L336.61,209.39L337.6,212.5L337.94,208.71L338.6,212.33L338.93,212.27L339.26,208.04L339.61,212.54L340.25,212.35L340.58,212.35L343.89,212.29L344.22,209.58L345.21,212.31L345.54,204.91L346.53,212.27L346.86,203.84L347.53,212.37L347.86,212.27L348.19,204.52L348.85,212.42L349.18,212.21L349.53,207.32L350.5,212.27L350.85,209.33L351.82,212.31L352.16,209.81L352.48,212.31L353.14,212.14L353.48,210.07L353.81,214.28L354.14,212.08L354.49,212.06L355.13,210.51L355.46,212.25L356.12,212.25L356.45,209.12L356.78,212.02L357.12,211.98L357.44,208.91L357.77,208.93L358.1,212.25L358.44,212.23L358.77,209.81L359.1,208.76L359.45,212.04L359.76,212.27L360.09,209.72L360.76,212.41L361.08,212.27L361.41,210.14L362.08,212.25L362.4,212.04L362.74,211.55L363.73,212.33L364.06,212.02L365.05,212.21L365.38,209.04L366.37,212.33L366.7,204.25L367.69,212.25L368.02,203.75L368.36,212.21L369.02,212.04L369.37,208.91L370.34,212.25L370.68,208.77L371.66,212.33L372,208.85L372.66,212.27L372.99,212.14L373.32,203.98L373.98,212.33L374.33,212.04L374.64,203.67L374.97,214.03L375.65,212.15L375.96,203.79L376.62,212.35L376.96,212.02L377.28,205.76L378.28,212.06L378.61,208.67L378.94,208.77L379.27,212.27L379.6,212.15L379.93,209.78L380.92,212.5L381.25,209.45L382.24,212.33L382.58,210.34L383.57,212.35L383.9,211.73L385.22,212.27L385.57,212.31L387.53,212.25L387.87,214.01L389.21,210.3L389.52,212.19L390.18,212.31L390.52,208.67L390.84,212.33L391.5,212.02L391.84,208.31L392.49,212.48L392.82,212.21L393.16,208.04L393.82,212.23L394.17,212.19L394.48,206.26L395.14,212.27L395.49,212.02L395.8,203.67L396.13,212.95L396.8,211.79L397.12,203.15L397.79,212.25L398.12,212.21L398.45,204.71L399.11,212.31L399.44,212.19L399.77,207.5L400.1,208.48L400.45,212.21L400.76,212.27L401.09,209.57L402.08,212.27L402.41,209.6L403.08,212.58L403.41,212.04L403.74,210.28L404.73,212.5L405.06,211.63L406.05,212.33L406.38,212.31L408.7,212.19L409.02,214.24L410.37,210.01L410.68,212.18L411.01,212.54L411.34,205.39L412.33,212.27L412.66,208.71L413.01,208.23L413.33,212.21L413.66,212.27L413.99,209.74L414.32,207.77L414.65,212.18L414.98,212.39L415.33,210.05L415.64,203.82L415.97,212.39L416.3,212.42L416.65,210.9L416.96,203.34L417.29,212.41L417.62,212.41L417.96,212.48L418.28,203.52L418.61,212.5L419.28,212.29L419.61,205.83L420.27,212.48L420.6,212.37L420.93,209.33L421.92,212.5L422.25,203.57L423.24,212.31L423.58,203.13L423.91,212.33L424.57,212.21L424.9,203.42L425.89,212.35L426.22,205.31L426.57,212.48L427.21,212.25L427.54,212.5L428.54,212.45L428.87,213.43L430.19,211.32L430.52,212.29L430.85,212.29L431.18,204.42L432.17,212.25L432.5,206.51L433.49,212.33L433.83,209.62L434.82,212.23L435.15,209.41L436.14,212.35L436.49,210.05L436.8,213.16L437.13,212.02L437.47,212.27L437.81,211.38L438.13,208.43L439.12,212.33L439.45,208.1L440.44,212.27L440.77,207.15L441.76,212.35L442.09,203.96L443.08,212.21L443.41,203.07L444.09,212.21L444.41,211.79L444.74,202.62L445.4,212.33L445.73,212.29L446.06,204.73L447.05,212.27L447.38,212.27L452.01,212.23L452.34,206.26L452.69,212.29L453.34,212.19L453.67,209.08L454.66,212.45L454.99,202.8L455.65,212.27L455.98,211.96L456.33,202.49L456.64,213.1L457.3,212.21L457.65,203.57L458.62,212.25L458.96,205.58L459.62,212.31L459.95,212.25L460.28,209.03L460.61,207.21L460.94,212.33L461.29,212.29L461.6,209.47L461.93,206.55L462.26,212.27L462.61,212.31L462.92,209.84L463.26,203.15L463.59,212.27L463.92,212.25L464.25,210.59L464.58,202.43L464.91,212L465.24,212.18L467.22,212.27L467.57,212.29L471.85,212.23L472.19,207.79L472.53,212.31L473.17,212.06L473.51,206.42L474.5,212.19L474.83,204.02L475.82,212.23L476.17,202.62L476.48,212.96L477.14,212.27L477.48,202.49L478.14,212.33L478.47,212.31L478.8,203.55L479.79,212.33L480.12,206.22L480.45,207.57L480.78,212.33L481.13,212.31L481.44,209.08L481.77,206.63L482.1,212.31L482.45,212.39L482.76,209.47L483.09,204.52L483.43,212.18L483.76,212.31L484.09,210.07L484.42,202.61L484.75,212.06L485.08,212.09L485.41,211L485.74,202.3L486.09,212.35L486.73,212L487.06,212.04L491.69,212.41L492.02,207.79L492.36,212.27L493.01,212.04L493.34,207.36L494.34,212.29L494.67,205.95L495,212.37L495.66,212.29L496.01,202.68L496.65,212.35L496.98,210.32L497.33,202.51L497.64,213.72L498.31,211.9L498.64,202.41L499.3,212.33L499.63,212.25L499.96,203.84L500.29,212.39L500.97,212.33L501.28,207.61L502.28,212.33L502.6,209.45L503.6,212.35L503.93,209.64L504.26,213.62L504.59,212.14L504.92,212.27L505.58,209.22L505.93,212.35L506.24,212.29L506.57,203.82L507.25,212.27L507.56,212.25L507.89,207.94L508.88,212.29L509.22,209.35L510.21,212.29L510.54,209.93L510.89,212.52L511.53,212.31L511.86,207.57L512.52,212.41L512.85,212.33L513.18,206.78L514.18,212.37L514.51,205.64L515.17,212.33L515.5,212.19L515.85,214.36L517.17,209.39L517.48,212.37L518.14,212.29L518.49,207.36L519.47,212.31L519.8,206.22L520.81,212.41L521.12,204.71L521.45,212.37L521.78,212.35L522.13,210.09L522.44,202.47L522.77,212.35L523.1,212.33L523.45,211.04L523.76,202.11L524.77,212.37L525.09,202.99L526.08,212.29L526.41,205.37L527.4,212.31L527.74,208.93L528.73,212.29L529.06,209.43L530.05,212.54L530.38,210.4L531.37,212.41L531.7,211.01L532.69,212.35L533.02,212.29L535.34,212.25L535.67,213.51L537.01,209.66L537.32,212.27L537.65,212.12L537.99,203.46L538.98,212.62L539.31,207.23L539.64,206.51L539.97,213.28L540.63,218.18L540.96,217.99L541.29,218.01L553.21,217.99L553.53,217.96L555.53,218.03L555.84,217.93L562.45,218.18L562.78,217.93L566.76,218.17L567.08,218.11L660,218.34" style="vector-effect: none; fill: none; stroke: rgb(0, 128, 0); stroke-opacity: 1; stroke-width: 2px; opacity: 1;"/></g><g class="points"/><g class="text"/></g><g class="trace scatter trace79b63b" style="stroke-miterlimit: 2; opacity: 1;"><g class="fills"/><g class="errorbars"/><g class="lines"><path class="js-line" d="M0,110.78L660,110.78" style="vector-effect: none; fill: none; stroke: rgb(255, 0, 0); stroke-opacity: 1; stroke-dasharray: 9px, 9px; stroke-width: 2px; opacity: 1;"/></g><g class="points"/><g class="text"/></g><g class="trace scatter tracecf7ecc" style="stroke-miterlimit: 2; opacity: 1;"><g class="fills"/><g class="errorbars"/><g class="lines"><path class="js-line" d="M0,212.85L660,212.85" style="vector-effect: none; fill: none; stroke: rgb(255, 165, 0); stroke-opacity: 1; stroke-dasharray: 9px, 9px; stroke-width: 2px; opacity: 1;"/></g><g class="points"/><g class="text"/></g><g class="trace scatter traced7a692" style="stroke-miterlimit: 2; opacity: 1;"><g class="fills"/><g class="errorbars"/><g class="lines"><path class="js-line" d="M0,0L660,0" style="vector-effect: none; fill: none; stroke: rgb(128, 0, 128); stroke-opacity: 1; stroke-dasharray: 3px, 3px; stroke-width: 2px; opacity: 1;"/></g><g class="points"/><g class="text"/></g></g></g><g class="overplot"/><path class="xlines-above crisp" d="M0,0" style="fill: none;"/><path class="ylines-above crisp" d="M0,0" style="fill: none;"/><g class="overlines-above"/><g class="xaxislayer-above"><g class="xtick"><text text-anchor="middle" x="0" y="473" transform="translate(79.99,0)" style="font-family: 'Open Sans', verdana, arial, sans-serif; font-size: 12px; fill: rgb(42, 63, 95); fill-opacity: 1; white-space: pre; opacity: 1;">0</text></g><g class="xtick"><text text-anchor="middle" x="0" y="473" style="font-family: 'Open Sans', verdana, arial, sans-serif; font-size: 12px; fill: rgb(42, 63, 95); fill-opacity: 1; white-space: pre; opacity: 1;" transform="translate(245.17,0)">500</text></g><g class="xtick"><text text-anchor="middle" x="0" y="473" style="font-family: 'Open Sans', verdana, arial, sans-serif; font-size: 12px; fill: rgb(42, 63, 95); fill-opacity: 1; white-space: pre; opacity: 1;" transform="translate(410.35,0)">1000</text></g><g class="xtick"><text text-anchor="middle" x="0" y="473" style="font-family: 'Open Sans', verdana, arial, sans-serif; font-size: 12px; fill: rgb(42, 63, 95); fill-opacity: 1; white-space: pre; opacity: 1;" transform="translate(575.53,0)">1500</text></g></g><g class="yaxislayer-above"><g class="ytick"><text text-anchor="end" x="79" y="4.199999999999999" transform="translate(0,460)" style="font-family: 'Open Sans', verdana, arial, sans-serif; font-size: 12px; fill: rgb(42, 63, 95); fill-opacity: 1; white-space: pre; opacity: 1;">0</text></g><g class="ytick"><text text-anchor="end" x="79" y="4.199999999999999" style="font-family: 'Open Sans', verdana, arial, sans-serif; font-size: 12px; fill: rgb(42, 63, 95); fill-opacity: 1; white-space: pre; opacity: 1;" transform="translate(0,417.78)">10</text></g><g class="ytick"><text text-anchor="end" x="79" y="4.199999999999999" style="font-family: 'Open Sans', verdana, arial, sans-serif; font-size: 12px; fill: rgb(42, 63, 95); fill-opacity: 1; white-space: pre; opacity: 1;" transform="translate(0,375.56)">20</text></g><g class="ytick"><text text-anchor="end" x="79" y="4.199999999999999" style="font-family: 'Open Sans', verdana, arial, sans-serif; font-size: 12px; fill: rgb(42, 63, 95); fill-opacity: 1; white-space: pre; opacity: 1;" transform="translate(0,333.33000000000004)">30</text></g><g class="ytick"><text text-anchor="end" x="79" y="4.199999999999999" style="font-family: 'Open Sans', verdana, arial, sans-serif; font-size: 12px; fill: rgb(42, 63, 95); fill-opacity: 1; white-space: pre; opacity: 1;" transform="translate(0,291.11)">40</text></g><g class="ytick"><text text-anchor="end" x="79" y="4.199999999999999" style="font-family: 'Open Sans', verdana, arial, sans-serif; font-size: 12px; fill: rgb(42, 63, 95); fill-opacity: 1; white-space: pre; opacity: 1;" transform="translate(0,248.89)">50</text></g><g class="ytick"><text text-anchor="end" x="79" y="4.199999999999999" style="font-family: 'Open Sans', verdana, arial, sans-serif; font-size: 12px; fill: rgb(42, 63, 95); fill-opacity: 1; white-space: pre; opacity: 1;" transform="translate(0,206.67000000000002)">60</text></g><g class="ytick"><text text-anchor="end" x="79" y="4.199999999999999" style="font-family: 'Open Sans', verdana, arial, sans-serif; font-size: 12px; fill: rgb(42, 63, 95); fill-opacity: 1; white-space: pre; opacity: 1;" transform="translate(0,164.44)">70</text></g><g class="ytick"><text text-anchor="end" x="79" y="4.199999999999999" style="font-family: 'Open Sans', verdana, arial, sans-serif; font-size: 12px; fill: rgb(42, 63, 95); fill-opacity: 1; white-space: pre; opacity: 1;" transform="translate(0,122.22)">80</text></g><g class="ytick"><text text-anchor="end" x="79" y="4.199999999999999" style="font-family: 'Open Sans', verdana, arial, sans-serif; font-size: 12px; fill: rgb(42, 63, 95); fill-opacity: 1; white-space: pre; opacity: 1;" transform="translate(0,80)">90</text></g></g><g class="overaxes-above"/></g></g><g class="polarlayer"/><g class="smithlayer"/><g class="ternarylayer"/><g class="geolayer"/><g class="funnelarealayer"/><g class="pielayer"/><g class="iciclelayer"/><g class="treemaplayer"/><g class="sunburstlayer"/><g class="glimages"/><defs id="topdefs-01798b"><g class="clips"/><clipPath id="legend01798b"><rect width="186" height="105" x="0" y="0"/></clipPath></defs><g class="layer-above"><g class="imagelayer"/><g class="shapelayer"/></g><g class="infolayer"><g class="legend" pointer-events="all" transform="translate(753.2,346)"><rect class="bg" shape-rendering="crispEdges" style="stroke: rgb(68, 68, 68); stroke-opacity: 1; fill: rgb(255, 255, 255); fill-opacity: 1; stroke-width: 0px;" width="186" height="105" x="0" y="0"/><g class="scrollbox" transform="" clip-path="url(#legend01798b)"><g class="groups"><g class="traces" transform="translate(0,14.5)" style="opacity: 1;"><text class="legendtext" text-anchor="start" x="40" y="4.680000000000001" style="font-family: 'Open Sans', verdana, arial, sans-serif; font-size: 12px; fill: rgb(42, 63, 95); fill-opacity: 1; white-space: pre;">Total Input Power</text><g class="layers" style="opacity: 1;"><g class="legendfill"/><g class="legendlines"><path class="js-line" d="M5,0h30" style="fill: none; stroke: rgb(0, 0, 255); stroke-opacity: 1; stroke-width: 2px;"/></g><g class="legendsymbols"><g class="legendpoints"/></g></g><rect class="legendtoggle" x="0" y="-9.5" width="180.171875" height="19" style="fill: rgb(0, 0, 0); fill-opacity: 0;"/></g><g class="traces" transform="translate(0,33.5)" style="opacity: 1;"><text class="legendtext" text-anchor="start" x="40" y="4.680000000000001" style="font-family: 'Open Sans', verdana, arial, sans-serif; font-size: 12px; fill: rgb(42, 63, 95); fill-opacity: 1; white-space: pre;">Total FPGA Power</text><g class="layers" style="opacity: 1;"><g class="legendfill"/><g class="legendlines"><path class="js-line" d="M5,0h30" style="fill: none; stroke: rgb(0, 128, 0); stroke-opacity: 1; stroke-width: 2px;"/></g><g class="legendsymbols"><g class="legendpoints"/></g></g><rect class="legendtoggle" x="0" y="-9.5" width="180.171875" height="19" style="fill: rgb(0, 0, 0); fill-opacity: 0;"/></g><g class="traces" transform="translate(0,52.5)" style="opacity: 1;"><text class="legendtext" text-anchor="start" x="40" y="4.680000000000001" style="font-family: 'Open Sans', verdana, arial, sans-serif; font-size: 12px; fill: rgb(42, 63, 95); fill-opacity: 1; white-space: pre;">Mean Total Input Power</text><g class="layers" style="opacity: 1;"><g class="legendfill"/><g class="legendlines"><path class="js-line" d="M5,0h30" style="fill: none; stroke: rgb(255, 0, 0); stroke-opacity: 1; stroke-dasharray: 9px, 9px; stroke-width: 2px;"/></g><g class="legendsymbols"><g class="legendpoints"/></g></g><rect class="legendtoggle" x="0" y="-9.5" width="180.171875" height="19" style="fill: rgb(0, 0, 0); fill-opacity: 0;"/></g><g class="traces" transform="translate(0,71.5)" style="opacity: 1;"><text class="legendtext" text-anchor="start" x="40" y="4.680000000000001" style="font-family: 'Open Sans', verdana, arial, sans-serif; font-size: 12px; fill: rgb(42, 63, 95); fill-opacity: 1; white-space: pre;">Mean Total FPGA Power</text><g class="layers" style="opacity: 1;"><g class="legendfill"/><g class="legendlines"><path class="js-line" d="M5,0h30" style="fill: none; stroke: rgb(255, 165, 0); stroke-opacity: 1; stroke-dasharray: 9px, 9px; stroke-width: 2px;"/></g><g class="legendsymbols"><g class="legendpoints"/></g></g><rect class="legendtoggle" x="0" y="-9.5" width="180.171875" height="19" style="fill: rgb(0, 0, 0); fill-opacity: 0;"/></g><g class="traces" transform="translate(0,90.5)" style="opacity: 1;"><text class="legendtext" text-anchor="start" x="40" y="4.680000000000001" style="font-family: 'Open Sans', verdana, arial, sans-serif; font-size: 12px; fill: rgb(42, 63, 95); fill-opacity: 1; white-space: pre;">TDP Limit (90W)</text><g class="layers" style="opacity: 1;"><g class="legendfill"/><g class="legendlines"><path class="js-line" d="M5,0h30" style="fill: none; stroke: rgb(128, 0, 128); stroke-opacity: 1; stroke-dasharray: 3px, 3px; stroke-width: 2px;"/></g><g class="legendsymbols"><g class="legendpoints"/></g></g><rect class="legendtoggle" x="0" y="-9.5" width="180.171875" height="19" style="fill: rgb(0, 0, 0); fill-opacity: 0;"/></g></g></g><rect class="scrollbar" rx="20" ry="3" width="0" height="0" style="fill: rgb(128, 139, 164); fill-opacity: 1;" x="0" y="0"/></g><g class="g-gtitle"><text class="gtitle" x="48" y="40" text-anchor="start" dy="0em" style="font-family: 'Open Sans', verdana, arial, sans-serif; font-size: 17px; fill: rgb(42, 63, 95); opacity: 1; font-weight: normal; white-space: pre;">FPGA Power Consumption Over Time</text></g><g class="g-xtitle"><text class="xtitle" x="410" y="500.3" text-anchor="middle" style="font-family: 'Open Sans', verdana, arial, sans-serif; font-size: 14px; fill: rgb(42, 63, 95); opacity: 1; font-weight: normal; white-space: pre;">Time (seconds)</text></g><g class="g-ytitle"><text class="ytitle" transform="rotate(-90,39.41875,270)" x="39.41875" y="270" text-anchor="middle" style="font-family: 'Open Sans', verdana, arial, sans-serif; font-size: 14px; fill: rgb(42, 63, 95); opacity: 1; font-weight: normal; white-space: pre;">Power (W)</text></g><g class="annotation" data-index="0" style="opacity: 1;"><g class="annotation-text-g" transform="rotate(0,847.4,190.78)"><g class="cursor-pointer" transform="translate(747,182)"><rect class="bg" x="0.5" y="0.5" width="200" height="17" style="stroke-width: 1px; stroke: rgb(0, 0, 0); stroke-opacity: 0; fill: rgb(0, 0, 0); fill-opacity: 0;"/><text class="annotation-text" text-anchor="start" x="2" y="13" style="font-family: 'Open Sans', verdana, arial, sans-serif; font-size: 12px; fill: rgb(0, 0, 0); fill-opacity: 1; white-space: pre;">Mean Total Input Power: 63.76 W</text></g></g></g><g class="annotation" data-index="1" style="opacity: 1;"><g class="annotation-text-g" transform="rotate(0,846.9,292.85)"><g class="cursor-pointer" transform="translate(746,284)"><rect class="bg" x="0.5" y="0.5" width="201" height="17" style="stroke-width: 1px; stroke: rgb(0, 0, 0); stroke-opacity: 0; fill: rgb(0, 0, 0); fill-opacity: 0;"/><text class="annotation-text" text-anchor="start" x="2" y="13" style="font-family: 'Open Sans', verdana, arial, sans-serif; font-size: 12px; fill: rgb(0, 0, 0); fill-opacity: 1; white-space: pre;">Mean Total FPGA Power: 39.59 W</text></g></g></g></g></svg>