<svg class="main-svg" xmlns="http://www.w3.org/2000/svg" xmlns:xlink="http://www.w3.org/1999/xlink" width="1920" height="1080" style="" viewBox="0 0 960 540"><rect x="0" y="0" width="960" height="540" style="fill: rgb(255, 255, 255); fill-opacity: 1;"/><defs id="defs-c23d74"><g class="clips"><clipPath id="clipc23d74xyplot" class="plotclip"><rect width="660" height="380"/></clipPath><clipPath class="axesclip" id="clipc23d74x"><rect x="80" y="0" width="660" height="540"/></clipPath><clipPath class="axesclip" id="clipc23d74y"><rect x="0" y="80" width="960" height="380"/></clipPath><clipPath class="axesclip" id="clipc23d74xy"><rect x="80" y="80" width="660" height="380"/></clipPath></g><g class="gradients"/><g class="patterns"/></defs><g class="bglayer"><rect class="bg" x="80" y="80" width="660" height="380" style="fill: rgb(229, 236, 246); fill-opacity: 1; stroke-width: 0;"/></g><g class="layer-below"><g class="imagelayer"/><g class="shapelayer"/></g><g class="cartesianlayer"><g class="subplot xy"><g class="layer-subplot"><g class="shapelayer"/><g class="imagelayer"/></g><g class="minor-gridlayer"><g class="x"/><g class="y"/></g><g class="gridlayer"><g class="x"><path class="xgrid crisp" transform="translate(247.01,0)" d="M0,80v380" style="stroke: rgb(255, 255, 255); stroke-opacity: 1; stroke-width: 1px;"/><path class="xgrid crisp" transform="translate(414.03,0)" d="M0,80v380" style="stroke: rgb(255, 255, 255); stroke-opacity: 1; stroke-width: 1px;"/><path class="xgrid crisp" transform="translate(581.05,0)" d="M0,80v380" style="stroke: rgb(255, 255, 255); stroke-opacity: 1; stroke-width: 1px;"/></g><g class="y"><path class="ygrid crisp" transform="translate(0,417.78)" d="M80,0h660" style="stroke: rgb(255, 255, 255); stroke-opacity: 1; stroke-width: 1px;"/><path class="ygrid crisp" transform="translate(0,375.56)" d="M80,0h660" style="stroke: rgb(255, 255, 255); stroke-opacity: 1; stroke-width: 1px;"/><path class="ygrid crisp" transform="translate(0,333.33000000000004)" d="M80,0h660" style="stroke: rgb(255, 255, 255); stroke-opacity: 1; stroke-width: 1px;"/><path class="ygrid crisp" transform="translate(0,291.11)" d="M80,0h660" style="stroke: rgb(255, 255, 255); stroke-opacity: 1; stroke-width: 1px;"/><path class="ygrid crisp" transform="translate(0,248.89)" d="M80,0h660" style="stroke: rgb(255, 255, 255); stroke-opacity: 1; stroke-width: 1px;"/><path class="ygrid crisp" transform="translate(0,206.67000000000002)" d="M80,0h660" style="stroke: rgb(255, 255, 255); stroke-opacity: 1; stroke-width: 1px;"/><path class="ygrid crisp" transform="translate(0,164.44)" d="M80,0h660" style="stroke: rgb(255, 255, 255); stroke-opacity: 1; stroke-width: 1px;"/><path class="ygrid crisp" transform="translate(0,122.22)" d="M80,0h660" style="stroke: rgb(255, 255, 255); stroke-opacity: 1; stroke-width: 1px;"/></g></g><g class="zerolinelayer"><path class="yzl zl crisp" transform="translate(0,460)" d="M80,0h660" style="stroke: rgb(255, 255, 255); stroke-opacity: 1; stroke-width: 2px;"/></g><g class="layer-between"><g class="shapelayer"/><g class="imagelayer"/></g><path class="xlines-below"/><path class="ylines-below"/><g class="overlines-below"/><g class="xaxislayer-below"/><g class="yaxislayer-below"/><g class="overaxes-below"/><g class="overplot"><g class="xy" transform="translate(80,80)" clip-path="url(#clipc23d74xyplot)"><g class="scatterlayer mlayer"><g class="trace scatter trace743fc5" style="stroke-miterlimit: 2; opacity: 1;"><g class="fills"/><g class="errorbars"/><g class="lines"><path class="js-line" d="M0,127.46L1,129.76L1.34,127.13L1.67,129.47L2.34,129.01L2.67,128.98L3.67,128.87L4.01,130.44L4.68,128.56L5.01,129.43L5.7,129.45L6.02,128.62L6.68,128.97L7.03,128.64L7.36,130.22L7.69,130.24L8.02,128.98L8.69,130.22L9.03,128.44L9.38,115.22L9.69,151.08L10.03,193.33L10.37,108.57L11.7,108.5L12.04,107.74L12.37,108.52L12.7,107.49L13.06,107.69L13.71,109.68L14.04,109.1L14.39,108.15L14.71,108.52L15.05,108.11L15.38,106.89L16.72,111.3L17.06,108.84L17.72,108.13L18.07,109.35L18.39,109.66L18.72,109.2L19.06,109.21L19.4,109.47L19.73,107.67L20.06,108.44L20.39,112.31L20.74,107.67L21.4,108.06L21.73,107.67L22.4,107.74L22.73,106.49L23.4,106.49L23.74,107.65L24.42,111.77L24.74,108.84L25.75,108.84L26.08,106.92L27.08,110.01L27.41,108.07L27.75,107.22L28.1,108.06L28.42,108.57L29.76,110.24L30.09,108.54L30.42,107.43L30.77,108.15L31.09,108.57L32.1,107.49L32.43,111.55L33.12,107.16L33.43,108.36L33.77,111.4L34.45,107.24L34.77,107.51L35.11,111.3L35.78,107.59L36.11,108.34L36.44,110.97L37.11,106.76L37.45,107.69L37.78,110.47L38.45,107.24L38.78,108.07L39.12,109.44L39.46,107.32L39.78,107.74L40.12,108.13L41.12,106.6L41.46,108.54L42.46,107.13L42.79,108.54L43.14,106.76L43.47,107.22L43.8,108.34L44.13,108.54L44.48,106.76L44.8,108.44L45.47,108.13L45.81,107.59L46.14,107.22L46.48,108.27L46.83,108.13L47.14,106.37L48.16,108.54L48.48,107.05L48.81,106.86L49.15,108.52L49.49,108.89L49.82,107.22L50.15,107.22L50.48,108.13L51.49,106.32L51.84,108.27L52.83,107.63L53.18,108.13L53.5,108.06L53.83,107.22L54.16,106.78L54.51,108.34L55.17,107.24L55.5,108.57L56.5,107.97L56.86,110.45L57.84,106.83L58.19,108.98L58.84,106.76L59.18,107.61L59.52,111.38L60.51,107.7L60.85,107.3L61.19,109.29L61.52,106.78L61.87,107.7L62.19,111.09L62.52,108.54L62.86,105.93L63.52,111.38L63.86,108.52L64.19,106.82L64.54,108.52L64.86,110.7L65.53,106.76L65.87,107.57L66.2,110.97L66.89,105.95L67.2,107.7L67.54,111.82L68.22,106.33L68.54,107.69L68.87,109.62L69.88,107.69L70.21,109.43L70.55,107.59L70.88,108.52L71.21,108.52L72.22,108.19L72.55,108.9L72.89,108.69L73.23,106.78L73.56,108.73L73.89,105.04L75.23,108.84L75.56,107.92L75.9,107.16L76.23,108.73L76.92,107.13L77.23,107.47L77.57,107.74L77.9,109.33L78.25,105.48L78.57,105.79L78.91,108.11L79.24,107.73L79.58,106L80.58,108.96L80.91,106.76L81.25,106.12L81.58,108.83L81.93,108.52L82.25,105.95L82.58,105.41L82.92,108.61L83.59,107.55L83.92,105.15L84.59,108.92L84.93,107.16L85.26,105.02L85.61,108.15L85.93,107.74L86.26,106L86.6,106.24L86.94,110.45L87.93,105.79L88.27,109.21L88.6,107.73L88.93,109.1L89.27,111.36L90.27,106.37L90.63,106.6L90.94,105.89L91.95,111.55L92.28,109.31L92.62,104.96L92.95,107.01L93.29,111.38L93.95,106.68L94.29,108.5L94.62,111.45L94.95,111.24L95.29,106.55L95.64,104.26L95.96,113.68L96.62,103.09L96.97,107.49L97.3,111.75L97.63,108.5L97.96,105.56L98.97,109.29L99.32,108.07L99.97,111.77L100.31,108.52L100.65,103.86L100.97,110.06L101.98,107.55L102.31,108.15L102.64,109.08L102.98,105.93L103.32,107.94L103.65,108.54L103.98,109.04L104.33,106.7L104.99,108.9L105.32,107.84L105.66,107.86L105.99,105.64L106.32,108.61L106.66,105.31L107,105.83L107.66,108.5L107.99,105.02L109,108.6L109.34,105.48L109.67,105.93L110,108.5L110.33,112.54L110.68,104.5L111,104.96L111.34,107.36L111.67,108.94L112.01,106.7L112.34,106.32L112.68,107.36L113.03,111.22L113.34,105.85L113.68,104.34L114.01,108.73L115.01,105.66L115.35,110.14L115.69,109.68L116.02,106.29L116.35,103.45L116.69,108.77L117.69,103.34L118.04,111.24L119.03,103.78L119.37,109.68L120.7,103.9L121.03,106.56L121.37,107.47L121.72,110.57L122.03,112L122.37,103.11L122.71,104.77L123.05,110.99L123.71,105.46L124.04,107.09L124.38,111.94L125.38,105.45L125.72,114.06L126.73,107.19L127.05,112.32L127.72,105.73L128.06,108.73L128.39,110.99L129.06,104.42L129.4,108.52L129.72,112.56L130.06,109.68L130.42,105.31L131.06,110.88L131.4,108.52L131.75,109.16L132.07,106.66L132.73,107.36L133.08,106.41L133.74,108.21L134.07,104.69L134.74,104.65L135.08,107.92L135.43,107.42L135.74,109.11L136.08,105.81L136.42,106.78L136.76,107.78L137.08,106L137.41,106.2L137.75,107.24L138.09,109.33L138.42,104.4L139.09,106.41L139.43,103.45L139.76,108.96L140.09,107.36L140.44,105.66L141.1,106.99L141.43,112.38L142.1,102.68L142.43,106.59L142.77,112.77L143.43,104.54L143.77,109.7L144.12,112.09L144.44,105.04L144.77,104.09L145.1,108.75L145.78,108.19L146.11,104.11L146.79,108.9L147.11,104.25L147.45,104.04L147.78,110.45L148.12,111.59L148.45,106.16L148.78,105.46L149.45,105.78L149.79,106.95L150.12,98.49L150.47,111.22L151.12,104.25L151.46,111.75L152.13,105.99L152.8,106.22L153.13,106.99L153.46,102.93L153.8,104.61L154.15,108.84L154.47,109.37L154.8,103.59L155.13,102.74L155.48,113.27L156.47,107.76L156.82,110.78L157.48,105.91L157.81,109.1L158.15,112.15L158.48,108.9L158.81,104.81L159.48,110.66L159.82,109.37L160.15,104.01L160.82,112.38L161.15,109.39L161.49,108.21L161.83,105.83L162.16,109.11L162.85,104.09L163.16,110.55L163.5,110.84L163.83,108.5L164.18,107.69L164.5,108.54L164.83,109.5L165.17,104.55L165.51,109.52L165.83,107.38L166.17,113.56L166.5,106.49L166.84,105.29L167.17,110.84L167.51,106.76L167.86,104.58L168.18,104.07L168.51,109.39L168.85,108.15L169.19,103.65L169.85,106.97L170.18,104.36L170.85,109.1L171.19,108.15L171.54,107.24L171.85,104.94L172.19,109.68L172.52,110.22L172.87,102.72L173.52,106.59L173.86,111.22L174.21,98.68L174.53,106.08L174.86,106.97L175.2,106.56L175.53,101.83L176.55,106.26L176.87,103.65L177.2,101.11L177.54,106.41L178.21,105.72L178.54,107.97L179.22,105.5L179.54,108.4L180.21,105.81L180.55,108.13L180.88,101.85L181.21,102.1L181.57,105.42L181.88,107.61L182.22,106.49L182.55,106.02L182.9,108.89L183.22,104.38L183.56,103.78L183.89,108.73L184.23,108.9L184.56,106.59L184.89,102.93L185.23,107.82L185.56,111.24L185.9,110.43L186.23,103.34L186.9,110.43L187.23,107.74L187.57,107.36L187.91,109.43L188.24,106.97L188.57,102.06L189.24,112.89L189.57,109.66L189.91,103.94L190.58,108.65L190.91,106.2L191.25,102.2L191.59,111.2L192.58,102.8L192.92,108.89L193.59,110.06L193.92,104.52L194.25,108.9L194.59,108.65L194.92,106.99L195.27,102.66L195.59,106.99L195.92,106.74L196.61,103.3L196.93,108.52L197.26,110.26L197.6,104.46L197.94,105.25L198.27,108.9L198.6,108.65L198.95,103.71L199.27,109.11L199.94,108.13L200.29,104.09L200.61,100.51L200.94,106.97L201.28,102.74L201.62,104.04L201.94,108.11L202.28,108.52L202.62,101.77L203.28,108.5L203.62,108.13L203.97,104.71L204.62,110.06L204.95,109.7L205.3,101.04L205.63,101.17L205.96,109.68L206.63,101.11L206.96,106.8L207.3,106L207.65,109.29L208.3,103.96L208.63,106.39L208.98,108.13L209.3,99.82L209.63,100.96L209.97,106.95L210.31,107.43L210.64,102.8L211.31,110.06L211.64,107.97L211.98,103.63L212.31,99.88L212.66,106.18L212.98,108.52L213.31,104.07L213.65,104.19L213.99,107.73L214.32,107.74L214.65,103.3L214.98,108.5L215.32,107.8L215.66,104.07L216.34,108.13L216.66,106.2L216.99,104.23L217.33,99.45L217.67,110.08L217.99,112.02L218.33,108.54L218.66,108.73L219,108.11L219.33,106.97L219.66,103.05L220,109.5L220.34,114.08L220.67,108.9L221,104.98L221.67,109.81L222.01,107.36L222.68,102.14L223.01,112.59L223.34,110.47L223.68,97.09L224.34,109.04L224.68,107.76L225.02,100.27L225.68,114.45L226.02,107.74L226.37,104.63L227.02,109.98L227.35,106.28L228.03,106.99L228.36,110.58L229.03,95.26L229.36,104.65L229.7,113.72L230.05,104.42L230.36,107.42L230.7,110.45L231.38,106.33L231.7,111.07L232.03,109.31L232.37,100.83L233.37,108.89L233.71,103.69L234.05,104.73L234.38,109.27L234.71,108.9L235.06,98.62L236.05,109.66L236.39,95.55L237.39,108.89L237.73,103.57L238.05,102.66L238.39,112.19L239.06,101.21L239.39,102.35L239.73,106.8L240.07,108.52L240.4,102.25L241.06,108.38L241.41,108.11L241.73,102.8L242.07,100.96L242.4,108.15L243.07,99.03L243.41,104.38L243.76,110.51L244.41,101.62L244.74,103.74L245.09,108.54L245.41,110.06L245.75,100.07L246.08,107.03L246.75,106.6L247.08,102.35L247.75,109.39L248.08,108.48L248.42,102.43L248.77,110.08L249.09,105.42L249.42,105.12L250.1,110.3L250.43,104.73L251.76,111.05L252.1,103.39L252.76,108.75L253.1,108.52L253.44,100.13L254.1,111.82L254.44,107.4L254.77,99.28L255.77,113.16L256.11,102.41L256.45,109.29L256.78,108.29L257.11,105.08L257.46,99.63L257.78,107.76L258.45,113.19L258.79,94.79L259.45,112.64L259.79,106.22L260.13,100.57L260.79,109.44L261.15,103.11L261.46,96.4L261.79,106.99L262.13,106.22L262.48,101.27L263.46,111.61L263.81,102.72L264.14,106.72L264.47,106.59L264.8,98.49L265.47,109.87L265.81,106.2L266.16,100.75L266.47,100.4L266.81,109.41L267.14,111.28L267.49,105.42L267.81,105.37L268.14,106.78L268.48,106.22L268.82,96.13L269.82,108.92L270.16,103.14L270.49,102.33L270.82,108.34L271.17,108.21L271.49,101.19L271.83,100.96L272.16,107.2L272.5,108.13L272.83,98.06L273.16,96.82L273.5,112L274.5,102.2L274.83,109.77L275.17,109.77L275.5,101.97L275.84,97.66L276.19,107.76L276.51,106.99L276.84,100.51L277.17,97.75L277.52,111.24L277.84,112.34L278.18,101.5L279.18,108.36L279.51,101.58L279.87,110.97L280.18,108.11L280.52,105.42L280.85,101.81L281.2,109.29L281.52,109.33L281.85,105.18L282.53,109.6L282.86,106.2L283.19,103.45L283.53,108.36L283.86,108.67L284.19,106.76L285.2,107.36L285.53,103.88L285.86,100.54L286.21,107.74L286.53,109.04L286.87,108.15L287.2,99.22L287.87,110.22L288.21,108.13L288.56,99.59L289.21,108.94L289.55,108.13L289.89,104.5L290.55,110.97L290.88,107.74L291.23,99.45L291.88,110.08L292.22,102.33L292.56,101.23L292.89,108.92L293.22,109.29L293.57,101.89L294.56,110.08L294.91,102.66L295.23,100.19L295.57,108.15L295.9,99.01L296.24,102.27L296.56,103.22L296.9,108.52L297.26,104.09L297.57,102.66L298.24,111.22L298.59,97.23L299.57,105.83L299.92,98.7L300.91,108.13L301.25,101.73L301.58,100.81L301.92,106.97L302.27,109.31L302.58,99.09L303.25,106.78L303.6,106.6L303.92,101.6L304.25,100.96L304.59,110.51L305.26,99.82L305.59,99.96L305.93,109.23L306.26,108.92L306.6,99.53L307.28,109.37L307.6,106.99L307.93,103.36L308.27,100.78L308.61,108.13L308.94,108.54L309.27,99.47L310.27,108.61L310.61,100.9L311.28,108.6L311.61,106L311.95,103.05L312.29,108.13L312.61,107.36L312.95,108.6L313.28,100.84L313.63,108.6L313.95,107.94L314.62,107.57L314.96,109.29L315.62,103.55L315.98,107.96L316.29,109.43L316.63,109.08L316.96,108.52L317.97,107.76L318.3,99.2L318.96,109.74L319.3,108.56L319.64,98.7L320.3,110.97L320.64,108.11L320.99,98.23L321.64,110.45L321.97,100.9L322.65,107.74L322.98,112.21L323.65,98.95L323.98,108.54L324.32,111.55L324.67,101.04L324.98,99.57L325.32,108.98L325.65,110.91L326,101.33L326.66,106.59L326.99,103.53L327.66,97.13L327.99,107.74L328.33,107.74L328.67,100.27L329,107.11L329.33,106.18L329.68,103.74L330,98.22L330.34,104.96L330.67,108.11L331.34,100.21L331.67,101.41L332.01,108.15L332.35,98.54L332.68,102.2L333.01,105.99L333.36,108.13L333.68,102.2L334.01,100.96L334.35,107.43L334.69,107.36L335.02,98.54L336.03,107.74L336.35,99.53L336.69,99.3L337.02,107.74L337.36,106.97L337.69,98.22L338.38,112.59L338.69,108.5L339.03,98.2L339.71,107.43L340.03,102.78L340.37,100.11L340.7,108.48L341.04,111.59L341.37,107.8L341.7,98.14L342.06,109.29L342.71,108.9L343.04,101.52L343.71,110.06L344.04,106.2L344.38,101.38L345.38,109.31L345.71,105.25L346.38,109.87L346.72,106.43L347.07,107.19L347.39,106.14L347.72,108.92L349.06,108.13L349.39,96.19L350.06,109.31L350.39,107.36L350.73,100.81L351.4,110.12L351.73,108.19L352.09,98.54L353.07,108.54L353.41,98.93L354.08,110.64L354.41,99.67L354.75,98.14L355.07,108.9L355.41,107.51L355.77,100.13L356.08,96.36L356.41,107.74L356.75,110.01L357.1,102.14L357.42,101.64L357.75,109.27L358.43,100.51L358.75,105.23L359.09,107.55L359.42,102.51L360.09,96.82L360.43,105.64L360.78,108.4L361.09,103.61L361.43,107.65L361.77,105.04L362.11,103.49L362.43,102.06L362.77,106.99L363.1,105.81L363.44,98.16L364.77,108.02L365.11,95.86L365.79,109.37L366.11,98.37L366.78,110.28L367.12,106.59L367.45,97.63L368.12,113.18L368.46,109.29L368.78,100.96L369.12,100.69L369.47,108.92L369.79,110.08L370.12,97.71L370.8,107.9L371.13,106.22L371.46,100.5L371.79,100.38L372.14,106.56L372.46,108.9L372.8,101.91L373.47,111.24L373.8,108.13L374.14,98.08L374.8,110.2L375.14,106.2L375.47,96.42L376.14,108.3L376.48,108.13L376.81,108.25L377.15,108.98L377.48,106.2L377.81,105.81L378.15,107.57L378.48,108.15L378.81,111.82L379.15,106.06L379.82,106.97L380.15,106.2L380.49,102.35L380.83,107.94L381.16,112.92L381.49,105.06L381.82,97.71L382.16,113.74L383.18,98.76L383.49,105.73L383.83,112.07L384.17,110.08L384.51,95.38L385.17,107.88L385.5,106.99L385.85,94.62L386.5,111.03L386.84,99.91L387.18,100.54L387.51,109.37L387.84,110.63L388.19,101.21L388.51,96.61L388.85,106.22L389.18,111.55L389.53,99.28L389.85,100.83L390.18,108.5L390.86,101.21L391.18,106.24L391.52,105.64L391.86,102.68L392.52,97.09L392.86,105.23L393.21,92.23L393.53,100.84L393.86,104.81L394.2,105.79L394.54,101.29L394.86,98.53L395.2,103.45L395.53,110.84L395.87,97.04L396.2,97.35L396.54,102.2L396.89,107.74L397.2,94.91L398.22,110.47L398.54,100.69L398.87,98.1L399.21,109.89L399.88,100.3L400.21,102.7L400.55,115.42L401.22,100.17L401.55,101.38L401.9,110.06L402.22,109.68L402.55,98.72L403.24,109.7L403.56,106.56L403.89,101.11L404.57,107.8L404.89,107.73L405.23,99.45L405.9,111.22L406.23,110.04L406.57,96.4L407.57,108.54L407.9,99.4L408.57,111.4L408.91,105.1L409.58,112.67L409.91,110.04L410.24,102.31L410.91,109.29L411.25,108.3L411.58,104.58L412.58,108.48L412.92,105.19L413.59,111.75L413.92,107.36L414.26,97.99L414.6,104.25L414.92,109.91L415.26,106.92L415.59,96.01L415.93,106.95L416.59,105.41L416.95,99.99L417.6,111.36L417.93,108.9L418.28,95.22L418.94,113.48L419.27,100.01L419.61,99.82L419.94,108.13L420.28,110.99L420.63,101.1L420.94,102.12L421.28,106.99L421.61,111.17L421.96,98.45L422.28,98.18L422.61,107.74L422.95,105.35L423.29,96.42L423.95,106.12L424.28,101.95L424.63,99.99L425.29,110.08L425.64,101.23L425.96,95.74L426.29,101.44L426.63,106.97L426.97,97.5L427.29,98.29L427.63,108L427.97,109.31L428.31,98.43L428.63,98.74L428.97,105.64L429.3,107.36L429.64,95.16L430.65,105.42L430.98,99.57L431.31,97.44L431.64,107.57L432.31,97.63L432.65,97.87L432.98,109.04L433.32,107.38L433.65,98.31L433.98,98.27L434.32,111.71L434.65,109.68L434.98,96.61L435.99,113.95L436.32,95.99L436.66,94.02L437,112.48L437.66,96.94L437.99,106.97L438.33,107.55L438.66,103.61L439,99.86L439.35,108.9L440.34,94.48L440.68,107.74L441,108.3L441.34,108.07L441.67,98.31L442.02,110.85L442.34,107.74L442.67,101.98L443.35,109.83L443.68,108.52L444.01,108.54L444.36,106.1L444.68,108.13L445.02,107.76L445.35,103.65L445.7,107.36L446.02,108.21L446.35,107.76L446.69,95.55L447.36,110.99L447.69,108.15L448.05,98.33L448.36,113.16L448.69,109.93L449.03,106.97L449.38,101.25L449.7,109.31L450.03,107.96L450.37,108.13L450.71,97.33L451.37,110.78L451.7,96.76L452.04,95.88L452.37,108.52L452.71,109.7L453.06,98.62L454.04,110.58L454.39,99.07L454.71,98.16L455.05,107.53L455.38,108.57L455.72,98.7L456.38,108.89L456.72,103.63L457.05,97.77L457.39,106.43L457.72,108.5L458.07,98.22L458.39,96.73L458.72,107.73L459.06,106.59L459.41,94L460.4,107.74L460.74,100.44L461.07,96.09L461.4,107.19L461.73,108.11L462.07,96.3L463.09,108.52L463.41,97.09L463.74,96.53L464.08,108.71L464.42,108.13L464.74,96.46L465.08,95.92L465.41,108.87L465.75,107.36L466.08,95.9L467.08,107.74L467.42,97.25L467.75,96.32L468.1,107.76L468.42,108.6L468.76,100.94L469.09,97.09L469.43,107.74L469.76,108.15L470.09,97.96L470.43,109.29L470.76,107.92L471.1,103.55L471.43,98.16L471.78,112.02L472.43,105.41L472.77,95.9L474.1,108.73L474.45,109.27L475.11,103.07L475.44,108.15L475.78,114.47L476.11,108.44L476.44,98.41L477.12,111.36L477.45,108.07L477.78,105.02L478.45,113.18L478.79,108.92L479.12,94.31L479.46,108.9L479.79,111.82L480.12,111.61L480.48,95.47L481.12,111.17L481.46,108.98L481.81,104.05L482.46,114.92L482.8,100.48L483.8,110.41L484.13,97.08L484.47,96.52L484.81,103.86L485.14,103.94L485.49,98.62L486.48,109.68L486.82,99.76L487.48,112.32L487.81,95.28L488.48,96.85L488.81,109.71L489.49,97.71L489.82,113.81L490.5,96.53L490.82,100.94L491.16,105.64L491.49,110.84L491.83,96.19L492.16,94.35L492.49,102.52L492.83,106.2L493.17,92.77L494.19,107.74L494.5,96.79L495.52,108.9L495.84,96.65L496.17,95.68L496.5,108.23L497.51,97.81L497.84,107.76L498.18,106.59L498.51,97.73L498.85,96.63L499.2,108.54L499.51,106.56L499.85,98.26L500.19,97.83L500.53,107.92L500.85,106.26L501.19,94.24L501.52,95.01L501.86,107.74L502.19,108.92L502.52,100.48L503.19,104.46L503.53,103.34L503.86,98.8L504.53,109.23L504.87,104.67L505.2,96.98L505.55,112.54L505.87,108.13L506.2,112.38L506.54,109.89L507.54,103.8L507.87,107.36L508.21,113.23L508.54,107.38L508.88,96.88L509.23,106.59L509.88,106.12L510.21,109.47L510.56,109.23L510.88,111.36L511.22,109.68L511.55,102.89L512.22,112.15L512.55,109.31L512.91,92.82L513.56,110.41L513.89,107.76L514.24,93.98L514.89,111.36L515.23,108.94L515.57,103.65L515.9,104.65L516.23,111.69L516.57,98.87L516.9,104.88L517.23,108.36L517.57,108.27L517.92,97.33L518.24,98.37L518.57,108.52L518.91,110.06L519.25,97.67L519.91,108.89L520.24,99.32L520.58,98.49L520.91,105.04L521.25,106.59L521.58,96.8L521.92,97L522.25,101.89L522.59,108.9L522.94,93.73L523.25,96.4L523.59,105.87L523.92,108.11L524.27,97.29L524.59,97.75L524.93,106.39L525.93,93.44L526.26,104.91L526.6,107.74L526.93,96.26L527.27,95.51L527.6,108.67L527.95,106.18L528.27,95.49L528.6,92.24L528.94,109.83L529.28,108.54L529.61,95.74L529.94,92.86L530.28,111.22L530.61,108.9L530.95,97.56L531.28,94.95L531.63,106.99L531.95,105.08L532.28,93.42L532.62,94.6L532.96,108.63L533.29,110.85L533.62,94.33L533.95,93.67L534.29,104.65L534.96,96.13L535.29,108.15L536.65,98.1L536.96,110.06L537.63,97.93L537.98,114.7L538.64,100.88L538.97,109.5L539.97,107.24L540.31,109.29L540.64,110.47L540.97,109.66L541.31,99.24L541.98,119.42L542.31,130.69L542.64,128.29L542.99,131.07L543.32,129.91L543.98,131.46L544.32,125.78L544.65,132.04L544.99,126.41L545.34,127.17L545.99,129.89L546.32,126.01L547.32,135.85L547.66,126.73L548.66,131.04L549,124.87L549.67,131.29L550,128.97L550.35,131.83L550.67,124.89L551.68,131.44L552.01,130.09L552.34,128.54L552.68,129.53L553.01,129.51L553.34,130.28L553.68,129.12L554.68,129.1L555.02,130.2L555.37,127.88L555.69,130.24L556.02,130.28L556.35,131.07L556.69,128.74L557.02,130.28L557.36,128.74L557.69,129.51L558.03,129.89L558.36,129.51L558.69,128.33L559.05,128.33L559.36,129.51L559.7,129.95L560.03,129.49L560.38,129.1L561.37,128.93L561.71,132.79L562.37,123.71L562.72,128.71L563.04,128.35L563.38,132.62L563.71,127.98L564.06,131.44L564.38,132.23L564.72,132.21L565.05,129.91L565.39,129.14L565.71,135.31L566.41,122.55L566.72,125.08L567.05,129.51L567.39,126.8L567.73,135.69L568.06,125.59L568.39,131.83L568.72,129.12L569.07,127.56L569.39,135.29L570.73,127.94L571.07,128.35L572.07,131.05L572.4,128.33L572.75,129.88L573.07,127.56L574.08,130.65L574.41,130.45L574.74,125.99L575.09,127.56L575.41,129.88L576.08,127.6L576.42,129.37L577.08,129.12L577.42,131.44L578.42,127.94L578.77,129.18L579.09,131.83L579.43,129.1L579.76,131.05L580.1,128.74L580.42,130.3L580.76,131.05L581.76,127.94L582.1,131.42L583.1,128.71L583.44,134.13L583.79,128.35L584.44,129.7L584.77,131.85L585.11,131.05L585.44,127.57L586.11,133.99L586.45,131.05L586.78,125.26L587.11,132.6L587.46,131.42L587.78,129.88L588.12,127.96L588.45,131.04L588.8,131.26L589.12,129.72L589.79,131.83L590.13,130.67L590.46,129.49L590.79,130.67L591.14,130.49L591.46,129.12L591.8,130.67L592.13,127.17L592.8,129.89L593.14,128.35L593.47,129.41L593.81,130.28L594.13,129.1L594.47,129.89L594.83,130.28L595.14,129.51L595.47,131.05L595.81,129.89L596.15,129.51L596.81,130.67L597.14,127.52L597.49,129.88L597.81,126.01L598.48,130.34L598.82,127.25L599.15,127.19L599.49,128.35L599.84,131.05L600.15,126.82L600.49,124.89L600.82,128.7L601.17,131.04L601.49,125.45L601.83,136.29L602.16,128.33L602.5,129.12L602.83,130.67L603.16,129.08L603.51,129.51L603.83,129.89L604.17,126.8L604.5,133.76L605.17,132.97L605.5,133.39L605.84,125.26L606.18,129.53L606.51,131.04L606.84,128.71L607.19,134.15L607.51,130.26L608.18,130.67L608.53,129.1L608.85,131.04L609.18,125.66L609.52,126.01L609.86,135.69L610.52,129.12L610.85,131.81L611.19,128.33L611.85,131.44L612.21,131.04L612.53,127.57L612.86,132.99L613.19,129.51L613.54,128.54L613.86,128.17L614.2,129.1L614.53,126.78L614.87,128.75L615.2,128.33L615.53,129.51L615.89,125.26L617.22,132.6L617.54,127.56L618.21,131.83L618.55,131.26L618.88,128.74L619.21,128.83L619.56,127.57L619.88,127.54L620.21,129.55L620.55,133.78L620.9,131.05L621.22,131.46L621.55,124.85L621.89,129.51L622.23,130.67L622.55,127.17L622.89,127.94L623.25,130.3L624.23,129.04L624.58,131.05L625.23,127.57L625.56,129.31L625.9,128.54L626.23,129.91L626.57,129.53L626.9,129.12L627.24,129.51L627.57,128.75L627.91,132.62L628.26,131.25L628.57,126.41L629.59,130.67L629.91,129.12L630.58,124.08L630.92,133.37L631.25,136.47L631.58,131.05L631.93,129.51L632.59,129.89L632.92,130.67L633.27,127.19L633.59,131.85L634.26,130.67L634.6,131.44L635.62,127.96L635.93,127.96L636.26,131.83L636.6,128.37L636.95,131.07L638.28,129.51L638.6,129.89L638.94,129.93L639.27,129.14L639.61,129.89L639.94,129.84L641.28,129.31L641.61,130.3L641.96,129.88L642.28,127.94L642.62,128.33L642.95,130.65L643.29,128.74L643.62,129.12L643.95,130.28L644.31,126.8L644.62,129.88L644.96,128.74L645.96,131.05L646.29,129.89L646.63,126.05L646.97,131.83L647.3,131.44L647.63,129.51L648.63,130.67L648.97,129.51L649.97,131.42L650.31,129.89L650.97,130.28L651.31,129.84L651.65,130.3L651.98,129.04L652.64,130.67L653,129.12L653.32,128.17L653.65,130.11L653.98,128.17L654.33,128.75L654.65,132.6L655.66,128.87L655.99,124.67L656.32,134.15L656.68,129.51L656.99,130.34L657.33,130.67L657.66,129.89L658.33,131.05L658.67,126.22L659.67,133.03L660,128.75" style="vector-effect: none; fill: none; stroke: rgb(0, 0, 255); stroke-opacity: 1; stroke-width: 2px; opacity: 1;"/></g><g class="points"/><g class="text"/></g><g class="trace scatter trace367564" style="stroke-miterlimit: 2; opacity: 1;"><g class="fills"/><g class="errorbars"/><g class="lines"><path class="js-line" d="M0,218.42L3.67,218.34L4.01,218.46L7.36,218.23L7.69,218.51L9.03,218.59L9.38,215.17L9.69,236.35L10.03,332.22L10.71,212.79L11.03,213.2L11.37,212.69L13.06,212.79L13.37,212.74L14.39,212.93L14.71,212.81L16.38,212.89L16.72,212.68L18.07,212.93L18.39,212.74L19.06,212.77L19.4,213.45L20.06,212.72L20.39,212.95L20.74,213.56L21.4,212.68L21.73,212.93L22.07,214.3L22.73,212.72L23.09,212.96L23.4,214.3L23.74,212.75L24.42,213.02L24.74,215.44L25.07,212.69L25.75,212.93L26.08,215.23L26.41,212.69L27.08,212.93L27.41,214.3L28.1,212.68L28.42,212.77L28.75,213.01L29.76,213.04L30.09,212.99L31.09,212.77L31.43,212.68L33.12,212.25L33.43,212.99L33.77,213.59L34.1,212.42L34.45,212L34.77,212.68L35.11,213.64L35.78,211.59L36.11,213.04L36.44,213.16L36.8,212.31L37.11,211.36L37.45,212.87L38.45,211.87L38.78,212.77L39.78,212.09L40.12,212.72L41.46,212.69L41.79,212.66L42.13,212.25L42.46,212.72L42.79,212.75L43.8,212.72L44.13,212.96L44.8,212.08L45.14,212.74L45.47,212.72L46.14,212.27L46.48,213.02L46.83,213.01L47.14,212.08L48.16,212.91L48.48,211.32L49.49,212.69L49.82,210.71L50.48,212.81L50.82,212.66L51.15,211.42L52.16,212.72L52.49,211.81L53.18,213.37L53.5,212.68L53.83,211.71L54.51,213.53L54.83,212.6L55.17,211.69L55.84,214.67L56.17,212.15L56.5,211.82L56.86,212.96L57.51,211.82L57.84,212.69L58.51,212.89L58.84,211.96L59.85,212.89L60.18,212.19L61.19,212.91L61.52,212.46L62.52,212.72L62.86,211.69L63.52,213.39L63.86,213.02L64.19,210.94L64.86,213.61L65.2,212.69L65.53,210.51L66.53,212.75L66.89,210.28L67.54,212.72L67.87,211.81L68.22,211.11L68.54,212.91L68.87,212.95L69.21,211.85L70.21,212.99L70.55,211.81L71.21,212.93L71.55,212.6L71.9,211.69L72.22,212.89L72.55,212.64L72.89,212.42L73.23,211.88L73.56,212.95L74.22,212.31L74.56,211.85L75.23,212.99L75.56,211.77L75.9,211.55L76.23,213.04L76.57,212.75L76.92,210.9L77.9,212.69L78.25,209.74L79.24,212.72L79.58,209.35L80.58,212.69L80.91,209.57L81.93,212.74L82.25,210.26L83.26,213.02L83.59,210.76L84.59,213.01L84.93,211.27L85.26,211.21L85.61,212.64L86.26,211.23L86.6,212.93L86.94,212.93L87.26,211.65L87.6,211.25L87.93,212.72L88.27,212.75L88.6,211.65L88.93,211.34L89.27,212.69L89.94,212.14L90.27,211.42L90.94,212.77L91.28,212.04L92.28,213.02L92.62,212.31L93.29,213.61L93.61,212.79L93.95,212.27L94.29,212.91L94.62,214.24L95.29,209.85L95.64,212.89L95.96,213.62L96.29,212.96L96.62,209.54L97.63,213.01L97.96,210.45L98.97,212.95L99.32,212.25L99.97,212.95L100.31,211.4L101.3,212.95L101.64,211.21L102.64,212.77L102.98,211.13L103.65,212.79L103.98,211.61L104.33,211.25L104.65,212.77L104.99,212.81L105.32,210.07L106.32,212.77L106.66,208.97L107.66,212.83L107.99,208.48L108.66,212.83L109,212.66L109.34,209.24L110.33,212.72L110.68,209.81L111.67,212.89L112.01,210.32L112.68,212.93L113.03,212.25L113.34,210.49L113.68,210.92L114.01,215L114.68,210.74L115.01,210.95L115.35,215L116.35,210.72L116.69,213.59L117.69,211L118.04,212.79L118.69,210.98L119.03,212.72L119.37,212.74L119.69,211.87L120.03,210.82L120.36,213.04L121.03,212.23L121.37,210.92L121.72,213.35L122.03,212.69L122.37,212.09L123.05,213.43L123.37,212.79L123.71,212.27L124.38,213.62L124.71,212.91L125.04,212.31L126.05,213.02L126.38,212.12L127.39,212.81L127.72,210.11L128.39,212.87L128.73,212.77L129.06,209.87L129.72,212.99L130.06,212.75L130.42,209.62L131.4,212.93L131.75,212.69L132.4,212.95L132.73,210.76L133.4,212.93L133.74,212.74L134.07,210.72L135.08,213.18L135.43,210.49L136.08,212.74L136.42,211.17L136.76,210.76L137.08,213.01L137.41,212.81L137.75,210.11L138.75,213.01L139.09,208.48L140.09,213.01L140.44,207.9L141.43,212.93L141.77,207.53L142.77,212.99L143.11,207.84L143.77,213.02L144.12,212.96L144.44,208.95L145.1,214.43L145.46,212.52L145.78,209.6L146.11,210.55L146.44,215.11L147.11,210.01L147.45,210.26L147.78,214.96L148.45,210.26L148.78,210.3L149.14,212.99L149.79,210.14L150.12,212.74L150.47,212.74L150.79,211.42L151.12,210.28L151.46,212.74L151.8,212.74L152.13,211.61L152.46,210.28L152.8,212.95L153.46,212.02L153.8,210.32L154.15,214.51L154.47,212.89L154.8,212.04L155.48,213.39L155.8,212.72L156.14,212.12L156.82,213.04L157.14,212.77L157.48,211.54L158.48,213.06L158.81,210.53L159.48,213.04L159.82,212.79L160.15,208.98L160.82,212.87L161.15,212.69L161.49,209.45L162.16,213.02L162.49,212.74L162.85,210.36L163.16,213.01L163.5,212.79L163.83,210.22L164.18,210.53L164.5,212.99L164.83,214.13L165.17,210.11L165.51,210.36L165.83,212.79L166.17,214.98L166.5,210.05L166.84,209.85L167.17,213.01L167.51,214.96L167.86,210.13L168.18,209.04L168.51,213.01L168.85,206.99L169.51,207.86L169.85,212.99L170.85,207.59L171.19,212.96L172.19,208.97L172.52,212.77L172.87,209.31L173.19,209.58L173.52,211.17L173.86,212.96L174.21,209.6L174.53,209.14L174.86,212.5L175.2,212.74L175.53,209.57L175.87,208.73L176.2,212.72L176.55,212.69L176.87,209.87L177.2,208.5L177.54,212.72L177.89,212.83L178.21,209.7L178.54,208.77L178.88,213.06L179.22,212.79L179.54,209.68L179.88,209.39L180.21,212.68L180.55,212.93L180.88,209.85L181.21,210.05L181.57,212.72L181.88,212.79L182.22,209.58L182.9,212.75L183.22,212.68L183.56,209.85L184.23,213.08L184.56,213.01L184.89,209.81L185.9,212.77L186.23,212.77L187.91,212.96L188.24,213.04L188.57,211.48L188.91,213.06L189.24,214.18L189.91,210.94L190.26,213.02L190.58,215.35L190.91,212.96L191.25,208.93L191.91,214.32L192.25,212.77L192.58,207.94L193.25,213.01L193.59,212.68L193.92,207.19L194.59,212.75L194.92,208.67L195.27,207.11L195.59,212.99L195.92,212.75L196.26,209.18L196.61,208.1L196.93,212.95L197.26,212.75L197.6,209.49L197.94,209.6L198.27,212.96L198.6,212.81L198.95,209.35L199.6,212.96L199.94,211.67L200.29,209.35L200.61,212.96L200.94,212.85L201.28,211.88L201.62,209.39L201.94,212.74L202.28,212.96L202.62,211.67L202.95,209.39L203.28,212.99L203.62,212.75L203.97,211.44L204.29,209.39L204.62,212.74L204.95,212.72L205.3,210.26L205.63,209.18L205.96,212.77L206.29,212.68L206.63,208.27L207.65,212.74L207.96,206.74L208.98,212.66L209.3,205.95L210.31,212.87L210.64,206.18L211.31,213.59L211.64,212.27L211.98,206.97L212.66,214.73L212.98,211.87L213.31,208.02L213.99,214.96L214.32,211.09L214.65,208.39L214.98,212.81L215.32,213.45L215.66,210.95L215.99,208.93L216.34,212.99L216.66,212.69L216.99,210.72L217.99,212.87L218.33,210.98L219,213.59L219.33,212.87L219.66,211.38L220.34,214.05L220.67,212.66L221,208.21L221.67,213.01L222.01,212.54L222.34,207.79L223.01,212.99L223.34,212.96L223.68,207.79L224.68,212.72L225.02,207.75L225.35,212.77L225.68,212.69L226.02,209L226.37,207.84L226.69,212.72L227.02,212.69L227.35,208.98L227.7,208.11L228.03,212.77L228.36,212.68L228.69,208.71L229.03,208.25L229.36,212.79L229.7,212.74L230.05,208.87L230.36,209.26L230.7,212.77L231.38,208.95L231.7,209.45L232.03,212.74L232.71,208.81L233.04,209.16L233.37,212.66L234.05,208.79L234.38,212.74L234.71,212.69L235.06,208.21L235.38,208.66L235.72,212.46L236.05,212.77L236.39,206.07L237.05,212.81L237.39,212.72L237.73,205.41L238.75,212.79L239.06,205.12L239.73,213.37L240.07,212.62L240.4,205.37L241.06,214.07L241.41,212.29L241.73,205.97L242.4,214.07L242.74,211.81L243.07,206.15L243.76,215.15L244.07,211.5L244.41,207.4L244.74,212.79L245.09,214.42L245.41,210.71L245.75,207.86L246.08,212.74L246.42,212.74L246.75,210.8L247.08,208.1L247.42,212.85L247.75,213.04L248.08,210.74L249.09,213.01L249.42,210.76L250.43,213.04L250.76,210.82L251.43,213.43L251.76,212.66L252.1,211L252.76,213.88L253.1,212.77L253.44,207.56L254.1,213.62L254.44,212.91L254.77,207.34L255.77,213.01L256.11,207.19L256.45,212.95L257.11,212.81L257.46,207.36L258.12,212.99L258.45,208.31L258.79,207.17L259.12,212.93L259.45,212.75L259.79,208.27L260.13,207.36L260.45,212.72L260.79,212.74L261.15,208.27L261.46,207.38L261.79,212.74L262.8,207.96L263.13,212.75L263.81,208.23L264.14,208.67L264.47,212.72L265.47,208.27L265.81,212.69L266.81,207.19L267.14,212.81L267.49,206.03L268.14,206.34L268.48,212.83L268.82,205.22L269.48,206.12L269.82,212.81L270.16,204.73L270.82,206.09L271.17,212.93L271.49,204.98L271.83,207.81L272.16,214.4L272.5,212.93L272.83,205.41L273.16,207.65L273.5,215.21L274.16,206.26L274.5,207.17L274.83,214.36L275.17,213.01L275.5,207.38L276.19,212.95L276.51,212.79L276.84,207.84L277.84,212.81L278.18,208.02L278.51,213.41L279.18,212.75L279.51,208.08L279.87,214.38L280.52,212.81L280.85,209.66L281.2,213.61L281.85,212.77L282.19,210.92L282.86,212.99L283.19,212.81L283.53,212.02L283.86,212.99L284.19,212.68L284.53,206.86L285.53,212.95L285.86,206.86L286.53,213.06L286.87,213.02L287.2,207.34L287.87,212.95L288.21,212.72L288.56,207.84L288.87,212.81L289.21,212.68L289.55,207.73L289.89,207.96L290.21,212.74L290.55,213.39L290.88,207.81L291.23,208.04L291.55,212.66L291.88,213.47L292.22,207.73L292.56,207.36L292.89,212.69L293.22,214.34L293.57,207.84L293.89,206.74L294.23,213.01L294.56,212.68L294.91,207.84L295.23,206.05L295.57,212.87L295.9,212.56L296.24,207.81L296.56,205.5L296.9,212.77L297.26,211.82L297.57,207.59L297.9,205.74L298.24,212.87L299.24,206.3L299.57,213.02L300.25,207.07L300.58,207.4L300.91,212.68L301.58,206.69L301.92,209.3L302.27,212.77L302.92,206.67L303.25,213.12L303.6,212.58L303.92,210.49L304.25,206.42L304.59,212.74L304.93,212.75L305.26,210.78L305.59,206.51L305.93,213.04L306.26,212.79L306.6,210.55L306.93,206.49L307.28,212.72L307.6,212.74L307.93,210.09L308.94,212.75L309.27,208.16L309.61,212.93L310.27,212.75L310.61,206.09L311.61,212.79L311.95,212.75L316.63,212.75L316.96,207.56L317.97,212.96L318.3,207.4L318.96,212.79L319.3,212.69L319.64,206.26L319.97,212.96L320.3,212.74L320.64,204.02L320.99,205.66L321.31,212.74L321.64,212.74L321.97,203.96L322.32,205.29L322.65,212.69L322.98,212.93L323.31,204L323.65,205.28L323.98,212.72L324.32,212.74L324.67,203.92L324.98,205.31L325.32,212.77L325.65,211.38L326,204L326.32,205.6L326.66,212.72L326.99,210.86L327.33,204.48L327.66,205.8L327.99,212.77L328.67,205.12L329,206.55L329.33,212.68L330,205.95L330.34,207.42L330.67,212.75L331.34,206.2L331.67,208.08L332.01,212.68L332.68,206.67L333.01,209.85L333.36,212.69L333.68,210.18L334.01,206.96L334.35,213.35L334.69,212.74L335.02,210.13L335.35,206.86L335.68,214.07L336.35,210.22L336.69,206.86L337.02,213.55L337.36,212.46L337.69,210.01L338.03,206.78L338.38,212.74L338.69,212.68L339.03,209.47L340.03,212.75L340.37,208.48L341.37,212.64L341.7,206.59L342.37,212.69L342.71,212.64L343.04,212.23L344.04,212.64L344.38,212.46L346.05,212.81L346.38,212.74L347.39,212.68L347.72,212.72L348.06,206.63L348.4,212.77L348.72,212.69L349.06,212.66L349.39,206.59L350.06,212.81L350.39,212.72L350.73,206.57L351.73,212.77L352.09,206.36L352.74,212.74L353.07,203.52L354.08,212.68L354.41,203.54L354.75,205.55L355.07,212.93L355.41,213.61L355.77,203.88L356.08,205.58L356.41,212.75L357.1,204.46L357.42,205.6L357.75,212.68L358.75,205.37L359.09,212.72L360.09,205.56L360.43,212.74L361.09,206.42L361.43,211.17L361.77,212.68L362.11,210.28L362.43,206.47L362.77,212.72L363.1,212.77L363.44,210.01L363.77,206.49L364.1,212.72L364.46,212.79L364.77,209.37L365.11,206.24L365.44,212.74L365.79,212.46L366.11,208.23L366.45,206.26L366.78,212.74L367.12,212.83L367.45,206.96L367.78,206.26L368.12,212.72L368.46,212.72L368.78,205.5L369.12,206.26L369.47,212.75L369.79,212.75L370.12,204.63L370.46,212.81L371.13,212.75L371.46,203.84L372.14,212.75L372.46,212.72L372.8,203.28L373.47,213.02L373.8,212.54L374.14,203.15L374.8,213.37L375.14,212.12L375.47,212.5L375.82,212.72L376.14,214.26L376.48,210.94L376.81,212.69L377.15,212.62L377.48,215.15L377.81,210.86L378.81,214.26L379.15,205.99L380.15,213.39L380.49,206.07L381.49,212.89L381.82,205.53L382.49,212.75L382.83,212.66L383.18,205.04L383.83,213.66L384.17,203.13L384.51,205.1L384.83,212.69L385.17,214.07L385.5,203.38L385.85,204.91L386.17,212.74L386.5,213.51L386.84,203.55L387.18,205.04L387.51,212.75L387.84,212.99L388.19,204.25L388.51,204.87L388.85,212.74L389.85,204.89L390.18,212.69L391.18,205.08L391.52,212.68L392.52,205.04L392.86,212.69L393.86,205.06L394.2,212.91L395.2,204.93L395.53,212.72L396.54,204.95L396.89,212.68L397.54,205.97L397.87,212.62L398.22,212.96L398.54,204.83L398.87,206.1L399.21,212.68L399.56,212.75L399.88,203.81L400.21,205.58L400.55,212.77L400.89,212.74L401.22,203.13L401.55,205.33L401.9,213.74L402.22,213.01L402.55,202.84L403.24,214.22L403.56,212.66L403.89,202.86L404.57,215.19L404.89,212.72L405.23,202.61L405.9,214.22L406.23,212.69L406.57,202.92L407.57,212.74L407.9,204.89L408.91,212.96L409.24,205.8L409.58,213.01L410.24,212.52L410.58,206.45L410.91,213.53L411.25,212.62L411.58,204.68L411.93,206.88L412.25,213.86L412.58,212.75L412.92,204.71L413.59,213.62L413.92,212.72L414.26,204.71L415.26,212.83L415.59,204.69L416.26,213.01L416.59,203.76L416.95,204.68L417.27,213.02L417.6,212.79L417.93,204.48L418.28,204.71L418.6,212.62L418.94,212.96L419.27,205.12L419.61,204.69L419.94,212.72L420.28,212.66L420.63,205.41L420.94,204.48L421.28,213.01L422.28,204.04L422.61,212.89L423.62,204.09L423.95,212.79L424.96,204.52L425.29,212.81L426.29,204.29L426.63,212.79L426.97,203.98L427.63,204.52L427.97,212.96L428.31,202.89L428.97,204.71L429.3,212.64L429.64,202.65L429.97,204.56L430.3,205.39L430.65,212.72L430.98,202.67L431.31,204.25L431.64,214.59L431.99,212.99L432.31,202.55L432.65,204.42L432.98,215.21L433.32,212.81L433.65,202.43L433.98,204.23L434.32,213.7L434.65,212.77L434.98,202.74L435.32,213.06L435.99,212.79L436.32,203.03L437.33,212.93L437.66,203.84L438.33,212.96L438.66,212.72L439,204.23L439.35,213.37L440,212.72L440.34,206.84L440.68,213.66L441.34,212.69L441.67,207.89L442.02,213.83L442.67,212.79L443.01,209.1L443.35,213.2L444.01,212.66L444.36,211.17L444.68,212.69L445.02,212.5L445.35,204L446.35,212.75L446.69,204.23L447.69,212.75L448.05,204.17L448.69,212.74L449.03,204.73L449.38,204.27L449.7,212.72L450.03,212.69L450.37,204.95L450.71,203.76L451.03,212.96L451.37,212.74L451.7,204.95L452.04,203.32L452.37,212.83L452.71,212.81L453.06,204.93L453.37,203.09L453.71,212.74L454.71,203.55L455.05,212.74L456.05,204.25L456.38,212.72L457.39,204.31L457.72,212.69L458.72,204.23L459.06,212.96L459.41,203.81L460.06,204.27L460.4,212.74L460.74,202.8L461.4,204.19L461.73,212.72L462.07,202.24L462.4,203.86L462.74,213.51L463.09,212.77L463.41,202.02L463.74,204.02L464.08,213.59L464.42,212.74L464.74,202.01L465.08,203.82L465.41,214.32L465.75,212.95L466.08,202.3L466.41,204.08L466.77,215.23L467.08,213.02L467.42,202.24L468.1,214.26L468.42,212.66L468.76,202.2L469.76,213.02L470.09,202.07L470.76,212.99L471.1,210.14L471.43,202.51L471.78,212.74L472.1,212.77L472.43,209.85L472.77,205.99L473.11,213.47L473.44,212.99L473.77,209.85L474.1,207.21L474.45,214.42L475.11,209.8L475.44,213.04L475.78,213.68L476.11,212.77L476.44,203.67L477.12,213.22L477.45,212.77L477.78,203.67L478.45,213.04L478.79,212.83L479.12,203.59L479.79,212.87L480.12,212.75L480.48,203.69L481.12,213.06L481.46,203.54L481.81,203.44L482.13,212.79L482.46,212.81L482.8,204.27L483.14,202.76L483.47,212.81L483.8,212.74L484.13,204.48L484.47,202.53L484.81,212.85L485.14,212.77L485.49,204.27L485.8,203.46L486.14,212.77L487.14,203.86L487.48,212.85L487.81,204.04L488.48,204.08L488.81,212.48L489.15,203.13L489.82,203.84L490.15,212.81L490.5,202.47L491.16,204.29L491.49,213.06L491.83,202.57L492.49,204.52L492.83,213.06L493.17,201.95L493.49,203.44L493.83,205.18L494.19,212.79L494.5,201.6L494.83,203.38L495.17,214.32L495.52,213.02L495.84,201.75L496.17,203.4L496.5,215.23L496.85,212.77L497.18,201.87L497.51,203.4L497.84,214.05L498.18,212.89L498.51,201.85L498.85,203.22L499.2,212.75L499.51,212.72L499.85,201.6L500.53,212.79L500.85,212.74L501.19,202.05L502.19,212.77L502.52,202.89L502.86,213.86L503.53,212.79L503.86,203.22L504.21,213.49L504.87,212.83L505.2,208.97L505.87,212.79L506.2,212.74L506.54,210.78L507.54,212.83L507.87,211.71L508.54,212.89L508.88,203.17L509.88,212.85L510.21,202.7L510.88,212.85L511.22,212.72L511.55,202.57L511.89,212.87L512.55,212.79L512.91,202.26L513.22,212.81L513.56,212.74L513.89,203.15L514.24,202.07L514.56,212.75L514.89,212.81L515.23,203.81L515.57,201.99L515.9,212.72L516.23,212.79L516.57,203.75L516.9,202.7L517.23,212.48L517.57,213.35L517.92,203.86L518.24,203.59L518.57,212.75L519.25,203.82L519.58,203.88L519.91,212.87L520.24,203.4L520.91,203.79L521.25,212.79L521.92,203.07L522.25,203.82L522.59,212.85L522.94,202.72L523.59,203.98L523.92,212.69L524.27,201.74L524.93,204.52L525.26,212.77L525.6,201.33L525.93,202.94L526.26,205.2L526.6,213.04L526.93,201.33L527.27,202.84L527.6,215.05L527.95,213.02L528.27,201.62L528.6,202.88L528.94,215.03L529.28,212.77L529.61,201.52L529.94,202.65L530.28,213.72L530.61,213.01L530.95,201.41L531.28,202.97L531.63,212.81L531.95,212.77L532.28,201.45L532.96,213.04L533.29,212.75L533.62,201.56L533.95,213.78L534.62,213.08L534.96,202.24L535.29,214.38L535.96,213.08L536.29,202.76L536.65,213.74L537.3,212.79L537.63,209.33L538.64,213.08L538.97,210.63L539.97,213.01L540.31,211.92L540.97,212.99L541.31,202.07L542.31,218.96L542.64,218.96L660,218.94" style="vector-effect: none; fill: none; stroke: rgb(0, 128, 0); stroke-opacity: 1; stroke-width: 2px; opacity: 1;"/></g><g class="points"/><g class="text"/></g><g class="trace scatter trace2004fb" style="stroke-miterlimit: 2; opacity: 1;"><g class="fills"/><g class="errorbars"/><g class="lines"><path class="js-line" d="M0,110.57L660,110.57" style="vector-effect: none; fill: none; stroke: rgb(255, 0, 0); stroke-opacity: 1; stroke-dasharray: 9px, 9px; stroke-width: 2px; opacity: 1;"/></g><g class="points"/><g class="text"/></g><g class="trace scatter trace04bd9b" style="stroke-miterlimit: 2; opacity: 1;"><g class="fills"/><g class="errorbars"/><g class="lines"><path class="js-line" d="M0,212.32L660,212.32" style="vector-effect: none; fill: none; stroke: rgb(255, 165, 0); stroke-opacity: 1; stroke-dasharray: 9px, 9px; stroke-width: 2px; opacity: 1;"/></g><g class="points"/><g class="text"/></g><g class="trace scatter tracec2e051" style="stroke-miterlimit: 2; opacity: 1;"><g class="fills"/><g class="errorbars"/><g class="lines"><path class="js-line" d="M0,0L660,0" style="vector-effect: none; fill: none; stroke: rgb(128, 0, 128); stroke-opacity: 1; stroke-dasharray: 3px, 3px; stroke-width: 2px; opacity: 1;"/></g><g class="points"/><g class="text"/></g></g></g></g><path class="xlines-above crisp" d="M0,0" style="fill: none;"/><path class="ylines-above crisp" d="M0,0" style="fill: none;"/><g class="overlines-above"/><g class="xaxislayer-above"><g class="xtick"><text text-anchor="middle" x="0" y="473" transform="translate(79.99,0)" style="font-family: 'Open Sans', verdana, arial, sans-serif; font-size: 12px; fill: rgb(42, 63, 95); fill-opacity: 1; white-space: pre; opacity: 1;">0</text></g><g class="xtick"><text text-anchor="middle" x="0" y="473" style="font-family: 'Open Sans', verdana, arial, sans-serif; font-size: 12px; fill: rgb(42, 63, 95); fill-opacity: 1; white-space: pre; opacity: 1;" transform="translate(247.01,0)">500</text></g><g class="xtick"><text text-anchor="middle" x="0" y="473" style="font-family: 'Open Sans', verdana, arial, sans-serif; font-size: 12px; fill: rgb(42, 63, 95); fill-opacity: 1; white-space: pre; opacity: 1;" transform="translate(414.03,0)">1000</text></g><g class="xtick"><text text-anchor="middle" x="0" y="473" style="font-family: 'Open Sans', verdana, arial, sans-serif; font-size: 12px; fill: rgb(42, 63, 95); fill-opacity: 1; white-space: pre; opacity: 1;" transform="translate(581.05,0)">1500</text></g></g><g class="yaxislayer-above"><g class="ytick"><text text-anchor="end" x="79" y="4.199999999999999" transform="translate(0,460)" style="font-family: 'Open Sans', verdana, arial, sans-serif; font-size: 12px; fill: rgb(42, 63, 95); fill-opacity: 1; white-space: pre; opacity: 1;">0</text></g><g class="ytick"><text text-anchor="end" x="79" y="4.199999999999999" style="font-family: 'Open Sans', verdana, arial, sans-serif; font-size: 12px; fill: rgb(42, 63, 95); fill-opacity: 1; white-space: pre; opacity: 1;" transform="translate(0,417.78)">10</text></g><g class="ytick"><text text-anchor="end" x="79" y="4.199999999999999" style="font-family: 'Open Sans', verdana, arial, sans-serif; font-size: 12px; fill: rgb(42, 63, 95); fill-opacity: 1; white-space: pre; opacity: 1;" transform="translate(0,375.56)">20</text></g><g class="ytick"><text text-anchor="end" x="79" y="4.199999999999999" style="font-family: 'Open Sans', verdana, arial, sans-serif; font-size: 12px; fill: rgb(42, 63, 95); fill-opacity: 1; white-space: pre; opacity: 1;" transform="translate(0,333.33000000000004)">30</text></g><g class="ytick"><text text-anchor="end" x="79" y="4.199999999999999" style="font-family: 'Open Sans', verdana, arial, sans-serif; font-size: 12px; fill: rgb(42, 63, 95); fill-opacity: 1; white-space: pre; opacity: 1;" transform="translate(0,291.11)">40</text></g><g class="ytick"><text text-anchor="end" x="79" y="4.199999999999999" style="font-family: 'Open Sans', verdana, arial, sans-serif; font-size: 12px; fill: rgb(42, 63, 95); fill-opacity: 1; white-space: pre; opacity: 1;" transform="translate(0,248.89)">50</text></g><g class="ytick"><text text-anchor="end" x="79" y="4.199999999999999" style="font-family: 'Open Sans', verdana, arial, sans-serif; font-size: 12px; fill: rgb(42, 63, 95); fill-opacity: 1; white-space: pre; opacity: 1;" transform="translate(0,206.67000000000002)">60</text></g><g class="ytick"><text text-anchor="end" x="79" y="4.199999999999999" style="font-family: 'Open Sans', verdana, arial, sans-serif; font-size: 12px; fill: rgb(42, 63, 95); fill-opacity: 1; white-space: pre; opacity: 1;" transform="translate(0,164.44)">70</text></g><g class="ytick"><text text-anchor="end" x="79" y="4.199999999999999" style="font-family: 'Open Sans', verdana, arial, sans-serif; font-size: 12px; fill: rgb(42, 63, 95); fill-opacity: 1; white-space: pre; opacity: 1;" transform="translate(0,122.22)">80</text></g><g class="ytick"><text text-anchor="end" x="79" y="4.199999999999999" style="font-family: 'Open Sans', verdana, arial, sans-serif; font-size: 12px; fill: rgb(42, 63, 95); fill-opacity: 1; white-space: pre; opacity: 1;" transform="translate(0,80)">90</text></g></g><g class="overaxes-above"/></g></g><g class="polarlayer"/><g class="smithlayer"/><g class="ternarylayer"/><g class="geolayer"/><g class="funnelarealayer"/><g class="pielayer"/><g class="iciclelayer"/><g class="treemaplayer"/><g class="sunburstlayer"/><g class="glimages"/><defs id="topdefs-c23d74"><g class="clips"/><clipPath id="legendc23d74"><rect width="188" height="105" x="0" y="0"/></clipPath></defs><g class="layer-above"><g class="imagelayer"/><g class="shapelayer"/></g><g class="infolayer"><g class="legend" pointer-events="all" transform="translate(753.2,346)"><rect class="bg" shape-rendering="crispEdges" style="stroke: rgb(68, 68, 68); stroke-opacity: 1; fill: rgb(255, 255, 255); fill-opacity: 1; stroke-width: 0px;" width="188" height="105" x="0" y="0"/><g class="scrollbox" transform="" clip-path="url(#legendc23d74)"><g class="groups"><g class="traces" transform="translate(0,14.5)" style="opacity: 1;"><text class="legendtext" text-anchor="start" x="40" y="4.680000000000001" style="font-family: 'Open Sans', verdana, arial, sans-serif; font-size: 12px; fill: rgb(42, 63, 95); fill-opacity: 1; white-space: pre;">Total Input Power</text><g class="layers" style="opacity: 1;"><g class="legendfill"/><g class="legendlines"><path class="js-line" d="M5,0h30" style="fill: none; stroke: rgb(0, 0, 255); stroke-opacity: 1; stroke-width: 2px;"/></g><g class="legendsymbols"><g class="legendpoints"/></g></g><rect class="legendtoggle" x="0" y="-9.5" width="182.974609375" height="19" style="fill: rgb(0, 0, 0); fill-opacity: 0;"/></g><g class="traces" transform="translate(0,33.5)" style="opacity: 1;"><text class="legendtext" text-anchor="start" x="40" y="4.680000000000001" style="font-family: 'Open Sans', verdana, arial, sans-serif; font-size: 12px; fill: rgb(42, 63, 95); fill-opacity: 1; white-space: pre;">Total FPGA Power</text><g class="layers" style="opacity: 1;"><g class="legendfill"/><g class="legendlines"><path class="js-line" d="M5,0h30" style="fill: none; stroke: rgb(0, 128, 0); stroke-opacity: 1; stroke-width: 2px;"/></g><g class="legendsymbols"><g class="legendpoints"/></g></g><rect class="legendtoggle" x="0" y="-9.5" width="182.974609375" height="19" style="fill: rgb(0, 0, 0); fill-opacity: 0;"/></g><g class="traces" transform="translate(0,52.5)" style="opacity: 1;"><text class="legendtext" text-anchor="start" x="40" y="4.680000000000001" style="font-family: 'Open Sans', verdana, arial, sans-serif; font-size: 12px; fill: rgb(42, 63, 95); fill-opacity: 1; white-space: pre;">Mean Total Input Power</text><g class="layers" style="opacity: 1;"><g class="legendfill"/><g class="legendlines"><path class="js-line" d="M5,0h30" style="fill: none; stroke: rgb(255, 0, 0); stroke-opacity: 1; stroke-dasharray: 9px, 9px; stroke-width: 2px;"/></g><g class="legendsymbols"><g class="legendpoints"/></g></g><rect class="legendtoggle" x="0" y="-9.5" width="182.974609375" height="19" style="fill: rgb(0, 0, 0); fill-opacity: 0;"/></g><g class="traces" transform="translate(0,71.5)" style="opacity: 1;"><text class="legendtext" text-anchor="start" x="40" y="4.680000000000001" style="font-family: 'Open Sans', verdana, arial, sans-serif; font-size: 12px; fill: rgb(42, 63, 95); fill-opacity: 1; white-space: pre;">Mean Total FPGA Power</text><g class="layers" style="opacity: 1;"><g class="legendfill"/><g class="legendlines"><path class="js-line" d="M5,0h30" style="fill: none; stroke: rgb(255, 165, 0); stroke-opacity: 1; stroke-dasharray: 9px, 9px; stroke-width: 2px;"/></g><g class="legendsymbols"><g class="legendpoints"/></g></g><rect class="legendtoggle" x="0" y="-9.5" width="182.974609375" height="19" style="fill: rgb(0, 0, 0); fill-opacity: 0;"/></g><g class="traces" transform="translate(0,90.5)" style="opacity: 1;"><text class="legendtext" text-anchor="start" x="40" y="4.680000000000001" style="font-family: 'Open Sans', verdana, arial, sans-serif; font-size: 12px; fill: rgb(42, 63, 95); fill-opacity: 1; white-space: pre;">TDP Limit (90W)</text><g class="layers" style="opacity: 1;"><g class="legendfill"/><g class="legendlines"><path class="js-line" d="M5,0h30" style="fill: none; stroke: rgb(128, 0, 128); stroke-opacity: 1; stroke-dasharray: 3px, 3px; stroke-width: 2px;"/></g><g class="legendsymbols"><g class="legendpoints"/></g></g><rect class="legendtoggle" x="0" y="-9.5" width="182.974609375" height="19" style="fill: rgb(0, 0, 0); fill-opacity: 0;"/></g></g></g><rect class="scrollbar" rx="20" ry="3" width="0" height="0" style="fill: rgb(128, 139, 164); fill-opacity: 1;" x="0" y="0"/></g><g class="g-gtitle"><text class="gtitle" x="48" y="40" text-anchor="start" dy="0em" style="opacity: 1; font-family: 'Open Sans', verdana, arial, sans-serif; font-size: 17px; fill: rgb(42, 63, 95); fill-opacity: 1; white-space: pre;">FPGA Power Consumption Over Time</text></g><g class="g-xtitle"><text class="xtitle" x="410" y="500.3" text-anchor="middle" style="opacity: 1; font-family: 'Open Sans', verdana, arial, sans-serif; font-size: 14px; fill: rgb(42, 63, 95); fill-opacity: 1; white-space: pre;">Time (seconds)</text></g><g class="g-ytitle"><text class="ytitle" transform="rotate(-90,44.334375,270)" x="44.334375" y="270" text-anchor="middle" style="opacity: 1; font-family: 'Open Sans', verdana, arial, sans-serif; font-size: 14px; fill: rgb(42, 63, 95); fill-opacity: 1; white-space: pre;">Power (W)</text></g><g class="annotation" data-index="0" style="opacity: 1;"><g class="annotation-text-g" transform="rotate(0,844.4,190.57)"><g class="cursor-pointer" transform="translate(741,181)"><rect class="bg" x="0.5" y="0.5" width="206" height="18" style="stroke-width: 1px; stroke: rgb(0, 0, 0); stroke-opacity: 0; fill: rgb(0, 0, 0); fill-opacity: 0;"/><text class="annotation-text" text-anchor="start" x="2" y="14" style="font-family: 'Open Sans', verdana, arial, sans-serif; font-size: 12px; fill: rgb(0, 0, 0); fill-opacity: 1; white-space: pre;">Mean Total Input Power: 63.81 W</text></g></g></g><g class="annotation" data-index="1" style="opacity: 1;"><g class="annotation-text-g" transform="rotate(0,844.9,292.32)"><g class="cursor-pointer" transform="translate(742,283)"><rect class="bg" x="0.5" y="0.5" width="205" height="18" style="stroke-width: 1px; stroke: rgb(0, 0, 0); stroke-opacity: 0; fill: rgb(0, 0, 0); fill-opacity: 0;"/><text class="annotation-text" text-anchor="start" x="2" y="14" style="font-family: 'Open Sans', verdana, arial, sans-serif; font-size: 12px; fill: rgb(0, 0, 0); fill-opacity: 1; white-space: pre;">Mean Total FPGA Power: 39.71 W</text></g></g></g></g></svg>