<svg class="main-svg" xmlns="http://www.w3.org/2000/svg" xmlns:xlink="http://www.w3.org/1999/xlink" width="1920" height="1080" style="" viewBox="0 0 960 540"><rect x="0" y="0" width="960" height="540" style="fill: rgb(255, 255, 255); fill-opacity: 1;"/><defs id="defs-b5e573"><g class="clips"><clipPath id="clipb5e573xyplot" class="plotclip"><rect width="660" height="380"/></clipPath><clipPath class="axesclip" id="clipb5e573x"><rect x="80" y="0" width="660" height="540"/></clipPath><clipPath class="axesclip" id="clipb5e573y"><rect x="0" y="80" width="960" height="380"/></clipPath><clipPath class="axesclip" id="clipb5e573xy"><rect x="80" y="80" width="660" height="380"/></clipPath></g><g class="gradients"/><g class="patterns"/></defs><g class="bglayer"><rect class="bg" x="80" y="80" width="660" height="380" style="fill: rgb(229, 236, 246); fill-opacity: 1; stroke-width: 0;"/></g><g class="layer-below"><g class="imagelayer"/><g class="shapelayer"/></g><g class="cartesianlayer"><g class="subplot xy"><g class="layer-subplot"><g class="shapelayer"/><g class="imagelayer"/></g><g class="minor-gridlayer"><g class="x"/><g class="y"/></g><g class="gridlayer"><g class="x"><path class="xgrid crisp" transform="translate(203.19,0)" d="M0,80v380" style="stroke: rgb(255, 255, 255); stroke-opacity: 1; stroke-width: 1px;"/><path class="xgrid crisp" transform="translate(326.4,0)" d="M0,80v380" style="stroke: rgb(255, 255, 255); stroke-opacity: 1; stroke-width: 1px;"/><path class="xgrid crisp" transform="translate(449.6,0)" d="M0,80v380" style="stroke: rgb(255, 255, 255); stroke-opacity: 1; stroke-width: 1px;"/><path class="xgrid crisp" transform="translate(572.81,0)" d="M0,80v380" style="stroke: rgb(255, 255, 255); stroke-opacity: 1; stroke-width: 1px;"/><path class="xgrid crisp" transform="translate(696.02,0)" d="M0,80v380" style="stroke: rgb(255, 255, 255); stroke-opacity: 1; stroke-width: 1px;"/></g><g class="y"><path class="ygrid crisp" transform="translate(0,417.78)" d="M80,0h660" style="stroke: rgb(255, 255, 255); stroke-opacity: 1; stroke-width: 1px;"/><path class="ygrid crisp" transform="translate(0,375.56)" d="M80,0h660" style="stroke: rgb(255, 255, 255); stroke-opacity: 1; stroke-width: 1px;"/><path class="ygrid crisp" transform="translate(0,333.33000000000004)" d="M80,0h660" style="stroke: rgb(255, 255, 255); stroke-opacity: 1; stroke-width: 1px;"/><path class="ygrid crisp" transform="translate(0,291.11)" d="M80,0h660" style="stroke: rgb(255, 255, 255); stroke-opacity: 1; stroke-width: 1px;"/><path class="ygrid crisp" transform="translate(0,248.89)" d="M80,0h660" style="stroke: rgb(255, 255, 255); stroke-opacity: 1; stroke-width: 1px;"/><path class="ygrid crisp" transform="translate(0,206.67000000000002)" d="M80,0h660" style="stroke: rgb(255, 255, 255); stroke-opacity: 1; stroke-width: 1px;"/><path class="ygrid crisp" transform="translate(0,164.44)" d="M80,0h660" style="stroke: rgb(255, 255, 255); stroke-opacity: 1; stroke-width: 1px;"/><path class="ygrid crisp" transform="translate(0,122.22)" d="M80,0h660" style="stroke: rgb(255, 255, 255); stroke-opacity: 1; stroke-width: 1px;"/></g></g><g class="zerolinelayer"><path class="yzl zl crisp" transform="translate(0,460)" d="M80,0h660" style="stroke: rgb(255, 255, 255); stroke-opacity: 1; stroke-width: 2px;"/></g><path class="xlines-below"/><path class="ylines-below"/><g class="overlines-below"/><g class="xaxislayer-below"/><g class="yaxislayer-below"/><g class="overaxes-below"/><g class="plot" transform="translate(80,80)" clip-path="url(#clipb5e573xyplot)"><g class="scatterlayer mlayer"><g class="trace scatter trace657dc8" style="stroke-miterlimit: 2; opacity: 1;"><g class="fills"/><g class="errorbars"/><g class="lines"><path class="js-line" d="M0,131.17L0.24,127.61L0.73,130.61L0.98,129.1L1.22,129.72L1.47,126.22L1.96,124.93L2.46,130.75L2.72,131.71L3.44,125.83L3.7,131.89L3.94,127.56L4.43,129.01L4.68,128.23L4.93,129.01L5.43,128.39L5.67,128.39L6.16,130.39L6.41,128.7L6.65,128.31L6.9,129.47L7.14,128.87L7.4,131.19L8.38,128.7L8.62,129.47L8.87,129.39L9.13,126.53L9.36,123.85L9.61,126.53L9.86,130.01L10.11,129.85L10.35,128.31L11.09,131.48L11.34,130.78L11.58,127.63L11.85,122.76L12.08,129.8L12.32,128.7L12.57,129.45L12.83,128.1L13.06,128.08L13.56,125.18L13.81,107.69L14.05,108.46L14.3,113.31L15.28,104.31L15.54,111.92L16.27,103.78L16.76,104.38L17.01,104.77L18,111.94L18.26,101.98L18.49,117.2L18.98,105.87L19.24,104.91L19.48,105.68L19.72,110.78L20.22,108.13L20.46,105.54L20.95,107.3L21.21,103.82L21.96,107.46L22.19,113.04L22.94,103.36L23.18,105.73L23.42,107.92L23.67,108.57L23.92,107.03L24.66,108.46L24.9,106.47L25.15,106.92L25.4,104.59L26.13,111.94L26.38,108.19L26.64,108.07L27.37,105.87L27.62,107.03L27.86,107.59L28.11,110.2L28.6,104.46L29.09,107.24L29.36,107.47L29.59,106.24L29.84,113.25L30.57,107.28L30.82,108.02L31.07,108.27L31.32,110.2L31.56,107.78L31.81,107.42L32.8,106.14L33.05,108.63L33.29,105.91L33.78,108.07L34.04,112.52L35.02,105.93L35.26,107.22L35.51,106.24L35.77,109.56L36,109.14L36.25,106.76L36.49,109.21L36.75,107.32L36.99,106.24L37.48,110.31L37.74,105.87L37.97,108.75L38.47,107.09L38.72,107.4L38.96,105.85L39.47,106.7L39.7,106.64L40.45,107.34L40.69,106.62L40.93,107.38L41.18,112.92L41.43,106.05L41.92,107.65L42.17,109.98L42.66,106.62L42.91,107.01L43.17,107.51L43.4,105.68L43.65,106.82L43.89,109.93L44.63,103.99L44.88,106.43L45.13,107.28L45.37,104.79L45.62,108.06L45.87,110.39L47.1,102L47.35,105.69L47.85,108.87L48.09,102.7L48.33,108.94L48.83,107.3L49.07,107.05L50.06,110.18L50.31,108.11L50.57,107.67L50.8,108.94L51.05,108.33L51.29,104.77L52.03,109.37L52.28,107.03L52.53,106.06L52.77,107.3L53.02,108.77L53.26,108.56L53.52,110.18L53.76,110.12L54.01,107.73L54.27,108.75L54.5,105.87L54.75,107.2L54.99,106.76L55.25,105.29L55.49,108.89L55.73,106.22L55.98,102.33L56.72,116.52L57.21,111.8L57.46,108.94L57.7,110.12L57.97,106.86L58.2,106.06L58.69,106.8L58.95,108.33L59.19,108.09L59.43,105.41L60.17,110.7L60.42,110.49L60.66,108.23L60.92,112.27L61.16,107.22L61.41,102.45L61.67,110.76L62.15,103.94L62.39,104.05L62.65,108.11L62.89,103.44L63.13,105.31L63.38,105.93L63.63,105.41L63.87,106.82L64.12,110.72L64.37,106.64L64.61,105.48L65.1,104.31L65.6,108L65.84,104.98L66.09,111.05L66.35,108.36L66.59,103.32L66.83,106.49L67.08,101.54L67.33,106.32L67.57,106.06L68.56,112.48L68.81,109.41L69.07,107.51L69.3,103.41L69.79,107.4L70.05,104.17L71.03,107.92L71.27,106.45L71.52,109.54L72.01,107.01L72.26,108.06L72.77,114.92L73,102.18L73.75,112.44L73.98,108.81L74.23,104.63L74.73,108.3L74.97,106.56L75.22,104.91L75.71,104.31L76.46,109.54L76.7,105.66L77.45,109.74L77.68,107.61L77.93,104.85L78.18,106.18L78.43,102.33L79.41,108.96L79.66,102L79.9,114.39L80.4,114.2L80.64,107.28L81.38,112.42L81.63,106.05L81.88,106.87L82.13,110.55L82.86,104.88L83.11,110.53L83.6,106.53L83.86,110.41L84.1,109.08L84.34,107.61L84.59,108.07L84.85,109.35L85.08,102.06L85.57,108.03L85.83,106.82L86.32,104.96L86.56,105.69L86.81,105.85L87.06,112.05L87.56,110.31L87.79,108.17L88.04,106.53L88.29,110.76L89.28,102.93L89.53,104.61L90.26,104.36L90.51,100.4L91.26,108.84L91.5,107.3L91.74,110.72L92.48,104.11L92.73,110.51L93.72,102.78L93.96,104.55L94.21,104.34L94.46,107.47L94.7,102.08L94.96,106.53L95.2,112.73L95.44,107.9L95.94,111.53L96.18,109.41L97.17,101L97.41,103.22L97.66,108.63L98.15,105.83L98.4,101.6L99.64,112.87L99.88,108.94L100.87,102.99L101.12,103.92L101.38,105.64L101.61,105.23L101.85,101.15L102.1,106.62L102.59,105.37L102.84,106.14L103.09,111.28L103.58,106.24L103.83,104.13L104.32,107.67L104.57,106.7L104.81,102.37L105.8,107.07L106.06,106.24L106.54,107.8L106.79,107.03L107.04,103.3L107.28,110.37L107.53,106.26L107.77,101.97L108.51,105.62L108.77,105.45L109.01,105.08L109.25,107.57L109.5,105.46L109.75,102.76L110.98,110.93L111.23,107.2L111.47,113.41L111.97,109.95L112.21,105.08L112.47,112.13L112.95,105.27L113.2,104.61L114.19,108.96L114.44,106.64L115.42,110.72L115.67,109.93L116.41,104.26L116.65,111.28L116.9,104.54L117.39,106.14L117.64,108.07L117.89,103.76L118.38,107.11L118.63,109.02L119.61,106.72L119.87,107.11L120.85,104.28L121.09,107.32L121.34,108.07L121.59,104.19L121.83,115.15L122.32,110.8L122.59,107.63L122.82,110.55L123.31,107.24L123.57,104.13L123.81,108.96L124.3,107.2L124.55,107.42L124.79,106.18L125.04,107.76L125.28,106.41L125.53,107.42L126.03,107.03L126.52,113.64L126.76,107.22L127.01,105.68L127.27,108.56L127.5,108.56L127.75,102.24L128,108.75L128.25,104.79L128.49,105.6L128.74,101.5L128.98,104.81L129.23,106.51L129.48,105.46L129.72,108.56L130.71,106.82L130.97,109.14L131.21,108.15L131.45,99.91L132.44,108.4L132.69,106.35L132.93,101.02L133.42,111.34L133.68,108.07L133.92,105.69L134.16,112.4L134.67,106.64L134.9,109.02L135.15,108.23L135.4,109.54L135.65,103.9L136.88,107.78L137.12,108.94L138.11,106.83L138.37,112.87L138.6,106.62L139.1,108.36L139.35,108.84L139.84,104.26L140.1,105.78L140.33,107.92L141.08,102.82L141.32,109.23L141.56,109.7L141.81,108.17L142.06,108.94L142.3,108.75L142.55,103.12L143.05,108.77L143.29,104.54L143.54,107.67L143.8,103.36L144.03,112.13L145.02,103.05L145.26,106.06L145.51,100.83L145.76,108.27L146,105.87L146.25,104.75L146.49,110.31L146.74,109.16L146.99,104.17L147.5,100.63L147.73,106.22L147.98,105.89L148.22,107.86L148.48,104.42L148.96,107.61L149.21,105.85L149.46,105.1L149.7,109.37L150.69,103.74L150.94,104.94L151.2,106.62L151.43,102.43L152.41,107.53L152.66,105.39L152.91,105.5L153.16,107.42L153.65,105.73L153.89,111.69L154.14,107.69L154.63,104.44L154.9,107.88L155.62,102.89L155.88,107.32L156.86,102.76L157.1,108.33L157.35,108.63L157.6,111.44L158.83,98.64L159.07,109.64L159.81,101.68L160.06,106.08L160.31,104.13L160.56,107.8L160.8,108.21L161.05,112.87L161.29,107.22L161.54,106.64L161.79,108L162.03,107.24L162.29,101.04L162.53,107.78L163.02,105.12L163.28,101.87L163.76,107.16L164.01,101.23L164.26,109.79L164.75,108.23L165.01,102.58L165.24,112.54L165.73,106.08L165.99,105.85L166.23,107.09L166.47,102.7L166.72,102.41L166.97,104.42L167.21,102.68L167.46,106.33L167.71,104.34L167.96,103.8L169.19,108L169.43,108.07L169.69,109.33L169.93,107.4L170.17,104.04L170.42,100.3L170.91,103.44L171.16,102.66L171.41,101.65L171.66,102.57L171.9,107.76L172.41,105.66L172.64,107.59L172.89,106.86L173.13,109.56L173.39,106.24L173.63,107.61L173.87,105.81L174.12,100.9L174.61,104.21L174.86,103.44L175.35,103.14L175.85,107.8L176.11,106.83L176.34,106.64L176.58,109.83L177.09,111.17L177.33,105.85L177.57,110.88L178.56,102.6L178.8,102.99L179.05,105.48L179.3,103.96L179.55,108.19L180.29,107.78L180.53,103.72L181.52,108.77L181.77,106.82L182.01,99.2L182.51,104.55L182.75,102.7L183,102.99L183.25,107.4L183.51,101.75L183.74,107.67L183.98,106.06L184.23,106.83L184.73,100.42L184.97,108.15L185.22,113.41L185.47,106.45L185.71,98.47L185.96,107.82L186.45,103.38L186.7,104.92L186.94,107.42L187.2,101.31L187.93,113.46L188.19,106L189.17,111.92L189.41,108.38L189.66,100.27L190.15,104.15L190.4,103.18L190.64,102.37L190.9,104.52L191.63,109.7L191.89,105.85L192.12,113.31L192.62,110.2L192.87,106.47L193.11,108.03L193.36,99.47L193.6,107.01L194.1,102.37L194.34,102.57L194.6,103.38L194.84,100.65L195.82,108.19L196.07,105.13L196.32,109.41L196.57,103.74L196.81,108L197.06,100.3L197.3,105.85L197.8,102.6L198.04,103.8L198.54,95.92L198.78,107.22L199.29,107.4L199.52,109.77L199.77,111.18L200.02,109.39L200.27,107.42L200.51,104.88L200.76,107.97L201,107.73L201.25,102.39L201.74,104.32L202,102.52L202.99,108.94L203.22,103.14L203.97,113.31L204.21,105.35L204.95,108.56L205.2,103.96L205.44,103.86L205.7,102.18L205.93,101.81L206.18,105.23L206.43,109.11L206.69,104.83L206.92,107.4L207.17,106.26L207.67,108.56L207.91,104.55L208.4,104.31L208.65,107.78L208.9,101.93L209.14,99.82L209.4,104.05L209.64,104.09L209.88,102.49L210.13,108.75L210.38,100.46L210.87,105.85L211.11,109.54L211.37,108.77L211.61,110.7L212.6,102.35L212.84,103.39L213.1,101.71L213.33,102.91L213.58,104.07L213.83,106.47L214.32,105.75L214.57,105.52L214.82,110.64L215.31,109.44L215.55,109.93L215.8,111.69L216.05,106.6L216.54,101.65L216.8,106.06L217.28,100.59L217.53,102.6L217.78,104.25L218.77,108.42L219.01,109L219.5,110.61L219.75,107.43L220,107.78L220.24,104.11L220.5,108.06L220.73,100.94L220.98,104.07L221.23,105.93L221.72,100.63L221.97,107.43L222.21,107.46L222.47,106.05L222.95,109.21L223.2,107.8L223.45,107.47L223.69,106.89L223.94,108.23L224.2,107.28L224.43,107.28L225.42,101.95L225.67,107.4L226.41,107.26L226.65,112.56L227.64,106.7L227.9,107.28L228.13,106.89L228.38,101.15L229.37,107.03L229.61,103.14L229.87,102.7L230.11,107.28L230.35,107.84L230.6,107.07L230.85,113.29L231.6,107.3L231.83,107.67L232.08,100.54L232.58,103.72L232.82,103.39L233.07,100.63L233.57,103.12L233.81,107.65L234.55,107.07L234.79,109.33L236.28,101.64L236.52,102.08L236.77,104.96L237.01,106.24L237.27,102.74L237.75,109.54L238,107.05L238.25,107.42L238.74,107.01L238.99,112.85L239.23,107.26L239.48,108.03L239.73,101.44L239.98,107.8L240.46,103.41L240.71,99.76L241.7,107.49L241.95,107.84L242.19,109.93L242.44,109.47L242.7,107.42L242.93,109.52L243.18,108L243.42,104.54L243.69,107.84L243.92,97.19L244.17,108.4L244.67,102.08L244.9,99.03L245.89,109.76L246.14,108.84L246.39,108.81L246.63,110.76L246.88,105.29L247.39,106.26L247.62,107.84L248.6,100.96L248.85,105.89L249.84,109.39L250.08,108.5L250.33,111.44L250.58,107.61L250.82,106.49L251.09,108.23L251.32,106.66L251.56,98.23L252.55,105.79L252.8,106.1L253.05,105.89L253.29,107.47L253.54,106.95L253.78,107.65L254.03,108.57L254.79,106.45L255.02,108.29L255.26,100.15L255.77,100.75L256,104.44L256.25,100.46L256.5,107.28L256.75,100.73L256.99,106.68L257.48,106.87L257.74,108.83L258.22,106.12L258.47,106.66L258.72,108.57L258.96,108.57L259.21,101.62L259.95,103.18L260.2,106.78L260.45,103.71L260.69,105.12L260.94,107.43L261.18,107.26L261.43,107.65L261.68,110.82L262.91,102.51L263.17,111.15L263.9,95.68L264.15,100.98L264.39,102.52L265.38,111.03L265.62,110.34L266.61,105.31L266.87,107.67L267.35,97.36L267.6,98.41L267.85,104.55L268.09,100.09L268.34,109L268.58,101.11L268.83,107.67L269.32,113.46L269.59,107.2L270.06,108.63L270.31,106.89L270.57,108.03L270.8,102.18L271.3,102.78L271.55,103.94L271.79,101.97L272.04,106.26L272.28,100.24L272.53,108.03L272.77,108.44L273.02,116.19L273.27,107.07L273.52,112.11L273.76,108.06L274.01,107.42L274.5,108L274.75,103.11L275.25,102.93L275.49,103.72L275.74,102.89L275.98,103.14L276.23,107.65L276.48,108.03L276.72,106.45L277.21,109.77L277.46,107.86L277.71,107.4L277.97,106.82L278.2,108.03L278.45,100.88L278.7,103.36L278.95,100.44L279.19,102.91L279.43,100.65L279.93,98.74L280.42,108.19L280.68,107.78L280.92,106.8L281.16,108.71L281.41,107.4L281.67,107.59L281.9,110.72L282.15,100.88L282.65,104.34L282.89,103.86L283.14,101.93L283.63,99.82L283.88,107.22L284.37,107.84L284.61,106.26L284.86,110.68L285.37,109.2L285.6,107.67L286.09,103.47L286.35,105.97L286.59,101.89L287.08,103.07L287.33,103.84L288.56,112.42L288.81,106.24L289.3,109.17L289.55,107.61L289.79,98.76L290.05,105.85L290.78,105.62L291.03,103.94L291.27,100.24L291.52,107.24L291.78,104.71L292.76,111.65L293,108.77L294.23,100.94L294.48,104.92L294.97,101.29L295.22,105.72L295.48,102.1L295.71,107.84L295.96,107.42L296.46,106.1L296.7,113.31L296.94,108.46L297.93,101.38L298.18,103.11L298.43,103.09L298.67,103.49L298.92,109.25L299.18,103.98L299.66,108.6L299.91,109L300.4,110.01L300.65,102.25L300.89,107.86L301.39,103.12L301.88,104.88L302.13,103.72L302.37,99.22L302.62,99.51L302.88,105.56L303.11,107.16L303.36,106.68L303.61,104.91L304.59,112.58L304.84,106.45L305.33,107.55L305.58,102.97L305.83,95.99L306.32,99.41L306.58,102.89L306.81,96.15L307.06,106.7L307.31,107.86L307.56,104.5L307.8,108L308.05,109.83L309.03,104.65L309.28,108.77L309.52,101.06L310.02,103.01L310.28,103.88L310.51,98.99L310.76,109.04L311.01,103.2L311.26,111.94L311.5,110.37L311.75,115.11L312.73,106.64L312.99,110.31L313.97,100.57L314.21,101.35L314.46,104.48L314.7,101.85L314.96,107.3L315.2,107.61L315.45,111.51L315.69,110.9L315.94,112.64L317.17,98.27L317.42,99.2L317.67,97.39L317.91,102.37L318.16,99.61L318.4,107.8L318.66,100.11L319.14,105.46L319.39,105.18L319.64,110.64L320.13,107.78L320.39,105.35L320.63,109.23L320.87,96.28L321.37,103.55L321.61,99.91L321.86,93.77L322.84,108.38L323.1,105.87L323.58,110.74L324.09,109.02L324.32,107.97L325.8,97.27L326.05,102.49L326.3,107.7L326.8,107.09L327.04,102.06L327.79,112.15L328.02,105.29L328.52,107.86L328.77,104.38L329.26,101.64L329.5,103.99L329.75,100.56L330,105.66L330.24,103.03L330.5,107.32L330.98,110.93L331.23,108.23L331.48,109.23L331.97,105.75L332.22,110.78L332.47,111.34L332.71,99.9L332.96,104.01L333.22,98.58L333.45,102.25L333.69,101.73L333.94,108.87L334.44,107.86L334.68,107.84L335.42,109.62L335.67,107.59L335.92,108.06L336.16,107.86L336.41,102.78L336.65,102.43L336.92,97.44L337.64,107.67L337.9,99.86L338.88,110.18L339.12,108.65L339.62,109.41L339.86,110.57L340.11,109.39L340.36,101.64L340.61,109.47L340.85,99.69L341.09,102L341.34,105.75L341.6,99.96L341.83,107.4L342.08,105.15L342.33,106.92L342.58,111.55L342.82,109.64L343.07,106.16L343.33,110.34L343.81,108.61L344.06,100.28L344.31,110.7L344.79,104.13L345.04,101.81L345.54,112.36L345.78,103.59L346.03,104.19L346.28,108.84L346.52,107.28L346.77,108.07L347.03,112.71L347.76,101.87L348.01,108.84L348.25,96.44L348.74,100.88L348.99,102L349.23,97.93L349.48,106L349.73,102.64L350.72,110.16L350.96,106.29L351.21,109.02L351.45,106.53L351.71,104.98L351.95,101.31L352.19,108.69L352.44,101.41L352.69,102L352.93,97.87L353.18,105.91L353.44,101.02L353.67,105.75L353.92,105.35L354.17,114.53L354.42,109.33L354.91,110.57L355.15,111.15L355.89,99.41L356.16,99.53L356.39,102.62L356.63,99.99L356.88,107.01L357.14,100.32L357.38,109.21L357.62,107.67L357.87,108.61L358.12,106.66L358.36,118.16L359.59,99.18L359.85,109.79L360.09,100.86L360.83,101.15L361.07,101.27L362.06,115.19L362.31,108.06L362.57,113.95L363.05,108.83L363.29,97.83L363.55,109.02L364.03,102.74L364.28,98.23L365.02,109.21L365.27,108.15L365.51,106.29L365.76,103.57L366,107.47L366.27,109.98L366.5,112.69L366.75,102.64L366.99,106.93L367.25,104.75L367.49,93.83L367.73,101.02L368.23,99.82L368.47,96.26L368.72,108.03L369.21,107.07L369.46,107.2L369.71,111.75L370.2,110.06L370.44,107.69L370.95,107.07L371.18,110.55L371.43,100.92L371.68,101.46L371.93,99.03L373.16,107.84L373.4,115.11L374.14,109.62L374.39,116.36L375.13,100.61L375.38,102.24L375.62,103.3L376.12,104.13L376.38,101.41L376.61,108.63L377.1,111.34L377.36,109.21L377.6,111.8L378.09,110.01L378.34,105.93L378.58,108.25L378.83,98.27L379.09,110.78L379.57,101.73L379.82,105.5L380.31,96.52L380.56,107.84L380.8,106.93L381.06,108.06L381.3,110.57L381.81,110.91L382.04,103.39L382.28,106.29L382.53,97.58L382.79,106.87L383.02,96.65L383.27,99.04L383.52,97.02L383.77,106.22L384.01,96.46L384.26,104.38L384.5,102.08L385.5,109.41L385.74,109.04L385.98,103.99L386.23,107.86L386.48,113.08L387.22,98.33L387.47,100.17L387.71,97.83L387.96,112.09L388.22,96.96L388.45,110.78L388.7,109.21L388.94,112.15L389.2,105.29L389.44,110.45L389.68,104.73L389.93,107.46L390.18,108.03L390.92,94.91L391.41,96.36L391.66,104.4L391.91,97.04L392.15,106.92L392.4,105.78L392.64,105.04L392.9,112.11L393.13,116.63L393.38,115.61L393.63,111.69L393.88,109.62L394.12,109.98L394.37,97.44L394.63,107.86L395.11,101.38L395.35,99.16L396.84,107.84L397.08,107.09L397.33,109.85L397.82,106.97L398.07,98.53L398.33,108.23L398.56,98.31L398.81,100.9L399.06,97.54L400.04,106.99L400.29,106.62L400.54,106.86L401.27,108.07L401.52,106.92L402.75,97.36L403.01,100.9L403.25,98.06L403.49,108.07L403.74,97.15L403.99,108.65L404.24,107.88L404.48,113.56L405.47,104.23L405.72,107.84L405.96,108.63L406.21,100.05L406.45,103.24L406.7,100.34L406.95,97L408.18,114.49L408.44,106.92L408.67,112.25L409.17,108.92L409.42,108.56L409.66,107.09L409.91,100.57L410.15,104.48L410.4,98.99L410.65,101.65L410.89,103.65L411.15,100.48L411.39,107.46L412.14,108.46L412.37,111.61L412.62,107.28L412.87,112.75L413.12,108.23L413.36,107.86L413.61,98.31L413.87,108.06L414.1,98.53L414.35,101.68L414.59,96.01L415.09,98.83L415.33,108.25L415.58,103.78L416.07,107.47L416.32,107.69L416.57,111.88L416.81,108.23L417.06,107.46L417.56,107.67L417.8,97.69L418.05,100.71L418.29,98.37L418.55,101.68L418.79,99.09L419.03,107.86L419.28,103.61L419.77,107.67L420.02,107.92L420.28,106.45L420.51,111.09L421.75,100.81L421.99,100.44L422.25,101.08L422.48,100.48L422.73,108.69L422.98,96.76L423.47,108.06L423.72,109.43L423.98,108.25L424.21,113.16L425.45,97.66L425.69,107.4L426.19,98.49L426.69,99.57L426.93,105.1L427.17,102.64L427.42,107.67L427.68,109.02L427.91,110.93L428.16,105.54L428.41,116.27L428.9,106.14L429.15,98.16L429.39,106.6L429.89,99.13L430.13,97.77L430.87,105.37L431.12,108.46L431.37,107.49L431.61,107.86L431.86,108.71L432.1,110.2L432.36,107.22L432.6,108.06L433.11,108.61L433.34,98L433.58,100.63L434.33,93.69L434.57,105.73L434.82,99.43L435.07,108.25L435.31,108.25L435.56,110.08L435.8,108.27L436.05,107.7L436.3,108.07L436.55,101.5L436.8,108.23L437.04,97.02L437.28,99.26L438.02,94.78L438.27,108.44L438.52,98.89L439.01,107.84L439.26,113.25L439.52,107.28L440,110.01L440.25,109.98L440.98,98.54L441.48,100.46L441.72,98.91L442.22,98.35L442.96,110.97L443.22,108.09L443.45,112.56L443.7,106.92L443.95,107.69L444.2,107.86L444.44,106.33L444.68,99.88L444.93,110.39L445.42,101.54L445.67,105.39L445.92,99.13L446.16,101.44L446.41,107.88L446.66,108.79L446.91,107.32L447.15,112.71L447.64,114.8L447.9,105.15L448.14,110.58L448.88,96.92L449.12,97.66L449.37,96.32L449.63,100.96L449.86,99.32L450.11,104.38L451.1,113.1L451.34,109.06L451.59,108.27L451.84,109.81L452.08,106.18L452.35,106.93L452.58,100.92L453.07,96.32L453.33,101.41L453.56,98.68L453.81,105.93L454.31,106.51L454.55,109.04L454.8,112.92L455.04,106.87L455.29,112.34L455.54,107.11L455.78,107.8L456.04,106.83L456.28,100.65L456.52,98.43L457.02,100.78L457.26,99.51L457.51,108.23L457.75,95.93L458.01,106.76L458.25,107.3L458.74,106.7L458.99,113.95L459.23,107.7L459.48,104.81L459.74,107.69L459.98,108.07L460.22,96.98L460.72,99.32L460.96,100.21L461.46,99.59L461.71,105.56L462.46,109.02L462.69,107.46L462.93,108.27L463.18,107.82L463.44,107.3L463.68,106.14L463.92,100.4L464.17,107.09L464.42,95.62L464.66,100.05L464.91,99.63L465.15,99.94L465.4,105.02L466.15,109.02L466.39,106.87L466.88,109.02L467.14,107.69L467.37,108.48L468.12,96.96L468.36,99.4L468.61,96.73L468.87,98.43L469.1,95.18L469.35,107.69L469.85,107.09L470.09,106.32L470.33,112.79L470.83,107.3L471.08,106.53L471.32,108.46L471.57,105.93L471.82,105.02L472.8,93.94L473.05,106.78L473.55,107.47L473.79,110.58L474.03,112.48L474.28,106.51L474.53,113.48L475.02,107.3L475.27,109.02L475.51,107.42L475.76,96.09L476.75,106.62L476.99,105.35L477.25,103.22L478.23,113.12L478.47,111.18L478.72,109.64L479.46,98.06L479.71,100.88L479.96,99.63L480.2,100.3L480.45,96.71L480.69,96.25L480.94,101.46L481.68,109.98L481.93,108.07L482.17,108.46L482.42,109.23L482.68,102.84L482.91,106.32L483.16,100.23L483.41,99.91L483.9,100.57L484.15,95.11L485.39,109.23L485.63,108.09L485.87,106.32L486.12,110.39L486.37,117.58L486.61,110.58L486.86,103.01L487.1,109.62L487.36,101.15L487.6,96.57L488.09,93.5L489.09,109.62L489.33,106.14L489.57,111.78L490.07,109.33L490.31,108.65L490.56,108.63L490.81,102.66L491.06,109.23L491.3,97.12L491.54,100.36L492.04,101.65L492.28,101.13L492.53,108.25L492.79,109.87L493.03,108.46L493.27,117.8L493.52,104.96L494.01,106.7L494.26,110.49L495.5,96.13L495.74,99.13L495.99,100.59L496.23,107.09L496.49,104.77L496.72,112.31L496.97,108.07L497.22,110.18L497.47,114.43L497.71,105.35L498.22,109.6L498.45,106.12L499.2,97.63L499.44,101.58L500.18,95.93L500.42,105.35L501.41,112.71L501.66,106.32L501.92,107.67L502.15,102.25L502.4,97.66L502.65,99.13L502.9,107.53L503.88,93.92L504.12,108.79L504.37,109.21L504.62,105.15L505.11,112.92L505.61,112.48L505.85,112.69L507.33,93.81L507.58,98.99L508.07,110.37L508.56,107.4L508.81,99.74L509.31,111.75L509.55,106.14L509.8,108.07L510.29,108.25L510.54,95.45L511.77,106.12L512.03,102.02L512.51,109.58L512.76,108.36L513.01,106.51L513.74,109.77L513.99,106.32L514.98,92.13L515.22,93.15L515.96,110.18L516.21,107.11L516.45,112.32L516.71,106.51L517.2,108.07L517.44,107.86L517.69,109.23L517.94,103.24L518.44,97.06L518.67,101.83L518.92,102L519.17,104.04L519.43,94.19L519.66,108.57L519.91,111.34L520.41,108.07L520.65,112.62L521.39,104.77L521.64,107.63L521.88,92.75L522.14,107.67L522.38,100.13L522.62,97.06L523.12,96.09L523.61,107.07L523.85,106.45L524.35,115.86L524.6,104.19L524.85,110.63L525.09,101.48L525.34,107.84L525.58,95.28L525.84,107.69L526.32,100.21L526.57,98.83L526.82,97.66L527.06,101.25L528.55,112.48L528.79,105.93L529.03,109.39L529.28,102.41L529.54,106.12L529.77,99.26L530.02,98.89L530.27,95.06L531.01,107.46L531.25,95.16L531.5,108.44L532,108.06L532.25,107.24L533.23,106.53L533.47,102.02L534.22,96.03L534.46,97.99L534.71,105.93L534.97,97.09L535.2,104.59L535.45,108.06L535.69,118.01L535.95,107.07L536.19,109.52L536.43,108.27L536.68,112.71L536.93,105.75L537.17,101.08L537.42,95.66L537.67,101.65L537.91,99.37L538.16,97.62L538.9,111.86L539.15,111.55L539.39,110.37L539.65,109.77L539.89,109.95L540.13,110.57L540.38,106.32L540.63,108.46L540.87,119.21L541.38,130.36L541.86,130.01L542.11,130.38L542.36,130.63L542.6,128.66L543.09,130.75L543.34,129.61L543.59,127.33L544.33,130.24L544.57,128.68L544.82,129.43L545.08,128.04L545.31,129.22L545.56,129.61L546.3,132.16L546.55,127.09L546.79,132.33L547.29,130.78L547.53,129.12L548.03,129.45L548.27,130.96L549.01,128.75L549.26,129.58L549.75,134.09L550,128.29L550.51,133.06L550.74,129.2L551.49,130.22L551.73,129.76L551.97,127.9L552.47,128.81L552.71,128.81L552.96,133.06L553.22,128.66L553.45,129.45L553.7,128.66L553.95,129.06L554.2,128.81L554.44,132.7L555.18,127.48L555.42,131.77L555.67,130.99L555.93,127.65L556.16,128.04L556.41,126.49L556.66,131.15L557.15,126.34L557.4,124.4L557.9,130.36L558.38,129.24L558.63,128.68L558.88,129.37L559.12,129.04L559.37,125.95L559.87,124.95L560.36,132.97L560.61,129.84L560.85,123.63L561.1,130.59L561.34,130.38L562.34,125.97L562.58,127.11L562.82,130.59L563.07,130.36L563.32,126.13L563.56,125.72L563.81,129.95L564.06,125.56L564.31,128.27L564.55,133.3L565.54,127.27L565.78,128.02L566.04,129.43L566.28,127.11L566.52,127.52L567.26,126.49L567.51,128.47L567.77,131.69L568,127.5L568.25,129.04L568.5,128.27L568.99,129.99L569.24,126.97L569.73,132.93L569.98,125.54L570.96,128.83L571.21,126.05L571.7,125.95L572.2,132.72L572.45,127.65L572.94,127.27L573.2,129.43L573.43,129.45L573.68,127.88L574.42,130.39L574.66,127.27L575.16,129.88L575.65,129.43L575.9,128.08L576.39,128.04L576.64,129.58L577.38,129.08L577.62,129.82L578.12,129.57L578.36,130.39L578.86,130.61L579.1,128.66L579.35,128.71L579.61,127.65L580.33,129.99L580.59,129.06L580.83,129.06L581.08,129.84L581.32,128.89L581.57,129.28L581.82,129.99L582.8,127.88L583.05,129.43L583.54,128.81L583.79,133.06L584.78,129.04L585.04,128.81L585.27,130.76L585.76,129.61L586.02,129.43L586.25,129.82L586.5,128.29L587,130.38L587.24,129.18L587.49,129.57L587.74,130.24L587.98,128.68L588.23,129.06L588.47,128.25L588.73,130.01L588.97,126.9L589.46,129.24L589.72,129.84L590.45,129.99L590.7,128.44L590.94,129.22L591.19,128.04L591.45,130.98L591.68,127.88L592.17,129.04L592.43,129.18L592.67,127.69L592.91,128.43L593.16,131.36L593.9,126.7L594.16,129.99L594.4,128.44L594.89,129.97L595.14,130.18L595.87,128.81L596.12,129.97L596.37,128.04L596.86,129.47L597.11,129.82L597.6,128.68L597.86,129.18L598.09,129.2L598.34,130.75L598.59,128.85L598.84,126.36L599.08,125.2L599.33,129.84L599.59,126.07L600.07,129.25L600.31,128.43L600.81,129.45L601.05,128.29L601.3,127.54L601.55,129.62L601.79,128.06L602.29,129.43L602.53,128.7L603.03,127.11L603.29,129.57L603.77,131.56L604.01,129.22L604.51,128.68L604.75,129.84L605.49,128.47L605.74,129.58L606,131.36L606.23,128.68L606.48,127.9L607.47,129.58L607.71,129.12L608.21,129.43L608.95,127.67L609.19,128.04L609.93,129.47L610.18,127.92L610.43,133.47L610.92,128.81L611.17,128.04L611.43,129.84L611.91,129.04L612.15,129.04L612.65,128.81L612.89,125.33L613.14,130.76L613.63,128.68L613.88,129.47L614.37,126.51L614.62,129.22L614.86,129.58L615.12,128.2L615.36,131.42L615.6,129.49L615.85,126.74L616.35,129.64L616.59,129.2L616.84,125.2L617.84,131.92L618.07,128.85L618.32,128.85L618.57,131.15L619.06,127.9L619.55,128.83L619.8,129.97L620.78,128.75L621.03,130.18L621.53,128.83L621.77,131.56L622.52,128.31L622.76,129.08L623,128.68L623.5,130.42L623.99,130.09L624.25,129.45L624.48,129.41L624.73,128.27L624.98,129.95L625.47,128.47L625.72,129.25L626.21,128.2L626.46,130.63L626.7,127.92L627.2,129.99L627.44,128.85L627.94,128.68L628.18,130.59L628.43,129.06L628.92,129.64L629.17,129.61L629.91,128.29L630.16,129.08L630.9,128.41L631.15,129.97L631.88,127.5L632.13,128.25L632.39,129.2L633.86,129.08L634.1,130.39L634.35,128.04L634.6,132.33L634.84,130.3L635.1,129.43L635.34,128.68L635.58,129.08L635.83,129.82L636.32,128.47L636.57,130.71L637.07,127.48L637.31,128.68L637.56,129.04L637.8,129.99L638.05,128.1L638.3,128.83L638.8,127.11L639.04,128.66L639.28,126.34L639.53,129.02L639.78,130.78L640.02,131.15L640.27,130.76L640.52,130.24L641.26,126.74L641.51,129.62L641.75,126.49L642.24,127.65L642.5,129.43L642.98,129.01L643.23,129.95L643.48,128.47L643.97,129.95L644.23,129.06L644.46,127.13L644.71,127.13L644.96,134.46L645.7,126.92L645.94,129.47L646.19,129.45L646.68,129.08L646.94,129.24L647.17,129.24L647.42,129.68L647.67,128.74L647.93,128.62L648.16,127.94L648.41,129.84L648.66,129.43L648.91,130.76L649.64,127.5L649.89,129.08L650.14,129.85L650.38,129.47L650.64,126.86L651.62,129.84L651.86,128.27L652.11,128.31L652.35,132.35L653.35,129.47L653.59,134.55L654.34,126.92L654.57,133.12L654.82,126.13L655.32,130.28L655.56,128.62L655.81,126.74L656.05,129.64L656.3,128.85L656.55,130.8L656.79,125.74L657.05,130.99L657.53,129.43L657.78,128.85L658.27,129.99L658.52,129.24L658.77,129.49L660,127.33" style="vector-effect: none; fill: none; stroke: rgb(0, 0, 255); stroke-opacity: 1; stroke-width: 2px; opacity: 1;"/></g><g class="points"/><g class="text"/></g><g class="trace scatter trace368108" style="stroke-miterlimit: 2; opacity: 1;"><g class="fills"/><g class="errorbars"/><g class="lines"><path class="js-line" d="M0,218.3L2.72,218.26L2.95,218.2L10.11,218.36L10.35,218.34L11.58,218.36L11.85,213.24L12.08,218.44L12.57,218.17L12.83,218.36L13.56,218.47L13.81,212.48L14.3,212.15L14.55,212.46L14.79,212.46L15.04,212.37L15.28,213.72L16.27,212.14L16.52,212.66L16.76,212.15L17.26,212.45L17.51,212.35L18.73,212.09L18.98,212.21L21.45,212.35L21.7,214.3L22.68,212.08L22.94,212.09L25.66,212.18L25.89,215.21L27.12,211.52L27.37,212.41L28.6,211.44L28.85,211.9L29.09,212.15L29.59,212.29L29.84,215.3L30.82,212.27L31.07,212.25L31.32,211.67L31.81,212.33L32.07,212.12L33.78,212.31L34.04,215.21L34.77,212.27L35.02,212.37L36,212.09L36.25,212.27L36.75,211.69L36.99,212.15L37.23,212.29L39.7,212.04L39.95,211.36L41.18,212.29L41.43,212L42.66,212.37L42.91,211.9L43.89,212.14L44.15,211.21L45.37,213.72L45.62,212.08L46.36,212.35L46.61,211.67L46.87,212.27L47.35,211.85L47.59,211.85L48.83,212.33L49.07,213.59L50.31,210.95L50.57,212.54L50.8,211.17L51.29,211.96L51.55,211.79L52.53,212.33L52.77,212.35L53.02,212.37L53.26,215.44L54.5,210.63L54.75,211.92L54.99,211.4L55.49,211.65L55.73,212.14L55.98,211.52L56.23,212.12L56.47,212.41L56.72,212.08L56.97,212.33L57.21,213.39L58.2,212.33L58.44,211.63L58.69,210.36L58.95,211.85L59.19,211.88L59.68,211.63L59.93,212.14L60.17,212.27L60.42,213.08L60.66,212.09L60.92,212.29L61.16,212.37L62.15,211.54L62.39,212.29L63.13,209.7L63.38,211.61L65.1,212.37L65.37,211.98L66.09,212.33L66.35,211.19L67.08,211.55L67.33,209.9L67.82,212.18L68.32,212.12L68.56,212.6L69.3,212.39L69.54,210.2L69.79,212.37L70.28,211.5L70.53,211.21L71.52,212.33L71.76,212.08L72.01,212.15L72.77,213.7L73,212.33L73.75,212.37L73.98,210.82L75.22,212.33L75.46,212.35L76.21,212.33L76.46,214.32L77.19,212.09L77.45,212.29L77.68,209.84L78.18,210.51L78.43,211.44L78.67,210.95L78.92,212.39L79.16,211.63L79.66,212.09L79.9,212.37L80.64,212.37L80.89,213.64L81.88,209.72L82.13,211.5L82.37,209.41L82.86,211.17L83.11,212.18L83.36,212.42L83.6,213.91L84.34,212.29L84.59,212.39L84.85,212.27L85.08,212.39L85.33,211.36L85.57,212.27L85.83,211.21L86.07,211.4L86.32,208.93L87.3,212.35L87.56,212.33L88.78,212.08L89.03,210.51L89.28,212.25L90.01,212.09L90.26,211.25L90.51,208.91L90.76,212.33L91,212.33L92.48,212.27L92.73,209.57L92.98,212.37L93.47,211.21L93.72,210.53L94.96,212.35L95.2,212.12L95.69,212.33L95.94,212.81L96.18,212.12L96.68,212.31L96.93,209.22L98.15,211.82L98.4,210.9L98.9,212.31L99.14,212.25L99.39,212.02L100.37,212.29L100.63,212.19L101.38,210.45L101.61,210.98L101.85,209.12L102.1,210.24L102.36,211.65L102.84,212.37L103.09,212.29L103.34,212.09L104.32,212.39L104.57,210.3L105.55,211.96L105.8,210.98L106.06,208.77L106.29,212.33L106.54,212.31L108.02,212.12L108.27,208.93L108.77,212.31L109.01,210.98L109.25,210.36L110.74,212.35L110.98,212.37L111.47,212.96L111.72,212.06L111.97,212.08L112.21,210.74L112.47,208.77L112.95,210.72L113.2,210.8L113.45,210.17L113.69,211.67L114.68,212.35L114.92,212.35L116.17,212.19L116.41,210.67L116.65,210.9L116.9,210.01L117.39,209.18L118.63,213.83L118.89,212.37L119.87,212.15L120.11,210.86L120.6,209.66L120.85,210.8L121.09,210.11L121.34,212.42L121.59,209.47L122.08,212.35L122.32,214.11L123.31,212.31L123.57,212.31L123.81,210.13L124.3,210.84L124.55,210.8L124.79,210.41L125.04,212.25L125.28,208.56L125.78,212.21L126.03,212.37L126.28,212.27L126.52,215.15L127.27,212.09L127.5,212.31L127.75,210.03L128.25,210.32L128.49,210.53L129.72,212.18L129.98,212.21L130.47,212.35L130.71,215.21L131.45,209.64L131.7,212.09L131.95,209.9L132.19,210.51L132.44,207.9L133.42,212.31L133.68,212.06L134.67,212.41L134.9,212.18L135.4,212.29L135.65,209.37L135.89,210.72L136.38,210.51L136.63,208.48L137.62,212.35L137.86,212.31L139.35,212.27L139.59,210.57L140.33,210.61L140.58,211.44L140.82,209.7L141.08,211.73L141.32,212.52L141.56,215.42L142.06,212.72L142.3,212.58L143.05,212.41L143.29,210.32L144.03,210.61L144.27,209.72L145.76,213.97L146,213.04L146.25,212.15L146.74,212.42L146.99,210.84L147.98,210.41L148.22,210.32L148.48,207.23L148.72,212.18L148.96,212.31L150.44,212.37L150.69,208.13L151.2,212.08L151.43,210.34L151.67,208.83L152.66,212.29L152.91,212.04L153.16,212.39L153.4,212.04L153.65,212.31L153.89,214.32L154.63,209.1L154.9,212.29L155.13,209.27L155.62,210.11L155.88,210.09L156.36,212.37L156.86,212.12L157.1,212.31L157.35,212.15L157.6,212.99L158.34,212.04L158.59,212.31L158.83,207.84L159.07,210.22L159.58,210.14L159.81,208.81L160.8,212.39L161.05,212.37L162.29,212.42L162.53,209.68L162.77,209.93L163.02,208.1L163.51,206.7L163.76,210.82L164.01,209.47L164.75,214.22L165.01,212.42L165.24,212.35L166.23,212.04L166.47,210.17L166.72,208.77L167.21,209.8L167.46,212.35L167.71,207.4L168.2,212.33L168.45,212.27L169.93,212.33L170.17,208.97L170.42,212.31L170.91,210.01L171.16,211.28L171.66,206.76L171.9,212.29L173.63,212.33L173.87,207.84L174.12,212.39L174.61,209.93L174.86,209.2L176.58,214.09L176.83,212.27L177.09,213.56L177.57,212.29L177.82,212.31L178.8,209.62L179.05,209.35L180.04,212.27L180.29,212.39L180.53,212.25L180.79,215.19L182.01,208.91L182.26,209.87L182.75,209.87L183,210.68L183.51,209.78L183.98,212.23L184.23,212.25L185.47,212.35L185.71,208.5L186.45,209.58L186.7,206.26L187.69,212.31L187.93,212.31L189.41,212.37L189.66,209.58L189.9,207.9L190.4,209.39L190.64,212.35L190.9,206.59L191.38,212.33L191.63,212.02L193.11,212.23L193.36,208.66L193.6,212.31L194.1,209.58L194.34,210.86L194.6,209.58L194.84,211.15L195.08,212.23L195.33,210.78L195.59,212.06L195.82,214.98L197.06,207.61L197.3,212.31L198.04,208.66L198.3,209.31L198.54,209.1L199.29,212.31L199.52,212.29L199.77,212.27L200.02,214.51L200.51,212.33L200.76,212.21L201,212.46L201.25,209.57L202.24,208.97L202.48,212.37L202.73,207.71L203.22,212.29L203.47,212.23L203.72,212.29L203.97,215.21L205.2,208.46L205.44,209.37L205.93,209.39L206.18,210.51L206.43,208.97L206.69,212.21L208.4,212.33L208.65,212.23L208.9,208.25L209.4,208.48L209.64,209.3L209.88,205.78L210.13,209.31L210.38,210.49L211.37,212.23L211.61,212.27L212.6,212.27L212.84,209.16L213.1,207.38L213.58,209.04L213.83,209.31L214.08,205.99L214.32,212.25L214.57,212.52L215.07,212.31L215.31,213.56L216.54,208.06L216.8,212.42L217.78,209.12L218.02,211.71L218.27,212.25L218.51,210.28L219.01,214.73L219.26,212.75L219.5,212.29L220,212.37L220.24,206.97L220.5,212.29L220.98,209.1L221.23,209.12L221.72,210.14L221.97,212.35L222.21,210.94L222.71,212.27L222.95,212.35L223.2,216.04L223.69,212.31L223.94,207.81L224.2,212.27L224.68,209.2L224.93,208.98L225.18,209.04L225.42,208.21L225.91,208.17L226.41,212.35L226.65,212.12L226.9,212.39L227.15,214.84L228.38,208.37L228.63,210.11L229.12,209.2L229.37,210.32L229.61,208.58L229.87,212.37L231.83,212.14L232.08,207.67L232.33,212.08L232.82,208.73L233.07,205.62L234.05,212.12L234.3,212.06L234.55,212.29L236.03,212.27L236.28,207.15L237.01,208.93L237.27,205.35L237.51,212.33L238,212.06L238.25,212L238.49,213.56L238.99,212.19L239.23,212.31L239.48,207.56L239.98,212.04L240.22,208.71L240.97,208.64L241.21,212.25L241.45,212.23L241.7,210.3L242.19,212.99L242.7,212.5L242.93,212.08L243.69,212.31L243.92,207.4L245.15,212.23L245.4,212L245.65,212.06L246.39,212.29L246.63,212.06L246.88,212.29L247.13,211.98L247.39,212.31L247.62,206.28L248.37,208.77L248.6,205.16L249.59,212.12L249.84,212.08L250.82,212.08L251.09,212.27L251.32,212.33L251.56,208.46L251.81,206.43L252.3,208.44L252.55,211.63L252.8,205.08L253.05,210.34L253.29,212.37L253.54,213.61L253.78,212.04L254.03,212.31L254.28,212.25L255.02,212.39L255.26,207.42L255.51,212.02L255.77,207.32L256,208.48L256.25,210.74L256.75,205.55L256.99,212.27L258.72,212.25L258.96,206.2L259.21,212.25L259.7,208.46L259.95,205.66L261.18,212.27L261.43,212.02L262.19,213.55L262.42,212.25L262.66,212.33L262.91,207.84L263.4,207.34L263.65,208.5L263.9,208.25L264.15,206.47L265.14,212.25L265.38,212.23L265.62,212.21L265.89,213.89L266.61,207.79L266.87,212.25L267.1,207.34L267.6,207.59L267.85,208.48L269.08,212.29L269.32,212.21L270.57,212.23L270.8,206.88L271.55,208.48L271.79,205.08L272.77,212.25L273.02,213.59L274.01,212.21L274.27,212.27L274.5,212.19L274.75,208.29L275,206.18L275.49,207.9L275.74,212.04L275.98,204.69L276.48,212.25L276.72,212.91L277.46,211.92L277.71,212.31L277.97,212.31L278.2,212.04L278.45,207.17L278.7,212.33L279.19,207.96L279.43,209.9L279.68,207.94L279.93,211.79L280.17,212.18L281.9,212.29L282.15,206.03L282.39,212.08L282.89,208.04L283.14,204.77L284.37,212.25L284.61,212.33L285.11,212.29L285.37,213.18L286.09,212.25L286.35,206.53L287.08,208.02L287.33,205.58L287.82,212.27L288.31,212.21L288.56,212.45L288.81,212.18L289.06,213.55L290.29,207.07L290.78,207.98L291.03,208.06L292.26,212.27L292.51,212.35L293.75,212.08L293.99,206.2L294.23,207.94L294.73,207.79L294.97,204.77L295.22,212.31L295.96,212.04L296.21,212.12L297.69,212.27L297.93,207.83L298.18,205.89L298.67,207.53L298.92,207.73L299.18,204.36L299.41,212.25L300.16,212.18L300.4,213.93L301.63,206.92L301.88,212L302.37,205.5L302.62,209.57L302.88,207.75L304.1,214.75L304.35,212.68L305.08,212.19L305.33,206.03L305.58,212L306.07,207.75L306.32,207.15L306.81,209.31L307.06,212.35L307.31,211L307.8,212.19L308.05,212.31L308.29,215.17L308.54,213.39L308.79,212.02L309.03,206.12L309.28,212.06L309.52,207.38L309.77,207.83L310.51,205.14L310.76,212.33L311.01,207.48L311.5,212.37L311.75,212.35L312.99,212.27L313.22,205.87L313.72,209.39L313.97,207.77L314.21,204.27L314.96,212.39L315.2,212.33L315.45,212.31L316.92,212.33L317.17,205.97L317.67,206.45L317.91,207.61L318.16,204.68L318.4,207.86L318.66,210.09L319.14,212.54L319.64,212.29L319.88,212.27L320.63,212.25L320.87,206.49L321.12,212.29L321.37,205.58L321.61,207.61L321.86,207.65L322.1,207.4L322.36,204.27L323.34,213.78L323.58,212.99L324.57,209.9L324.82,212.37L325.07,206.32L325.56,206.57L325.8,207.65L326.05,205.22L326.3,210.57L327.28,214.63L327.53,212.35L328.77,212.39L329.01,207.46L329.5,207.61L329.75,207.17L330,212.35L330.24,204.33L330.74,212.31L330.98,213.04L331.97,212.25L332.22,212.52L332.47,212.37L332.71,206.49L333.69,209.2L333.94,207.46L335.18,215.48L335.42,213.22L336.16,212.35L336.41,206.92L336.65,207.63L336.92,206.1L337.15,207.34L337.4,204.19L338.14,212.6L338.63,212.37L338.88,212.33L339.37,212.33L339.62,213.7L339.86,212.37L340.11,205.6L340.36,212.29L340.85,207.34L341.09,204L342.08,212.35L342.33,212.31L342.58,212.58L344.06,212.33L344.31,205.66L345.04,207.42L345.29,204.06L346.03,212.6L346.28,212.5L346.52,212.39L348.01,212.58L348.25,206.59L348.74,206.28L349.23,210.38L349.48,212.66L349.73,209.62L349.97,212.62L350.22,213.76L350.96,212.41L351.21,212.66L351.45,212.37L351.71,212.37L351.95,206.1L352.69,207.5L352.93,205.18L353.18,212.39L353.92,212.33L354.17,212.39L355.4,212.35L355.65,211.69L356.16,205.78L356.63,206.34L356.88,207.21L357.14,203.82L357.38,212.39L357.87,212.56L358.12,212.29L358.36,213.76L359.59,205.91L359.85,212.39L360.33,204.06L360.58,207.32L360.83,206.96L361.32,212.56L361.82,212.39L362.06,215.27L363.05,212.37L363.29,212.19L364.53,204.93L364.77,207.05L365.76,212.39L366,212.35L366.27,215.03L366.75,212.37L366.99,212.54L367.25,212.29L367.49,205.58L368.72,212.39L368.97,205.16L369.71,212.42L369.96,212.33L370.2,212.56L370.95,212.37L371.18,205.58L371.43,206.94L371.93,206.72L372.17,203.59L373.16,212.6L373.4,212.41L373.9,213.26L374.14,212.29L374.39,213.76L374.64,212.42L374.89,212.14L375.13,205.8L375.62,207.09L375.87,206.82L376.38,203.67L376.61,212.41L376.86,212.27L377.1,211.25L378.09,215.56L378.34,212.39L378.58,212.46L378.83,205.43L379.09,205.2L379.32,205.68L379.57,206.57L379.82,206.76L380.07,203.61L380.8,212.5L381.06,212.42L381.3,212.68L382.28,212.46L382.53,212.62L382.79,212.41L383.02,205.87L383.27,206.78L383.52,205.39L383.77,206.57L384.01,210.28L384.5,209.51L385,213.72L385.24,213.28L386.23,212.41L386.48,212.42L386.72,205.25L387.22,205.45L387.47,206.78L387.71,203.84L387.96,212.56L388.22,209.87L388.7,212.64L388.94,212.39L390.42,212.19L390.67,205.91L390.92,205.1L391.16,206.84L391.41,206.36L391.66,206.59L391.91,203.21L392.64,212.42L392.9,212.41L393.13,213.02L393.88,212.35L394.12,209.04L394.63,212.39L395.11,203.92L395.35,206.84L395.61,206.51L395.85,210.55L396.84,214.63L397.08,212.31L398.33,212.15L398.56,205.53L398.81,206.55L399.06,205.22L399.31,205.83L399.55,211.48L399.8,212.29L400.04,209.66L400.54,214.4L400.78,212.35L401.04,212.31L402.03,212.35L402.26,204.29L403.99,212.48L404.24,212.35L404.48,212.37L404.74,215.3L404.97,213.82L405.22,212.14L405.72,212.37L405.96,208.43L406.95,203.48L407.2,212.39L407.46,204.83L407.69,212.45L407.93,212.31L408.18,212.45L409.42,212.39L409.66,205.41L409.91,205.02L410.15,211.71L410.65,203.17L411.15,204.93L411.39,211.9L412.37,213.08L412.62,212.18L412.87,213.62L413.36,212.35L413.61,204.98L413.87,208.11L414.1,204.33L414.35,206.36L414.59,205.43L414.85,203.15L415.09,207.48L415.33,212.41L415.58,210.65L416.07,212.15L416.32,212.37L416.57,215.32L416.81,212.19L417.06,212.41L417.31,204.62L417.56,212.39L418.05,206.15L418.29,204.79L418.79,209.9L419.03,212.35L419.28,204.48L419.77,212.31L420.02,212.19L421.26,212.37L421.5,204.83L421.75,206.05L421.99,204.35L422.25,205.76L422.48,202.68L423.23,212.39L423.47,212.29L423.72,212.77L424.46,212.31L424.71,212.99L425.2,212.29L425.45,205.14L426.43,210.28L426.69,202.92L427.17,212.52L427.68,212.29L427.91,212.29L428.9,212.09L429.15,205.16L429.64,204.75L429.89,205.62L430.39,202.97L430.87,212.42L431.12,212.37L432.6,212.41L432.85,204.11L433.11,212.37L433.58,205.83L433.83,204.13L434.57,212.35L434.82,208.39L435.31,212.66L435.8,212.39L436.05,212.31L436.8,212.41L437.04,204.62L437.53,204.52L437.78,206.03L438.02,203.25L438.77,212.6L439.01,212.58L439.26,213.7L440.25,212.37L440.5,212.41L440.74,212.58L440.98,204.98L441.23,204.95L441.48,205.8L441.72,205.43L441.97,210.71L442.22,202.84L442.47,212.14L442.71,212.14L442.96,215.25L443.45,212.75L443.7,212.37L444.2,212.33L444.44,209.64L444.93,212.31L445.42,202.92L445.67,204.95L445.92,205.56L446.16,210.07L447.15,213.88L447.4,212.54L448.14,212.33L448.38,204.15L448.63,212.39L449.12,205.83L449.37,209.43L449.86,203.84L450.11,212.21L450.36,209.87L450.61,212.56L450.85,212.31L451.1,212.39L451.84,212.31L452.08,205.87L452.35,212.29L452.58,203.34L452.82,204.98L453.07,202.74L453.33,205.58L453.56,206.49L454.06,202.72L454.55,212.39L454.8,213.62L455.04,215.27L455.29,213.88L455.54,212.33L456.04,212.39L456.28,207.65L457.26,202.67L457.51,212.33L457.75,203.88L458.25,212.31L458.5,212.29L459.74,212.35L459.98,205.18L460.22,203.86L460.47,211.28L460.96,202.45L461.46,203.48L461.71,211.67L462.69,214.01L462.93,212.41L463.18,214.01L463.44,212.33L463.68,212.39L463.92,204.56L464.42,203.54L464.91,209.9L465.15,202.62L466.39,212.56L466.63,212.37L466.88,215.32L467.37,212.6L467.62,204.35L467.87,212.39L468.12,204.04L468.36,205.37L468.61,203.21L469.35,212.33L469.59,205.16L470.09,212.39L470.58,212.35L470.83,212.29L471.57,212.39L471.82,204.33L472.06,205.37L472.31,203.26L472.57,205.12L472.8,202.47L473.55,212.37L473.79,212.29L474.03,212.19L475.51,212.41L475.76,204.58L476.5,204.09L476.75,210.78L476.99,202.38L477.25,209.68L477.49,212.25L477.73,214.57L478.23,212.35L478.47,212.35L479.21,212.5L479.46,203.07L479.71,212.41L480.2,205.45L480.45,206.51L480.69,205L480.94,210.65L481.93,215.96L482.17,213.72L482.91,212.35L483.16,206.49L483.41,212.15L483.66,203.38L483.9,205.2L484.15,202.53L484.64,205L484.89,212.58L485.87,212.41L486.12,214.76L486.61,212.33L486.86,204.13L487.1,212.52L487.6,204.96L487.85,202.32L488.34,202.12L488.59,212.35L488.83,203.9L489.57,212.62L489.82,212.5L490.07,212.12L490.81,212.27L491.06,204.48L492.04,201.81L492.28,209.49L492.53,201.99L492.79,212.23L493.03,212.35L494.75,212.39L495,204.31L495.24,205L495.5,202.99L495.99,210.26L496.23,202.3L496.97,215.02L497.22,212.25L497.47,212.33L498.45,212.31L498.7,203.57L498.94,212.37L499.44,205.02L499.68,203.17L500.42,212.48L500.92,212.31L501.17,212.39L502.15,212.37L502.4,210.72L502.65,212.29L502.9,203.9L503.14,204.91L503.38,202.3L503.63,204.68L503.88,202.32L504.12,212.33L504.86,212.39L505.11,213.86L506.1,206.96L506.34,212.35L506.6,212.33L506.84,204.04L507.08,202.08L507.33,204.71L507.58,203.55L507.83,210.55L508.81,215.89L509.06,212.31L510.05,212.29L510.29,209.99L511.28,202.02L511.52,204.06L512.51,212.41L512.76,212.27L513.74,212.41L513.99,212.42L514.24,202.67L514.73,204.11L514.98,204.75L515.47,203.63L516.71,215.96L516.95,213.88L517.94,206.65L518.18,204.66L518.92,202.01L519.17,204.71L519.43,204L519.66,212.29L521.39,212.37L521.64,204.29L521.88,203.05L522.14,208.76L523.12,202.01L523.36,212.54L524.35,212.33L524.6,212.58L525.58,212.25L525.84,205.62L526.82,201.89L527.06,209.04L527.8,212.52L528.05,212.37L528.29,212.56L528.55,213.99L528.79,212.45L529.03,212.31L529.54,212.33L529.77,203.21L530.27,202.8L530.52,204.52L530.76,209.78L531.01,212.54L531.25,205.31L531.5,212.39L532,212.35L532.25,212.33L533.23,212.33L533.47,203.88L533.72,204.52L533.97,202.28L534.22,204.04L534.46,201.83L534.71,212.64L534.97,209.16L535.45,212.31L535.69,212.31L536.93,212.35L537.17,212.33L537.42,203.44L538.16,203.59L538.41,203.79L538.66,201.56L538.9,212.31L539.15,212.21L539.39,211.25L540.38,212.31L540.63,212.29L541.12,218.38L541.61,218.3L541.86,218.34L546.06,218.26L546.3,218.5L547.29,218.3L547.53,218.28L549.51,218.3L549.75,218.3L551.97,218.44L552.22,218.46L553.45,218.32L553.7,218.42L556.66,218.42L556.92,218.47L571.7,218.24L571.95,218.5L585.27,218.59L585.51,218.28L587.98,218.44L588.23,218.4L589.46,218.4L589.72,218.38L590.94,218.23L591.19,218.24L592.67,218.34L592.91,218.05L594.89,218.4L595.14,218.13L596.37,218.36L596.61,218.3L597.6,218.51L597.86,218.44L660,218.38" style="vector-effect: none; fill: none; stroke: rgb(0, 128, 0); stroke-opacity: 1; stroke-width: 2px; opacity: 1;"/></g><g class="points"/><g class="text"/></g><g class="trace scatter traceb6a265" style="stroke-miterlimit: 2; opacity: 1;"><g class="fills"/><g class="errorbars"/><g class="lines"><path class="js-line" d="M0,110.52L660,110.52" style="vector-effect: none; fill: none; stroke: rgb(255, 0, 0); stroke-opacity: 1; stroke-dasharray: 9px, 9px; stroke-width: 2px; opacity: 1;"/></g><g class="points"/><g class="text"/></g><g class="trace scatter tracefc60c7" style="stroke-miterlimit: 2; opacity: 1;"><g class="fills"/><g class="errorbars"/><g class="lines"><path class="js-line" d="M0,212.23L660,212.23" style="vector-effect: none; fill: none; stroke: rgb(255, 165, 0); stroke-opacity: 1; stroke-dasharray: 9px, 9px; stroke-width: 2px; opacity: 1;"/></g><g class="points"/><g class="text"/></g><g class="trace scatter trace9d6db1" style="stroke-miterlimit: 2; opacity: 1;"><g class="fills"/><g class="errorbars"/><g class="lines"><path class="js-line" d="M0,0L660,0" style="vector-effect: none; fill: none; stroke: rgb(128, 0, 128); stroke-opacity: 1; stroke-dasharray: 3px, 3px; stroke-width: 2px; opacity: 1;"/></g><g class="points"/><g class="text"/></g></g></g><g class="overplot"/><path class="xlines-above crisp" d="M0,0" style="fill: none;"/><path class="ylines-above crisp" d="M0,0" style="fill: none;"/><g class="overlines-above"/><g class="xaxislayer-above"><g class="xtick"><text text-anchor="middle" x="0" y="473" transform="translate(79.99,0)" style="font-family: 'Open Sans', verdana, arial, sans-serif; font-size: 12px; fill: rgb(42, 63, 95); fill-opacity: 1; white-space: pre; opacity: 1;">0</text></g><g class="xtick"><text text-anchor="middle" x="0" y="473" style="font-family: 'Open Sans', verdana, arial, sans-serif; font-size: 12px; fill: rgb(42, 63, 95); fill-opacity: 1; white-space: pre; opacity: 1;" transform="translate(203.19,0)">500</text></g><g class="xtick"><text text-anchor="middle" x="0" y="473" style="font-family: 'Open Sans', verdana, arial, sans-serif; font-size: 12px; fill: rgb(42, 63, 95); fill-opacity: 1; white-space: pre; opacity: 1;" transform="translate(326.4,0)">1000</text></g><g class="xtick"><text text-anchor="middle" x="0" y="473" style="font-family: 'Open Sans', verdana, arial, sans-serif; font-size: 12px; fill: rgb(42, 63, 95); fill-opacity: 1; white-space: pre; opacity: 1;" transform="translate(449.6,0)">1500</text></g><g class="xtick"><text text-anchor="middle" x="0" y="473" style="font-family: 'Open Sans', verdana, arial, sans-serif; font-size: 12px; fill: rgb(42, 63, 95); fill-opacity: 1; white-space: pre; opacity: 1;" transform="translate(572.81,0)">2000</text></g><g class="xtick"><text text-anchor="middle" x="0" y="473" style="font-family: 'Open Sans', verdana, arial, sans-serif; font-size: 12px; fill: rgb(42, 63, 95); fill-opacity: 1; white-space: pre; opacity: 1;" transform="translate(696.02,0)">2500</text></g></g><g class="yaxislayer-above"><g class="ytick"><text text-anchor="end" x="79" y="4.199999999999999" transform="translate(0,460)" style="font-family: 'Open Sans', verdana, arial, sans-serif; font-size: 12px; fill: rgb(42, 63, 95); fill-opacity: 1; white-space: pre; opacity: 1;">0</text></g><g class="ytick"><text text-anchor="end" x="79" y="4.199999999999999" style="font-family: 'Open Sans', verdana, arial, sans-serif; font-size: 12px; fill: rgb(42, 63, 95); fill-opacity: 1; white-space: pre; opacity: 1;" transform="translate(0,417.78)">10</text></g><g class="ytick"><text text-anchor="end" x="79" y="4.199999999999999" style="font-family: 'Open Sans', verdana, arial, sans-serif; font-size: 12px; fill: rgb(42, 63, 95); fill-opacity: 1; white-space: pre; opacity: 1;" transform="translate(0,375.56)">20</text></g><g class="ytick"><text text-anchor="end" x="79" y="4.199999999999999" style="font-family: 'Open Sans', verdana, arial, sans-serif; font-size: 12px; fill: rgb(42, 63, 95); fill-opacity: 1; white-space: pre; opacity: 1;" transform="translate(0,333.33000000000004)">30</text></g><g class="ytick"><text text-anchor="end" x="79" y="4.199999999999999" style="font-family: 'Open Sans', verdana, arial, sans-serif; font-size: 12px; fill: rgb(42, 63, 95); fill-opacity: 1; white-space: pre; opacity: 1;" transform="translate(0,291.11)">40</text></g><g class="ytick"><text text-anchor="end" x="79" y="4.199999999999999" style="font-family: 'Open Sans', verdana, arial, sans-serif; font-size: 12px; fill: rgb(42, 63, 95); fill-opacity: 1; white-space: pre; opacity: 1;" transform="translate(0,248.89)">50</text></g><g class="ytick"><text text-anchor="end" x="79" y="4.199999999999999" style="font-family: 'Open Sans', verdana, arial, sans-serif; font-size: 12px; fill: rgb(42, 63, 95); fill-opacity: 1; white-space: pre; opacity: 1;" transform="translate(0,206.67000000000002)">60</text></g><g class="ytick"><text text-anchor="end" x="79" y="4.199999999999999" style="font-family: 'Open Sans', verdana, arial, sans-serif; font-size: 12px; fill: rgb(42, 63, 95); fill-opacity: 1; white-space: pre; opacity: 1;" transform="translate(0,164.44)">70</text></g><g class="ytick"><text text-anchor="end" x="79" y="4.199999999999999" style="font-family: 'Open Sans', verdana, arial, sans-serif; font-size: 12px; fill: rgb(42, 63, 95); fill-opacity: 1; white-space: pre; opacity: 1;" transform="translate(0,122.22)">80</text></g><g class="ytick"><text text-anchor="end" x="79" y="4.199999999999999" style="font-family: 'Open Sans', verdana, arial, sans-serif; font-size: 12px; fill: rgb(42, 63, 95); fill-opacity: 1; white-space: pre; opacity: 1;" transform="translate(0,80)">90</text></g></g><g class="overaxes-above"/></g></g><g class="polarlayer"/><g class="smithlayer"/><g class="ternarylayer"/><g class="geolayer"/><g class="funnelarealayer"/><g class="pielayer"/><g class="iciclelayer"/><g class="treemaplayer"/><g class="sunburstlayer"/><g class="glimages"/><defs id="topdefs-b5e573"><g class="clips"/><clipPath id="legendb5e573"><rect width="186" height="105" x="0" y="0"/></clipPath></defs><g class="layer-above"><g class="imagelayer"/><g class="shapelayer"/></g><g class="infolayer"><g class="legend" pointer-events="all" transform="translate(753.2,346)"><rect class="bg" shape-rendering="crispEdges" style="stroke: rgb(68, 68, 68); stroke-opacity: 1; fill: rgb(255, 255, 255); fill-opacity: 1; stroke-width: 0px;" width="186" height="105" x="0" y="0"/><g class="scrollbox" transform="" clip-path="url(#legendb5e573)"><g class="groups"><g class="traces" transform="translate(0,14.5)" style="opacity: 1;"><text class="legendtext" text-anchor="start" x="40" y="4.680000000000001" style="font-family: 'Open Sans', verdana, arial, sans-serif; font-size: 12px; fill: rgb(42, 63, 95); fill-opacity: 1; white-space: pre;">Total Input Power</text><g class="layers" style="opacity: 1;"><g class="legendfill"/><g class="legendlines"><path class="js-line" d="M5,0h30" style="fill: none; stroke: rgb(0, 0, 255); stroke-opacity: 1; stroke-width: 2px;"/></g><g class="legendsymbols"><g class="legendpoints"/></g></g><rect class="legendtoggle" x="0" y="-9.5" width="180.171875" height="19" style="fill: rgb(0, 0, 0); fill-opacity: 0;"/></g><g class="traces" transform="translate(0,33.5)" style="opacity: 1;"><text class="legendtext" text-anchor="start" x="40" y="4.680000000000001" style="font-family: 'Open Sans', verdana, arial, sans-serif; font-size: 12px; fill: rgb(42, 63, 95); fill-opacity: 1; white-space: pre;">Total FPGA Power</text><g class="layers" style="opacity: 1;"><g class="legendfill"/><g class="legendlines"><path class="js-line" d="M5,0h30" style="fill: none; stroke: rgb(0, 128, 0); stroke-opacity: 1; stroke-width: 2px;"/></g><g class="legendsymbols"><g class="legendpoints"/></g></g><rect class="legendtoggle" x="0" y="-9.5" width="180.171875" height="19" style="fill: rgb(0, 0, 0); fill-opacity: 0;"/></g><g class="traces" transform="translate(0,52.5)" style="opacity: 1;"><text class="legendtext" text-anchor="start" x="40" y="4.680000000000001" style="font-family: 'Open Sans', verdana, arial, sans-serif; font-size: 12px; fill: rgb(42, 63, 95); fill-opacity: 1; white-space: pre;">Mean Total Input Power</text><g class="layers" style="opacity: 1;"><g class="legendfill"/><g class="legendlines"><path class="js-line" d="M5,0h30" style="fill: none; stroke: rgb(255, 0, 0); stroke-opacity: 1; stroke-dasharray: 9px, 9px; stroke-width: 2px;"/></g><g class="legendsymbols"><g class="legendpoints"/></g></g><rect class="legendtoggle" x="0" y="-9.5" width="180.171875" height="19" style="fill: rgb(0, 0, 0); fill-opacity: 0;"/></g><g class="traces" transform="translate(0,71.5)" style="opacity: 1;"><text class="legendtext" text-anchor="start" x="40" y="4.680000000000001" style="font-family: 'Open Sans', verdana, arial, sans-serif; font-size: 12px; fill: rgb(42, 63, 95); fill-opacity: 1; white-space: pre;">Mean Total FPGA Power</text><g class="layers" style="opacity: 1;"><g class="legendfill"/><g class="legendlines"><path class="js-line" d="M5,0h30" style="fill: none; stroke: rgb(255, 165, 0); stroke-opacity: 1; stroke-dasharray: 9px, 9px; stroke-width: 2px;"/></g><g class="legendsymbols"><g class="legendpoints"/></g></g><rect class="legendtoggle" x="0" y="-9.5" width="180.171875" height="19" style="fill: rgb(0, 0, 0); fill-opacity: 0;"/></g><g class="traces" transform="translate(0,90.5)" style="opacity: 1;"><text class="legendtext" text-anchor="start" x="40" y="4.680000000000001" style="font-family: 'Open Sans', verdana, arial, sans-serif; font-size: 12px; fill: rgb(42, 63, 95); fill-opacity: 1; white-space: pre;">TDP Limit (90W)</text><g class="layers" style="opacity: 1;"><g class="legendfill"/><g class="legendlines"><path class="js-line" d="M5,0h30" style="fill: none; stroke: rgb(128, 0, 128); stroke-opacity: 1; stroke-dasharray: 3px, 3px; stroke-width: 2px;"/></g><g class="legendsymbols"><g class="legendpoints"/></g></g><rect class="legendtoggle" x="0" y="-9.5" width="180.171875" height="19" style="fill: rgb(0, 0, 0); fill-opacity: 0;"/></g></g></g><rect class="scrollbar" rx="20" ry="3" width="0" height="0" style="fill: rgb(128, 139, 164); fill-opacity: 1;" x="0" y="0"/></g><g class="g-gtitle"><text class="gtitle" x="48" y="40" text-anchor="start" dy="0em" style="font-family: 'Open Sans', verdana, arial, sans-serif; font-size: 17px; fill: rgb(42, 63, 95); opacity: 1; font-weight: normal; white-space: pre;">FPGA Power Consumption Over Time</text></g><g class="g-xtitle"><text class="xtitle" x="410" y="500.3" text-anchor="middle" style="font-family: 'Open Sans', verdana, arial, sans-serif; font-size: 14px; fill: rgb(42, 63, 95); opacity: 1; font-weight: normal; white-space: pre;">Time (seconds)</text></g><g class="g-ytitle"><text class="ytitle" transform="rotate(-90,39.41875,270)" x="39.41875" y="270" text-anchor="middle" style="font-family: 'Open Sans', verdana, arial, sans-serif; font-size: 14px; fill: rgb(42, 63, 95); opacity: 1; font-weight: normal; white-space: pre;">Power (W)</text></g><g class="annotation" data-index="0" style="opacity: 1;"><g class="annotation-text-g" transform="rotate(0,847.4,190.51999999999998)"><g class="cursor-pointer" transform="translate(747,182)"><rect class="bg" x="0.5" y="0.5" width="200" height="17" style="stroke-width: 1px; stroke: rgb(0, 0, 0); stroke-opacity: 0; fill: rgb(0, 0, 0); fill-opacity: 0;"/><text class="annotation-text" text-anchor="start" x="2" y="13" style="font-family: 'Open Sans', verdana, arial, sans-serif; font-size: 12px; fill: rgb(0, 0, 0); fill-opacity: 1; white-space: pre;">Mean Total Input Power: 63.82 W</text></g></g></g><g class="annotation" data-index="1" style="opacity: 1;"><g class="annotation-text-g" transform="rotate(0,846.9,292.23)"><g class="cursor-pointer" transform="translate(746,283)"><rect class="bg" x="0.5" y="0.5" width="201" height="17" style="stroke-width: 1px; stroke: rgb(0, 0, 0); stroke-opacity: 0; fill: rgb(0, 0, 0); fill-opacity: 0;"/><text class="annotation-text" text-anchor="start" x="2" y="13" style="font-family: 'Open Sans', verdana, arial, sans-serif; font-size: 12px; fill: rgb(0, 0, 0); fill-opacity: 1; white-space: pre;">Mean Total FPGA Power: 39.74 W</text></g></g></g></g></svg>