<svg class="main-svg" xmlns="http://www.w3.org/2000/svg" xmlns:xlink="http://www.w3.org/1999/xlink" width="1920" height="1080" style="" viewBox="0 0 960 540"><rect x="0" y="0" width="960" height="540" style="fill: rgb(255, 255, 255); fill-opacity: 1;"/><defs id="defs-e521cf"><g class="clips"><clipPath id="clipe521cfxyplot" class="plotclip"><rect width="660" height="380"/></clipPath><clipPath class="axesclip" id="clipe521cfx"><rect x="80" y="0" width="660" height="540"/></clipPath><clipPath class="axesclip" id="clipe521cfy"><rect x="0" y="80" width="960" height="380"/></clipPath><clipPath class="axesclip" id="clipe521cfxy"><rect x="80" y="80" width="660" height="380"/></clipPath></g><g class="gradients"/><g class="patterns"/></defs><g class="bglayer"><rect class="bg" x="80" y="80" width="660" height="380" style="fill: rgb(229, 236, 246); fill-opacity: 1; stroke-width: 0;"/></g><g class="layer-below"><g class="imagelayer"/><g class="shapelayer"/></g><g class="cartesianlayer"><g class="subplot xy"><g class="layer-subplot"><g class="shapelayer"/><g class="imagelayer"/></g><g class="minor-gridlayer"><g class="x"/><g class="y"/></g><g class="gridlayer"><g class="x"><path class="xgrid crisp" transform="translate(213.14,0)" d="M0,80v380" style="stroke: rgb(255, 255, 255); stroke-opacity: 1; stroke-width: 1px;"/><path class="xgrid crisp" transform="translate(346.3,0)" d="M0,80v380" style="stroke: rgb(255, 255, 255); stroke-opacity: 1; stroke-width: 1px;"/><path class="xgrid crisp" transform="translate(479.46,0)" d="M0,80v380" style="stroke: rgb(255, 255, 255); stroke-opacity: 1; stroke-width: 1px;"/><path class="xgrid crisp" transform="translate(612.62,0)" d="M0,80v380" style="stroke: rgb(255, 255, 255); stroke-opacity: 1; stroke-width: 1px;"/></g><g class="y"><path class="ygrid crisp" transform="translate(0,417.78)" d="M80,0h660" style="stroke: rgb(255, 255, 255); stroke-opacity: 1; stroke-width: 1px;"/><path class="ygrid crisp" transform="translate(0,375.56)" d="M80,0h660" style="stroke: rgb(255, 255, 255); stroke-opacity: 1; stroke-width: 1px;"/><path class="ygrid crisp" transform="translate(0,333.33000000000004)" d="M80,0h660" style="stroke: rgb(255, 255, 255); stroke-opacity: 1; stroke-width: 1px;"/><path class="ygrid crisp" transform="translate(0,291.11)" d="M80,0h660" style="stroke: rgb(255, 255, 255); stroke-opacity: 1; stroke-width: 1px;"/><path class="ygrid crisp" transform="translate(0,248.89)" d="M80,0h660" style="stroke: rgb(255, 255, 255); stroke-opacity: 1; stroke-width: 1px;"/><path class="ygrid crisp" transform="translate(0,206.67000000000002)" d="M80,0h660" style="stroke: rgb(255, 255, 255); stroke-opacity: 1; stroke-width: 1px;"/><path class="ygrid crisp" transform="translate(0,164.44)" d="M80,0h660" style="stroke: rgb(255, 255, 255); stroke-opacity: 1; stroke-width: 1px;"/><path class="ygrid crisp" transform="translate(0,122.22)" d="M80,0h660" style="stroke: rgb(255, 255, 255); stroke-opacity: 1; stroke-width: 1px;"/></g></g><g class="zerolinelayer"><path class="yzl zl crisp" transform="translate(0,460)" d="M80,0h660" style="stroke: rgb(255, 255, 255); stroke-opacity: 1; stroke-width: 2px;"/></g><path class="xlines-below"/><path class="ylines-below"/><g class="overlines-below"/><g class="xaxislayer-below"/><g class="yaxislayer-below"/><g class="overaxes-below"/><g class="plot" transform="translate(80,80)" clip-path="url(#clipe521cfxyplot)"><g class="scatterlayer mlayer"><g class="trace scatter trace690ff2" style="stroke-miterlimit: 2; opacity: 1;"><g class="fills"/><g class="errorbars"/><g class="lines"><path class="js-line" d="M0,128.21L0.52,125.87L0.79,128.81L1.06,128.39L1.32,126.43L1.59,131.05L2.12,129.01L2.39,128.56L2.66,124.75L2.93,128.41L3.19,132.64L3.99,124.39L4.26,129.41L4.52,128.7L4.79,129.91L5.05,129.57L5.87,129.78L6.12,131.42L6.39,129.08L6.93,129.22L7.19,128.77L7.45,126.09L7.74,129.88L7.99,127.84L8.25,132.93L8.52,117.53L9.05,130.05L9.32,129.2L10.12,129.47L10.39,111.09L11.19,104.75L11.45,110.2L12.25,105.37L12.52,107.73L12.79,109.41L13.05,107.49L13.32,105.6L13.58,101.41L13.85,106.59L14.12,104.58L14.38,108.46L14.67,105.13L14.92,107.42L15.19,108.65L15.73,105.35L15.98,110.84L16.79,105.15L17.05,109.48L17.6,105.45L17.85,107.42L18.12,108.54L18.38,112.31L18.66,106.68L18.92,109L19.18,109.79L19.45,106.89L19.72,106.12L19.98,111.94L20.25,104.59L20.78,108.61L21.05,109.08L21.32,109.77L21.6,108.06L22.12,106.92L22.38,113.27L22.66,109.39L23.18,111.34L23.45,109.27L23.72,109.16L23.98,109.93L24.53,106.76L24.78,111.4L26.12,105.35L26.38,109.02L26.91,105.93L27.18,113.27L28.52,103.22L28.78,108.63L29.04,105.58L29.31,110.03L29.59,108.44L29.85,104.58L30.11,108.83L30.38,109.41L30.91,102.84L31.18,105.91L31.46,103.8L32.52,107.46L32.78,103.03L33.04,111.34L33.58,107.69L33.84,108.46L34.11,104.96L34.39,107.09L34.65,108.27L35.18,112.71L35.45,104.26L35.98,110.78L36.52,110.57L36.78,107.67L37.04,105.54L37.32,106.08L37.57,108.44L38.39,102.45L38.64,109.79L38.91,110.76L39.18,105.73L39.45,104.55L39.71,105.73L39.97,105.68L40.24,106.24L40.51,102.85L40.78,103.24L41.04,106.7L41.58,103.03L41.84,107.67L42.11,108.84L42.38,108.15L42.64,105.08L43.17,110.43L43.44,105.99L43.71,108.07L43.97,106.53L44.25,110.18L44.51,108.87L45.04,109.02L45.32,110.7L45.57,106.47L45.84,107.61L46.11,112.91L46.38,106.62L46.64,113.08L46.91,109.06L47.19,110.34L47.71,106.45L47.97,109.17L48.25,114.03L48.5,108.17L49.04,108.5L49.31,112.46L49.84,106.41L50.11,110.26L50.37,111.78L51.18,99.74L51.44,113.25L51.7,106.06L52.24,108.36L52.5,111.48L53.04,106.16L53.31,112.65L53.84,112.77L54.12,107.09L54.37,108.25L54.64,109.56L55.18,111.15L55.43,105.37L55.7,116.13L56.5,105.93L56.77,113.04L57.3,108.06L57.57,109.41L57.83,110.93L58.37,107.09L58.64,108.27L58.9,109.81L59.18,106.99L59.7,108.33L59.97,107.88L60.77,109.43L61.05,107.69L61.3,109.23L61.57,106.08L61.83,109.62L62.37,108.21L62.63,108.65L62.9,103.44L63.17,109.54L63.43,108.84L64.23,107.9L64.5,108.65L65.05,108.46L65.3,107.7L65.57,107.69L65.83,109.62L66.11,110.18L66.37,107.09L66.9,109.21L67.17,108.07L67.43,108.48L67.7,108.46L67.98,109.81L68.76,108.63L69.04,110.34L69.3,110.85L69.56,109.62L70.1,109.06L70.36,107.09L70.63,106.29L70.9,110.01L71.16,107.69L71.43,109.25L71.7,110.41L71.98,104.4L72.23,111.34L72.49,110.57L72.76,105.93L73.3,107.67L73.56,107.3L73.83,108.54L74.36,108.25L74.63,107.86L74.91,106.72L75.16,108.07L75.43,108.83L75.7,107.3L76.23,107.49L76.49,108.61L77.03,107.22L77.29,109.27L77.56,109.62L77.83,108.63L78.1,108.27L78.36,103.82L78.63,109.02L79.16,108.06L79.43,106.33L80.23,109.41L80.49,107.67L81.03,107.49L81.29,110.01L81.56,104.98L82.36,108.84L82.63,104.75L83.16,108.83L83.42,108.75L83.69,104.92L84.77,109.62L85.03,108.07L85.29,108.48L85.56,105.95L85.84,104.98L86.09,107.94L86.36,109.02L86.62,108.46L86.9,105.04L87.16,111.18L87.42,108.06L87.69,105.56L88.77,109.48L89.02,105.89L89.29,105.73L89.56,108.52L89.83,105.5L90.09,105.91L90.35,108.25L90.89,107.01L91.16,108.63L91.71,107.67L91.95,106.1L92.49,107.07L92.77,108.61L93.02,104.96L93.29,106.08L93.56,108.84L93.83,109.11L94.09,108.75L94.35,107.65L94.89,112.4L95.16,105.93L95.42,105.42L95.7,109.17L96.49,106.32L96.76,108.33L97.02,111.5L97.29,107.11L97.55,110.57L97.82,110.7L98.09,112.29L98.35,104.85L99.15,111.42L99.42,107.19L99.7,106.78L99.95,107.84L100.22,108.48L100.48,105.5L101.29,110.26L101.55,109.41L101.82,108.63L102.35,109.08L102.63,110.88L103.15,109.23L103.42,111.78L103.69,105.93L103.95,108.63L104.22,114.84L104.48,101.81L105.01,105.72L105.28,103.99L105.55,109.47L106.08,106.35L106.35,104.36L106.63,106.14L106.88,104.98L107.15,112.32L107.95,107.84L108.22,107.46L109.56,109.5L109.81,106.72L110.08,102.84L110.35,103.59L110.63,109.97L110.88,113.85L111.15,107.69L111.41,108.83L112.48,106.16L112.75,106.53L113.02,110.37L113.28,107.67L113.56,107.09L113.81,104.77L114.08,112.5L114.88,106.89L115.15,107.3L115.41,106.7L115.68,104.77L116.21,105.52L116.5,107.32L117.01,107.67L117.28,106.12L117.56,107.07L117.81,107.09L118.08,103.99L118.34,102.04L118.62,105.73L118.88,105.31L119.15,106.92L119.41,106.33L119.68,111.36L120.49,104.96L120.74,108.07L121.01,106.14L121.28,104.59L121.55,107.69L122.08,103.17L122.34,108.44L122.62,105.56L123.14,105.75L123.43,110.2L123.94,103.99L124.21,106.68L124.49,107.67L124.74,107.11L125.01,104.19L125.55,111.42L125.81,107.69L126.08,106.53L126.34,106.53L126.61,108.65L126.87,107.69L127.14,107.9L127.42,110.57L127.67,103.44L128.21,106.29L128.49,109.6L128.74,111.75L129.01,111.55L129.27,108.46L129.81,104.98L130.07,110.55L130.61,104.58L130.87,111.15L131.14,111.92L131.42,107.47L131.67,103.2L131.94,109.41L132.21,110.01L132.74,105L133.01,101.1L133.54,109.02L133.8,106.29L134.07,105.52L134.61,110.84L134.87,108.42L135.14,105.73L135.42,103.18L135.67,112.75L136.74,101.04L137.01,109.21L137.54,104.01L137.8,110.95L138.6,101.11L138.87,105.42L139.14,108.46L139.41,105.64L139.67,104.96L139.94,105.75L140.2,109.02L141,104.13L141.28,110.49L141.54,102.08L142.07,106.72L142.35,111.61L142.87,103.96L143.14,110.93L144.2,103.2L144.47,111.32L144.74,106.28L145.28,108.25L145.54,107.55L145.8,106.49L146.07,107.28L146.34,109.6L146.6,110.95L146.87,105.89L147.67,111.92L147.93,109.02L148.2,104.96L148.47,108.83L148.73,112.64L149,105.27L149.53,107.4L149.8,106.37L150.86,113.62L151.13,109.02L151.4,107.07L151.67,110.18L151.93,111.86L152.21,106.89L152.73,108.61L153,110.76L153.27,110.91L153.53,102.49L154.6,109.58L154.86,108.06L155.15,108.23L155.4,112.5L156.21,105.73L156.46,112.31L157.53,106.32L157.8,105.91L158.06,109.23L158.33,107.28L158.6,103.71L159.14,107.46L159.39,111.71L159.66,112.09L159.93,107.07L160.2,101.08L160.46,108.81L160.73,109.2L161,109.47L161.26,111.78L162.08,104.91L162.33,109.62L162.59,106.53L162.86,108.03L163.14,111.72L163.93,106.12L164.2,108.44L164.46,105.41L164.73,108.83L165.01,107.46L165.26,105.13L165.53,105.13L165.79,109.02L166.33,104.96L166.86,106.14L167.13,107.84L167.39,110.57L167.66,104.34L167.92,103.59L168.19,114.55L169.01,105.73L169.26,109.41L169.79,105.85L170.07,107.28L170.32,107.69L170.59,108.06L170.86,110.01L171.13,106.32L171.39,111.92L171.66,107.92L171.94,109.43L172.19,107.69L172.46,108.44L172.72,110.43L173.52,104.38L173.79,108.56L174.32,106.87L174.59,108.03L174.86,107.07L175.94,109.68L176.19,108.83L176.72,107.67L177,108.25L177.25,109L177.52,106.49L178.06,107.59L178.32,108.44L178.59,109.81L178.87,106.08L179.12,108.63L179.65,108.44L179.93,108.06L180.19,108.06L180.45,109.98L180.72,101.65L180.99,106.29L181.25,108.57L181.79,100.98L182.05,103.96L182.32,107.86L182.87,102.51L183.12,105.68L183.38,106.32L183.65,108.25L183.93,103.49L184.19,109.95L184.72,106.64L184.99,103.94L185.25,103.18L185.52,107.07L186.05,101.41L186.32,106.2L186.59,107.69L186.86,107.32L187.12,100.3L187.65,108.69L187.92,104.94L188.18,103.38L188.45,101.68L188.74,110.28L188.99,99.13L189.52,106.22L189.8,106.49L190.05,109.7L190.32,105.6L190.58,104.19L190.86,109.77L191.12,106.64L191.38,102.58L191.92,114.59L192.18,106.2L192.45,104.26L192.73,109.77L193.25,109.5L193.52,107.96L193.79,107.82L194.05,113.56L194.85,106.68L195.11,108.25L195.38,109.43L195.91,111.34L196.18,111.15L196.45,107.61L196.73,108.23L196.98,106.68L197.51,113.56L197.79,109.98L198.05,107.28L198.31,106.32L198.58,108.63L199.12,109L199.91,107.67L200.18,108.84L200.45,111.48L200.72,108.98L200.98,107.84L201.51,108.83L201.78,108.07L202.05,107.67L202.31,107.67L202.58,109.41L202.84,109.41L203.11,107.4L203.66,108.84L203.91,108.44L204.18,112.31L204.45,107.84L204.98,109.47L205.24,107.47L205.51,108L205.78,106.89L206.05,106.49L206.31,105.35L206.59,107.82L207.11,110.95L207.38,106.68L207.65,108.07L208.18,106.89L208.44,106.29L208.71,109L208.98,107.09L209.24,106.68L210.04,108.06L210.31,106.89L210.59,113.64L211.11,108.63L211.38,106.53L211.91,107.65L212.17,103.78L212.44,110.18L212.98,107.86L213.24,106.32L213.52,104.58L213.77,110.78L214.58,106.49L214.84,108.25L215.11,108.23L215.37,103.82L215.64,108.06L215.91,108.44L216.17,107.67L216.45,108.19L216.71,102.84L217.24,109.04L217.52,103.8L217.77,104.94L218.04,104.98L218.31,108.83L218.58,110.04L218.84,107.07L219.39,112.62L219.64,106.89L219.91,111.92L220.45,109.02L220.71,109.23L221.24,110.2L221.51,108.89L222.04,109.29L222.57,103.53L222.84,106.92L223.1,110.97L223.39,109.62L223.64,107.28L223.91,107.69L224.17,105.75L224.7,108.63L224.97,107.47L225.24,106.35L225.77,113.12L226.04,110.8L226.32,104.94L226.57,109.02L227.1,107.47L227.38,107.3L227.9,107.51L228.44,105.64L228.7,108.27L228.97,108.54L229.23,103.67L229.5,102.25L229.77,107.67L230.03,107.2L230.32,100.75L231.1,111.36L231.38,103.94L231.63,104.44L231.9,106.92L232.7,98.87L232.97,109.1L233.5,104.19L233.77,107.15L234.03,109.16L234.57,99.53L234.83,102.22L235.1,107.09L235.37,106.28L235.63,100.54L235.9,99.69L236.17,111.8L236.7,102.33L236.97,105.58L237.25,109.54L237.76,102.52L238.03,103.44L238.31,112.19L238.83,101.54L239.1,107.9L239.37,110.78L239.9,103.55L240.18,108.27L240.43,110.51L240.7,111.59L240.97,104.23L241.5,111.5L242.03,109.85L242.3,109.02L242.56,111.34L242.83,107.01L244.18,109.04L244.43,108.63L244.7,109.08L244.96,107.82L245.24,107.61L245.5,108.06L245.76,110.95L246.83,106.68L247.11,106.89L247.63,109.62L247.9,108.84L248.17,106.29L248.43,109.39L248.96,107.86L249.23,108.06L249.49,108.06L249.76,108.94L250.03,107.88L250.56,108.27L250.83,109.04L251.11,107.3L251.63,108.06L251.89,107.69L252.17,110.93L252.43,107.51L252.69,109.41L252.96,107.61L253.23,106.83L253.49,107.69L253.76,108.48L254.04,109.04L254.29,108.27L254.56,107.47L255.62,109.68L255.89,110.57L256.16,109.02L256.43,101.65L256.96,109.23L257.23,107.22L257.49,106.83L258.04,107.82L258.29,106.26L259.36,108.84L259.62,107.69L259.89,107.09L260.16,103.63L261.22,111.94L261.49,104.58L261.75,102.64L262.03,107.43L262.56,106.7L262.82,110.95L263.1,109.62L263.62,105.29L263.89,108.46L264.16,107.09L264.42,109.02L264.69,107.38L264.97,107.55L265.22,106.53L265.49,108.84L265.75,108.44L266.03,111.55L266.29,111.75L266.55,107.8L266.82,108.52L267.09,104.96L267.35,100.77L267.62,108.83L267.89,110.18L268.15,107.86L268.42,103.34L268.97,107.3L269.22,111.15L270.55,102.3L270.82,101.87L271.09,111.92L271.62,106.55L271.89,110.58L272.96,106.33L273.22,108.06L273.48,105.97L273.75,110.76L274.02,110.18L274.28,105.08L274.55,106.51L274.82,101.11L275.35,110.01L275.62,109.48L275.9,104.28L276.42,108.23L276.68,107.34L276.96,98.91L277.48,108.06L277.75,100.21L278.02,100.96L278.55,108.67L278.81,99.64L279.61,109.98L279.9,102.06L280.15,100.94L280.42,109.79L280.68,109.02L280.96,103.24L281.21,100.81L281.48,107.24L281.75,109.91L282.02,102.89L282.55,101.79L282.83,108.17L283.61,100.36L283.89,109.43L284.41,100.94L284.68,104.19L284.95,106.7L285.48,102L285.75,111.32L286.02,110.45L286.28,104.25L286.55,100.51L286.83,107.05L287.08,110.16L287.35,105.25L287.61,100.19L288.14,109.6L288.41,105.27L288.68,103.09L288.95,103.59L289.21,106.97L289.48,101.77L289.76,109.41L290.01,110.18L290.28,110.57L290.54,105.02L290.82,105.02L291.08,106.14L291.35,109.29L291.61,105.58L291.89,102.85L292.41,113.04L292.68,109.21L292.95,106.45L293.21,111.22L293.48,107.42L293.76,105.93L294.54,112.44L294.82,106.92L295.88,109.74L296.14,109.85L296.68,111.59L296.94,106.51L297.21,110.39L297.48,110.18L297.76,107.09L298.01,110.57L298.54,109.35L298.82,110.39L299.07,102.27L299.61,108.63L299.88,106.29L300.14,104.05L300.41,109.47L301.21,104.59L301.48,107.63L302.27,109.02L302.54,109.35L302.81,109.64L303.07,108.09L303.88,108.67L304.14,108.23L304.41,107.9L304.94,107.2L305.2,107.69L305.47,108.02L306.27,107.9L306.54,107.7L306.81,107.32L307.07,108.06L307.34,108L307.62,109.81L308.14,108.3L308.41,107.88L309.47,108.07L309.74,107.51L310.81,108.46L311.07,106.92L311.61,107.67L311.87,106.64L312.4,108.23L312.68,105.95L313.2,109.98L313.47,107.46L313.74,108.44L314,107.9L314.27,105.15L315.34,108.06L315.61,107.78L316.67,108.09L316.93,105.78L317.74,109.04L318,108.19L318.8,107.49L319.07,102.58L319.61,112.89L319.87,109.68L320.13,108.02L320.93,109.98L321.2,105.18L322.26,108.46L322.54,103.01L323.33,107.88L323.61,98.77L324.13,108.27L324.4,99.99L325.2,110.45L325.48,102L325.73,100.71L326,108.63L326.54,99.04L326.8,101.71L327.06,108L327.6,100.27L327.86,106.93L328.4,105.58L328.66,101.15L328.93,100.38L329.19,109.58L329.73,100.27L330,104.28L330.26,106.68L330.54,108.38L330.79,101.35L331.33,110.93L331.6,107.51L331.86,104.09L332.13,96.86L332.41,109.41L332.66,102.76L332.93,104.69L333.47,105.19L333.99,101.19L334.26,106.2L334.79,109.97L335.06,103.11L335.86,110.01L336.13,103.55L336.41,108.46L336.93,108.17L337.19,102.64L337.99,110.63L338.26,106.43L338.79,111.94L339.06,106.66L340.12,109.25L340.4,108.06L340.66,108.46L340.92,107.67L341.19,108L341.47,105.87L341.72,108.29L341.99,108.21L342.25,104.92L343.06,111.98L343.34,109.33L343.86,107.4L344.12,107.88L344.4,110.74L345.19,105.93L345.46,107.4L345.72,109.02L345.99,105.19L346.25,110.41L346.52,110.39L347.34,105.93L347.59,109.79L348.4,108.46L348.65,106.12L348.92,105.37L349.19,108.19L349.72,109.04L349.99,108.25L350.25,104.52L350.78,103.8L351.33,112.85L351.59,109.41L352.39,106.53L352.65,108.07L352.92,101.81L353.18,106.62L353.45,108.96L353.72,109.44L353.99,108.63L354.27,108.84L354.52,110.39L354.78,103.82L355.05,107.3L355.33,101.21L355.58,107.8L356.12,107.3L356.39,107.63L356.65,111.57L356.92,107.34L357.18,108.21L357.45,109.06L357.72,108.94L357.98,107.78L358.26,111.53L358.52,108.84L358.78,106.2L359.32,107.67L359.58,106.24L359.85,104.81L360.12,107.3L360.39,107.49L360.65,105L360.92,111.07L361.2,105.85L361.71,109L361.98,108.25L362.52,106.26L362.78,106.51L363.05,108.25L363.32,111.34L363.58,109.23L363.85,106.51L364.38,107.24L364.65,104.91L365.45,108.29L365.71,107.09L365.98,107.73L366.26,106.16L366.51,104.38L366.78,107.3L367.05,106.33L367.58,109.16L367.85,104.15L368.64,107.67L368.91,106.33L369.19,103.92L369.45,109.04L370.26,104.79L370.51,108.89L370.78,109.71L371.04,100.24L371.32,99.03L371.58,108.96L372.13,97.79L372.38,104.65L372.64,108.3L372.91,107.7L373.19,96.71L373.98,108.29L374.25,99.26L374.51,99.78L374.78,107.3L375.31,98.58L375.58,105.91L375.84,106.49L376.64,100.17L376.91,104.54L377.19,102.84L377.44,104.19L377.71,96.75L377.97,105.85L378.51,101.06L378.78,98.26L379.04,106.93L379.57,100.38L379.84,100.48L380.12,113.19L380.37,101.46L380.64,99.94L380.91,98.2L381.19,105.56L381.44,107.15L381.71,98.93L382.51,107.82L382.77,97.93L383.31,108.75L383.57,106.82L383.84,105.33L384.37,108.63L384.64,108.03L384.91,106.72L385.44,104.38L385.7,105.39L385.97,105.75L386.77,112.27L387.04,109.37L387.84,107.13L388.12,109.16L388.37,107.61L388.64,108.11L388.9,110.12L390.24,105.35L390.5,108.13L391.57,105.08L391.84,108.25L392.11,109.93L392.37,106.92L392.63,106.95L393.18,105.87L393.44,112.11L394.24,105.29L394.5,108.89L394.77,108.84L395.05,107.88L395.3,107.03L395.57,112.11L396.37,105.69L396.63,107.73L396.9,109.97L397.44,107.09L397.7,109.02L397.97,108.06L399.05,103.22L399.3,105.46L399.57,103.57L399.84,103.92L400.11,105.33L400.9,110.35L401.17,105.5L401.43,105.93L401.7,105.1L401.97,108.71L402.5,104.59L402.77,109.21L403.3,106.29L403.56,106.74L403.83,107.46L404.11,105.35L404.37,108.52L404.63,106.89L404.9,105.58L405.96,108.9L406.23,106.93L406.5,105L406.76,105.69L407.04,108.81L407.83,103.94L408.11,106.28L408.63,105.73L408.9,109.83L409.17,108.38L409.43,106.35L409.69,110.12L409.96,109.54L411.3,105.99L411.56,109.58L411.83,106.72L412.1,108.11L412.36,112.69L413.16,105.52L413.43,109.47L413.96,110.35L414.23,105.69L414.49,109.66L415.04,101L415.29,105.21L415.56,105.93L415.83,110.01L416.36,109.6L416.63,114.62L416.89,95.9L417.43,107.82L417.69,103.01L417.96,103.51L418.22,107.3L418.49,109.6L418.76,106.29L419.04,98.43L419.29,109.06L419.82,108.77L420.1,96.82L420.36,107.65L420.89,100.44L421.16,96.44L421.69,109.08L421.97,102.49L422.22,96.96L422.76,108.06L423.03,101.97L423.29,99.37L423.82,110.47L424.1,98.74L424.36,97.48L424.62,102.24L424.89,105.83L425.16,101.56L425.42,99.37L425.69,97.56L425.97,104.28L426.22,102.95L426.49,97.33L427.03,107.82L427.29,100.15L427.55,99.16L427.82,108.44L428.35,105L428.62,95.65L429.15,108.06L429.42,104.67L429.69,95.39L430.22,107.84L430.49,103.84L430.75,104.26L431.29,112.59L431.55,107.19L431.82,110.82L432.09,112.89L432.35,105.72L432.62,102.43L432.89,108.29L433.15,107.88L433.42,107.76L433.68,109.7L434.22,106.16L434.49,111.03L434.75,104.81L435.29,108.6L435.55,106.66L435.82,108.42L436.09,107.3L436.35,101.87L437.15,108.29L437.42,107.43L437.68,107.43L437.96,108.44L438.75,106.56L439.02,108.61L439.29,108.98L439.55,107.9L439.82,107.22L440.35,107.67L440.62,108.44L441.15,106.26L441.42,108.63L441.68,108.19L441.96,103.39L442.75,109.79L443.02,106.28L443.55,107.4L443.82,106.05L444.08,109.97L444.35,102.6L444.9,109.77L445.15,109.44L445.41,106.72L445.68,111.69L445.96,106.56L446.21,105.69L446.48,109.2L446.75,107.84L447.02,104.73L447.55,104.04L447.81,108.83L448.08,106.82L448.35,105.72L448.61,110.8L449.41,103.65L449.68,107.43L449.95,103.39L450.21,108.5L450.48,105.35L450.75,105.04L451.28,107.82L451.55,103.96L452.61,110.7L452.89,103.96L453.14,108.79L453.68,107.88L453.95,107.34L454.21,107.32L454.48,111.15L455.28,105.97L455.54,107.03L455.82,103.26L456.08,110.82L456.61,104.59L456.89,107.61L457.14,107.82L457.41,108.98L457.67,108.02L457.95,106.55L458.21,101.44L458.47,108.87L458.74,109.83L459.01,107.82L459.28,108.5L459.54,109.76L460.34,103.59L460.61,107.26L460.88,108.61L461.14,108.21L461.41,107.28L461.67,104.55L461.95,109.2L462.21,108.89L462.47,108.46L462.74,104.31L463.01,107.9L463.54,107.43L463.82,107.65L464.61,107.26L464.88,109.6L465.14,108.98L465.41,110.95L465.67,98.49L466.2,103.8L466.47,103.84L466.74,96.28L467,96.82L467.27,107.51L467.54,106.56L467.82,95.57L468.6,111.11L468.88,100.67L469.14,100.71L469.4,109.37L470.2,95.01L470.47,108.11L471,94.99L471.27,100.03L471.54,106.45L472.07,98.26L472.6,100.98L472.88,102.64L473.14,102L473.4,98.54L473.67,110.58L473.94,109.47L474.2,95.41L474.47,99.07L474.75,114.82L475.27,100.24L475.54,100.3L475.81,109.74L476.07,112.09L476.33,101.68L476.87,106.74L477.13,104.15L477.4,100.36L478.2,110.22L478.47,98.77L479,111.09L479.27,110.1L479.53,102.25L480.07,106.68L480.33,110.66L480.87,106.7L481.13,108.61L481.4,109.27L481.66,108.06L482.2,109L482.46,110.12L483.27,103.96L483.53,108.29L483.81,109.98L484.06,105.33L484.6,110.24L484.87,108.61L485.13,105.91L485.4,108.3L485.93,107.67L486.2,106.93L486.46,109.6L486.74,108.67L487,106.64L487.26,108.29L487.81,107.28L488.06,105.72L488.33,112.34L488.87,107.47L489.13,110.93L489.68,103.01L489.93,106.55L490.19,107.28L490.46,107.73L490.74,107.51L491,110.18L491.26,110.63L491.53,103.14L491.8,111.13L492.33,106.95L492.59,108.61L492.86,107.84L493.13,109.08L493.4,109.08L493.93,109.62L494.2,102.25L494.46,107.26L494.74,107.9L494.99,104.04L495.26,108.23L495.8,107.7L496.06,105.02L497.39,110.14L497.68,106.12L498.46,108.13L498.74,107.11L498.99,107.46L499.26,105.91L500.33,109.6L500.59,105.91L500.86,106.49L501.12,104.36L501.39,110.93L501.92,107.47L502.19,106.51L502.73,105.13L502.99,103.05L503.52,110.57L504.06,109.62L504.32,109.27L505.67,101.85L505.92,105.62L506.99,109.23L507.26,107.13L507.8,107.73L508.05,104.17L508.32,106.87L508.59,109.37L508.86,103.57L509.39,110.04L509.67,108.48L509.92,106.53L510.73,109.2L510.99,109L511.25,108.21L511.79,100.75L512.05,103.45L512.32,110.37L512.59,94.68L512.86,107.84L513.12,107.82L513.39,107.9L513.67,95.14L514.19,108.46L514.45,106.49L514.73,96.8L515.25,103.18L515.52,100.71L515.79,94.06L516.05,95.65L516.32,108.83L516.85,95.71L517.12,103.38L517.39,107.46L517.92,98.89L518.19,99.41L518.45,108.15L518.98,88.75L519.25,97.31L519.52,112.07L520.05,94.51L520.32,102.22L520.58,111.13L521.38,97.85L521.66,112.62L522.45,91.66L522.72,112.09L523.25,99.2L523.52,108.83L523.79,111.72L524.05,109.43L524.32,99.1L524.85,106.66L525.11,102.16L525.38,98.7L526.18,105.52L526.45,97.42L527.25,110.1L527.51,110.04L527.79,108.46L528.05,108.02L528.32,106.02L528.6,110.26L529.11,107.84L529.38,109.87L530.18,106.55L530.45,110.97L530.98,106.32L531.25,108.27L531.51,107.7L531.78,109.58L532.05,108.13L532.31,106.74L532.59,109.39L532.85,108.25L533.11,107.05L533.38,108.21L533.66,107.3L533.91,106.53L534.18,109.27L534.72,107.11L534.98,108.3L535.51,106.56L535.78,107.7L536.84,108.73L537.11,106.68L538.72,110.95L538.98,102.41L539.24,109.39L539.78,103.76L540.04,106.41L540.31,106.49L540.59,115.07L541.11,129.88L541.38,129.55L541.65,127.09L541.91,129.72L542.18,129.66L542.44,127.17L543.24,129.57L543.51,128.58L543.78,128.17L544.04,129.78L544.59,127.94L545.11,128.47L545.38,128.74L545.65,125.08L545.91,130.55L546.17,130.18L546.44,129.88L546.71,132.29L546.97,125.68L547.53,126.69L547.77,128.93L548.04,129.82L548.31,125.16L549.1,128.71L549.37,126.07L549.65,130.18L549.91,125.49L550.17,129.72L550.44,126.78L550.97,125.24L551.24,129.1L551.52,125.89L551.77,128.93L552.04,129.8L553.1,125.6L553.37,130.55L553.64,132.91L553.9,129.02L554.17,125.14L554.97,130.71L555.24,129.18L555.52,128.95L555.77,127.48L556.04,131.71L556.3,127.06L556.84,128L557.1,131.04L557.37,131.32L557.64,129.34L558.17,128.95L558.45,127.54L558.7,123.67L558.97,127.92L559.24,127.94L560.3,125.45L560.58,126.86L561.37,134.05L561.64,126.7L562.17,128.17L562.45,133.37L562.97,126.4L563.24,129.88L563.51,129.8L564.3,126.09L564.57,128.33L564.83,128.71L565.1,126.09L565.9,129.01L566.17,127.87L566.7,129.16L566.97,128.7L567.23,128.39L567.5,128.15L567.77,129.01L569.1,124.87L569.38,133.97L570.17,122.84L570.44,127.25L570.7,128.77L570.97,133.05L571.23,121.68L571.5,130.51L572.03,129.41L572.3,129.1L572.56,129.58L572.83,128.02L573.1,130.34L573.63,128.97L573.9,128.62L574.16,126.69L574.44,128.77L574.7,128.77L574.96,127.23L575.23,129.41L575.5,130.11L575.76,130.55L576.03,129.01L576.31,129.93L576.56,129.47L576.83,127.17L577.09,127.19L577.37,129.78L577.9,128.98L578.16,129.93L578.43,129.85L578.7,127.98L578.96,129.93L579.24,129.78L579.49,126.3L579.76,128.23L580.03,124.69L581.09,131.48L581.37,128.93L581.63,128.93L581.89,127.79L582.43,130.34L582.7,125.29L583.49,130.9L583.76,128.25L584.3,130.71L584.56,128.75L584.83,128.79L585.36,127.77L585.63,130.49L586.96,126.46L587.24,128.62L587.76,129.8L588.02,125.86L588.56,125.24L588.82,129.18L589.09,126.63L589.36,129.41L589.63,130.96L589.89,123.94L590.42,127.98L590.69,128L590.96,126.47L591.23,133.22L591.76,128.25L592.29,128.31L592.55,130.24L592.82,131.09L593.11,128.23L593.36,130.57L593.89,129.41L594.17,126.76L594.42,133.8L594.95,128.39L595.23,128.54L596.55,129.14L596.82,129.84L597.36,128.11L597.89,128.54L598.16,128.31L598.69,129.16L598.95,128.15L599.23,129.78L599.75,128.6L600.04,128.37L600.29,130.72L600.82,129.55L601.1,128.62L601.35,131.65L601.89,130.94L602.16,129.47L602.42,127.92L602.69,129.16L602.95,129.72L603.22,129.78L603.49,129.01L603.75,130.45L604.03,129.16L604.29,127.17L604.55,129.85L605.1,128.23L605.35,127.84L605.62,126.3L605.88,129.55L606.16,128.02L606.42,130.34L606.68,122.9L607.22,132.48L607.48,127.01L607.75,127.38L608.03,131.4L608.55,130.71L608.82,128.31L609.09,128.54L609.35,127.07L609.62,123.9L609.88,127.56L610.15,129.49L610.68,126.4L610.97,130.18L611.22,131.32L611.48,126.67L612.28,131.44L612.55,127.17L613.09,126.63L613.35,131.73L613.62,127.42L614.15,132.19L614.41,131.09L614.68,128L615.75,130.94L616.02,128.39L616.28,127.17L616.55,131.48L616.81,131.67L617.09,129.78L618.15,126.01L618.41,130.26L618.68,132.27L618.96,126.24L619.21,128.23L619.48,128.15L619.75,125.53L620.54,129.08L620.81,127.44L621.61,132.48L621.89,125.24L622.68,133.8L622.96,131.32L623.21,126.69L623.48,129.35L623.74,123.65L624.28,130.24L624.54,126.41L624.83,126.22L625.08,131.32L625.61,128.6L625.89,128.75L626.14,123.65L626.68,126.46L626.95,129.8L628.01,122.92L628.28,132.68L628.54,125.27L628.82,128.17L629.08,131.34L629.88,126.84L630.14,128.71L630.41,132.18L631.47,126.55L631.74,129.88L632.01,129.47L632.27,131.79L632.54,127.54L633.08,130.86L633.34,130.96L633.61,130.86L633.88,127.6L634.67,132.43L634.94,128.98L635.47,126.7L635.75,129.16L636.01,129.12L636.27,130.63L637.07,125.86L637.34,130.57L637.61,129.88L638.14,130.26L638.4,126.46L638.67,123.15L638.94,127.38L639.21,127.46L640.27,133.33L640.54,131.02L641.07,132.89L641.34,126.24L641.6,127.15L641.87,130.32L642.14,122.14L642.69,129.39L643.2,128.64L643.47,127.01L644.27,128.71L644.53,127.09L644.81,131.75L645.34,130.55L645.6,129.12L646.14,128.71L646.4,129.16L646.68,129.41L647.47,128.64L647.74,130.24L648,128.33L648.53,128.93L648.81,129.78L649.07,127.77L649.62,129.1L649.87,129.16L650.93,125.47L651.2,131.34L651.47,131.5L651.74,127.94L652.8,133.97L653.07,126.69L653.33,130.17L653.87,129.18L654.13,129.12L654.4,130.65L654.67,128.23L654.93,126.69L655.46,125.6L655.74,131.81L656,131.42L656.27,127.23L656.8,125.86L657.07,127.84L657.33,127.83L657.61,126.84L657.86,131.09L658.13,127.54L658.4,127.38L658.93,129.39L659.2,128.95L659.46,128.33L659.73,129.08L660,127.61" style="vector-effect: none; fill: none; stroke: rgb(0, 0, 255); stroke-opacity: 1; stroke-width: 2px; opacity: 1;"/></g><g class="points"/><g class="text"/></g><g class="trace scatter tracee836a9" style="stroke-miterlimit: 2; opacity: 1;"><g class="fills"/><g class="errorbars"/><g class="lines"><path class="js-line" d="M0,218.46L8.25,218.5L8.52,214.73L9.32,218.63L9.59,218.5L10.12,218.57L10.39,216.27L10.92,212.72L11.19,215.17L11.45,212.64L11.99,212.62L12.25,215.48L13.05,212.62L13.32,214.22L14.12,212.62L14.38,212.62L17.85,212.6L18.12,212.93L27.46,212.56L27.71,212.68L31.18,212.6L31.46,212.54L34.65,212.87L34.91,212.79L35.18,212.14L35.71,212.66L35.98,212.62L36.24,212.18L36.52,212.64L36.78,212.87L38.39,212.31L38.64,212.54L41.58,212.77L41.84,212.64L42.11,212.12L42.64,212.62L42.91,212.54L43.17,212.12L43.71,212.58L43.97,212.79L44.25,212.18L44.77,212.64L45.04,212.29L47.44,212.37L47.71,211.77L47.97,214.84L48.5,212.33L48.77,211.04L49.04,215.48L49.57,212.6L49.84,210.51L50.11,214.16L50.64,213.06L50.9,211.04L51.7,213.93L51.97,212.62L53.04,212.68L53.31,212.62L54.12,212.6L54.37,212.79L55.18,212.72L55.43,212.89L55.7,212.41L56.24,212.77L56.5,212.62L57.83,212.35L58.11,212.83L58.9,212.64L59.18,212.85L60.24,212.6L60.5,212.6L82.36,212.89L82.63,211.55L83.42,212.83L83.69,211.81L84.49,212.6L84.77,212.08L85.29,212.74L85.56,211.94L86.36,212.66L86.62,212.21L86.9,212.27L87.42,212.62L87.69,212.21L87.96,212.19L89.29,212.64L89.56,211.58L90.35,212.64L90.62,211.75L91.42,212.62L91.71,211.75L92.22,211.31L92.49,212.68L93.29,209.95L93.56,215.3L94.35,209.1L94.62,214.18L95.42,209.04L95.7,212.83L95.95,212.69L96.22,209.49L97.02,213.28L97.29,210.14L97.55,212.72L98.09,212.58L98.35,210.38L98.64,212.77L99.15,211.98L99.42,212.64L99.7,212.68L99.95,211.77L100.22,211.77L100.48,212.58L101.29,212.02L101.55,212.62L101.82,212.77L102.09,211.98L102.63,212.56L102.88,212.66L103.15,211.9L103.42,212.83L103.69,212.66L104.22,211.92L104.48,212.77L105.01,212.68L105.28,211.9L106.35,212.91L106.63,212.72L113.28,212.64L113.56,212.68L114.62,212.52L114.88,212.58L115.94,212.85L116.21,212.93L117.28,212.64L117.56,212.58L119.68,212.56L119.94,212.83L121.28,212.56L121.55,212.6L125.81,212.6L126.08,212.85L130.61,212.58L130.87,212.64L131.14,212.56L131.42,211.38L131.94,212.68L132.21,211.21L132.48,210.98L132.74,212.58L133.01,212.56L133.27,211.25L133.54,211.01L133.8,212.54L134.07,212.6L134.36,211.21L134.61,211.34L134.87,212.91L135.14,210.38L135.67,211.44L135.94,212.75L136.2,210.86L136.74,211.75L137.01,212.96L137.27,210.67L137.8,212L138.07,212.83L138.35,210.92L138.87,212.04L139.14,211.73L139.41,210.94L139.67,212.23L139.94,212.14L140.48,210.88L140.74,211.94L141,212.19L141.54,210.84L141.8,211.96L142.35,212.45L142.6,210.84L143.41,213.32L143.67,210.98L143.93,211.13L144.2,214.26L144.47,213.89L144.74,211.04L145,209.97L145.28,215.09L145.54,214.8L145.8,211.05L146.6,214.92L146.87,210.86L147.4,214.34L147.67,213.88L147.93,211.58L148.73,212.93L149,212.58L150.07,212.62L150.34,212.83L151.4,212.64L151.67,212.83L153.27,212.68L153.53,212.66L154.6,212.66L154.86,212.66L179.39,212.62L179.65,211.75L180.45,213.02L180.72,211.52L181.25,212.74L181.52,212.66L181.79,211.13L182.05,212.89L182.32,212.83L182.59,210.57L182.87,210.17L183.12,212.69L183.38,212.87L183.65,210.34L183.93,209.24L184.19,212.89L184.45,212.56L184.72,210.67L184.99,208.44L185.25,212.69L185.52,212.87L185.8,210.61L186.05,207.77L186.32,212.6L186.59,210.67L186.86,210.3L187.12,207.05L187.38,212.41L187.92,211.48L188.18,207.05L188.99,212.42L189.25,206.82L190.05,211.77L190.32,207.24L190.58,212.74L191.12,211.19L191.38,207.48L191.65,212.6L192.18,211.09L192.45,208.21L192.73,212.87L193.25,211.07L193.52,212.66L193.79,212.64L194.05,210.82L194.31,211.05L194.58,212.69L194.85,212.6L195.11,210.92L195.38,211.09L195.65,212.56L195.91,212.62L196.18,211.07L196.98,212.58L197.25,210.8L197.79,212.79L198.05,212.62L198.31,210.9L198.58,212.72L199.12,212.56L199.38,211.9L200.45,212.6L200.72,212.64L205.78,212.58L206.05,212.62L211.11,212.58L211.38,212.58L214.58,212.56L214.84,212.62L226.83,212.52L227.1,207.61L227.9,212.54L228.17,206.94L228.44,212.68L228.97,212.56L229.23,206.55L230.03,212.54L230.32,206.28L230.57,211.88L230.83,211.65L231.1,206.09L231.38,205.85L231.63,211.42L231.9,211.4L232.17,206.1L232.44,205.93L232.7,211.19L232.97,211.19L233.25,206.05L233.5,206.07L233.77,210.88L234.03,210.49L234.31,206.3L234.57,206.3L234.83,210.55L235.1,210.3L235.37,206.69L235.63,206.82L235.9,210.47L236.17,210.63L236.43,207.21L236.7,207.4L236.97,210.47L237.25,210.24L237.5,207.79L237.76,208.08L238.03,212.27L238.83,208.46L239.1,212.54L239.63,208.79L239.9,209.03L240.18,212.52L240.7,209.2L240.97,212.62L241.24,212.58L241.5,210.41L241.76,209.33L242.03,212.68L242.3,212.62L242.56,211.59L242.83,209.3L243.1,212.64L243.37,212.42L243.63,213.04L244.18,212.6L244.43,212.72L244.7,213.99L244.96,212.62L245.24,212.66L245.5,212.56L245.76,214.36L246.03,212.37L246.56,212.6L246.83,214.61L247.11,212.37L247.63,212.58L247.9,212.66L248.69,212.39L248.96,212.62L258.04,212.66L258.29,212.45L259.89,212.56L260.16,212.56L271.62,212.66L271.89,211.69L272.42,212.58L272.68,211.46L272.96,211.46L273.22,212.6L273.48,212.6L273.75,211.31L274.02,211.07L274.28,212.62L274.55,212.6L274.82,211.05L275.09,210.76L275.35,212.5L275.62,212.56L275.9,210.61L276.15,210.59L276.42,212.58L276.68,205.58L277.22,210.49L277.48,212.54L277.75,206.1L278.28,210.59L278.55,212.56L278.81,206.12L279.35,210.51L279.61,210.11L279.9,206.74L280.15,210.59L280.42,210.44L280.68,210.01L280.96,207.13L281.48,210.32L281.75,210.09L282.02,207.83L282.55,210.53L282.83,210.14L283.08,208.08L283.35,210.53L283.89,209.9L284.15,208.5L284.95,211.32L285.21,208.79L286.02,211.92L286.28,208.85L286.55,209.3L286.83,213.32L287.08,213.24L287.35,208.93L288.14,214.8L288.41,208.95L288.95,215.05L289.21,214.82L289.48,208.66L290.28,213.39L290.54,212.52L294.01,212.39L294.28,212.56L297.21,212.58L297.48,212.83L300.69,212.52L300.94,212.62L302.01,212.68L302.27,212.6L319.07,212.75L319.33,210.49L319.87,212.79L320.13,212.68L320.4,210.49L321.2,212.87L321.47,210.53L322,212.87L322.26,210.57L322.54,210.28L322.8,212.83L323.06,212.75L323.33,210.13L323.61,209.91L323.86,212.83L324.13,212.52L324.4,209.97L324.67,210.13L324.93,212.81L325.2,212.54L325.48,209.85L325.73,209.68L326,212.77L326.26,207.86L326.8,209.37L327.06,212.68L327.33,208.13L327.86,208.85L328.13,212.58L328.4,207.96L328.93,208.44L329.19,212.48L330,207.67L330.26,213.89L331.06,206.78L331.33,215.21L332.13,206.03L332.41,214.18L332.93,205.89L333.19,213.33L333.47,213.16L333.99,205.58L334.26,212.69L334.53,212.46L334.79,209.35L335.06,205.1L335.33,212.58L335.59,212.79L335.86,209.84L336.13,210.28L336.41,212.56L336.66,212.75L336.93,210.71L337.47,212.75L337.72,212.6L337.99,210.36L338.26,212.75L338.79,212.64L339.06,210.11L339.86,212.62L340.12,212.54L347.05,212.56L347.34,212.27L348.65,212.66L348.92,212.31L349.99,212.56L350.25,212.54L357.45,212.58L357.72,212.29L359.05,212.56L359.32,212.46L365.71,212.56L365.98,210.49L366.51,212.64L366.78,212.54L367.05,210.34L367.85,212.64L368.11,210.05L368.64,212.54L368.91,212.39L369.19,210.05L369.71,212.5L369.98,210.09L370.26,210.07L370.51,212.54L370.78,212.54L371.04,210.11L371.32,210.05L371.58,212.54L371.84,212.42L372.13,210.11L372.38,210.18L372.64,212.64L372.91,204.33L373.44,210.14L373.71,212.58L373.98,204.46L374.51,210.05L374.78,212.48L375.04,205.12L375.58,210.05L375.84,212.48L376.13,205.56L376.64,209.93L376.91,208.95L377.19,206.05L377.44,206.28L377.71,208.93L377.97,210.45L378.25,206.94L378.51,206.94L378.78,207.83L379.04,211.61L379.31,207.11L379.57,207.13L379.84,206.9L380.12,213.14L380.37,207.36L380.64,207.4L380.91,212.58L381.19,214.53L381.44,207.36L381.71,207.4L381.97,212.48L382.25,215.15L382.51,207.57L382.77,207.36L383.04,212.5L383.31,214.57L383.57,207.69L383.84,207.67L384.12,212.48L384.37,213.1L384.64,208.02L385.44,212.77L385.7,208.71L386.25,212.74L386.5,212.6L386.77,210.09L387.04,212.69L387.57,212.54L387.84,212.62L390.77,212.52L391.05,212.54L393.7,212.5L393.97,212.31L395.3,212.56L395.57,212.31L396.9,212.48L397.17,212.5L398.5,212.33L398.77,212.58L402.5,212.35L402.77,212.66L405.43,212.41L405.7,212.56L414.49,212.56L414.76,210.36L415.29,212.64L415.56,212.58L415.83,210.3L416.63,212.56L416.89,209.97L417.69,212.56L417.96,210.17L418.22,210.07L418.49,212.5L418.76,203.81L419.29,210.05L419.56,212.6L419.82,203.59L420.36,210.05L420.62,212.29L420.89,203.71L421.42,210.03L421.69,212.56L421.97,203.96L422.49,209.6L422.76,208.44L423.03,203.98L423.29,209.33L423.56,209.64L423.82,208.71L424.1,204.27L424.62,209.66L424.89,208.48L425.16,204.41L425.42,209.2L425.97,208.77L426.22,204.69L426.76,209.8L427.03,209.78L427.29,204.89L428.09,209.9L428.35,205.43L429.15,211.19L429.42,205.62L429.69,206.7L429.97,212.08L430.22,212.27L430.49,206.2L431.29,213.41L431.55,206.49L432.35,214.78L432.62,206.74L433.42,214.57L433.68,212.58L434.22,212.56L434.49,213.74L435.29,212.29L435.55,212.52L436.89,212.62L437.15,212.62L460.34,212.58L460.61,210.74L461.41,212.64L461.67,210.51L462.47,212.64L462.74,210.11L463.01,212.64L463.27,212.58L463.54,210.3L463.82,210.17L464.07,212.6L464.34,212.31L464.61,210.11L464.88,209.78L465.14,212.5L465.41,212.54L465.67,209.87L465.94,209.81L466.2,212.56L466.47,212.58L466.74,203.38L467.27,212.54L467.54,203.38L467.82,203.71L468.07,210.14L468.34,212.54L468.6,203.48L468.88,203.4L469.14,209.81L469.4,212.56L469.67,203.22L469.94,203.48L470.2,209.33L470.47,212.56L470.75,203.42L471,203.4L471.27,209.45L471.81,203.38L472.07,203.67L472.34,208.77L472.6,208.27L472.88,203.55L473.14,203.75L473.4,208.35L473.67,209.45L473.94,203.92L474.2,203.76L474.47,207.67L474.75,209.91L475,204.36L475.27,204.62L475.54,212.54L475.81,212.39L476.07,204.71L476.33,204.93L476.6,212.54L476.87,213.24L477.13,204.87L477.4,205.31L477.67,212.6L477.94,213.97L478.2,205.6L478.47,205.95L478.75,212.83L479,214.55L479.27,206.09L480.07,213.97L480.33,206.36L481.13,213.29L481.4,213.29L482.2,212.58L482.46,212.66L486.74,212.5L487,212.62L510.19,212.52L510.45,204.95L510.99,212.58L511.25,212.56L511.52,204.56L512.32,212.52L512.59,204.27L513.39,212.35L513.67,203.82L514.19,211.44L514.45,205.41L514.73,203.61L515.25,211.44L515.52,205.95L515.79,203.38L516.32,211.19L516.59,206.9L516.85,203.19L517.39,210.98L517.67,207.34L517.92,202.94L518.19,210.94L518.73,208.91L518.98,202.72L519.25,210.74L519.79,208.67L520.05,202.49L520.32,210.44L520.85,208.17L521.12,202.74L521.38,212.54L521.92,208.31L522.18,202.74L522.45,212.48L522.98,207.61L523.25,202.68L523.79,212.56L524.05,207.65L524.32,202.51L524.85,212.72L525.11,207.59L525.38,212.6L525.92,212.54L526.18,207.86L526.45,212.58L526.98,212.54L527.25,207.61L528.05,212.54L528.32,207.61L529.11,212.5L529.38,212.62L532.05,212.33L532.31,212.56L534.72,212.6L534.98,212.66L537.38,212.5L537.66,212.52L540.04,212.21L540.31,212.42L540.59,212.66L540.84,217.97L545.91,218.26L546.17,217.93L548.31,218.18L548.59,218.09L550.44,218.01L550.71,218.13L553.64,218.13L553.9,218.26L554.97,218.24L555.24,218.15L564.83,218.26L565.1,218.11L568.57,218.11L568.83,218.09L573.9,218.18L574.16,218.07L579.76,218.2L580.03,218.09L582.7,218.07L582.96,218.07L585.09,217.97L585.36,218.13L586.96,217.93L587.24,217.97L597.89,217.88L598.16,218.17L601.89,217.99L602.16,218.09L603.75,217.97L604.03,218.15L611.22,218.17L611.48,217.97L614.15,218.34L614.41,218.07L624.28,218.03L624.54,218.11L626.95,218.17L627.21,218.18L629.61,217.93L629.88,218.13L631.47,218.01L631.74,218.13L660,218.18" style="vector-effect: none; fill: none; stroke: rgb(0, 128, 0); stroke-opacity: 1; stroke-width: 2px; opacity: 1;"/></g><g class="points"/><g class="text"/></g><g class="trace scatter trace9588e7" style="stroke-miterlimit: 2; opacity: 1;"><g class="fills"/><g class="errorbars"/><g class="lines"><path class="js-line" d="M0,111.3L660,111.3" style="vector-effect: none; fill: none; stroke: rgb(255, 0, 0); stroke-opacity: 1; stroke-dasharray: 9px, 9px; stroke-width: 2px; opacity: 1;"/></g><g class="points"/><g class="text"/></g><g class="trace scatter trace6300ae" style="stroke-miterlimit: 2; opacity: 1;"><g class="fills"/><g class="errorbars"/><g class="lines"><path class="js-line" d="M0,213.08L660,213.08" style="vector-effect: none; fill: none; stroke: rgb(255, 165, 0); stroke-opacity: 1; stroke-dasharray: 9px, 9px; stroke-width: 2px; opacity: 1;"/></g><g class="points"/><g class="text"/></g><g class="trace scatter trace1a5b8d" style="stroke-miterlimit: 2; opacity: 1;"><g class="fills"/><g class="errorbars"/><g class="lines"><path class="js-line" d="M0,0L660,0" style="vector-effect: none; fill: none; stroke: rgb(128, 0, 128); stroke-opacity: 1; stroke-dasharray: 3px, 3px; stroke-width: 2px; opacity: 1;"/></g><g class="points"/><g class="text"/></g></g></g><g class="overplot"/><path class="xlines-above crisp" d="M0,0" style="fill: none;"/><path class="ylines-above crisp" d="M0,0" style="fill: none;"/><g class="overlines-above"/><g class="xaxislayer-above"><g class="xtick"><text text-anchor="middle" x="0" y="473" transform="translate(79.98,0)" style="font-family: 'Open Sans', verdana, arial, sans-serif; font-size: 12px; fill: rgb(42, 63, 95); fill-opacity: 1; white-space: pre; opacity: 1;">0</text></g><g class="xtick"><text text-anchor="middle" x="0" y="473" style="font-family: 'Open Sans', verdana, arial, sans-serif; font-size: 12px; fill: rgb(42, 63, 95); fill-opacity: 1; white-space: pre; opacity: 1;" transform="translate(213.14,0)">500</text></g><g class="xtick"><text text-anchor="middle" x="0" y="473" style="font-family: 'Open Sans', verdana, arial, sans-serif; font-size: 12px; fill: rgb(42, 63, 95); fill-opacity: 1; white-space: pre; opacity: 1;" transform="translate(346.3,0)">1000</text></g><g class="xtick"><text text-anchor="middle" x="0" y="473" style="font-family: 'Open Sans', verdana, arial, sans-serif; font-size: 12px; fill: rgb(42, 63, 95); fill-opacity: 1; white-space: pre; opacity: 1;" transform="translate(479.46,0)">1500</text></g><g class="xtick"><text text-anchor="middle" x="0" y="473" style="font-family: 'Open Sans', verdana, arial, sans-serif; font-size: 12px; fill: rgb(42, 63, 95); fill-opacity: 1; white-space: pre; opacity: 1;" transform="translate(612.62,0)">2000</text></g></g><g class="yaxislayer-above"><g class="ytick"><text text-anchor="end" x="79" y="4.199999999999999" transform="translate(0,460)" style="font-family: 'Open Sans', verdana, arial, sans-serif; font-size: 12px; fill: rgb(42, 63, 95); fill-opacity: 1; white-space: pre; opacity: 1;">0</text></g><g class="ytick"><text text-anchor="end" x="79" y="4.199999999999999" style="font-family: 'Open Sans', verdana, arial, sans-serif; font-size: 12px; fill: rgb(42, 63, 95); fill-opacity: 1; white-space: pre; opacity: 1;" transform="translate(0,417.78)">10</text></g><g class="ytick"><text text-anchor="end" x="79" y="4.199999999999999" style="font-family: 'Open Sans', verdana, arial, sans-serif; font-size: 12px; fill: rgb(42, 63, 95); fill-opacity: 1; white-space: pre; opacity: 1;" transform="translate(0,375.56)">20</text></g><g class="ytick"><text text-anchor="end" x="79" y="4.199999999999999" style="font-family: 'Open Sans', verdana, arial, sans-serif; font-size: 12px; fill: rgb(42, 63, 95); fill-opacity: 1; white-space: pre; opacity: 1;" transform="translate(0,333.33000000000004)">30</text></g><g class="ytick"><text text-anchor="end" x="79" y="4.199999999999999" style="font-family: 'Open Sans', verdana, arial, sans-serif; font-size: 12px; fill: rgb(42, 63, 95); fill-opacity: 1; white-space: pre; opacity: 1;" transform="translate(0,291.11)">40</text></g><g class="ytick"><text text-anchor="end" x="79" y="4.199999999999999" style="font-family: 'Open Sans', verdana, arial, sans-serif; font-size: 12px; fill: rgb(42, 63, 95); fill-opacity: 1; white-space: pre; opacity: 1;" transform="translate(0,248.89)">50</text></g><g class="ytick"><text text-anchor="end" x="79" y="4.199999999999999" style="font-family: 'Open Sans', verdana, arial, sans-serif; font-size: 12px; fill: rgb(42, 63, 95); fill-opacity: 1; white-space: pre; opacity: 1;" transform="translate(0,206.67000000000002)">60</text></g><g class="ytick"><text text-anchor="end" x="79" y="4.199999999999999" style="font-family: 'Open Sans', verdana, arial, sans-serif; font-size: 12px; fill: rgb(42, 63, 95); fill-opacity: 1; white-space: pre; opacity: 1;" transform="translate(0,164.44)">70</text></g><g class="ytick"><text text-anchor="end" x="79" y="4.199999999999999" style="font-family: 'Open Sans', verdana, arial, sans-serif; font-size: 12px; fill: rgb(42, 63, 95); fill-opacity: 1; white-space: pre; opacity: 1;" transform="translate(0,122.22)">80</text></g><g class="ytick"><text text-anchor="end" x="79" y="4.199999999999999" style="font-family: 'Open Sans', verdana, arial, sans-serif; font-size: 12px; fill: rgb(42, 63, 95); fill-opacity: 1; white-space: pre; opacity: 1;" transform="translate(0,80)">90</text></g></g><g class="overaxes-above"/></g></g><g class="polarlayer"/><g class="smithlayer"/><g class="ternarylayer"/><g class="geolayer"/><g class="funnelarealayer"/><g class="pielayer"/><g class="iciclelayer"/><g class="treemaplayer"/><g class="sunburstlayer"/><g class="glimages"/><defs id="topdefs-e521cf"><g class="clips"/><clipPath id="legende521cf"><rect width="186" height="105" x="0" y="0"/></clipPath></defs><g class="layer-above"><g class="imagelayer"/><g class="shapelayer"/></g><g class="infolayer"><g class="legend" pointer-events="all" transform="translate(753.2,346)"><rect class="bg" shape-rendering="crispEdges" style="stroke: rgb(68, 68, 68); stroke-opacity: 1; fill: rgb(255, 255, 255); fill-opacity: 1; stroke-width: 0px;" width="186" height="105" x="0" y="0"/><g class="scrollbox" transform="" clip-path="url(#legende521cf)"><g class="groups"><g class="traces" transform="translate(0,14.5)" style="opacity: 1;"><text class="legendtext" text-anchor="start" x="40" y="4.680000000000001" style="font-family: 'Open Sans', verdana, arial, sans-serif; font-size: 12px; fill: rgb(42, 63, 95); fill-opacity: 1; white-space: pre;">Total Input Power</text><g class="layers" style="opacity: 1;"><g class="legendfill"/><g class="legendlines"><path class="js-line" d="M5,0h30" style="fill: none; stroke: rgb(0, 0, 255); stroke-opacity: 1; stroke-width: 2px;"/></g><g class="legendsymbols"><g class="legendpoints"/></g></g><rect class="legendtoggle" x="0" y="-9.5" width="180.171875" height="19" style="fill: rgb(0, 0, 0); fill-opacity: 0;"/></g><g class="traces" transform="translate(0,33.5)" style="opacity: 1;"><text class="legendtext" text-anchor="start" x="40" y="4.680000000000001" style="font-family: 'Open Sans', verdana, arial, sans-serif; font-size: 12px; fill: rgb(42, 63, 95); fill-opacity: 1; white-space: pre;">Total FPGA Power</text><g class="layers" style="opacity: 1;"><g class="legendfill"/><g class="legendlines"><path class="js-line" d="M5,0h30" style="fill: none; stroke: rgb(0, 128, 0); stroke-opacity: 1; stroke-width: 2px;"/></g><g class="legendsymbols"><g class="legendpoints"/></g></g><rect class="legendtoggle" x="0" y="-9.5" width="180.171875" height="19" style="fill: rgb(0, 0, 0); fill-opacity: 0;"/></g><g class="traces" transform="translate(0,52.5)" style="opacity: 1;"><text class="legendtext" text-anchor="start" x="40" y="4.680000000000001" style="font-family: 'Open Sans', verdana, arial, sans-serif; font-size: 12px; fill: rgb(42, 63, 95); fill-opacity: 1; white-space: pre;">Mean Total Input Power</text><g class="layers" style="opacity: 1;"><g class="legendfill"/><g class="legendlines"><path class="js-line" d="M5,0h30" style="fill: none; stroke: rgb(255, 0, 0); stroke-opacity: 1; stroke-dasharray: 9px, 9px; stroke-width: 2px;"/></g><g class="legendsymbols"><g class="legendpoints"/></g></g><rect class="legendtoggle" x="0" y="-9.5" width="180.171875" height="19" style="fill: rgb(0, 0, 0); fill-opacity: 0;"/></g><g class="traces" transform="translate(0,71.5)" style="opacity: 1;"><text class="legendtext" text-anchor="start" x="40" y="4.680000000000001" style="font-family: 'Open Sans', verdana, arial, sans-serif; font-size: 12px; fill: rgb(42, 63, 95); fill-opacity: 1; white-space: pre;">Mean Total FPGA Power</text><g class="layers" style="opacity: 1;"><g class="legendfill"/><g class="legendlines"><path class="js-line" d="M5,0h30" style="fill: none; stroke: rgb(255, 165, 0); stroke-opacity: 1; stroke-dasharray: 9px, 9px; stroke-width: 2px;"/></g><g class="legendsymbols"><g class="legendpoints"/></g></g><rect class="legendtoggle" x="0" y="-9.5" width="180.171875" height="19" style="fill: rgb(0, 0, 0); fill-opacity: 0;"/></g><g class="traces" transform="translate(0,90.5)" style="opacity: 1;"><text class="legendtext" text-anchor="start" x="40" y="4.680000000000001" style="font-family: 'Open Sans', verdana, arial, sans-serif; font-size: 12px; fill: rgb(42, 63, 95); fill-opacity: 1; white-space: pre;">TDP Limit (90W)</text><g class="layers" style="opacity: 1;"><g class="legendfill"/><g class="legendlines"><path class="js-line" d="M5,0h30" style="fill: none; stroke: rgb(128, 0, 128); stroke-opacity: 1; stroke-dasharray: 3px, 3px; stroke-width: 2px;"/></g><g class="legendsymbols"><g class="legendpoints"/></g></g><rect class="legendtoggle" x="0" y="-9.5" width="180.171875" height="19" style="fill: rgb(0, 0, 0); fill-opacity: 0;"/></g></g></g><rect class="scrollbar" rx="20" ry="3" width="0" height="0" style="fill: rgb(128, 139, 164); fill-opacity: 1;" x="0" y="0"/></g><g class="g-gtitle"><text class="gtitle" x="48" y="40" text-anchor="start" dy="0em" style="font-family: 'Open Sans', verdana, arial, sans-serif; font-size: 17px; fill: rgb(42, 63, 95); opacity: 1; font-weight: normal; white-space: pre;">FPGA Power Consumption Over Time</text></g><g class="g-xtitle"><text class="xtitle" x="410" y="500.3" text-anchor="middle" style="font-family: 'Open Sans', verdana, arial, sans-serif; font-size: 14px; fill: rgb(42, 63, 95); opacity: 1; font-weight: normal; white-space: pre;">Time (seconds)</text></g><g class="g-ytitle"><text class="ytitle" transform="rotate(-90,39.41875,270)" x="39.41875" y="270" text-anchor="middle" style="font-family: 'Open Sans', verdana, arial, sans-serif; font-size: 14px; fill: rgb(42, 63, 95); opacity: 1; font-weight: normal; white-space: pre;">Power (W)</text></g><g class="annotation" data-index="0" style="opacity: 1;"><g class="annotation-text-g" transform="rotate(0,847.4,191.3)"><g class="cursor-pointer" transform="translate(747,182)"><rect class="bg" x="0.5" y="0.5" width="200" height="17" style="stroke-width: 1px; stroke: rgb(0, 0, 0); stroke-opacity: 0; fill: rgb(0, 0, 0); fill-opacity: 0;"/><text class="annotation-text" text-anchor="start" x="2" y="13" style="font-family: 'Open Sans', verdana, arial, sans-serif; font-size: 12px; fill: rgb(0, 0, 0); fill-opacity: 1; white-space: pre;">Mean Total Input Power: 63.64 W</text></g></g></g><g class="annotation" data-index="1" style="opacity: 1;"><g class="annotation-text-g" transform="rotate(0,846.9,293.08000000000004)"><g class="cursor-pointer" transform="translate(746,284)"><rect class="bg" x="0.5" y="0.5" width="201" height="17" style="stroke-width: 1px; stroke: rgb(0, 0, 0); stroke-opacity: 0; fill: rgb(0, 0, 0); fill-opacity: 0;"/><text class="annotation-text" text-anchor="start" x="2" y="13" style="font-family: 'Open Sans', verdana, arial, sans-serif; font-size: 12px; fill: rgb(0, 0, 0); fill-opacity: 1; white-space: pre;">Mean Total FPGA Power: 39.53 W</text></g></g></g></g></svg>