<svg class="main-svg" xmlns="http://www.w3.org/2000/svg" xmlns:xlink="http://www.w3.org/1999/xlink" width="1920" height="1080" style="" viewBox="0 0 960 540"><rect x="0" y="0" width="960" height="540" style="fill: rgb(255, 255, 255); fill-opacity: 1;"/><defs id="defs-a41fe3"><g class="clips"><clipPath id="clipa41fe3xyplot" class="plotclip"><rect width="660" height="380"/></clipPath><clipPath class="axesclip" id="clipa41fe3x"><rect x="80" y="0" width="660" height="540"/></clipPath><clipPath class="axesclip" id="clipa41fe3y"><rect x="0" y="80" width="960" height="380"/></clipPath><clipPath class="axesclip" id="clipa41fe3xy"><rect x="80" y="80" width="660" height="380"/></clipPath></g><g class="gradients"/><g class="patterns"/></defs><g class="bglayer"><rect class="bg" x="80" y="80" width="660" height="380" style="fill: rgb(229, 236, 246); fill-opacity: 1; stroke-width: 0;"/></g><g class="layer-below"><g class="imagelayer"/><g class="shapelayer"/></g><g class="cartesianlayer"><g class="subplot xy"><g class="layer-subplot"><g class="shapelayer"/><g class="imagelayer"/></g><g class="minor-gridlayer"><g class="x"/><g class="y"/></g><g class="gridlayer"><g class="x"><path class="xgrid crisp" transform="translate(157.13,0)" d="M0,80v380" style="stroke: rgb(255, 255, 255); stroke-opacity: 1; stroke-width: 1px;"/><path class="xgrid crisp" transform="translate(234.34,0)" d="M0,80v380" style="stroke: rgb(255, 255, 255); stroke-opacity: 1; stroke-width: 1px;"/><path class="xgrid crisp" transform="translate(311.56,0)" d="M0,80v380" style="stroke: rgb(255, 255, 255); stroke-opacity: 1; stroke-width: 1px;"/><path class="xgrid crisp" transform="translate(388.78,0)" d="M0,80v380" style="stroke: rgb(255, 255, 255); stroke-opacity: 1; stroke-width: 1px;"/><path class="xgrid crisp" transform="translate(466,0)" d="M0,80v380" style="stroke: rgb(255, 255, 255); stroke-opacity: 1; stroke-width: 1px;"/><path class="xgrid crisp" transform="translate(543.22,0)" d="M0,80v380" style="stroke: rgb(255, 255, 255); stroke-opacity: 1; stroke-width: 1px;"/><path class="xgrid crisp" transform="translate(620.44,0)" d="M0,80v380" style="stroke: rgb(255, 255, 255); stroke-opacity: 1; stroke-width: 1px;"/><path class="xgrid crisp" transform="translate(697.65,0)" d="M0,80v380" style="stroke: rgb(255, 255, 255); stroke-opacity: 1; stroke-width: 1px;"/></g><g class="y"><path class="ygrid crisp" transform="translate(0,417.78)" d="M80,0h660" style="stroke: rgb(255, 255, 255); stroke-opacity: 1; stroke-width: 1px;"/><path class="ygrid crisp" transform="translate(0,375.56)" d="M80,0h660" style="stroke: rgb(255, 255, 255); stroke-opacity: 1; stroke-width: 1px;"/><path class="ygrid crisp" transform="translate(0,333.33000000000004)" d="M80,0h660" style="stroke: rgb(255, 255, 255); stroke-opacity: 1; stroke-width: 1px;"/><path class="ygrid crisp" transform="translate(0,291.11)" d="M80,0h660" style="stroke: rgb(255, 255, 255); stroke-opacity: 1; stroke-width: 1px;"/><path class="ygrid crisp" transform="translate(0,248.89)" d="M80,0h660" style="stroke: rgb(255, 255, 255); stroke-opacity: 1; stroke-width: 1px;"/><path class="ygrid crisp" transform="translate(0,206.67000000000002)" d="M80,0h660" style="stroke: rgb(255, 255, 255); stroke-opacity: 1; stroke-width: 1px;"/><path class="ygrid crisp" transform="translate(0,164.44)" d="M80,0h660" style="stroke: rgb(255, 255, 255); stroke-opacity: 1; stroke-width: 1px;"/><path class="ygrid crisp" transform="translate(0,122.22)" d="M80,0h660" style="stroke: rgb(255, 255, 255); stroke-opacity: 1; stroke-width: 1px;"/></g></g><g class="zerolinelayer"><path class="yzl zl crisp" transform="translate(0,460)" d="M80,0h660" style="stroke: rgb(255, 255, 255); stroke-opacity: 1; stroke-width: 2px;"/></g><path class="xlines-below"/><path class="ylines-below"/><g class="overlines-below"/><g class="xaxislayer-below"/><g class="yaxislayer-below"/><g class="overaxes-below"/><g class="plot" transform="translate(80,80)" clip-path="url(#clipa41fe3xyplot)"><g class="scatterlayer mlayer"><g class="trace scatter trace3bf032" style="stroke-miterlimit: 2; opacity: 1;"><g class="fills"/><g class="errorbars"/><g class="lines"><path class="js-line" d="M0,86.46L4.59,86.33L6.16,87.1L7.68,86.31L9.22,87.1L12.31,86.1L13.85,86.89L15.41,86.5L17.02,87.1L18.5,85.92L20.05,86.31L23.17,86.48L24.68,85.71L26.22,86.42L27.77,85.13L30.87,87.08L32.4,85.15L34.02,87.18L35.5,85.67L37.05,88.38L38.59,87.32L40.18,71.08L41.68,67.72L44.77,62.48L46.35,63.81L47.88,63.7L49.42,65.32L52.51,65.11L54.05,71.77L55.6,64.06L57.2,65.69L58.69,63.25L60.23,66.46L61.79,62.83L63.35,67.91L64.86,61.53L66.41,61.43L71.06,66.75L72.6,62.69L74.22,63.39L75.69,66.85L77.23,65.74L78.78,67.14L80.38,69.9L81.87,64.26L83.43,66.42L84.97,62.19L86.53,70.23L88.06,65.01L89.6,63.04L91.24,59.23L94.24,66.83L95.78,65.98L97.4,66.17L98.89,61.03L103.57,72.88L105.06,64.82L106.61,61.34L108.15,63.33L109.71,66.48L111.26,65.17L112.79,64.49L114.42,62.89L115.87,57.86L117.42,68.66L118.98,64.47L120.58,67.91L122.07,61.26L123.61,59.54L125.16,60.18L126.73,62.84L128.24,67.91L129.79,62.44L131.33,59.6L132.89,60.35L134.44,66.28L135.98,65.69L137.6,67.08L139.07,58.73L140.61,60.72L142.16,66.67L143.76,64.66L145.25,64.66L146.81,59.15L148.35,61.22L149.93,68.22L151.44,67.06L152.98,63.7L154.62,67.74L156.07,58.73L157.62,64.55L159.16,66.5L160.78,66.4L162.27,64.72L163.8,59.04L165.36,67.45L166.95,66.67L168.44,62.54L169.99,63.46L171.53,67.06L173.11,57.82L174.62,66.65L176.17,64.33L179.25,63.19L180.8,57.76L182.34,67.81L183.96,65.13L185.45,64.37L186.99,58.01L188.54,62.38L190.13,57.14L191.62,66.75L193.17,59.44L194.71,65.61L196.29,59.06L197.8,60.93L199.35,66.67L201,66.71L202.45,64.18L204,59.69L205.54,65.63L207.15,58.38L208.64,65.51L210.17,57.68L211.72,55.7L213.31,60.74L214.82,60.06L216.37,67.83L217.91,66.28L219.47,61.8L221,54.36L222.54,65.38L224.18,58.77L225.63,65.18L227.18,51.62L228.74,58.96L230.34,57.71L231.82,58.77L233.35,68.99L234.91,60.51L236.49,60.97L238,63.52L239.55,68.05L241.09,56.43L242.65,62.34L244.2,53.57L245.72,63.21L247.36,61.59L248.81,61.78L250.36,62.61L251.92,53.57L253.52,52.66L255.01,70.4L256.55,64.66L258.09,67.83L259.69,68.24L261.18,52.77L262.73,66.92L264.27,56L265.85,69.71L267.38,65.05L268.92,48.62L270.56,55.5L272.01,62.9L273.55,64.49L276.7,68.7L278.19,54.59L279.73,64.8L281.28,54.42L282.87,70.07L284.38,67.81L285.92,55.21L287.47,66.46L289.03,52.41L290.57,64.6L292.1,68.14L293.74,68.2L295.19,63.41L296.73,53.41L298.29,56.45L299.9,69.38L301.38,67.06L302.93,56.02L304.47,68.45L306.05,52.35L307.56,62.56L309.1,65.13L310.65,58.21L312.21,70.54L313.75,50.75L315.3,66.31L316.92,58.54L318.39,62.94L319.93,68.05L321.48,51.96L323.08,54.17L324.56,65.72L326.11,67.69L327.65,65.05L329.24,67.75L330.74,52.02L332.3,60.72L333.83,53.14L335.41,64.22L336.93,66.17L338.48,46.65L340.12,53.82L341.57,56.76L343.11,61.97L346.26,69.32L347.74,51.52L349.29,64.7L350.83,61.76L352.42,62.34L353.94,65.28L355.48,54.56L357.03,63.16L358.59,53.7L360.13,64.84L361.66,65.07L363.3,67.78L364.75,53.37L366.29,57.84L367.85,65.45L369.46,65.84L370.94,72.34L372.49,53.86L374.03,66.98L375.61,44.54L377.12,65.72L378.66,69.71L381.77,63.54L383.31,48.48L384.86,65.07L386.48,66.61L387.94,69.05L389.49,55.98L391.03,53.43L392.64,46.17L394.12,68.14L395.67,63.44L397.23,61.9L398.8,67.14L400.3,46.17L401.86,66.4L403.4,57.86L404.95,66.91L406.49,63.06L408.04,43.79L409.66,52.22L411.14,55.93L412.67,63.43L414.23,65.57L415.82,67.39L417.3,50.49L418.86,57.74L420.41,41.91L421.98,63.16L423.5,66.61L425.04,52.31L426.69,65.82L428.13,44.44L429.67,63.16L431.22,66.61L432.84,66.01L434.32,57.59L435.87,54.19L437.41,66.27L439,64.26L440.5,46.82L442.04,46.17L443.59,65.67L445.16,40.93L446.68,65.11L448.24,48.21L449.87,63.7L451.31,59.39L452.87,48.27L454.41,62.38L456.02,65.9L457.5,58.88L459.05,59.21L460.59,48.52L462.18,44.12L463.7,65.01L465.24,59.75L466.77,64.49L468.34,42.43L469.87,43.65L471.42,69.82L473.05,49.57L474.51,65.41L476.05,45.74L477.6,48.5L479.2,39L480.68,65.82L482.23,40.89L483.77,65.11L485.36,63.17L486.88,67.83L488.42,47.23L489.97,54.84L491.53,57.4L493.05,64.87L494.6,55.13L496.24,62.77L497.69,49.01L499.23,63.58L500.79,40.27L502.4,43.79L503.88,40.27L505.41,67.42L506.95,60.47L508.54,59.99L510.06,54.11L511.6,62.63L513.15,64.35L514.71,65.55L516.25,41.55L517.78,66.27L519.42,67.78L520.87,52.58L522.41,45.1L523.97,69.63L525.58,53.39L527.06,65.01L528.61,45.57L530.15,38.08L531.74,39.38L533.24,67.52L534.78,38.14L536.33,46.61L537.89,64.76L539.43,65.77L540.98,55.94L542.6,62.29L544.06,37.53L545.61,68.08L547.15,68.14L548.76,88.11L550.24,90.37L551.79,92.36L553.33,88.19L554.92,90.97L556.42,90.14L557.96,93.29L559.52,91.2L561.08,91.22L562.61,90.04L565.79,88.65L567.25,87.12L570.33,94.45L571.94,84.96L573.42,89.29L574.97,90.06L576.53,91.37L578.1,85.19L579.62,92.11L581.16,90.95L584.26,90.81L585.79,92.34L587.34,90.41L588.96,90.56L590.44,89.34L591.99,90.97L593.53,87.88L595.12,92.36L596.62,92.36L598.16,88.11L599.71,95.22L601.28,90.17L602.8,94.45L604.36,91.37L605.98,87.33L607.43,94.31L608.97,90.04L610.53,90.49L612.14,93.69L613.62,87.89L615.17,86.73L616.71,94.06L621.34,92.36L622.89,93.27L624.45,90.2L625.99,93.29L627.54,89.44L629.16,89.67L630.63,95.08L632.17,93.92L633.71,85.4L635.31,89.03L639.89,91.22L641.47,90.81L644.54,90.83L646.18,92.13L647.63,91.36L649.17,91.8L650.72,88.61L652.32,93.52L655.35,91.2L656.91,90.97L660,92.96" style="vector-effect: none; fill: none; stroke: rgb(0, 0, 255); stroke-opacity: 1; stroke-width: 2px; opacity: 1;"/></g><g class="points"/><g class="text"/></g><g class="trace scatter trace1d1ad2" style="stroke-miterlimit: 2; opacity: 1;"><g class="fills"/><g class="errorbars"/><g class="lines"><path class="js-line" d="M0,179.37L18.5,179.3L20.05,179.6L26.22,179.28L27.77,179.24L38.59,179.49L40.18,175.28L44.77,172.38L46.35,172.63L49.42,172.63L51.04,169.23L52.51,175.94L54.05,169.75L55.6,172.2L57.2,172.14L61.79,172.22L63.35,173.75L64.86,170.4L66.41,173.73L67.97,173.54L69.51,170.64L71.06,173.87L72.6,169.94L74.22,172.71L75.69,172.59L77.23,172.11L78.78,173.73L81.87,169.94L83.43,174.33L84.97,169.71L86.53,173.77L88.06,172.3L89.6,172.36L92.69,172.2L94.24,172.38L95.78,175.66L97.4,166.08L98.89,176.07L100.41,172.8L105.06,171.95L106.61,172.01L108.15,172.4L109.71,171.95L111.26,173.77L112.79,168.36L114.42,173.9L115.87,168.92L117.42,171.08L118.98,171.76L122.07,172.36L123.61,172.49L125.16,165.94L126.73,174.15L128.24,166.89L129.79,164.47L131.33,171.64L132.89,170.33L134.44,172.11L135.98,171.72L140.61,171.84L142.16,174.52L143.76,174.37L145.25,162.15L146.81,175.04L148.35,171.51L149.93,172.4L151.44,171.82L154.62,172.19L156.07,171L157.62,171.7L159.16,174.06L162.27,167.02L163.8,171.62L166.95,171.37L168.44,171.95L169.99,172.14L171.53,171.33L173.11,169.69L174.62,171.93L176.17,171.04L177.8,161.86L179.25,170.85L180.8,166.56L182.34,172.24L183.96,171.49L186.99,171.47L188.54,168.28L190.13,172.78L191.62,174.15L193.17,163.66L194.71,170.29L196.29,166.79L197.8,169.9L199.35,171.51L201,171.76L204,171.74L205.54,160.82L207.15,173.94L208.64,173.67L210.17,158.98L211.72,171.54L213.31,167.53L214.82,170.43L216.37,171.74L217.91,171.26L219.47,171.2L221,170.13L224.18,173.71L225.63,158.11L228.74,171.72L230.34,171.95L233.35,171.33L234.91,172.24L236.49,168.18L238,171.35L239.55,174.02L241.09,165.67L242.65,168.76L244.2,166.15L247.36,171.3L248.81,171.66L250.36,171.7L251.92,164.38L253.52,157.4L255.01,173.71L256.55,171.41L258.09,170.85L261.18,171.1L262.73,171.24L264.27,163.43L265.85,172.63L268.92,155.74L270.56,170.77L272.01,168.12L273.55,170.73L276.7,171.53L278.19,168.11L279.73,171.16L281.28,167.62L282.87,165.67L284.38,170.33L285.92,167.18L287.47,171L289.03,168.78L290.57,171.53L292.1,167.14L293.74,159.16L295.19,168.07L296.73,165.65L298.29,171.39L299.9,171.18L301.38,170.93L302.93,168.55L304.47,155.6L306.05,170.73L307.56,165.34L309.1,167.61L310.65,171.51L312.21,171.7L313.75,169.86L315.3,171L316.92,170.54L318.39,165.84L319.93,164.76L321.48,171L324.56,171.03L326.11,171.43L327.65,172.51L329.24,153.79L330.74,154.93L332.3,168.55L335.41,171.06L336.93,170.97L338.48,170.93L340.12,158.91L341.57,172.61L343.11,171.64L344.66,166.35L346.26,170.31L347.74,167.62L349.29,171.1L350.83,165.65L352.42,171.26L355.48,156.68L357.03,164.08L358.59,164.24L360.13,166.1L361.66,170.54L363.3,171.06L364.75,168.92L366.29,171.45L367.85,170.6L369.46,166.02L370.94,159.87L372.49,166.75L374.03,171.47L375.61,171.04L378.66,171.12L380.21,168.42L381.77,155.33L383.31,167.62L384.86,165.01L386.48,171.06L389.49,171.49L391.03,157.18L392.64,151.23L394.12,171L395.67,151.37L397.23,169.21L398.8,171.03L400.3,170.23L403.4,172.41L404.95,170.77L406.49,150.52L408.04,169.89L409.66,168.18L411.14,171.53L412.67,171.04L414.23,172.17L415.82,151.73L417.3,152.27L418.86,167.24L420.41,169.79L421.98,171.3L423.5,171.2L425.04,168.78L426.69,149.82L428.13,168.26L429.67,163.39L431.22,170.77L432.84,170.77L434.32,165.17L435.87,165.65L437.41,170.99L439,170.97L440.5,169.23L442.04,164.49L443.59,150.07L445.16,169.15L446.68,152.08L448.24,160.65L449.87,171.26L451.31,171.04L452.87,166.79L454.41,169.62L456.02,168.11L457.5,152.93L460.59,169.71L462.18,169.4L463.7,171.08L465.24,171.27L466.77,148.25L468.34,151.99L469.87,164.57L471.42,163.87L473.05,170.04L474.51,171L476.05,167.47L477.6,170.04L479.2,169.62L480.68,170.77L482.23,168.26L483.77,168.71L485.36,168.32L486.88,170.95L488.42,165.46L489.97,170.29L493.05,170.33L494.6,164.59L496.24,170.56L497.69,170.54L505.41,170.81L506.95,171.24L508.54,170.35L510.06,170.54L514.71,170.58L516.25,170.23L519.42,171.16L520.87,164.86L522.41,161.9L523.97,147.74L525.58,171.76L527.06,160.26L528.61,159.37L530.15,146.87L531.74,170.72L533.24,156.24L534.78,155.97L536.33,146.27L537.89,170.7L539.43,168.71L540.98,146.6L542.6,161.83L544.06,163.74L545.61,167.82L547.15,153.96L548.76,182.6L553.33,182.76L554.92,182.81L579.62,182.85L581.16,182.72L587.34,182.99L588.96,182.97L601.28,182.91L602.8,183.08L610.53,182.89L612.14,182.95L621.34,182.89L622.89,183.16L632.17,182.87L633.71,182.87L650.72,182.97L652.32,183.01L660,183.12" style="vector-effect: none; fill: none; stroke: rgb(0, 128, 0); stroke-opacity: 1; stroke-width: 2px; opacity: 1;"/></g><g class="points"/><g class="text"/></g><g class="trace scatter trace791206" style="stroke-miterlimit: 2; opacity: 1;"><g class="fills"/><g class="errorbars"/><g class="lines"><path class="js-line" d="M0,67.55L660,67.55" style="vector-effect: none; fill: none; stroke: rgb(255, 0, 0); stroke-opacity: 1; stroke-dasharray: 9px, 9px; stroke-width: 2px; opacity: 1;"/></g><g class="points"/><g class="text"/></g><g class="trace scatter trace0e3c65" style="stroke-miterlimit: 2; opacity: 1;"><g class="fills"/><g class="errorbars"/><g class="lines"><path class="js-line" d="M0,171.61L660,171.61" style="vector-effect: none; fill: none; stroke: rgb(255, 165, 0); stroke-opacity: 1; stroke-dasharray: 9px, 9px; stroke-width: 2px; opacity: 1;"/></g><g class="points"/><g class="text"/></g><g class="trace scatter trace04819c" style="stroke-miterlimit: 2; opacity: 1;"><g class="fills"/><g class="errorbars"/><g class="lines"><path class="js-line" d="M0,0L660,0" style="vector-effect: none; fill: none; stroke: rgb(128, 0, 128); stroke-opacity: 1; stroke-dasharray: 3px, 3px; stroke-width: 2px; opacity: 1;"/></g><g class="points"/><g class="text"/></g></g></g><g class="overplot"/><path class="xlines-above crisp" d="M0,0" style="fill: none;"/><path class="ylines-above crisp" d="M0,0" style="fill: none;"/><g class="overlines-above"/><g class="xaxislayer-above"><g class="xtick"><text text-anchor="middle" x="0" y="473" transform="translate(157.13,0)" style="font-family: 'Open Sans', verdana, arial, sans-serif; font-size: 12px; fill: rgb(42, 63, 95); fill-opacity: 1; white-space: pre; opacity: 1;">50</text></g><g class="xtick"><text text-anchor="middle" x="0" y="473" style="font-family: 'Open Sans', verdana, arial, sans-serif; font-size: 12px; fill: rgb(42, 63, 95); fill-opacity: 1; white-space: pre; opacity: 1;" transform="translate(234.34,0)">100</text></g><g class="xtick"><text text-anchor="middle" x="0" y="473" style="font-family: 'Open Sans', verdana, arial, sans-serif; font-size: 12px; fill: rgb(42, 63, 95); fill-opacity: 1; white-space: pre; opacity: 1;" transform="translate(311.56,0)">150</text></g><g class="xtick"><text text-anchor="middle" x="0" y="473" style="font-family: 'Open Sans', verdana, arial, sans-serif; font-size: 12px; fill: rgb(42, 63, 95); fill-opacity: 1; white-space: pre; opacity: 1;" transform="translate(388.78,0)">200</text></g><g class="xtick"><text text-anchor="middle" x="0" y="473" style="font-family: 'Open Sans', verdana, arial, sans-serif; font-size: 12px; fill: rgb(42, 63, 95); fill-opacity: 1; white-space: pre; opacity: 1;" transform="translate(466,0)">250</text></g><g class="xtick"><text text-anchor="middle" x="0" y="473" style="font-family: 'Open Sans', verdana, arial, sans-serif; font-size: 12px; fill: rgb(42, 63, 95); fill-opacity: 1; white-space: pre; opacity: 1;" transform="translate(543.22,0)">300</text></g><g class="xtick"><text text-anchor="middle" x="0" y="473" style="font-family: 'Open Sans', verdana, arial, sans-serif; font-size: 12px; fill: rgb(42, 63, 95); fill-opacity: 1; white-space: pre; opacity: 1;" transform="translate(620.44,0)">350</text></g><g class="xtick"><text text-anchor="middle" x="0" y="473" style="font-family: 'Open Sans', verdana, arial, sans-serif; font-size: 12px; fill: rgb(42, 63, 95); fill-opacity: 1; white-space: pre; opacity: 1;" transform="translate(697.65,0)">400</text></g></g><g class="yaxislayer-above"><g class="ytick"><text text-anchor="end" x="79" y="4.199999999999999" transform="translate(0,460)" style="font-family: 'Open Sans', verdana, arial, sans-serif; font-size: 12px; fill: rgb(42, 63, 95); fill-opacity: 1; white-space: pre; opacity: 1;">0</text></g><g class="ytick"><text text-anchor="end" x="79" y="4.199999999999999" style="font-family: 'Open Sans', verdana, arial, sans-serif; font-size: 12px; fill: rgb(42, 63, 95); fill-opacity: 1; white-space: pre; opacity: 1;" transform="translate(0,417.78)">10</text></g><g class="ytick"><text text-anchor="end" x="79" y="4.199999999999999" style="font-family: 'Open Sans', verdana, arial, sans-serif; font-size: 12px; fill: rgb(42, 63, 95); fill-opacity: 1; white-space: pre; opacity: 1;" transform="translate(0,375.56)">20</text></g><g class="ytick"><text text-anchor="end" x="79" y="4.199999999999999" style="font-family: 'Open Sans', verdana, arial, sans-serif; font-size: 12px; fill: rgb(42, 63, 95); fill-opacity: 1; white-space: pre; opacity: 1;" transform="translate(0,333.33000000000004)">30</text></g><g class="ytick"><text text-anchor="end" x="79" y="4.199999999999999" style="font-family: 'Open Sans', verdana, arial, sans-serif; font-size: 12px; fill: rgb(42, 63, 95); fill-opacity: 1; white-space: pre; opacity: 1;" transform="translate(0,291.11)">40</text></g><g class="ytick"><text text-anchor="end" x="79" y="4.199999999999999" style="font-family: 'Open Sans', verdana, arial, sans-serif; font-size: 12px; fill: rgb(42, 63, 95); fill-opacity: 1; white-space: pre; opacity: 1;" transform="translate(0,248.89)">50</text></g><g class="ytick"><text text-anchor="end" x="79" y="4.199999999999999" style="font-family: 'Open Sans', verdana, arial, sans-serif; font-size: 12px; fill: rgb(42, 63, 95); fill-opacity: 1; white-space: pre; opacity: 1;" transform="translate(0,206.67000000000002)">60</text></g><g class="ytick"><text text-anchor="end" x="79" y="4.199999999999999" style="font-family: 'Open Sans', verdana, arial, sans-serif; font-size: 12px; fill: rgb(42, 63, 95); fill-opacity: 1; white-space: pre; opacity: 1;" transform="translate(0,164.44)">70</text></g><g class="ytick"><text text-anchor="end" x="79" y="4.199999999999999" style="font-family: 'Open Sans', verdana, arial, sans-serif; font-size: 12px; fill: rgb(42, 63, 95); fill-opacity: 1; white-space: pre; opacity: 1;" transform="translate(0,122.22)">80</text></g><g class="ytick"><text text-anchor="end" x="79" y="4.199999999999999" style="font-family: 'Open Sans', verdana, arial, sans-serif; font-size: 12px; fill: rgb(42, 63, 95); fill-opacity: 1; white-space: pre; opacity: 1;" transform="translate(0,80)">90</text></g></g><g class="overaxes-above"/></g></g><g class="polarlayer"/><g class="smithlayer"/><g class="ternarylayer"/><g class="geolayer"/><g class="funnelarealayer"/><g class="pielayer"/><g class="iciclelayer"/><g class="treemaplayer"/><g class="sunburstlayer"/><g class="glimages"/><defs id="topdefs-a41fe3"><g class="clips"/><clipPath id="legenda41fe3"><rect width="186" height="105" x="0" y="0"/></clipPath></defs><g class="layer-above"><g class="imagelayer"/><g class="shapelayer"/></g><g class="infolayer"><g class="legend" pointer-events="all" transform="translate(753.2,346)"><rect class="bg" shape-rendering="crispEdges" style="stroke: rgb(68, 68, 68); stroke-opacity: 1; fill: rgb(255, 255, 255); fill-opacity: 1; stroke-width: 0px;" width="186" height="105" x="0" y="0"/><g class="scrollbox" transform="" clip-path="url(#legenda41fe3)"><g class="groups"><g class="traces" transform="translate(0,14.5)" style="opacity: 1;"><text class="legendtext" text-anchor="start" x="40" y="4.680000000000001" style="font-family: 'Open Sans', verdana, arial, sans-serif; font-size: 12px; fill: rgb(42, 63, 95); fill-opacity: 1; white-space: pre;">Total Input Power</text><g class="layers" style="opacity: 1;"><g class="legendfill"/><g class="legendlines"><path class="js-line" d="M5,0h30" style="fill: none; stroke: rgb(0, 0, 255); stroke-opacity: 1; stroke-width: 2px;"/></g><g class="legendsymbols"><g class="legendpoints"/></g></g><rect class="legendtoggle" x="0" y="-9.5" width="180.171875" height="19" style="fill: rgb(0, 0, 0); fill-opacity: 0;"/></g><g class="traces" transform="translate(0,33.5)" style="opacity: 1;"><text class="legendtext" text-anchor="start" x="40" y="4.680000000000001" style="font-family: 'Open Sans', verdana, arial, sans-serif; font-size: 12px; fill: rgb(42, 63, 95); fill-opacity: 1; white-space: pre;">Total FPGA Power</text><g class="layers" style="opacity: 1;"><g class="legendfill"/><g class="legendlines"><path class="js-line" d="M5,0h30" style="fill: none; stroke: rgb(0, 128, 0); stroke-opacity: 1; stroke-width: 2px;"/></g><g class="legendsymbols"><g class="legendpoints"/></g></g><rect class="legendtoggle" x="0" y="-9.5" width="180.171875" height="19" style="fill: rgb(0, 0, 0); fill-opacity: 0;"/></g><g class="traces" transform="translate(0,52.5)" style="opacity: 1;"><text class="legendtext" text-anchor="start" x="40" y="4.680000000000001" style="font-family: 'Open Sans', verdana, arial, sans-serif; font-size: 12px; fill: rgb(42, 63, 95); fill-opacity: 1; white-space: pre;">Mean Total Input Power</text><g class="layers" style="opacity: 1;"><g class="legendfill"/><g class="legendlines"><path class="js-line" d="M5,0h30" style="fill: none; stroke: rgb(255, 0, 0); stroke-opacity: 1; stroke-dasharray: 9px, 9px; stroke-width: 2px;"/></g><g class="legendsymbols"><g class="legendpoints"/></g></g><rect class="legendtoggle" x="0" y="-9.5" width="180.171875" height="19" style="fill: rgb(0, 0, 0); fill-opacity: 0;"/></g><g class="traces" transform="translate(0,71.5)" style="opacity: 1;"><text class="legendtext" text-anchor="start" x="40" y="4.680000000000001" style="font-family: 'Open Sans', verdana, arial, sans-serif; font-size: 12px; fill: rgb(42, 63, 95); fill-opacity: 1; white-space: pre;">Mean Total FPGA Power</text><g class="layers" style="opacity: 1;"><g class="legendfill"/><g class="legendlines"><path class="js-line" d="M5,0h30" style="fill: none; stroke: rgb(255, 165, 0); stroke-opacity: 1; stroke-dasharray: 9px, 9px; stroke-width: 2px;"/></g><g class="legendsymbols"><g class="legendpoints"/></g></g><rect class="legendtoggle" x="0" y="-9.5" width="180.171875" height="19" style="fill: rgb(0, 0, 0); fill-opacity: 0;"/></g><g class="traces" transform="translate(0,90.5)" style="opacity: 1;"><text class="legendtext" text-anchor="start" x="40" y="4.680000000000001" style="font-family: 'Open Sans', verdana, arial, sans-serif; font-size: 12px; fill: rgb(42, 63, 95); fill-opacity: 1; white-space: pre;">TDP Limit (90W)</text><g class="layers" style="opacity: 1;"><g class="legendfill"/><g class="legendlines"><path class="js-line" d="M5,0h30" style="fill: none; stroke: rgb(128, 0, 128); stroke-opacity: 1; stroke-dasharray: 3px, 3px; stroke-width: 2px;"/></g><g class="legendsymbols"><g class="legendpoints"/></g></g><rect class="legendtoggle" x="0" y="-9.5" width="180.171875" height="19" style="fill: rgb(0, 0, 0); fill-opacity: 0;"/></g></g></g><rect class="scrollbar" rx="20" ry="3" width="0" height="0" style="fill: rgb(128, 139, 164); fill-opacity: 1;" x="0" y="0"/></g><g class="g-gtitle"><text class="gtitle" x="48" y="40" text-anchor="start" dy="0em" style="font-family: 'Open Sans', verdana, arial, sans-serif; font-size: 17px; fill: rgb(42, 63, 95); opacity: 1; font-weight: normal; white-space: pre;">FPGA Power Consumption Over Time</text></g><g class="g-xtitle"><text class="xtitle" x="410" y="500.3" text-anchor="middle" style="font-family: 'Open Sans', verdana, arial, sans-serif; font-size: 14px; fill: rgb(42, 63, 95); opacity: 1; font-weight: normal; white-space: pre;">Time (seconds)</text></g><g class="g-ytitle"><text class="ytitle" transform="rotate(-90,39.41875,270)" x="39.41875" y="270" text-anchor="middle" style="font-family: 'Open Sans', verdana, arial, sans-serif; font-size: 14px; fill: rgb(42, 63, 95); opacity: 1; font-weight: normal; white-space: pre;">Power (W)</text></g><g class="annotation" data-index="0" style="opacity: 1;"><g class="annotation-text-g" transform="rotate(0,847.4,147.55)"><g class="cursor-pointer" transform="translate(747,139)"><rect class="bg" x="0.5" y="0.5" width="200" height="17" style="stroke-width: 1px; stroke: rgb(0, 0, 0); stroke-opacity: 0; fill: rgb(0, 0, 0); fill-opacity: 0;"/><text class="annotation-text" text-anchor="start" x="2" y="13" style="font-family: 'Open Sans', verdana, arial, sans-serif; font-size: 12px; fill: rgb(0, 0, 0); fill-opacity: 1; white-space: pre;">Mean Total Input Power: 74.00 W</text></g></g></g><g class="annotation" data-index="1" style="opacity: 1;"><g class="annotation-text-g" transform="rotate(0,846.9,251.61)"><g class="cursor-pointer" transform="translate(746,243)"><rect class="bg" x="0.5" y="0.5" width="201" height="17" style="stroke-width: 1px; stroke: rgb(0, 0, 0); stroke-opacity: 0; fill: rgb(0, 0, 0); fill-opacity: 0;"/><text class="annotation-text" text-anchor="start" x="2" y="13" style="font-family: 'Open Sans', verdana, arial, sans-serif; font-size: 12px; fill: rgb(0, 0, 0); fill-opacity: 1; white-space: pre;">Mean Total FPGA Power: 49.35 W</text></g></g></g></g></svg>