<svg class="main-svg" xmlns="http://www.w3.org/2000/svg" xmlns:xlink="http://www.w3.org/1999/xlink" width="1920" height="1080" style="" viewBox="0 0 960 540"><rect x="0" y="0" width="960" height="540" style="fill: rgb(255, 255, 255); fill-opacity: 1;"/><defs id="defs-bd73c6"><g class="clips"><clipPath id="clipbd73c6xyplot" class="plotclip"><rect width="660" height="380"/></clipPath><clipPath class="axesclip" id="clipbd73c6x"><rect x="80" y="0" width="660" height="540"/></clipPath><clipPath class="axesclip" id="clipbd73c6y"><rect x="0" y="80" width="960" height="380"/></clipPath><clipPath class="axesclip" id="clipbd73c6xy"><rect x="80" y="80" width="660" height="380"/></clipPath></g><g class="gradients"/><g class="patterns"/></defs><g class="bglayer"><rect class="bg" x="80" y="80" width="660" height="380" style="fill: rgb(229, 236, 246); fill-opacity: 1; stroke-width: 0;"/></g><g class="layer-below"><g class="imagelayer"/><g class="shapelayer"/></g><g class="cartesianlayer"><g class="subplot xy"><g class="layer-subplot"><g class="shapelayer"/><g class="imagelayer"/></g><g class="minor-gridlayer"><g class="x"/><g class="y"/></g><g class="gridlayer"><g class="x"><path class="xgrid crisp" transform="translate(160.18,0)" d="M0,80v380" style="stroke: rgb(255, 255, 255); stroke-opacity: 1; stroke-width: 1px;"/><path class="xgrid crisp" transform="translate(240.39,0)" d="M0,80v380" style="stroke: rgb(255, 255, 255); stroke-opacity: 1; stroke-width: 1px;"/><path class="xgrid crisp" transform="translate(320.6,0)" d="M0,80v380" style="stroke: rgb(255, 255, 255); stroke-opacity: 1; stroke-width: 1px;"/><path class="xgrid crisp" transform="translate(400.82,0)" d="M0,80v380" style="stroke: rgb(255, 255, 255); stroke-opacity: 1; stroke-width: 1px;"/><path class="xgrid crisp" transform="translate(481.03,0)" d="M0,80v380" style="stroke: rgb(255, 255, 255); stroke-opacity: 1; stroke-width: 1px;"/><path class="xgrid crisp" transform="translate(561.24,0)" d="M0,80v380" style="stroke: rgb(255, 255, 255); stroke-opacity: 1; stroke-width: 1px;"/><path class="xgrid crisp" transform="translate(641.45,0)" d="M0,80v380" style="stroke: rgb(255, 255, 255); stroke-opacity: 1; stroke-width: 1px;"/><path class="xgrid crisp" transform="translate(721.66,0)" d="M0,80v380" style="stroke: rgb(255, 255, 255); stroke-opacity: 1; stroke-width: 1px;"/></g><g class="y"><path class="ygrid crisp" transform="translate(0,417.78)" d="M80,0h660" style="stroke: rgb(255, 255, 255); stroke-opacity: 1; stroke-width: 1px;"/><path class="ygrid crisp" transform="translate(0,375.56)" d="M80,0h660" style="stroke: rgb(255, 255, 255); stroke-opacity: 1; stroke-width: 1px;"/><path class="ygrid crisp" transform="translate(0,333.33000000000004)" d="M80,0h660" style="stroke: rgb(255, 255, 255); stroke-opacity: 1; stroke-width: 1px;"/><path class="ygrid crisp" transform="translate(0,291.11)" d="M80,0h660" style="stroke: rgb(255, 255, 255); stroke-opacity: 1; stroke-width: 1px;"/><path class="ygrid crisp" transform="translate(0,248.89)" d="M80,0h660" style="stroke: rgb(255, 255, 255); stroke-opacity: 1; stroke-width: 1px;"/><path class="ygrid crisp" transform="translate(0,206.67000000000002)" d="M80,0h660" style="stroke: rgb(255, 255, 255); stroke-opacity: 1; stroke-width: 1px;"/><path class="ygrid crisp" transform="translate(0,164.44)" d="M80,0h660" style="stroke: rgb(255, 255, 255); stroke-opacity: 1; stroke-width: 1px;"/><path class="ygrid crisp" transform="translate(0,122.22)" d="M80,0h660" style="stroke: rgb(255, 255, 255); stroke-opacity: 1; stroke-width: 1px;"/></g></g><g class="zerolinelayer"><path class="yzl zl crisp" transform="translate(0,460)" d="M80,0h660" style="stroke: rgb(255, 255, 255); stroke-opacity: 1; stroke-width: 2px;"/></g><path class="xlines-below"/><path class="ylines-below"/><g class="overlines-below"/><g class="xaxislayer-below"/><g class="yaxislayer-below"/><g class="overaxes-below"/><g class="plot" transform="translate(80,80)" clip-path="url(#clipbd73c6xyplot)"><g class="scatterlayer mlayer"><g class="trace scatter traced0284e" style="stroke-miterlimit: 2; opacity: 1;"><g class="fills"/><g class="errorbars"/><g class="lines"><path class="js-line" d="M0,88.46L1.7,92.18L3.22,89.87L4.83,85.98L6.43,86.78L8.09,89.57L9.66,87.33L11.26,84.99L12.85,86.69L14.49,90.56L16.07,82.93L17.68,65.3L19.36,66.61L20.89,64.41L22.49,69.15L24.1,64.26L25.76,66.75L27.3,69.67L28.91,66.28L30.53,64.93L32.16,65.55L35.33,65.09L36.95,62.52L38.55,64.99L40.15,68.97L41.76,61.78L43.44,66.07L44.97,63.44L46.57,63.79L48.18,62.83L49.83,65.5L51.4,59.33L53,64.03L54.61,65.5L56.23,63.91L57.82,71.17L59.42,59.96L62.63,65.72L64.23,61.8L65.84,62.57L67.51,67.39L69.05,64.99L70.67,66.23L72.27,63.19L73.91,65.44L77.08,64.04L78.69,67.64L80.29,63.44L81.9,67.93L83.5,65.05L85.19,65.78L86.73,64.39L88.33,65.57L89.93,63.1L91.59,65.63L93.14,63L94.75,64.87L97.99,65.9L99.58,57.2L102.86,64.82L104.37,65.84L105.99,61.7L107.6,61.45L109.26,66.92L110.8,65.69L112.41,67.68L114.01,64.22L115.67,63.25L117.22,63.44L118.83,65.61L120.43,66.05L122.07,65.01L123.65,65.59L125.26,63.98L126.94,60.97L128.47,65.28L130.07,64.6L131.68,68.18L133.34,63.97L134.88,66.92L136.49,64.37L138.11,65.28L139.75,64.9L141.32,63.37L142.92,65.01L144.53,69.36L146.13,61.99L149.34,66.04L151.02,62.92L152.56,65.63L154.17,63.02L155.77,65.74L157.42,64.6L158.98,61.15L160.58,66L162.19,63.27L163.82,63.44L167,61.22L168.61,64.39L171.81,64.22L173.42,64.95L175.1,63.73L176.64,64.37L178.25,61.59L179.85,63.43L181.5,65.3L183.06,64.58L184.68,64.08L186.27,64.63L187.89,62.57L189.48,66L191.1,64.3L192.8,64.72L194.31,66.04L195.91,63L197.51,64.1L199.18,66.94L200.72,62.77L202.33,63.39L205.58,63.19L207.16,66.58L208.76,60.56L210.35,63.13L211.98,64.24L213.57,58.55L215.18,64.3L216.88,62.75L218.39,62.34L219.99,62.86L223.28,63.52L224.82,62.25L226.41,64.99L228.01,64.66L229.66,63.73L231.24,64.37L232.84,63.06L234.44,63.48L237.67,64.57L239.26,61.59L242.46,62.48L244.07,62.94L245.69,63.12L247.34,66.19L248.88,59.44L250.49,63.79L252.09,63.1L253.74,61.47L256.92,64.9L258.52,61.74L260.14,64.22L261.73,61.4L265.04,62.92L266.54,64.63L268.16,66.67L269.77,60.6L271.42,63.37L272.98,63.04L277.82,64.26L279.39,60.97L281,59.91L282.72,59.83L284.21,69.15L285.81,61.59L287.42,65.03L289.1,61.24L292.24,64.9L293.85,63L295.5,62.15L297.06,63.27L298.66,62.32L300.27,64.24L301.9,65.41L303.47,60.23L306.7,64.27L308.3,63.58L309.91,65.28L311.51,62.81L313.2,55.64L314.72,63.41L316.32,59.36L317.93,61.3L319.58,63.91L321.15,63.33L322.76,62.61L324.35,63.68L325.98,61.47L327.57,61.09L329.17,64.14L330.87,62.79L332.38,64.12L333.99,62.17L335.59,62.65L337.26,61.16L338.8,63.52L340.4,62.9L342.01,65.3L343.66,60.78L345.23,62.5L346.84,61.24L348.44,63.06L350.04,62.94L351.65,64.68L353.25,59L354.94,62.23L356.48,62.29L358.07,56.53L359.69,59.77L362.88,64.3L364.5,59.02L367.72,63.87L369.31,62.21L370.93,60.16L372.62,65.03L374.12,57.72L375.73,64.51L379.02,63.29L380.56,59.68L382.16,65.36L383.77,58.82L385.42,63.1L386.97,64.49L388.58,62.36L390.18,63.02L391.8,61.76L393.39,63.27L396.7,60.12L398.2,57.98L399.82,62.11L401.43,58.15L403.1,63.27L404.64,62.67L406.24,62.02L407.85,63.23L409.48,65.72L411.05,58.3L412.66,62.13L414.28,62.67L415.88,63.81L417.49,63.73L419.09,58.26L420.78,59.33L422.3,62.84L423.9,62.54L425.51,61.57L427.18,65.05L428.72,56.25L430.34,64.95L431.93,63.12L433.56,54.69L436.75,63.98L438.36,56.1L439.96,61.34L441.57,59.15L443.17,57.16L444.86,57.16L446.38,61.99L447.98,64.22L449.59,58.69L451.26,59.73L452.81,58.96L454.42,64.43L456.02,61.45L457.64,65.45L459.23,60.31L460.83,61.74L462.53,63.31L464.04,63.41L465.65,55.1L467.27,63.29L470.48,56.85L472.06,61.22L473.68,55.71L475.32,59.27L476.89,61.8L478.5,57.34L481.72,68.78L483.31,56.14L484.91,63.39L486.61,61.7L489.73,57.94L491.35,61.49L493.01,59.27L494.55,64.8L496.16,58.17L497.76,59.62L499.4,63.97L500.97,60.58L502.58,65.8L504.2,63.43L505.8,55.4L507.4,62.79L508.99,63.29L510.69,64.68L512.22,61.92L513.82,64.37L515.43,61.86L517.08,60.83L518.63,69.28L520.25,50.69L521.84,59.73L523.48,58.28L525.05,67.42L526.66,63.87L528.28,56.51L529.88,60.02L531.48,60.12L533.09,58.49L534.76,66.13L536.3,54.94L539.51,67.66L541.16,61.51L542.73,52.49L544.33,64.57L545.92,58.48L547.56,88.76L550.75,88.07L552.45,86.37L557.18,88.3L558.85,88.86L560.39,86.91L561.98,88.84L563.59,87.06L565.24,89.02L566.81,89.38L568.41,88.3L571.64,88.01L573.23,88.82L574.83,88.05L576.53,89.07L578.06,89.02L579.66,87.92L581.26,88.67L582.92,88.46L584.47,88.01L586.08,89.23L589.32,87.92L590.89,89.48L592.51,89.09L594.19,86.1L595.7,90.02L597.31,88.47L598.93,87.29L600.6,89.42L602.14,92.18L603.74,87.47L605.34,88.76L606.98,86.83L608.55,89.98L610.16,88.76L611.78,89.09L613.38,90.58L618.26,87.68L619.8,90.37L621.4,84.18L623.01,88.4L624.66,88.69L626.21,87.14L627.82,89.48L629.42,88.07L631.04,86.93L632.65,89.56L634.25,88.46L635.94,89.07L637.46,87.1L639.06,87.86L640.67,88.69L642.34,88.46L643.88,88.42L645.5,87.24L647.09,88.69L648.72,88.3L651.91,89.03L653.62,87.26L655.12,89.62L656.73,89.23L658.35,87.24L660,88.28" style="vector-effect: none; fill: none; stroke: rgb(0, 0, 255); stroke-opacity: 1; stroke-width: 2px; opacity: 1;"/></g><g class="points"/><g class="text"/></g><g class="trace scatter traceb406ad" style="stroke-miterlimit: 2; opacity: 1;"><g class="fills"/><g class="errorbars"/><g class="lines"><path class="js-line" d="M0,179.28L16.07,179.24L17.68,174.89L19.36,175.55L20.89,173.88L24.1,172.09L25.76,172.36L28.91,172.57L30.53,171.84L32.16,171.72L33.72,172.59L36.95,172.34L38.55,174.21L40.15,172.51L41.76,172.07L53,172.26L54.61,172.86L56.23,173.83L57.82,171.95L62.63,172.63L64.23,172.09L69.05,172.57L70.67,172.11L75.48,172.51L77.08,171.43L78.69,171.82L80.29,173.69L81.9,172.36L83.5,172.53L85.19,171.91L86.73,172.34L88.33,172.34L89.93,171.49L93.14,171.78L94.75,171.1L97.99,173.25L99.58,173.88L101.18,171.87L102.86,172.46L105.99,171.64L107.6,172.36L109.26,172.36L110.8,170.58L112.41,171.66L114.01,171.37L115.67,169.67L117.22,173.75L118.83,174.85L120.43,173.4L122.07,172.3L123.65,172.32L130.07,172.63L131.68,171.66L134.88,168.76L136.49,172.28L138.11,173.88L139.75,172.61L141.32,171.68L142.92,173.42L144.53,171.84L146.13,171.9L147.73,171.6L149.34,172.38L151.02,168.38L152.56,169.5L155.77,173.36L157.42,172.41L167,171.68L168.61,168.11L170.21,172.3L171.81,172.05L173.42,175.28L175.1,172.8L176.64,170.91L178.25,173.65L179.85,171.41L181.5,171.39L184.68,171.82L186.27,171.43L187.89,171.2L189.48,168.65L191.1,167.85L192.8,168.26L194.31,170.35L195.91,174.04L197.51,172.03L199.18,171.62L202.33,171.39L203.93,172.05L205.58,172.01L207.16,169.38L208.76,171.33L210.35,170.62L211.98,168.8L213.57,170.76L215.18,169.67L216.88,173L218.39,172.13L219.99,172.17L221.61,171.6L223.28,172.13L228.01,171.32L229.66,165.77L231.24,165.15L232.84,172.19L234.44,170.27L236.06,173.88L237.67,171.41L239.26,174.04L240.96,171.74L242.46,171.26L245.69,171.9L247.34,167.01L248.88,171.45L250.49,171.12L252.09,167.64L253.74,172.73L255.31,167.84L256.92,167.39L258.52,171.66L260.14,171.87L261.73,171.41L263.34,171.99L265.04,170.76L266.54,172.24L268.16,171.43L269.77,166.11L271.42,165.36L272.98,171.64L274.58,164.94L276.19,173.71L279.39,170.31L281,173.96L282.72,171.49L284.21,171.18L287.42,172.03L289.1,171.24L290.64,171.26L292.24,167.39L293.85,170.31L295.5,168.28L297.06,166.54L298.66,170.58L301.9,172.55L303.47,171.35L306.7,171.86L308.3,171.93L309.91,171.33L311.51,164.95L313.2,171.64L314.72,171.35L316.32,164.05L317.93,174.77L319.58,166.93L321.15,170.31L322.76,174.74L324.35,171.45L329.17,171.97L330.87,171.16L333.99,168.11L335.59,170.08L337.26,168.78L338.8,162.42L342.01,171.87L343.66,172.41L346.84,171.2L348.44,171.24L354.94,171.95L356.48,163.86L358.07,171.16L359.69,167.64L361.34,166.54L362.88,172.38L364.5,166.29L366.1,171.64L370.93,171.53L372.62,171.03L374.12,169.46L375.73,171.68L377.35,169.92L379.02,162.54L380.56,162.75L382.16,170.33L383.77,169.62L385.42,175.1L388.58,170.12L390.18,171.37L395,171.43L396.7,168.03L398.2,171.2L399.82,171.03L401.43,167.33L403.1,165.87L404.64,168.07L406.24,166.31L407.85,172.67L409.48,171.8L411.05,172.38L412.66,171.27L414.28,170.43L415.88,171.7L417.49,170.52L419.09,159.23L420.78,160.24L422.3,170.25L423.9,161.61L425.51,174.79L428.72,169.96L430.34,175.32L431.93,171.24L433.56,171.22L436.75,171.72L438.36,171.06L439.96,171.27L441.57,167.72L443.17,162.83L444.86,168.07L446.38,166.77L447.98,163L449.59,171.68L451.26,169.92L452.81,172.13L454.42,171L456.02,171.76L457.64,171.2L460.83,171.08L462.53,171.78L465.65,163.76L467.27,165.05L468.94,167.58L470.48,161.25L473.68,171.32L475.32,173.27L478.5,171.7L480.1,171.08L483.31,171.72L484.91,171.7L486.61,170.66L488.12,161.2L489.73,171.8L491.35,166.21L493.01,165.52L494.55,169.71L496.16,166.71L497.76,172.36L499.4,171.26L500.97,171.27L502.58,172.86L504.2,169.69L505.8,167.39L507.4,171.04L508.99,170.99L510.69,160.33L512.22,158.31L513.82,171.06L515.43,167.43L517.08,160.51L518.63,164.8L520.25,166.56L521.84,173.19L523.48,171.93L525.05,171.64L526.66,172.61L528.28,171.06L529.88,171.7L531.48,171.74L533.09,169.25L534.76,157.24L536.3,171.3L537.9,170.39L539.51,165.01L542.73,174.62L544.33,165.46L545.92,171.22L547.56,181.13L594.19,181.06L595.7,181.27L660,181.27" style="vector-effect: none; fill: none; stroke: rgb(0, 128, 0); stroke-opacity: 1; stroke-width: 2px; opacity: 1;"/></g><g class="points"/><g class="text"/></g><g class="trace scatter traced1dc92" style="stroke-miterlimit: 2; opacity: 1;"><g class="fills"/><g class="errorbars"/><g class="lines"><path class="js-line" d="M0,67.96L660,67.96" style="vector-effect: none; fill: none; stroke: rgb(255, 0, 0); stroke-opacity: 1; stroke-dasharray: 9px, 9px; stroke-width: 2px; opacity: 1;"/></g><g class="points"/><g class="text"/></g><g class="trace scatter trace56df3c" style="stroke-miterlimit: 2; opacity: 1;"><g class="fills"/><g class="errorbars"/><g class="lines"><path class="js-line" d="M0,172.67L660,172.67" style="vector-effect: none; fill: none; stroke: rgb(255, 165, 0); stroke-opacity: 1; stroke-dasharray: 9px, 9px; stroke-width: 2px; opacity: 1;"/></g><g class="points"/><g class="text"/></g><g class="trace scatter trace844e81" style="stroke-miterlimit: 2; opacity: 1;"><g class="fills"/><g class="errorbars"/><g class="lines"><path class="js-line" d="M0,0L660,0" style="vector-effect: none; fill: none; stroke: rgb(128, 0, 128); stroke-opacity: 1; stroke-dasharray: 3px, 3px; stroke-width: 2px; opacity: 1;"/></g><g class="points"/><g class="text"/></g></g></g><g class="overplot"/><path class="xlines-above crisp" d="M0,0" style="fill: none;"/><path class="ylines-above crisp" d="M0,0" style="fill: none;"/><g class="overlines-above"/><g class="xaxislayer-above"><g class="xtick"><text text-anchor="middle" x="0" y="473" transform="translate(79.97,0)" style="font-family: 'Open Sans', verdana, arial, sans-serif; font-size: 12px; fill: rgb(42, 63, 95); fill-opacity: 1; white-space: pre; opacity: 1;">0</text></g><g class="xtick"><text text-anchor="middle" x="0" y="473" style="font-family: 'Open Sans', verdana, arial, sans-serif; font-size: 12px; fill: rgb(42, 63, 95); fill-opacity: 1; white-space: pre; opacity: 1;" transform="translate(160.18,0)">50</text></g><g class="xtick"><text text-anchor="middle" x="0" y="473" style="font-family: 'Open Sans', verdana, arial, sans-serif; font-size: 12px; fill: rgb(42, 63, 95); fill-opacity: 1; white-space: pre; opacity: 1;" transform="translate(240.39,0)">100</text></g><g class="xtick"><text text-anchor="middle" x="0" y="473" style="font-family: 'Open Sans', verdana, arial, sans-serif; font-size: 12px; fill: rgb(42, 63, 95); fill-opacity: 1; white-space: pre; opacity: 1;" transform="translate(320.6,0)">150</text></g><g class="xtick"><text text-anchor="middle" x="0" y="473" style="font-family: 'Open Sans', verdana, arial, sans-serif; font-size: 12px; fill: rgb(42, 63, 95); fill-opacity: 1; white-space: pre; opacity: 1;" transform="translate(400.82,0)">200</text></g><g class="xtick"><text text-anchor="middle" x="0" y="473" style="font-family: 'Open Sans', verdana, arial, sans-serif; font-size: 12px; fill: rgb(42, 63, 95); fill-opacity: 1; white-space: pre; opacity: 1;" transform="translate(481.03,0)">250</text></g><g class="xtick"><text text-anchor="middle" x="0" y="473" style="font-family: 'Open Sans', verdana, arial, sans-serif; font-size: 12px; fill: rgb(42, 63, 95); fill-opacity: 1; white-space: pre; opacity: 1;" transform="translate(561.24,0)">300</text></g><g class="xtick"><text text-anchor="middle" x="0" y="473" style="font-family: 'Open Sans', verdana, arial, sans-serif; font-size: 12px; fill: rgb(42, 63, 95); fill-opacity: 1; white-space: pre; opacity: 1;" transform="translate(641.45,0)">350</text></g><g class="xtick"><text text-anchor="middle" x="0" y="473" style="font-family: 'Open Sans', verdana, arial, sans-serif; font-size: 12px; fill: rgb(42, 63, 95); fill-opacity: 1; white-space: pre; opacity: 1;" transform="translate(721.66,0)">400</text></g></g><g class="yaxislayer-above"><g class="ytick"><text text-anchor="end" x="79" y="4.199999999999999" transform="translate(0,460)" style="font-family: 'Open Sans', verdana, arial, sans-serif; font-size: 12px; fill: rgb(42, 63, 95); fill-opacity: 1; white-space: pre; opacity: 1;">0</text></g><g class="ytick"><text text-anchor="end" x="79" y="4.199999999999999" style="font-family: 'Open Sans', verdana, arial, sans-serif; font-size: 12px; fill: rgb(42, 63, 95); fill-opacity: 1; white-space: pre; opacity: 1;" transform="translate(0,417.78)">10</text></g><g class="ytick"><text text-anchor="end" x="79" y="4.199999999999999" style="font-family: 'Open Sans', verdana, arial, sans-serif; font-size: 12px; fill: rgb(42, 63, 95); fill-opacity: 1; white-space: pre; opacity: 1;" transform="translate(0,375.56)">20</text></g><g class="ytick"><text text-anchor="end" x="79" y="4.199999999999999" style="font-family: 'Open Sans', verdana, arial, sans-serif; font-size: 12px; fill: rgb(42, 63, 95); fill-opacity: 1; white-space: pre; opacity: 1;" transform="translate(0,333.33000000000004)">30</text></g><g class="ytick"><text text-anchor="end" x="79" y="4.199999999999999" style="font-family: 'Open Sans', verdana, arial, sans-serif; font-size: 12px; fill: rgb(42, 63, 95); fill-opacity: 1; white-space: pre; opacity: 1;" transform="translate(0,291.11)">40</text></g><g class="ytick"><text text-anchor="end" x="79" y="4.199999999999999" style="font-family: 'Open Sans', verdana, arial, sans-serif; font-size: 12px; fill: rgb(42, 63, 95); fill-opacity: 1; white-space: pre; opacity: 1;" transform="translate(0,248.89)">50</text></g><g class="ytick"><text text-anchor="end" x="79" y="4.199999999999999" style="font-family: 'Open Sans', verdana, arial, sans-serif; font-size: 12px; fill: rgb(42, 63, 95); fill-opacity: 1; white-space: pre; opacity: 1;" transform="translate(0,206.67000000000002)">60</text></g><g class="ytick"><text text-anchor="end" x="79" y="4.199999999999999" style="font-family: 'Open Sans', verdana, arial, sans-serif; font-size: 12px; fill: rgb(42, 63, 95); fill-opacity: 1; white-space: pre; opacity: 1;" transform="translate(0,164.44)">70</text></g><g class="ytick"><text text-anchor="end" x="79" y="4.199999999999999" style="font-family: 'Open Sans', verdana, arial, sans-serif; font-size: 12px; fill: rgb(42, 63, 95); fill-opacity: 1; white-space: pre; opacity: 1;" transform="translate(0,122.22)">80</text></g><g class="ytick"><text text-anchor="end" x="79" y="4.199999999999999" style="font-family: 'Open Sans', verdana, arial, sans-serif; font-size: 12px; fill: rgb(42, 63, 95); fill-opacity: 1; white-space: pre; opacity: 1;" transform="translate(0,80)">90</text></g></g><g class="overaxes-above"/></g></g><g class="polarlayer"/><g class="smithlayer"/><g class="ternarylayer"/><g class="geolayer"/><g class="funnelarealayer"/><g class="pielayer"/><g class="iciclelayer"/><g class="treemaplayer"/><g class="sunburstlayer"/><g class="glimages"/><defs id="topdefs-bd73c6"><g class="clips"/><clipPath id="legendbd73c6"><rect width="186" height="105" x="0" y="0"/></clipPath></defs><g class="layer-above"><g class="imagelayer"/><g class="shapelayer"/></g><g class="infolayer"><g class="legend" pointer-events="all" transform="translate(753.2,346)"><rect class="bg" shape-rendering="crispEdges" style="stroke: rgb(68, 68, 68); stroke-opacity: 1; fill: rgb(255, 255, 255); fill-opacity: 1; stroke-width: 0px;" width="186" height="105" x="0" y="0"/><g class="scrollbox" transform="" clip-path="url(#legendbd73c6)"><g class="groups"><g class="traces" transform="translate(0,14.5)" style="opacity: 1;"><text class="legendtext" text-anchor="start" x="40" y="4.680000000000001" style="font-family: 'Open Sans', verdana, arial, sans-serif; font-size: 12px; fill: rgb(42, 63, 95); fill-opacity: 1; white-space: pre;">Total Input Power</text><g class="layers" style="opacity: 1;"><g class="legendfill"/><g class="legendlines"><path class="js-line" d="M5,0h30" style="fill: none; stroke: rgb(0, 0, 255); stroke-opacity: 1; stroke-width: 2px;"/></g><g class="legendsymbols"><g class="legendpoints"/></g></g><rect class="legendtoggle" x="0" y="-9.5" width="180.171875" height="19" style="fill: rgb(0, 0, 0); fill-opacity: 0;"/></g><g class="traces" transform="translate(0,33.5)" style="opacity: 1;"><text class="legendtext" text-anchor="start" x="40" y="4.680000000000001" style="font-family: 'Open Sans', verdana, arial, sans-serif; font-size: 12px; fill: rgb(42, 63, 95); fill-opacity: 1; white-space: pre;">Total FPGA Power</text><g class="layers" style="opacity: 1;"><g class="legendfill"/><g class="legendlines"><path class="js-line" d="M5,0h30" style="fill: none; stroke: rgb(0, 128, 0); stroke-opacity: 1; stroke-width: 2px;"/></g><g class="legendsymbols"><g class="legendpoints"/></g></g><rect class="legendtoggle" x="0" y="-9.5" width="180.171875" height="19" style="fill: rgb(0, 0, 0); fill-opacity: 0;"/></g><g class="traces" transform="translate(0,52.5)" style="opacity: 1;"><text class="legendtext" text-anchor="start" x="40" y="4.680000000000001" style="font-family: 'Open Sans', verdana, arial, sans-serif; font-size: 12px; fill: rgb(42, 63, 95); fill-opacity: 1; white-space: pre;">Mean Total Input Power</text><g class="layers" style="opacity: 1;"><g class="legendfill"/><g class="legendlines"><path class="js-line" d="M5,0h30" style="fill: none; stroke: rgb(255, 0, 0); stroke-opacity: 1; stroke-dasharray: 9px, 9px; stroke-width: 2px;"/></g><g class="legendsymbols"><g class="legendpoints"/></g></g><rect class="legendtoggle" x="0" y="-9.5" width="180.171875" height="19" style="fill: rgb(0, 0, 0); fill-opacity: 0;"/></g><g class="traces" transform="translate(0,71.5)" style="opacity: 1;"><text class="legendtext" text-anchor="start" x="40" y="4.680000000000001" style="font-family: 'Open Sans', verdana, arial, sans-serif; font-size: 12px; fill: rgb(42, 63, 95); fill-opacity: 1; white-space: pre;">Mean Total FPGA Power</text><g class="layers" style="opacity: 1;"><g class="legendfill"/><g class="legendlines"><path class="js-line" d="M5,0h30" style="fill: none; stroke: rgb(255, 165, 0); stroke-opacity: 1; stroke-dasharray: 9px, 9px; stroke-width: 2px;"/></g><g class="legendsymbols"><g class="legendpoints"/></g></g><rect class="legendtoggle" x="0" y="-9.5" width="180.171875" height="19" style="fill: rgb(0, 0, 0); fill-opacity: 0;"/></g><g class="traces" transform="translate(0,90.5)" style="opacity: 1;"><text class="legendtext" text-anchor="start" x="40" y="4.680000000000001" style="font-family: 'Open Sans', verdana, arial, sans-serif; font-size: 12px; fill: rgb(42, 63, 95); fill-opacity: 1; white-space: pre;">TDP Limit (90W)</text><g class="layers" style="opacity: 1;"><g class="legendfill"/><g class="legendlines"><path class="js-line" d="M5,0h30" style="fill: none; stroke: rgb(128, 0, 128); stroke-opacity: 1; stroke-dasharray: 3px, 3px; stroke-width: 2px;"/></g><g class="legendsymbols"><g class="legendpoints"/></g></g><rect class="legendtoggle" x="0" y="-9.5" width="180.171875" height="19" style="fill: rgb(0, 0, 0); fill-opacity: 0;"/></g></g></g><rect class="scrollbar" rx="20" ry="3" width="0" height="0" style="fill: rgb(128, 139, 164); fill-opacity: 1;" x="0" y="0"/></g><g class="g-gtitle"><text class="gtitle" x="48" y="40" text-anchor="start" dy="0em" style="font-family: 'Open Sans', verdana, arial, sans-serif; font-size: 17px; fill: rgb(42, 63, 95); opacity: 1; font-weight: normal; white-space: pre;">FPGA Power Consumption Over Time</text></g><g class="g-xtitle"><text class="xtitle" x="410" y="500.3" text-anchor="middle" style="font-family: 'Open Sans', verdana, arial, sans-serif; font-size: 14px; fill: rgb(42, 63, 95); opacity: 1; font-weight: normal; white-space: pre;">Time (seconds)</text></g><g class="g-ytitle"><text class="ytitle" transform="rotate(-90,39.41875,270)" x="39.41875" y="270" text-anchor="middle" style="font-family: 'Open Sans', verdana, arial, sans-serif; font-size: 14px; fill: rgb(42, 63, 95); opacity: 1; font-weight: normal; white-space: pre;">Power (W)</text></g><g class="annotation" data-index="0" style="opacity: 1;"><g class="annotation-text-g" transform="rotate(0,847.4,147.95999999999998)"><g class="cursor-pointer" transform="translate(747,139)"><rect class="bg" x="0.5" y="0.5" width="200" height="17" style="stroke-width: 1px; stroke: rgb(0, 0, 0); stroke-opacity: 0; fill: rgb(0, 0, 0); fill-opacity: 0;"/><text class="annotation-text" text-anchor="start" x="2" y="13" style="font-family: 'Open Sans', verdana, arial, sans-serif; font-size: 12px; fill: rgb(0, 0, 0); fill-opacity: 1; white-space: pre;">Mean Total Input Power: 73.90 W</text></g></g></g><g class="annotation" data-index="1" style="opacity: 1;"><g class="annotation-text-g" transform="rotate(0,846.9,252.67)"><g class="cursor-pointer" transform="translate(746,244)"><rect class="bg" x="0.5" y="0.5" width="201" height="17" style="stroke-width: 1px; stroke: rgb(0, 0, 0); stroke-opacity: 0; fill: rgb(0, 0, 0); fill-opacity: 0;"/><text class="annotation-text" text-anchor="start" x="2" y="13" style="font-family: 'Open Sans', verdana, arial, sans-serif; font-size: 12px; fill: rgb(0, 0, 0); fill-opacity: 1; white-space: pre;">Mean Total FPGA Power: 49.10 W</text></g></g></g></g></svg>